<svg width="136" height="24" viewBox="0 0 136 24" fill="none" xmlns="http://www.w3.org/2000/svg">
<path d="M48.3891 23.8682C43.5052 23.8682 38.9716 22.4035 35.9454 19.6873C33.6591 17.6352 32.5605 14.8478 32.5605 11.9789C32.5605 9.14488 33.7065 6.33824 35.9451 4.29695C38.7556 1.73559 43.7175 0.131531 48.3891 0.131531C53.559 0.131531 57.6968 1.43373 60.86 4.30399C63.1105 6.34636 64.1986 9.14055 64.1986 11.9791C64.1986 14.7305 63.0439 17.6606 60.86 19.6873C57.9144 22.4211 53.2855 23.8682 48.3891 23.8682V20.7375C50.9814 20.7375 53.386 19.8424 55.0653 18.1715C56.733 16.5119 57.51 14.472 57.51 11.9789C57.51 9.5905 56.6718 7.35753 55.0653 5.77377C53.4084 4.14182 50.9464 3.22352 48.3891 3.22352C45.824 3.22352 43.3604 4.13235 41.7022 5.77377C40.1043 7.35699 39.264 9.59645 39.264 11.9789C39.264 14.354 40.1141 16.5921 41.7022 18.1718C43.3617 19.8227 45.8167 20.7375 48.3891 20.7375V23.8682ZM12.6926 0.142901C10.0801 0.142901 7.11206 0.631565 4.59023 1.75779C2.26278 2.79631 0.357667 4.4759 0.357667 7.26034C0.356584 9.7681 1.95036 11.2368 1.90704 11.1962C2.58495 11.8202 3.67625 12.8828 6.52945 13.5068C7.80458 13.7857 10.5308 14.214 13.2457 14.4977C15.9405 14.782 18.5926 15.0522 19.6728 15.3256C20.531 15.5441 21.9726 15.8416 21.9726 17.4589C21.9726 19.0698 20.4538 19.5614 20.1898 19.6681C19.9262 19.7723 18.1042 20.6083 14.8289 20.6083C12.4107 20.6083 9.50367 19.8811 8.44404 19.5021C7.22252 19.0673 5.94116 18.4923 4.7459 17.0323C4.44864 16.6703 3.97974 15.6748 3.97974 14.6891H1.01554V22.9951H4.3103V21.8729C4.3103 21.7451 4.47002 21.2196 5.02312 21.4695C5.71131 21.7822 7.73149 22.5865 9.84371 23.0275C11.5756 23.3898 12.6923 23.6494 14.8454 23.6494C18.3584 23.6494 20.2456 23.0771 21.5503 22.7046C22.7794 22.3526 24.2981 21.7207 25.5318 20.7369C26.2 20.2049 27.6652 18.8413 27.6652 16.366C27.6652 13.9901 26.3901 12.5154 25.9415 12.0668C25.3304 11.4555 24.584 10.9818 23.8062 10.6166C23.1286 10.2976 22.0592 9.91456 21.1842 9.70041C19.486 9.28349 15.6459 8.76911 13.8096 8.57689C11.8839 8.37574 8.5434 8.09906 7.20925 7.6862C6.80478 7.56085 5.98015 7.16802 5.98015 6.21073C5.98015 5.52985 6.35727 4.95266 7.10258 4.48619C8.28567 3.74494 10.6754 3.28416 13.1663 3.28416C16.1113 3.27333 18.6053 3.94663 20.1917 4.65594C20.7313 4.89689 21.3626 5.24288 21.864 5.65222C22.4298 6.11354 23.2242 7.07219 23.5114 8.40931H26.1727V1.17925H23.2012V2.01959C23.2012 2.29086 22.9209 2.64335 22.3911 2.35204C21.0613 1.65438 17.3014 0.149128 12.692 0.142901M77.8119 1.45674L92.3072 14.5383L92.1583 5.73073C92.1437 4.5758 91.9309 4.09364 90.6817 4.09364H87.9563V1.45891H100.35V4.09364H97.6917C96.4176 4.09364 96.3372 4.50108 96.3218 5.73073L96.5465 22.56H92.302L75.6062 7.65912L75.6098 18.2343C75.6244 19.3838 75.6783 19.9253 76.8627 19.9253H79.8393V22.5589H67.6674V19.9255H70.5128C71.5756 19.9255 71.5334 18.9122 71.5334 18.1745V5.8309C71.5334 5.03414 71.4216 4.09553 69.7528 4.09553H67.4441V1.45674H77.8119ZM114.513 19.9204C114.629 19.9204 115.146 19.9055 115.247 19.8749C115.533 19.7856 115.727 19.5814 115.817 19.3687C115.855 19.2793 115.874 18.884 115.874 18.7982L115.876 14.6344C115.876 14.5343 115.868 14.4909 115.698 14.2679C115.512 14.0242 108.106 5.63164 107.767 5.2621C107.346 4.80321 106.607 4.09391 105.484 4.09391H102.908V1.4581H117.443V4.09066H115.691C115.285 4.09066 115.016 4.47509 115.362 4.9023C115.362 4.9023 120.253 10.7519 120.299 10.8131C120.344 10.8754 120.383 10.8903 120.446 10.8334C120.507 10.7752 125.458 4.9559 125.497 4.90988C125.733 4.62778 125.573 4.09364 125.066 4.09364H123.268V1.4581H135.18V4.09364H132.519C131.554 4.09364 131.161 4.27232 130.434 5.09343C130.102 5.4692 122.617 14.0126 122.414 14.244C122.307 14.3651 122.316 14.5337 122.316 14.6339V18.7971C122.316 18.8816 122.335 19.2774 122.373 19.3662C122.463 19.5801 122.658 19.7842 122.944 19.8725C123.045 19.9033 123.555 19.9185 123.671 19.9185H126.393V22.5538H111.933V19.9182L114.513 19.9204H114.513Z" fill="#2F4256"/>
</svg>
