<svg width="139" height="28" viewBox="0 0 139 28" fill="none" xmlns="http://www.w3.org/2000/svg">
<g clip-path="url(#clip0_178_12694)">
<path fill-rule="evenodd" clip-rule="evenodd" d="M11.8853 0.637763C13.2697 0.628152 14.6038 1.15598 15.6068 2.11015C16.6099 3.06432 17.2037 4.37041 17.2632 5.75353C17.3227 7.13665 16.8433 8.48893 15.9259 9.52573C15.0086 10.5625 13.7247 11.203 12.3446 11.3124V7.19616C12.6282 7.0888 12.8652 6.88538 13.0142 6.62133C13.1633 6.35728 13.2151 6.04932 13.1605 5.75105C13.1059 5.45278 12.9485 5.18309 12.7156 4.98893C12.4826 4.79477 12.189 4.68844 11.8858 4.68844C11.5826 4.68844 11.289 4.79477 11.056 4.98893C10.8231 5.18309 10.6657 5.45278 10.6111 5.75105C10.5565 6.04932 10.6083 6.35728 10.7574 6.62133C10.9064 6.88538 11.1434 7.0888 11.427 7.19616V11.3124C10.0559 11.1912 8.78437 10.546 7.87693 9.51105C6.9695 8.47613 6.49605 7.13117 6.5551 5.75603C6.61414 4.38089 7.20114 3.08147 8.19394 2.12814C9.18674 1.17482 10.5089 0.640997 11.8853 0.637763ZM5.57241 10.661C6.99055 10.661 8.35066 11.2241 9.3538 12.2265C10.3569 13.2289 10.921 14.5886 10.9221 16.0067C10.922 17.3459 10.4192 18.6362 9.51322 19.6225C8.60726 20.6087 7.36413 21.219 6.02977 21.3326V17.2194C6.31368 17.1124 6.55108 16.9093 6.7006 16.6453C6.85011 16.3813 6.90226 16.0732 6.84796 15.7748C6.79365 15.4763 6.63634 15.2063 6.40343 15.0119C6.17053 14.8175 5.87679 14.7109 5.5734 14.7109C4.8547 14.7109 4.2736 15.292 4.2736 16.0077C4.2736 16.5621 4.62602 17.0362 5.11704 17.2194V21.3336C3.74456 21.2151 2.47079 20.5714 1.56137 19.5367C0.651952 18.502 0.177092 17.1561 0.235822 15.7798C0.294552 14.4035 0.882338 13.1029 1.8766 12.1494C2.87086 11.1959 4.19483 10.6631 5.57241 10.662M17.925 10.661C19.3028 10.6613 20.6273 11.1936 21.6221 12.1469C22.617 13.1002 23.2053 14.4007 23.2644 15.7773C23.3236 17.1539 22.8489 18.5001 21.9395 19.5351C21.03 20.5702 19.756 21.2141 18.3833 21.3326V17.2194C18.6672 17.1123 18.9044 16.9091 19.0538 16.645C19.2032 16.381 19.2552 16.0729 19.2008 15.7745C19.1464 15.476 18.989 15.2062 18.756 15.0118C18.5231 14.8175 18.2293 14.7111 17.926 14.7111C17.6226 14.7111 17.3289 14.8175 17.0959 15.0118C16.863 15.2062 16.7056 15.476 16.6511 15.7745C16.5967 16.0729 16.6487 16.381 16.7981 16.645C16.9475 16.9091 17.1848 17.1123 17.4686 17.2194V21.3336C16.1346 21.2195 14.8919 20.6091 13.9864 19.6229C13.0809 18.6367 12.5784 17.3466 12.5783 16.0077C12.5783 13.0567 14.9759 10.662 17.924 10.662M7.95719 26.7565H15.562C13.1524 24.449 12.0576 21.4841 11.7051 18.1479C11.3131 21.6434 9.96283 24.4371 7.95719 26.7565Z" fill="#2F4256"/>
<path fill-rule="evenodd" clip-rule="evenodd" d="M27.0312 14.2153V11.9097C27.5691 12.3202 28.1545 12.5403 28.7874 12.57C29.582 12.5396 30.0555 12.1961 30.2079 11.5395C30.3 11.1088 30.2277 10.7495 29.9902 10.4535C29.7473 10.1578 29.3388 9.81167 28.7646 9.41503C28.1918 9.01707 27.77 8.6729 27.4994 8.38251C26.8976 7.77963 26.5828 6.95501 26.5471 5.90071C26.5828 5.31071 26.656 4.83751 26.7748 4.48311C26.9787 3.79807 27.3539 3.25558 27.9093 2.86158C28.4643 2.4722 29.0906 2.27685 29.7882 2.27553C30.8346 2.27355 31.1781 2.46857 31.8671 2.85762V5.20874C31.2665 4.70453 30.6808 4.45275 30.1099 4.45341C29.4665 4.45341 29.0655 4.83751 28.9171 5.61165C28.9283 5.88949 29.0065 6.15018 29.1517 6.39371C29.2955 6.63525 29.51 6.87878 29.7951 7.12429C30.0809 7.37244 30.3822 7.6087 30.699 7.83309C31.0144 8.06144 31.1844 8.18485 31.2088 8.20333C31.6457 8.54849 31.9806 8.97648 32.2136 9.48729C32.4432 9.99415 32.5591 10.5525 32.5591 11.1524C32.5591 11.8084 32.4116 12.4185 32.1166 12.9828C31.8319 13.5343 31.4015 13.9972 30.8722 14.3212C30.3442 14.6472 29.7404 14.8102 29.0606 14.8102C28.3657 14.8109 27.6892 14.6126 27.0312 14.2153ZM34.0341 2.46857H36.805C37.6989 2.46857 38.4423 2.71803 39.0472 3.21103C39.6451 3.70303 40.0035 4.44648 40.1084 5.43544V5.96803C40.1084 7.03849 39.6893 7.83243 38.8512 8.34984C39.7887 8.87748 40.2747 9.8021 40.3193 11.1217C40.3539 11.8642 40.2005 12.4957 39.8669 13.0333C39.5386 13.5606 39.0581 13.9758 38.4889 14.2242C37.9054 14.4869 37.2475 14.6182 36.5149 14.6182H34.0341V2.46857ZM36.4525 4.48311V7.44899C36.7604 7.46879 37.0762 7.36287 37.386 7.12429C37.6989 6.89066 37.8606 6.51547 37.8711 5.99872C37.8705 5.52486 37.7606 5.15429 37.5415 4.88701C37.3168 4.61774 36.9782 4.48311 36.5149 4.48311H36.4525ZM36.4525 9.2992V12.6027C36.796 12.6145 37.0861 12.5403 37.3138 12.3849C37.5428 12.2298 37.7098 12.0183 37.8147 11.7503C37.917 11.4824 37.9681 11.192 37.9681 10.8792C37.9668 10.4396 37.8401 10.0667 37.588 9.76052C37.3372 9.45363 36.9587 9.29986 36.4525 9.2992ZM41.8428 14.6182H44.2573V2.46857H41.8428V14.6182ZM50.588 2.46857H53.7261L54.8893 9.63974H54.919L55.904 2.46857H59.1431L60.4003 14.6182H57.9522C57.9159 14.1232 57.875 13.5108 57.8294 12.7808L57.6829 10.5901C57.6344 9.85753 57.577 9.01212 57.5146 8.04395C57.4688 7.31839 57.4146 6.59337 57.3523 5.86904H57.3196C57.2441 6.64169 57.15 7.41242 57.0375 8.18056C56.9273 8.97054 56.7989 9.75425 56.6524 10.5317C56.5072 11.3118 56.3884 11.941 56.296 12.4195C56.2043 12.8967 56.0736 13.6292 55.904 14.6172H54.0488C53.9746 14.2212 53.7944 13.3006 53.5093 11.8642C53.287 10.7561 53.0731 9.64632 52.8678 8.53496C52.7167 7.72577 52.5847 6.91312 52.4719 6.09771V5.86904H52.4392L52.1006 14.6182H49.507L50.588 2.46857ZM61.6655 2.46857H64.0493V10.99C64.0493 12.0862 64.4469 12.6347 65.2422 12.6353C65.7589 12.6492 66.0876 12.4967 66.2311 12.1948C66.379 11.8846 66.4522 11.4352 66.4509 10.8465V2.46956H68.8664V11.3484C68.8664 12.4208 68.6172 13.2587 68.119 13.8619C67.621 14.4618 66.6736 14.7815 65.2768 14.8122C64.211 14.834 63.3421 14.576 62.6703 14.0381C62.0031 13.5025 61.6655 12.5947 61.6655 11.3137V2.46857ZM70.0068 2.46857H76.1593V4.70684H74.2735V14.6162H71.8907V4.70882H70.0068V2.46956V2.46857ZM77.2968 2.46857H79.6825V10.99C79.6819 12.0862 80.0795 12.6347 80.8754 12.6353C81.3922 12.6492 81.7218 12.4967 81.8654 12.1948C82.0139 11.8849 82.0832 11.4355 82.0832 10.8465V2.46956H84.5016V11.3484C84.5016 12.4208 84.2521 13.2587 83.7532 13.8619C83.2523 14.4618 82.3029 14.7815 80.9061 14.8122C79.8436 14.834 78.977 14.576 78.3065 14.0381C77.6333 13.5028 77.2968 12.5947 77.2968 11.3137V2.46857ZM88.3465 2.46857H90.86L93.7754 14.6182H91.2293L90.762 12.57H88.3456L87.8912 14.6182H85.5054L88.3465 2.46857ZM90.4244 10.6554L89.5384 5.57799H89.5038L88.7158 10.6535H90.4234L90.4244 10.6554ZM94.8168 2.46857H97.2353V12.3433H99.7161V14.6182H94.8159L94.8168 2.46857ZM104.849 2.46857H109.698V4.70684H107.262V7.3203H109.473V9.57639H107.262V14.6192H104.849V2.46857ZM111.238 2.46857H113.624V10.99C113.623 12.0862 114.021 12.6347 114.817 12.6353C115.329 12.6492 115.662 12.4967 115.809 12.1948C115.952 11.8846 116.023 11.4352 116.023 10.8465V2.46956H118.439V11.3484C118.44 12.4208 118.19 13.2587 117.692 13.8619C117.192 14.4618 116.244 14.7815 114.847 14.8122C113.783 14.834 112.915 14.576 112.244 14.0381C111.573 13.5028 111.238 12.5947 111.238 11.3137V2.46857ZM120.177 2.46857H122.464L125.491 9.8021L125.524 9.76745C125.439 9.47706 125.375 9.0471 125.331 8.47755V2.46857H127.715V14.6182H125.457L122.463 7.28664L122.431 7.31931C122.517 8.07167 122.57 8.64584 122.591 9.04182V14.6182H120.177V2.46857ZM129.483 2.46857H131.901C133.594 2.46857 134.845 3.07738 135.646 4.28908C136.443 5.50473 136.814 7.04509 136.745 8.9151C136.617 12.7165 134.937 14.6172 131.704 14.6172H129.483V2.46857ZM131.901 4.61081V12.475C132.768 12.4849 133.392 12.0905 133.772 11.292C134.154 10.4881 134.346 9.53382 134.346 8.41419C134.346 7.41434 134.141 6.53131 133.72 5.76212C133.3 4.99788 132.693 4.61081 131.901 4.61081ZM28.1548 20.3213H28.7973L30.099 26.3807H29.2853L29.0477 25.2067H27.8588L27.6222 26.3807H26.8352L28.1548 20.3213ZM28.9428 24.5721L28.4656 21.4864H28.4518L27.9697 24.5721H28.9428ZM38.9175 26.3807V20.3213H40.0619C40.5819 20.3226 40.9611 20.4483 41.1993 20.6984C41.4336 20.9519 41.5587 21.3488 41.5745 21.8894C41.5795 22.5685 41.4379 23.0377 41.1508 23.305C40.8637 23.5663 40.4559 23.7029 39.9371 23.7128C39.8758 23.7014 39.8135 23.6957 39.751 23.696V26.3807H38.9175ZM39.751 23.0248C40.052 23.038 40.2823 22.9753 40.442 22.8367C40.6037 22.6981 40.6839 22.4464 40.6826 22.0814C40.6826 21.692 40.6083 21.4102 40.4598 21.236C40.3113 21.0598 40.0738 20.9835 39.751 20.9984V23.0248ZM46.6054 20.3213H47.2825L48.6417 26.3807H47.7924L47.5399 25.2067H46.2956L46.055 26.3807H45.2274L46.6054 20.3213ZM47.431 24.5721L46.9351 21.4864H46.9163L46.4134 24.5721H47.431ZM52.951 26.3807V20.3213H54.0973C54.5567 20.3226 54.8979 20.4275 55.121 20.6361C55.344 20.8512 55.4777 21.1855 55.5219 21.6389C55.547 21.9346 55.5272 22.2174 55.4625 22.4873C55.4118 22.7274 55.3061 22.9524 55.1536 23.1446C55.0946 23.2232 55.0204 23.2892 54.9353 23.3385C54.8503 23.3878 54.7562 23.4195 54.6586 23.4317L55.8208 26.3817H54.9527L53.7984 23.4158H53.7825V26.3807H52.951ZM53.7825 23.008C54.3547 23.0317 54.6418 22.6932 54.6418 21.9824C54.6418 21.7072 54.586 21.4769 54.4745 21.2914C54.3706 21.1063 54.1805 21.0142 53.9172 21.0142H53.7816L53.7825 23.008ZM59.5153 20.3213H62.307V21.0142H61.3566V26.3807H60.5003V21.0142H59.5153V20.3213ZM66.5301 26.3807V20.3213H67.332L68.8089 24.9176L68.8436 24.9008L68.7773 24.0098C68.7548 23.7366 68.7301 23.4284 68.703 23.0852C68.6793 22.7447 68.6614 22.4021 68.6496 22.0705C68.6397 21.7369 68.6308 21.1528 68.6308 20.3213H69.4831V26.3807H68.6911L67.2201 21.7062L67.2013 21.7181C67.2521 22.2612 67.2877 22.6803 67.3082 22.9753C67.329 23.2743 67.3428 23.597 67.3597 23.9514C67.3755 24.2986 67.3831 24.68 67.3824 25.0958C67.3824 25.3621 67.3805 25.5888 67.3775 25.767C67.3755 25.9501 67.3676 26.156 67.3616 26.3807H66.5301ZM74.2715 20.3213H76.5325V21.0142H75.1011V22.9268H76.388V23.6148H75.1011V25.6719H76.5325V26.3807H74.2715V20.3213ZM80.9596 26.3807V20.3213H82.1039C82.5653 20.3226 82.9071 20.4275 83.1295 20.6361C83.3539 20.8512 83.4882 21.1855 83.5324 21.6389C83.5564 21.9233 83.5347 22.2097 83.4681 22.4873C83.4183 22.7271 83.3136 22.9521 83.1622 23.1446C83.0206 23.3139 82.8612 23.4119 82.6692 23.4317L83.8274 26.3817H82.9583L81.807 23.4158H81.7931V26.3807H80.9596ZM81.7931 23.008C82.3653 23.0317 82.6504 22.6932 82.6504 21.9824C82.6504 21.7072 82.5956 21.4769 82.4861 21.2914C82.3791 21.1063 82.1891 21.0142 81.9248 21.0142H81.7931V23.008ZM91.6708 20.3213H93.9477V21.0142H92.5023V22.9268H93.7972V23.6148H92.5023V26.3807H91.6708V20.3213ZM98.1381 23.7613C98.1381 23.5713 98.1328 23.4244 98.1223 23.3208C98.1328 22.7994 98.1724 22.3302 98.2411 21.9131C98.3104 21.4954 98.4371 21.137 98.6341 20.8351C98.7237 20.6912 98.843 20.5682 98.984 20.4743C99.125 20.3804 99.2845 20.3178 99.4518 20.2906C99.8616 20.2153 100.207 20.2549 100.487 20.4094C100.764 20.5688 100.978 20.7955 101.12 21.0994C101.263 21.4063 101.349 21.7392 101.379 22.0982C101.421 22.7655 101.444 23.2515 101.444 23.5663C101.444 24.4738 101.32 25.1819 101.071 25.6907C100.821 26.2049 100.39 26.4613 99.7785 26.4599C99.2683 26.4599 98.8723 26.2428 98.5905 25.8086C98.3074 25.3759 98.1549 24.6899 98.1381 23.7613ZM99.037 23.5851C99.0251 24.9869 99.2756 25.6997 99.7973 25.7214C99.8176 25.7122 99.8394 25.7065 99.8616 25.7046C99.9509 25.6953 100.036 25.664 100.111 25.6135C100.185 25.5631 100.246 25.4951 100.287 25.4155C100.385 25.244 100.45 25.0493 100.482 24.8315C100.513 24.6163 100.533 24.3731 100.543 24.1019C100.549 23.83 100.553 23.5327 100.553 23.2099C100.562 22.8141 100.538 22.4181 100.483 22.026C100.429 21.6828 100.346 21.4234 100.237 21.2479C100.128 21.0717 99.9867 20.9835 99.8131 20.9835H99.7785C99.4769 21.0027 99.2775 21.2198 99.1805 21.6349C99.0848 22.0507 99.033 22.5912 99.0251 23.2565C99.0324 23.3403 99.0363 23.4498 99.037 23.5851ZM106.081 26.3807V20.3213H107.228C107.684 20.3213 108.028 20.4282 108.249 20.6361C108.476 20.8512 108.612 21.1855 108.655 21.6389C108.678 21.9346 108.657 22.2174 108.593 22.4873C108.542 22.7267 108.437 22.9514 108.286 23.1446C108.227 23.2228 108.152 23.2885 108.067 23.3377C107.982 23.387 107.888 23.419 107.791 23.4317L108.947 26.3817H108.08L106.932 23.4158H106.913V26.3807H106.081ZM106.913 23.008C107.485 23.0317 107.77 22.6932 107.77 21.9824C107.77 21.7072 107.716 21.4769 107.608 21.2914C107.494 21.1063 107.311 21.0142 107.048 21.0142H106.913V23.008ZM116.791 20.3213H117.624V25.6719H119.054V26.3807H116.791V20.3213ZM123.327 26.3807H124.164V20.3213H123.327V26.3807ZM128.966 20.3213H131.245V21.0142H129.798V22.9268H131.092V23.6148H129.798V26.3807H128.966V20.3213ZM135.605 20.3213H137.866V21.0142H136.436V22.9268H137.724V23.6148H136.437V25.6719H137.866V26.3807H135.605V20.3213Z" fill="#2F4256"/>
<path fill-rule="evenodd" clip-rule="evenodd" d="M26.8669 17.8051H137.038V16.9528H26.8669V17.8051Z" fill="#2F4256"/>
</g>
<defs>
<clipPath id="clip0_178_12694">
<rect width="138.593" height="26.7286" fill="white" transform="translate(0.229248 0.635742)"/>
</clipPath>
</defs>
</svg>
