<svg width="98" height="36" viewBox="0 0 98 36" fill="none" xmlns="http://www.w3.org/2000/svg">
<path d="M0.175537 35.3425H97.4211V0.657471H0.175537V35.3425Z" fill="#2F4256"/>
<path d="M7.46379 7.97139H27.4014V27.9621H7.46379V7.97139ZM29.0872 6.28558H5.79126V29.6346H29.0739V6.28558H29.0872Z" fill="white"/>
<path d="M9.66675 14.0648H25.1974V10.1755H9.66675V14.0648ZM9.66675 25.746H13.5428V21.8434H9.66675V25.746ZM9.66675 19.9054H19.3568V16.0028H9.66675V19.9054Z" fill="white"/>
<path d="M38.9351 11.5016V16.5324H40.3289C41.8554 16.5324 42.2138 15.9484 42.2138 13.9971C42.2138 11.9131 41.9882 11.5016 40.1563 11.5016H38.9351ZM40.5413 10.1875C42.9439 10.1875 43.8067 11.2361 43.8067 13.9706C43.8067 16.6121 42.8908 17.8333 40.528 17.8333H37.3555V10.1875H40.5413ZM34.3025 17.8333H35.8821V10.1875H34.3025V17.8333ZM45.0412 10.1875H50.4039V11.5016H46.6075V13.2936H49.926V14.6077H46.6075V17.8466H45.0279L45.0412 10.1875ZM57.7577 15.3245C57.6515 16.8245 56.8285 18.0191 54.4657 18.0191C52.1693 18.0191 51.0012 16.8776 51.0012 14.0635C51.0012 11.3025 52.103 10.0282 54.4657 10.0282C56.3374 10.0282 57.4922 10.8246 57.7444 12.5768H56.1648C55.979 11.8998 55.7666 11.3688 54.4657 11.3688C53.1649 11.3688 52.5941 12.152 52.5941 14.1962C52.5941 15.7891 53.0189 16.6785 54.4923 16.6785C55.5542 16.6785 56.0454 16.3466 56.1781 15.3378H57.7577V15.3245ZM61.9523 10.1875H67.315V11.5016H63.5319V13.2936H66.8504V14.6077H63.5319V17.8466H61.9523V10.1875ZM68.3504 17.8333H69.93V10.1875H68.3504V17.8333ZM72.983 11.5016V13.5192H74.4033C75.6644 13.5192 76.1024 13.3865 76.1024 12.4308C76.1024 11.6609 75.8369 11.5016 74.5095 11.5016H72.983ZM71.4034 10.1875H74.7219C76.3148 10.1875 77.6953 10.2273 77.6953 12.4839C77.6953 13.9838 77.0714 14.5281 76.2086 14.7404L78.1997 17.8466H76.275L74.4033 14.8334H72.983V17.8466H71.4034V10.1875ZM80.1775 15.4307C80.2439 16.2271 80.3634 16.6519 81.8766 16.6519C82.6731 16.6519 83.2571 16.5324 83.2571 15.7493C83.2571 15.2847 83.0447 15.0192 82.3678 14.8466L80.5094 14.3422C79.5802 14.09 78.7572 13.652 78.7572 12.2449C78.7572 11.1432 79.2616 9.98834 81.6244 9.98834C83.8677 9.98834 84.5712 11.037 84.6111 12.4042H83.0447C82.9651 11.7671 82.9385 11.3423 81.5713 11.3423C80.7749 11.3423 80.3634 11.4883 80.3634 12.0989C80.3634 12.6564 80.6952 12.8157 81.1333 12.9352L82.8323 13.3998C83.9208 13.6918 84.8367 14.1166 84.8367 15.6431C84.8367 17.7935 82.9916 18.0059 81.8501 18.0059C79.3545 18.0059 78.6776 17.0236 78.5847 15.4307H80.1775ZM87.5314 11.5281H85.2349V10.1875H91.4074V11.5281H89.1242V17.8333H87.5446V11.5281H87.5314ZM35.8821 25.957V27.9747H37.3024C38.736 27.9747 39.0546 27.8685 39.0546 26.9924C39.0546 26.0765 38.7626 25.957 37.6077 25.957H35.8821ZM35.8821 22.9438V24.6429H37.6475C38.59 24.6429 38.8289 24.5234 38.8289 23.7402C38.8289 23.1031 38.6829 22.9438 37.3555 22.9438H35.8821ZM38.0325 21.6297C39.5325 21.6297 40.3554 22.1606 40.3554 23.6208C40.3554 24.8022 39.8112 25.0544 39.4794 25.1871C40.4218 25.5588 40.6475 26.2756 40.6475 27.072C40.6475 28.3331 40.0767 29.2755 37.9661 29.2755H34.3025V21.6164L38.0325 21.6297ZM45.0146 26.6871L43.9793 26.8596C43.4085 26.9393 43.0103 27.0587 43.0103 27.6561C43.0103 28.0808 43.2226 28.3198 43.8863 28.3198C44.789 28.3198 45.0146 27.8286 45.0146 27.1384V26.6871ZM41.6961 25.3597C41.7758 23.9128 42.5988 23.5146 44.112 23.5146C45.6651 23.5146 46.488 23.9261 46.488 25.1606V29.2755H45.081V28.8507C44.789 29.1428 44.2447 29.4215 43.3554 29.4215C42.0147 29.4215 41.5368 28.8242 41.5368 27.8685C41.5368 26.6207 42.3466 26.1428 43.1695 26.0234L45.0279 25.7313V25.3862C45.0279 24.8553 44.7624 24.7092 44.0722 24.7092C43.3421 24.7092 43.1828 24.8818 43.1164 25.3597H41.6961ZM51.3994 26.0499C51.3994 25.1871 51.3862 24.7358 50.4437 24.7358C49.3818 24.7358 49.2756 25.2933 49.2756 26.6207V29.2888H47.8022V23.6606H49.2092V24.3907C49.6074 23.8464 50.0455 23.5279 51.0809 23.5279C52.5145 23.5279 52.8861 24.1517 52.8861 25.8508V29.2888H51.3994V26.0499ZM54.3065 21.6297H55.7799V25.7446L57.5984 23.6606H59.417L57.4524 25.7977L59.4966 29.2888H57.7842L56.417 26.8464L55.7799 27.5101V29.2888H54.2932L54.3065 21.6297Z" fill="white"/>
</svg>
