<svg width="105" height="42" viewBox="0 0 105 42" fill="none" xmlns="http://www.w3.org/2000/svg">
<path d="M10.1323 8.28311L0.774658 17.6407L10.1323 26.9984L19.4899 17.6407L10.1323 8.28311Z" fill="#2F4256"/>
<path d="M5.448 12.9216V22.356L8.22283 19.5812L14.8824 22.356V13.007L12.1076 15.611L5.448 12.9216Z" fill="#FFF5F2"/>
<path d="M26.4939 32.7307H104.958" stroke="#EBEBEB" stroke-width="0.149414" stroke-miterlimit="10"/>
<path d="M48.1365 36.4026C48.35 37.0857 48.5634 37.6833 48.7342 38.281C48.9049 38.8786 49.1611 39.3482 49.3318 39.8178C49.4599 39.3055 49.6306 38.7079 49.7587 38.0248C49.8868 37.3418 50.0575 36.6161 50.1856 35.8477H50.6125C50.5271 36.3172 50.4418 36.7441 50.3564 37.1283C50.271 37.5126 50.1856 37.8968 50.1002 38.281C50.0149 38.6652 49.9295 38.964 49.8441 39.3055C49.7587 39.647 49.6306 39.9459 49.5453 40.2874H49.0757C48.9903 40.0312 48.8622 39.8178 48.7769 39.5617C48.6915 39.3055 48.5634 39.0494 48.478 38.7932C48.3926 38.5371 48.2646 38.281 48.1792 37.9821C48.0938 37.6833 47.9658 37.3845 47.8804 37.0857C47.795 37.3845 47.6669 37.6833 47.5815 37.9821C47.4962 38.281 47.3681 38.5371 47.2827 38.7932C47.1973 39.0494 47.0693 39.3055 46.9839 39.5617C46.8985 39.8178 46.7704 40.0312 46.6851 40.2874H46.2155C46.0874 39.9886 46.002 39.647 45.9166 39.3055C45.8313 38.964 45.7459 38.6225 45.6605 38.281C45.5751 37.9395 45.4897 37.5552 45.4044 37.1283C45.319 36.7441 45.2336 36.3172 45.1909 35.8477H45.6178C45.7032 36.2319 45.7459 36.5734 45.8313 36.9576C45.9166 37.3418 45.9593 37.6833 46.0447 37.9821C46.1301 38.281 46.2155 38.6225 46.2582 38.9213C46.3009 39.2201 46.4289 39.519 46.4716 39.7324L47.0693 38.1956C47.2827 37.6406 47.4962 37.043 47.7096 36.3172L48.1365 36.4026Z" fill="#2F4256"/>
<path d="M51.252 38.6216C51.252 38.3654 51.2946 38.1093 51.38 37.8532C51.4654 37.6397 51.5508 37.469 51.7215 37.2982C51.8496 37.1701 52.0204 37.0421 52.1911 36.9567C52.3619 36.8713 52.5326 36.8286 52.7034 36.8713C53.0876 36.8713 53.4291 36.9994 53.6853 37.2555C53.9414 37.597 54.0695 38.0239 54.0268 38.4935C54.0268 38.5362 54.0268 38.5789 54.0268 38.5789C54.0268 38.6216 54.0268 38.6643 54.0268 38.6643H51.7215C51.7215 39.0058 51.8069 39.3473 52.0204 39.6034C52.2765 39.8596 52.5753 39.945 52.9169 39.945C53.0876 39.945 53.2584 39.945 53.4291 39.8596C53.5145 39.8169 53.6426 39.8169 53.728 39.7742L53.8133 40.1157C53.6853 40.1584 53.5999 40.2011 53.4718 40.2438C53.3011 40.2865 53.0876 40.3292 52.9169 40.3292C52.6607 40.3292 52.4046 40.2865 52.1911 40.2011C51.9777 40.1157 51.8069 39.9877 51.6789 39.8596C51.5508 39.6888 51.4654 39.5181 51.38 39.3046C51.2946 39.0912 51.2946 38.8777 51.252 38.6216ZM53.6426 38.3654C53.6426 38.0666 53.5572 37.8105 53.3864 37.5543C53.2157 37.3409 53.0022 37.2555 52.7461 37.2555C52.618 37.2555 52.49 37.2982 52.3619 37.3409C52.2338 37.3836 52.1484 37.469 52.0631 37.597C51.9777 37.6824 51.8923 37.8105 51.8496 37.9385C51.8069 38.0666 51.7642 38.2374 51.7642 38.3654H53.6426Z" fill="#2F4256"/>
<path d="M56.0764 36.915C56.2472 36.915 56.4606 36.9577 56.6314 37.0004C56.7595 37.0431 56.8875 37.1285 57.0156 37.2565C57.101 37.3846 57.1863 37.5127 57.229 37.6407C57.2717 37.8115 57.3144 37.9823 57.2717 38.1103V40.1594C57.229 40.1594 57.1437 40.2021 57.101 40.2021L56.8021 40.2448L56.4606 40.2875C56.3326 40.2875 56.2045 40.2875 56.0764 40.2875C55.9057 40.2875 55.7349 40.2875 55.6068 40.2448C55.4788 40.2021 55.3507 40.1594 55.2226 40.0741C55.0946 39.9887 55.0092 39.8606 54.9665 39.7325C54.8811 39.5618 54.8811 39.4337 54.8811 39.2629C54.8811 39.0922 54.9238 38.9641 54.9665 38.7934C55.0519 38.6653 55.1372 38.5372 55.2653 38.4945C55.3934 38.4092 55.5215 38.3238 55.6922 38.3238C55.863 38.2811 56.0764 38.2811 56.2472 38.2811H56.4179C56.5033 38.2811 56.546 38.2811 56.5887 38.3238L56.7595 38.3665L56.8448 38.4092V38.1957C56.8448 38.0676 56.8448 37.9823 56.8021 37.8542C56.8021 37.7688 56.7595 37.6407 56.6741 37.5554C56.6314 37.47 56.546 37.3846 56.4179 37.3419C56.2899 37.2992 56.1191 37.2565 55.991 37.2565C55.8203 37.2565 55.6068 37.2565 55.4361 37.2992L55.1799 37.3846L55.1372 37.0004C55.2653 36.9577 55.3507 36.915 55.4788 36.915C55.6922 36.8723 55.863 36.8723 56.0764 36.915ZM56.0764 39.946C56.2045 39.946 56.3752 39.946 56.5033 39.946C56.5887 39.946 56.7168 39.946 56.8021 39.9033V38.7507C56.7168 38.708 56.6741 38.708 56.5887 38.708C56.4606 38.6653 56.2899 38.6653 56.1618 38.6653C56.0337 38.6653 55.9483 38.6653 55.8203 38.708C55.6922 38.708 55.6068 38.7507 55.5214 38.7934C55.4361 38.836 55.3507 38.9214 55.308 39.0068C55.2653 39.0922 55.2226 39.2203 55.2226 39.3483C55.2226 39.4764 55.2226 39.5618 55.2653 39.6472C55.308 39.7325 55.3507 39.8179 55.4361 39.8606C55.5215 39.9033 55.6068 39.946 55.6922 39.9887C55.863 39.946 55.991 39.9887 56.0764 39.946Z" fill="#2F4256"/>
<path d="M59.2786 40.3718C59.1505 40.3718 59.0225 40.3718 58.8944 40.3291C58.809 40.2864 58.7236 40.2437 58.6383 40.201C58.5529 40.1156 58.5102 40.0303 58.4675 39.9449C58.4248 39.8168 58.4248 39.6887 58.4248 39.5607V35.4625L58.8517 35.3771V39.518C58.8517 39.6034 58.8517 39.6887 58.8944 39.7741C58.8944 39.8168 58.9371 39.9022 58.9798 39.9449C59.0225 39.9876 59.0651 40.0303 59.1505 40.0303C59.2359 40.0303 59.2786 40.0729 59.364 40.0729L59.2786 40.3718Z" fill="#2F4256"/>
<path d="M60.5592 37.0003H61.8826V37.3418H60.5592V39.0921C60.5592 39.2628 60.5592 39.3909 60.6019 39.5617C60.6446 39.6471 60.6873 39.7324 60.73 39.8178C60.7727 39.9032 60.858 39.9459 60.9434 39.9459C61.0288 39.9886 61.1142 39.9886 61.1996 39.9886C61.3276 39.9886 61.4984 39.9886 61.6265 39.9459C61.7118 39.9032 61.7972 39.8605 61.8826 39.8178L61.968 40.1593C61.8826 40.202 61.7545 40.2447 61.6692 40.2874C61.4984 40.3301 61.3276 40.3728 61.1996 40.3728C61.0288 40.3728 60.8581 40.3301 60.6873 40.2874C60.5592 40.2447 60.4312 40.1593 60.3458 40.0313C60.2604 39.9032 60.175 39.7751 60.175 39.6044C60.1323 39.4336 60.1323 39.2202 60.1323 39.0494V36.0184L60.5592 35.933V37.0003Z" fill="#2F4256"/>
<path d="M62.7371 40.2875V35.4209L63.164 35.3355V37.0858C63.292 37.0431 63.4628 37.0004 63.5909 36.9577C63.7189 36.915 63.8897 36.915 64.0178 36.915C64.2312 36.915 64.4446 36.9577 64.6581 37.0004C64.8289 37.0858 64.9569 37.1712 65.085 37.2992C65.2131 37.4273 65.2558 37.5981 65.2984 37.7688C65.3411 37.9823 65.3411 38.1957 65.3411 38.3665V40.2021H64.9142V38.4945C64.9142 38.2811 64.9142 38.1103 64.8715 37.8969C64.8289 37.7688 64.7862 37.6408 64.7008 37.5127C64.6154 37.4273 64.53 37.3419 64.402 37.2992C64.2312 37.2565 64.1031 37.2139 63.9324 37.2139C63.847 37.2139 63.7616 37.2139 63.6762 37.2139L63.4201 37.2565L63.2493 37.2992L63.1213 37.3419V40.1594L62.7371 40.2875Z" fill="#2F4256"/>
<path d="M68.7554 39.9884C68.9688 39.9884 69.1396 39.9457 69.353 39.8604C69.5238 39.775 69.6092 39.6469 69.6092 39.4762C69.6092 39.3908 69.6092 39.3054 69.5665 39.2627C69.5238 39.1773 69.4811 39.1346 69.4384 39.0919C69.353 39.0493 69.2676 38.9639 69.1823 38.9639L68.7981 38.7931C68.67 38.7504 68.5419 38.7077 68.4565 38.6224C68.3712 38.5797 68.2431 38.4943 68.1577 38.4516C68.0723 38.3662 67.987 38.2808 67.9443 38.1955C67.9016 38.0674 67.8589 37.982 67.8589 37.8539C67.8589 37.5978 67.9443 37.3417 68.1577 37.2136C68.4139 37.0428 68.7127 36.9575 68.9688 36.9575C69.1396 36.9575 69.353 36.9575 69.5238 37.0002C69.6092 37.0002 69.7372 37.0428 69.8226 37.0855L69.7372 37.4697C69.6519 37.4271 69.5665 37.3844 69.4811 37.3844C69.3103 37.3417 69.1396 37.299 68.9688 37.3417C68.8834 37.3417 68.7981 37.3417 68.7127 37.3844C68.6273 37.3844 68.5419 37.4271 68.4992 37.4697C68.4565 37.5124 68.3712 37.5551 68.3285 37.6405C68.2858 37.7259 68.2858 37.7686 68.2858 37.8539C68.2858 37.9393 68.2858 38.0247 68.3285 38.0674C68.3712 38.1528 68.4139 38.1955 68.4992 38.2382C68.5846 38.2808 68.67 38.3235 68.7554 38.3662L69.0969 38.4943L69.4811 38.665C69.6092 38.7077 69.6945 38.7931 69.7799 38.8358C69.8653 38.9212 69.9507 39.0066 69.9934 39.0919C70.0361 39.22 70.0788 39.3481 70.0788 39.4762C70.0788 39.7323 69.9507 39.9884 69.7372 40.1592C69.4811 40.3299 69.1396 40.4153 68.8407 40.3726C68.6273 40.3726 68.4139 40.3726 68.1577 40.2873C68.0723 40.2446 67.9443 40.2019 67.8589 40.1592L67.9443 39.775L68.0296 39.8177C68.0723 39.8604 68.1577 39.8604 68.2004 39.8604C68.2858 39.9031 68.3712 39.9031 68.4565 39.9031C68.4992 39.9884 68.6273 39.9884 68.7554 39.9884Z" fill="#2F4256"/>
<path d="M70.7197 38.6216C70.7197 38.3654 70.7624 38.1093 70.8478 37.8532C70.9332 37.6397 71.0186 37.469 71.1893 37.2982C71.3174 37.1701 71.4881 37.0421 71.6589 36.9567C71.8297 36.8713 72.0004 36.8286 72.1712 36.8713C72.5554 36.8713 72.8969 36.9994 73.153 37.2555C73.4092 37.597 73.5372 38.0239 73.4946 38.4935C73.4946 38.5362 73.4946 38.5789 73.4946 38.5789C73.4946 38.6216 73.4946 38.6643 73.4946 38.6643H71.1466C71.1466 39.0058 71.232 39.3473 71.4455 39.6034C71.7016 39.8596 72.0004 39.945 72.3419 39.945C72.5127 39.945 72.7261 39.945 72.8969 39.8596C72.9823 39.8169 73.1104 39.8169 73.1957 39.7742L73.2811 40.1157C73.153 40.1584 73.0677 40.2011 72.9396 40.2438C72.7688 40.2865 72.5554 40.3292 72.3419 40.3292C72.0858 40.3292 71.8297 40.2865 71.6162 40.2011C71.4028 40.1157 71.232 39.9877 71.1039 39.8596C70.9759 39.6888 70.8905 39.5181 70.8478 39.3473C70.7624 39.1339 70.7197 38.8777 70.7197 38.6216ZM73.0677 38.4081C73.0677 38.1093 72.9823 37.8532 72.8115 37.597C72.6408 37.3836 72.4273 37.2982 72.1712 37.2982C72.0431 37.2982 71.915 37.3409 71.787 37.3836C71.6589 37.4263 71.5735 37.5116 71.4881 37.6397C71.4028 37.7251 71.3174 37.8532 71.2747 37.9812C71.232 38.1093 71.1893 38.2801 71.1893 38.4081H73.0677Z" fill="#2F4256"/>
<path d="M74.9027 36.9992H76.2261V37.3407H74.9027V39.091C74.9027 39.2618 74.9027 39.3898 74.9454 39.5606C74.9881 39.646 75.0308 39.7314 75.0735 39.8167C75.1162 39.8594 75.2016 39.9448 75.2869 39.9448C75.5004 39.9875 75.7565 39.9875 75.97 39.9021C76.0554 39.8594 76.1407 39.8167 76.2261 39.7741L76.3115 40.1156C76.2261 40.1583 76.098 40.201 76.0127 40.2436C75.8419 40.2863 75.6711 40.329 75.5431 40.329C75.3723 40.329 75.2016 40.2863 75.0308 40.2436C74.9027 40.201 74.7747 40.1156 74.6893 39.9875C74.6039 39.8594 74.5185 39.7314 74.5185 39.5606C74.4758 39.3898 74.4758 39.1764 74.4758 39.0056V35.9747L74.9027 35.8893V36.9992Z" fill="#2F4256"/>
<path d="M77.7636 39.9884C77.9771 39.9884 78.1905 39.9457 78.3613 39.8604C78.532 39.775 78.6174 39.6469 78.6174 39.4762C78.6174 39.3908 78.6174 39.3054 78.5747 39.2627C78.532 39.1773 78.4894 39.1346 78.4467 39.0919C78.3613 39.0493 78.2759 38.9639 78.1905 38.9639L77.8063 38.7931C77.6783 38.7504 77.5502 38.7077 77.4648 38.6224C77.3794 38.5797 77.2514 38.4943 77.166 38.4516C77.0806 38.3662 76.9952 38.2808 76.9525 38.1955C76.9098 38.0674 76.8671 37.982 76.8671 37.8539C76.8671 37.5978 76.9525 37.3417 77.166 37.2136C77.4221 37.0428 77.7209 36.9575 77.9771 36.9575C78.1478 36.9575 78.3613 36.9575 78.5321 37.0002C78.6601 37.0002 78.7455 37.0428 78.8309 37.0855L78.7455 37.4697C78.6601 37.4271 78.5747 37.3844 78.4894 37.3844C78.3186 37.3417 78.1478 37.299 77.9771 37.3417C77.8917 37.3417 77.8063 37.3417 77.7209 37.3844C77.6356 37.3844 77.5502 37.4271 77.5075 37.4697C77.4648 37.5124 77.3794 37.5551 77.3367 37.6405C77.294 37.7259 77.294 37.7686 77.294 37.8539C77.294 37.9393 77.294 38.0247 77.3367 38.0674C77.3794 38.1528 77.4221 38.1955 77.5075 38.2382C77.5929 38.2808 77.6783 38.3235 77.7636 38.3662L78.1052 38.4943L78.4894 38.665C78.6174 38.7077 78.7028 38.7931 78.7882 38.8358C78.8736 38.9212 78.9589 39.0066 79.0016 39.0919C79.0443 39.22 79.087 39.3481 79.087 39.4762C79.087 39.7323 78.9589 39.9884 78.7455 40.1592C78.4894 40.3299 78.1478 40.4153 77.849 40.3726C77.6356 40.3726 77.4221 40.3726 77.166 40.2873C77.0379 40.2446 76.9525 40.2446 76.8245 40.2019L76.9098 39.8177L76.9952 39.8604C77.0379 39.9031 77.1233 39.9031 77.166 39.9031C77.2514 39.9457 77.3367 39.9457 77.4221 39.9457C77.5075 40.0311 77.6356 40.0311 77.7636 39.9884Z" fill="#2F4256"/>
<path d="M82.4173 40.3726C82.2892 40.1165 82.1611 39.8604 82.0331 39.5615C81.905 39.2627 81.7769 39.0066 81.6489 38.7077C81.5208 38.4089 81.4354 38.1101 81.35 37.8539C81.2646 37.5978 81.1793 37.299 81.0939 37.0002H81.5208C81.5635 37.2136 81.6062 37.4271 81.6915 37.6832C81.7769 37.9393 81.8623 38.1528 81.9477 38.4089C82.0331 38.6651 82.1184 38.9212 82.2465 39.1773C82.3746 39.4335 82.46 39.6896 82.6307 39.9457C82.7161 39.6896 82.8015 39.4335 82.8869 39.1773C82.9722 38.9212 83.0149 38.7077 83.1003 38.4943C83.1857 38.2808 83.2284 38.0247 83.2711 37.7686C83.3138 37.5124 83.3991 37.2563 83.4418 36.9575H83.8687C83.7407 37.5551 83.5699 38.1955 83.3991 38.7504C83.2284 39.3054 83.0576 39.8177 82.8442 40.3726C82.7588 40.5434 82.6734 40.7142 82.588 40.8849C82.5027 41.013 82.4173 41.1411 82.2892 41.2264C82.2038 41.3118 82.0758 41.3972 81.905 41.4399C81.7342 41.4826 81.5635 41.5253 81.4354 41.4826C81.35 41.4826 81.222 41.4826 81.1366 41.4399C81.0939 41.4399 81.0085 41.3972 80.9658 41.3972L81.0512 41.0557C81.0939 41.0984 81.1366 41.0984 81.1793 41.0984C81.2646 41.1411 81.35 41.1411 81.4354 41.1411C81.5635 41.1411 81.6489 41.1411 81.7769 41.0984C81.8623 41.0557 81.9477 41.013 82.0331 40.9703C82.1184 40.8849 82.2038 40.8422 82.2465 40.7142C82.2892 40.6288 82.3746 40.5007 82.4173 40.3726Z" fill="#2F4256"/>
<path d="M87.4541 38.6639C87.4541 38.92 87.4114 39.1335 87.326 39.3896C87.2407 39.6031 87.1553 39.7738 87.0272 39.9446C86.8991 40.0727 86.7284 40.2007 86.5576 40.2861C86.1734 40.4569 85.7465 40.4569 85.3623 40.2861C85.1915 40.2007 85.0208 40.0727 84.8927 39.9446C84.7646 39.7738 84.6366 39.6031 84.5939 39.3896C84.5085 39.1762 84.4658 38.92 84.4658 38.6639C84.4658 38.4078 84.5085 38.1943 84.5939 37.9382C84.6793 37.7247 84.7646 37.554 84.8927 37.3832C85.0208 37.2125 85.1915 37.1271 85.3623 37.0417C85.7465 36.8709 86.1734 36.8709 86.5576 37.0417C86.7284 37.1271 86.8991 37.2551 87.0272 37.3832C87.1553 37.554 87.2833 37.7247 87.326 37.9382C87.4114 38.1516 87.4541 38.4078 87.4541 38.6639ZM87.0272 38.6639C87.0272 38.3224 86.9418 37.9809 86.7284 37.6821C86.3869 37.2552 85.7465 37.2125 85.3196 37.554C85.2769 37.5967 85.2342 37.6394 85.1915 37.6821C84.9781 37.9809 84.8927 38.3224 84.8927 38.6639C84.8927 39.0054 84.9781 39.3469 85.1915 39.6458C85.5331 40.0727 86.1734 40.1154 86.643 39.7738C86.6857 39.7312 86.7284 39.6885 86.7711 39.6458C86.9418 39.3469 87.0272 39.0054 87.0272 38.6639Z" fill="#2F4256"/>
<path d="M90.9977 40.2008L90.4854 40.3288C90.2292 40.3715 89.9731 40.4142 89.717 40.3715C89.5035 40.3715 89.2901 40.3288 89.1193 40.2861C88.9486 40.2008 88.8205 40.1154 88.7351 39.9873C88.607 39.8592 88.5643 39.6885 88.5217 39.5177C88.479 39.3043 88.4363 39.0908 88.4363 38.9201V37.0844H88.8632V38.792C88.8632 39.0054 88.8632 39.1762 88.9059 39.3897C88.9486 39.5177 88.9912 39.6885 89.0766 39.7739C89.162 39.8592 89.2474 39.9446 89.3755 39.9873C89.5035 40.03 89.6743 40.0727 89.845 40.0727C90.0158 40.0727 90.1866 40.0727 90.3573 40.03C90.4427 40.03 90.5281 39.9873 90.6135 39.9873V37.0844H91.0403L90.9977 40.2008Z" fill="#2F4256"/>
<path d="M94.9686 35.335C95.0967 35.335 95.2674 35.335 95.3955 35.3777C95.4809 35.3777 95.5236 35.4204 95.6089 35.4631L95.5236 35.8046C95.4382 35.7619 95.3955 35.7619 95.3101 35.7192C95.182 35.6765 95.0967 35.6765 94.9686 35.6765C94.7551 35.6338 94.499 35.7192 94.3283 35.89C94.2002 36.1034 94.1148 36.3595 94.1575 36.6157V36.9572H95.4809V37.2987H94.1575V40.2443H93.7306V36.573C93.6879 36.2315 93.816 35.89 94.0294 35.5911C94.2856 35.4204 94.6271 35.2923 94.9686 35.335Z" fill="#2F4256"/>
<path d="M97.4012 36.9136C97.5292 36.9136 97.6573 36.9136 97.7854 36.9563C97.8707 36.9563 97.9561 36.999 98.0415 36.999L97.9561 37.3405C97.8707 37.2978 97.8281 37.2978 97.7427 37.2978C97.6146 37.2978 97.4438 37.2552 97.3158 37.2552C97.1877 37.2552 97.017 37.2552 96.8889 37.2978C96.8035 37.2978 96.7608 37.3405 96.6754 37.3405V40.2434H96.2485V37.0844C96.3766 37.0417 96.5474 36.999 96.6754 36.9563C96.8889 36.9563 97.145 36.9136 97.4012 36.9136Z" fill="#2F4256"/>
<path d="M98.5532 38.6216C98.5532 38.3654 98.5959 38.1093 98.6813 37.8532C98.7667 37.6397 98.8521 37.469 99.0228 37.2982C99.1509 37.1701 99.3216 37.0421 99.4924 36.9567C99.6632 36.8713 99.8339 36.8286 100.005 36.8713C100.389 36.8713 100.73 36.9994 100.987 37.2555C101.243 37.597 101.371 38.0239 101.328 38.4935C101.328 38.5362 101.328 38.5789 101.328 38.5789C101.328 38.6216 101.328 38.6643 101.328 38.6643H99.0228C99.0228 39.0058 99.1082 39.3473 99.3216 39.6034C99.5351 39.8596 99.8766 39.945 100.218 39.945C100.389 39.945 100.602 39.945 100.773 39.8596C100.858 39.8169 100.987 39.8169 101.072 39.7742L101.157 40.1157C101.072 40.1584 100.944 40.2011 100.816 40.2438C100.645 40.2865 100.432 40.3292 100.218 40.3292C99.962 40.3292 99.7059 40.2865 99.4924 40.2011C99.279 40.1157 99.1082 39.9877 98.9801 39.8596C98.8521 39.6888 98.724 39.5181 98.6813 39.3046C98.5959 39.0912 98.5959 38.8777 98.5532 38.6216ZM100.944 38.3654C100.944 38.0666 100.858 37.8105 100.688 37.5543C100.517 37.3409 100.304 37.2555 100.047 37.2555C99.9193 37.2555 99.7912 37.2982 99.6632 37.3409C99.5351 37.3836 99.4497 37.469 99.3643 37.597C99.2789 37.6824 99.1936 37.8105 99.1509 37.9385C99.1082 38.0666 99.0655 38.2374 99.0655 38.3654H100.944Z" fill="#2F4256"/>
<path d="M102.182 38.6216C102.182 38.3654 102.225 38.1093 102.31 37.8532C102.396 37.6397 102.481 37.469 102.652 37.2982C102.78 37.1701 102.951 37.0421 103.122 36.9567C103.292 36.8713 103.463 36.8286 103.634 36.8713C104.018 36.8713 104.36 36.9994 104.616 37.2555C104.872 37.597 105 38.0239 105 38.4935C105 38.5362 105 38.5789 105 38.5789C105 38.6216 105 38.6643 105 38.6643H102.695C102.695 39.0058 102.78 39.3473 102.993 39.6034C103.25 39.8596 103.548 39.945 103.89 39.945C104.061 39.945 104.231 39.945 104.402 39.8596C104.488 39.8169 104.616 39.8169 104.701 39.7742L104.786 40.1157C104.701 40.1584 104.573 40.2011 104.445 40.2438C104.274 40.2865 104.061 40.3292 103.847 40.3292C103.591 40.3292 103.335 40.2865 103.122 40.2011C102.908 40.1157 102.737 39.9877 102.609 39.8596C102.481 39.6888 102.396 39.5181 102.31 39.3046C102.225 39.0912 102.182 38.8777 102.182 38.6216ZM104.53 38.3654C104.53 38.0666 104.445 37.8105 104.274 37.5543C104.103 37.3409 103.89 37.2555 103.634 37.2555C103.506 37.2555 103.378 37.2982 103.25 37.3409C103.122 37.3836 103.036 37.469 102.951 37.597C102.865 37.6824 102.78 37.8105 102.737 37.9385C102.695 38.0666 102.652 38.2374 102.652 38.3654H104.53Z" fill="#2F4256"/>
<path d="M28.1588 19.4969C28.3722 19.8811 28.6283 20.3507 28.9272 20.9056C29.226 21.4606 29.4821 22.0583 29.781 22.6559C30.0798 23.2536 30.3359 23.8939 30.6348 24.5343C30.9336 25.1746 31.147 25.7723 31.4032 26.2846C31.6593 25.7296 31.8728 25.1746 32.1716 24.5343C32.4704 23.8939 32.7266 23.2963 33.0254 22.6559C33.3242 22.0156 33.5804 21.4606 33.8792 20.9056C34.178 20.3507 34.3915 19.8811 34.6049 19.4969H36.3125C36.3979 20.2653 36.4833 21.0764 36.5686 21.9302C36.654 22.784 36.7394 23.6805 36.7821 24.577C36.8248 25.4735 36.9102 26.3699 36.9528 27.3091C36.9955 28.2483 37.0382 29.1021 37.0809 29.9986H35.1599C35.1172 28.7606 35.0745 27.5226 35.0318 26.1992C34.9891 24.8758 34.9037 23.6378 34.7757 22.4425C34.6476 22.6559 34.5195 22.9548 34.3915 23.2536C34.2634 23.5524 34.0926 23.9366 33.9219 24.3208L33.4096 25.5161L32.8973 26.7115C32.7266 27.0957 32.5558 27.4372 32.4277 27.7787C32.2997 28.1202 32.1716 28.3764 32.0862 28.6325H30.6775C30.5921 28.419 30.464 28.1202 30.2932 27.7787C30.1225 27.4372 29.9944 27.0957 29.8237 26.7115L29.3114 25.5161C29.1406 25.0892 28.9699 24.705 28.7991 24.3635C28.6283 24.022 28.4576 23.6378 28.3295 23.2963C28.2015 22.9548 28.0307 22.6986 27.9453 22.4852C27.8172 23.6805 27.7319 24.9612 27.6892 26.2419C27.6465 27.5226 27.6038 28.8032 27.5611 30.0413H25.5547C25.5974 29.1875 25.6401 28.291 25.6828 27.3518C25.7254 26.4126 25.8108 25.4735 25.8535 24.577C25.8962 23.6805 25.9816 22.784 26.067 21.9302C26.1523 21.0764 26.2377 20.2653 26.3231 19.5396L28.1588 19.4969Z" fill="#2F4256"/>
<path d="M44.8496 29.7847C44.5081 29.8701 44.0385 29.9555 43.4835 30.0408C42.8858 30.1262 42.2455 30.2116 41.6052 30.1689C41.0502 30.1689 40.4952 30.0835 39.9829 29.9128C39.5987 29.742 39.2145 29.4859 38.9584 29.1444C38.7023 28.8028 38.4888 28.4186 38.4034 27.9917C38.2754 27.5221 38.2327 27.0099 38.2327 26.4976V22.0579H40.0683V26.1988C40.0256 26.8391 40.1537 27.4795 40.4525 28.0344C40.7514 28.4186 41.2209 28.6321 41.7332 28.5894C41.9467 28.5894 42.2028 28.5894 42.459 28.5467C42.6297 28.5467 42.8432 28.504 43.0139 28.4613V22.0579H44.8496V29.7847Z" fill="#2F4256"/>
<path d="M46.2153 19.9664L48.051 19.6676V22.0582H50.8685V23.5951H48.051V26.8395C48.0083 27.3091 48.0937 27.7787 48.3498 28.2056C48.606 28.5044 48.9902 28.6751 49.3744 28.6324C49.6732 28.6324 49.972 28.5898 50.2709 28.5471C50.527 28.4617 50.7404 28.419 50.8685 28.3336L51.1673 29.7851C50.8685 29.9131 50.6124 29.9985 50.3135 30.0412C49.9293 30.1266 49.5024 30.212 49.1182 30.1693C48.6486 30.1693 48.1791 30.0839 47.7095 29.9131C47.368 29.7851 47.0264 29.5289 46.813 29.2301C46.5995 28.9313 46.4288 28.5471 46.3434 28.2056C46.258 27.736 46.2153 27.2664 46.2153 26.7968V19.9664Z" fill="#2F4256"/>
<path d="M58.3396 29.7847C57.998 29.8701 57.5285 29.9555 56.9735 30.0408C56.3758 30.1262 55.7355 30.2116 55.0951 30.1689C54.5402 30.1689 53.9852 30.0835 53.4729 29.9128C53.0887 29.742 52.7045 29.4859 52.4484 29.1444C52.1922 28.8028 51.9788 28.4186 51.8934 27.9917C51.7653 27.5221 51.7227 27.0099 51.7227 26.4976V22.0579H53.5583V26.1988C53.5156 26.8391 53.6437 27.4795 53.9425 28.0344C54.2413 28.4186 54.7109 28.6321 55.2232 28.5894C55.4367 28.5894 55.6928 28.5894 55.9063 28.5467C56.077 28.5467 56.2905 28.504 56.4612 28.4613V22.0579H58.2969L58.3396 29.7847Z" fill="#2F4256"/>
<path d="M62.4375 21.8871C62.9498 21.8871 63.4621 21.9725 63.9744 22.1006C64.3586 22.2287 64.7001 22.4421 64.9562 22.7409C65.2124 23.0398 65.3831 23.3813 65.4685 23.7228C65.5966 24.1497 65.6393 24.5766 65.6393 25.0035V29.8274C65.3404 29.8701 64.9135 29.9555 64.3586 30.0409C63.7182 30.1263 63.0779 30.169 62.4375 30.169C62.0106 30.169 61.5411 30.1263 61.1142 30.0409C60.7726 29.9555 60.4311 29.8274 60.0896 29.614C59.7908 29.4005 59.5773 29.1444 59.4492 28.8456C59.2785 28.4614 59.1931 28.0772 59.1931 27.6503C59.1931 27.2661 59.2785 26.8392 59.4492 26.4976C59.62 26.1988 59.8762 25.9 60.175 25.7292C60.5165 25.5158 60.858 25.3877 61.2422 25.3023C61.6691 25.2169 62.0533 25.1743 62.4802 25.1743C62.6937 25.1743 62.9071 25.1743 63.1206 25.2169C63.3767 25.2596 63.5902 25.3023 63.8463 25.345V25.0462C63.8463 24.8327 63.8036 24.6193 63.7609 24.4485C63.7182 24.2778 63.6328 24.107 63.5048 23.9363C63.3767 23.7655 63.2059 23.6801 62.9925 23.5947C62.7364 23.5094 62.4802 23.4667 62.2241 23.4667C61.8399 23.4667 61.4557 23.5094 61.0715 23.552C60.7726 23.5947 60.5165 23.6801 60.2177 23.7655L60.0042 22.2714C60.3457 22.1433 60.6873 22.1006 61.0288 22.0152C61.4984 21.9298 61.9679 21.8871 62.4375 21.8871ZM62.6083 28.7175C63.0352 28.7175 63.4621 28.7175 63.889 28.6321V26.583C63.7609 26.5403 63.5902 26.4976 63.4621 26.4976C63.2486 26.4549 63.0352 26.4549 62.8217 26.4549C62.6083 26.4549 62.3948 26.4549 62.2241 26.4976C62.0106 26.5403 61.8399 26.583 61.6691 26.6684C61.4984 26.7538 61.3703 26.8818 61.2849 27.0099C61.1995 27.1807 61.1142 27.3514 61.1142 27.5649C61.0715 27.9064 61.2422 28.2906 61.5411 28.4614C61.8826 28.6748 62.2668 28.7602 62.6083 28.7175Z" fill="#2F4256"/>
<path d="M69.8226 30.1684C69.3531 30.1684 68.9262 30.1257 68.4566 29.9977C68.1577 29.9123 67.8589 29.7415 67.6028 29.5281C67.3893 29.3146 67.2186 29.0585 67.1332 28.7597C67.0478 28.4182 67.0051 28.0766 67.0051 27.6924V18.5568L68.8408 18.258V27.3509C68.8408 27.5217 68.8408 27.7351 68.8835 27.9059C68.9262 28.2047 69.1396 28.4608 69.4384 28.5462C69.6519 28.5889 69.8226 28.6316 70.0361 28.6743L69.8226 30.1684Z" fill="#2F4256"/>
<path d="M74.605 29.9986V19.4969H81.2219V21.1191H76.526V23.8085H80.7096V25.4308H76.526V29.9986H74.605Z" fill="#2F4256"/>
<path d="M88.1801 29.7847C87.8386 29.8701 87.369 29.9555 86.8141 30.0408C86.2164 30.1262 85.5761 30.2116 84.9357 30.1689C84.3808 30.1689 83.8258 30.0835 83.3135 29.9128C82.9293 29.742 82.5451 29.4859 82.289 29.1444C82.0328 28.8028 81.8194 28.4186 81.734 27.9917C81.6059 27.5221 81.5632 27.0099 81.5632 26.4976V22.0579H83.3989V26.1988C83.3562 26.8391 83.4843 27.4795 83.7831 28.0344C84.0819 28.4186 84.5515 28.6321 85.0638 28.5894C85.2772 28.5894 85.5334 28.5894 85.7895 28.5467C85.9603 28.5467 86.1737 28.504 86.3445 28.4613V22.0579H88.1801V29.7847Z" fill="#2F4256"/>
<path d="M89.6731 22.314C90.1427 22.186 90.5696 22.1006 91.0392 22.0152C91.6795 21.9298 92.2772 21.8871 92.9175 21.8871C93.4725 21.8871 94.0275 21.9725 94.5397 22.1433C94.9239 22.314 95.3081 22.5702 95.5643 22.869C95.8204 23.2105 96.0339 23.5947 96.1192 24.0216C96.2473 24.4912 96.29 25.0035 96.29 25.5158V29.9555H94.4543V25.7719C94.4543 25.3877 94.4117 25.0462 94.369 24.7047C94.3263 24.4485 94.2409 24.1924 94.1128 23.9789C93.9848 23.7655 93.814 23.6374 93.6005 23.552C93.3444 23.4667 93.0883 23.424 92.7894 23.424C92.5333 23.424 92.3199 23.424 92.0637 23.4667L91.5088 23.552V29.9555H89.6731V22.314Z" fill="#2F4256"/>
<path d="M104.402 29.7842C103.932 29.9123 103.506 29.9977 103.036 30.0831C102.481 30.1684 101.883 30.2111 101.286 30.2111C100.731 30.2111 100.133 30.1257 99.5781 29.9123C99.1085 29.7415 98.6389 29.4427 98.2974 29.1012C97.9559 28.717 97.6571 28.2901 97.4863 27.8205C97.2729 27.2655 97.1875 26.7106 97.1875 26.1129C97.1875 25.5153 97.2729 24.9603 97.4436 24.4053C97.5717 23.9357 97.8278 23.4661 98.1267 23.0819C98.4255 22.6977 98.8097 22.4416 99.2366 22.2281C99.7062 22.0147 100.218 21.9293 100.731 21.9293C101.072 21.9293 101.414 21.972 101.755 22.0574C102.011 22.1428 102.268 22.2281 102.524 22.3562V18.5568L104.359 18.258L104.402 29.7842ZM99.1512 26.0275C99.1085 26.7106 99.322 27.3936 99.7062 27.9059C100.09 28.3755 100.688 28.6316 101.286 28.5889C101.542 28.5889 101.798 28.5889 102.054 28.5462C102.225 28.5462 102.396 28.5035 102.566 28.4608V23.893C102.353 23.765 102.14 23.6796 101.926 23.5942C101.67 23.5088 101.371 23.4661 101.072 23.4661C100.517 23.4235 99.9623 23.6796 99.6208 24.1492C99.2793 24.7468 99.1085 25.3872 99.1512 26.0275Z" fill="#2F4256"/>
<path d="M32.9827 14.8865C32.6411 14.3742 32.2996 13.7766 31.9154 13.1789C31.5312 12.5813 31.1043 11.9409 30.6774 11.3006C30.2505 10.6602 29.8236 10.0626 29.3967 9.46492C28.9698 8.86727 28.5429 8.35499 28.1587 7.8854V14.8865H26.4084V5.15326H27.8599C28.2441 5.53747 28.6283 6.00705 29.0552 6.56202C29.4821 7.11699 29.909 7.67195 30.3786 8.22692C30.8482 8.78189 31.2324 9.37954 31.6593 9.9772C32.0862 10.5749 32.4277 11.1298 32.7692 11.5994V5.15326H34.5622V14.9292H32.9827V14.8865Z" fill="#2F4256"/>
<path d="M37.8067 5.36574C37.8067 5.66457 37.7214 5.92071 37.5079 6.13415C37.2945 6.30491 37.0383 6.43298 36.7822 6.43298C36.5261 6.43298 36.2272 6.3476 36.0138 6.13415C35.5869 5.70726 35.5869 5.02422 36.0138 4.59732C36.2272 4.42657 36.4834 4.34119 36.7395 4.34119C36.9956 4.34119 37.2945 4.42656 37.4652 4.64001C37.7214 4.81077 37.8067 5.1096 37.8067 5.36574ZM37.636 14.9282H35.9284V7.54292H37.636V14.9282Z" fill="#2F4256"/>
<path d="M45.5761 11.2149C45.5761 11.7272 45.4908 12.2821 45.3627 12.7517C45.2346 13.1786 45.0212 13.6055 44.765 13.947C44.5089 14.2885 44.1247 14.5447 43.7405 14.7154C43.3136 14.8862 42.844 15.0143 42.3317 15.0143C41.9902 15.0143 41.6914 14.9716 41.3925 14.8862C41.1364 14.8008 40.8803 14.7154 40.6668 14.5874V17.4476H38.9592V7.75701C39.3007 7.67163 39.7276 7.58625 40.2399 7.50087C40.7522 7.41549 41.3072 7.3728 41.8621 7.3728C42.3744 7.3728 42.9294 7.45818 43.4416 7.62894C43.8685 7.7997 44.2954 8.05584 44.637 8.39736C44.9785 8.73887 45.2346 9.16577 45.4054 9.59267C45.5334 10.1049 45.6188 10.6599 45.5761 11.2149ZM43.8685 11.2149C43.9112 10.5745 43.6978 9.93419 43.3563 9.4646C42.9294 8.99501 42.3317 8.78156 41.6914 8.82425C41.5206 8.82425 41.3499 8.82425 41.1791 8.82425C41.0083 8.82425 40.8376 8.86694 40.6668 8.90963V13.1359C40.8376 13.264 41.051 13.3494 41.2645 13.4347C41.5206 13.5201 41.7767 13.5628 42.0756 13.5628C42.5879 13.6055 43.1428 13.3494 43.4416 12.9225C43.7405 12.4102 43.8685 11.8125 43.8685 11.2149Z" fill="#2F4256"/>
<path d="M53.1323 11.2149C53.1323 11.7272 53.0469 12.2821 52.9188 12.7517C52.7908 13.1786 52.5773 13.6055 52.2785 13.947C52.0224 14.2885 51.6381 14.5447 51.2539 14.7154C50.827 14.8862 50.3575 15.0143 49.8879 15.0143C49.5463 15.0143 49.2475 14.9716 48.9487 14.8862C48.6926 14.8008 48.4791 14.7154 48.223 14.5874V17.4476H46.5154V7.75701C46.8569 7.67163 47.2838 7.58625 47.7961 7.50087C48.3083 7.41549 48.8633 7.3728 49.4183 7.3728C49.9306 7.3728 50.4855 7.45818 50.9978 7.62894C51.4247 7.7997 51.8516 8.05584 52.1931 8.39736C52.5346 8.73887 52.7908 9.16577 52.9188 9.63536C53.0469 10.1476 53.1323 10.6599 53.1323 11.2149ZM51.382 11.2576C51.4247 10.6172 51.2539 9.97688 50.8697 9.4646C50.4428 8.99501 49.8452 8.78156 49.2048 8.82425C49.0341 8.82425 48.8633 8.82425 48.6926 8.82425C48.5218 8.82425 48.351 8.86694 48.1803 8.90963V13.1359C48.351 13.264 48.5645 13.3494 48.7779 13.4347C49.0341 13.5201 49.2902 13.5628 49.589 13.5628C50.1013 13.6055 50.6563 13.3494 50.9551 12.9225C51.2966 12.4102 51.4247 11.8125 51.382 11.2576Z" fill="#2F4256"/>
<path d="M60.731 11.2144C60.731 11.7693 60.6456 12.2816 60.4749 12.7939C60.3041 13.2635 60.0907 13.6477 59.7492 14.0319C59.4503 14.3734 59.0661 14.6295 58.6392 14.8003C58.1696 15.0138 57.7001 15.0991 57.1878 15.0991C56.6755 15.0991 56.2059 15.0138 55.7363 14.8003C55.3094 14.6295 54.9252 14.3734 54.6264 14.0319C54.2849 13.6904 54.0714 13.2635 53.9007 12.7939C53.7299 12.2816 53.6445 11.7266 53.6445 11.2144C53.6445 10.6594 53.7299 10.1471 53.9007 9.63485C54.0714 9.16526 54.3276 8.78105 54.6264 8.39684C54.9252 8.05532 55.3094 7.79918 55.7363 7.62843C56.2059 7.45767 56.6755 7.3296 57.1451 7.37229C57.6147 7.37229 58.1269 7.45767 58.5965 7.62843C59.0234 7.79918 59.4076 8.05532 59.7065 8.39684C60.0053 8.73836 60.2614 9.16526 60.4322 9.63485C60.6456 10.1471 60.731 10.6594 60.731 11.2144ZM58.9807 11.2144C59.0234 10.6167 58.8527 9.97636 58.5112 9.46409C57.9562 8.73836 56.8889 8.61029 56.1632 9.16526C56.0352 9.25064 55.9498 9.33602 55.8644 9.46409C55.5229 9.97636 55.3521 10.574 55.3948 11.2144C55.3521 11.8547 55.5229 12.4524 55.8644 12.9646C56.4194 13.6904 57.4866 13.8184 58.2123 13.2635C58.3404 13.1781 58.4258 13.0927 58.5112 12.9646C58.8527 12.4524 59.0234 11.812 58.9807 11.2144Z" fill="#2F4256"/>
<path d="M61.6272 7.75701C62.0541 7.62894 62.481 7.54356 62.9079 7.50087C63.5055 7.41549 64.0605 7.3728 64.6582 7.3728C65.1704 7.3728 65.6827 7.45818 66.1523 7.62894C66.5365 7.75701 66.878 8.01315 67.1342 8.31198C67.3903 8.61081 67.5611 8.99501 67.6465 9.37922C67.7745 9.84881 67.8172 10.2757 67.8172 10.7453V14.8862H66.1096V11.0014C66.1096 10.6599 66.1096 10.3184 66.0242 9.97688C65.9816 9.72074 65.8962 9.50729 65.7681 9.29384C65.64 9.12308 65.4693 8.99501 65.2985 8.90963C65.0424 8.82425 64.8289 8.78157 64.5728 8.78157C64.3593 8.78157 64.1032 8.78156 63.8898 8.82425L63.3775 8.90963V14.8435H61.6699L61.6272 7.75701Z" fill="#2F4256"/>
<path d="M71.5747 2.3781C71.9589 2.50617 72.3004 2.76231 72.5138 3.14652L73.1115 4.34183C73.1969 4.38452 73.2823 4.38452 73.3676 4.38452C73.453 4.38452 73.4957 4.38452 73.5811 4.34183C73.5811 4.21376 73.5811 4.08569 73.5811 3.95762C73.4103 3.57342 73.2823 3.18921 73.1542 2.76231C73.0261 2.37811 72.8981 1.9939 72.7273 1.60969C72.4712 1.26817 72.1723 1.01203 71.7881 0.883964C71.4893 0.755895 71.1478 0.627825 70.6782 0.499756H70.3367V0.713205C70.5928 1.26817 70.7636 1.69507 70.849 1.95121C71.0197 2.16466 71.2758 2.33542 71.5747 2.3781Z" fill="#2F4256"/>
<path d="M71.5735 14.2874L73.0676 15.0985V7.41437H71.5735V14.2874Z" fill="#2F4256"/>
<path d="M79.2143 7.41437C78.4032 7.41437 77.6348 7.7132 76.9944 8.22547L76.1833 8.82313V7.75589H74.6465V14.3301L76.0979 15.0985V12.6225C76.0979 11.5553 76.3968 10.5307 76.9944 9.67692C77.6775 8.65237 78.4886 8.09741 79.5131 8.09741C80.8365 8.09741 81.5195 8.82313 81.5195 10.2319C81.5622 11.1284 81.3061 12.0249 80.7084 12.7506C80.3242 13.2202 79.8973 13.6471 79.4704 14.074L81.178 15.1412C82.3306 13.9032 82.7575 12.7506 82.7575 11.3845C82.7575 10.36 82.416 9.3781 81.7757 8.60968C81.2207 7.84127 80.2388 7.41437 79.2143 7.41437Z" fill="#2F4256"/>
<path d="M94.4548 2.3781C94.839 2.50617 95.1805 2.76231 95.4367 3.14652L95.9916 4.34183C96.077 4.38452 96.1624 4.38452 96.2478 4.38452C96.3758 4.38452 96.4185 4.38452 96.4612 4.34183C96.4612 4.21376 96.4612 4.08569 96.4612 3.95762C96.2905 3.57342 96.1624 3.18921 96.0343 2.76231C95.9063 2.37811 95.7782 1.9939 95.6074 1.60969C95.394 1.26817 95.0525 1.01203 94.6682 0.883964C94.284 0.713205 93.9425 0.585135 93.5583 0.499756H93.2168V0.713205C93.3876 1.1401 93.601 1.52431 93.7291 1.95121C93.8998 2.16466 94.156 2.33542 94.4548 2.3781Z" fill="#2F4256"/>
<path d="M94.4558 14.3301L95.95 15.1412V7.41437H94.4558V14.3301Z" fill="#2F4256"/>
<path d="M104.957 6.30444V5.23719H92.4062C92.4488 3.61498 92.15 2.03546 91.5097 0.541321H89.6313C89.9728 1.09629 90.229 1.73663 90.4424 2.37698C90.6986 3.31615 90.7839 4.29802 90.7412 5.23719H70.4636V6.30444H90.7839V9.805C89.9728 8.9512 89.5032 8.43892 89.2898 8.26816C88.7775 7.79858 88.0945 7.49975 87.3688 7.45706C86.3442 7.45706 85.405 7.92665 84.8074 8.73775C84.167 9.50617 83.8682 10.1465 83.8682 10.7442C83.8682 11.4272 84.1243 12.1102 84.5512 12.6652C84.9354 13.2202 85.4477 13.7325 86.0027 14.1593C86.5577 14.5862 87.2407 14.8424 87.9237 14.8851C88.8629 14.8851 89.8021 14.2447 90.7412 13.0067V14.4155L92.3635 15.0985V6.30444H98.4681V8.60968L98.4254 8.65237L98.0839 8.9512V9.63424C98.4254 9.50617 98.7669 9.3781 99.1084 9.25003C99.9622 8.90851 100.816 8.73775 101.713 8.73775C102.054 8.69506 102.396 8.78044 102.737 8.90851C103.036 9.07927 103.292 9.29272 103.505 9.59155V10.3173C102.908 9.89037 102.182 9.67692 101.456 9.71961C100.133 9.67692 98.8523 10.1892 97.9558 11.1284C97.5289 11.5126 97.2728 12.0249 97.2301 12.5798C97.2301 13.0067 97.4008 13.4336 97.6997 13.7751C98.3827 14.5436 99.3646 14.9278 100.389 14.8851C101.158 14.8851 101.926 14.757 102.609 14.4155C102.822 14.3301 103.079 14.202 103.377 13.9886C103.463 14.0313 103.505 14.3301 103.505 14.5009C104.317 14.8424 104.786 15.0131 104.914 15.0985V11.598C104.914 10.1038 104.786 9.07927 104.53 8.56699C104.146 7.84127 103.292 7.45706 101.969 7.45706C101.627 7.45706 101.328 7.49975 100.987 7.54244C100.56 7.62782 100.133 7.7132 99.7061 7.79858C99.7061 7.75589 99.6634 7.75589 99.6207 7.75589V6.30444H104.957ZM89.674 11.8968C89.3325 12.3664 88.9483 12.7933 88.4787 13.1348C88.0091 13.5617 87.4114 13.8178 86.7711 13.8605C86.2588 13.8605 85.7892 13.6044 85.5331 13.1775C85.2343 12.7506 85.1062 12.281 85.1062 11.7687C85.1062 10.7869 85.7039 9.93306 86.8565 9.20734C87.2407 8.90851 87.7103 8.73775 88.1799 8.69506C88.6921 8.69506 89.1617 8.82313 89.5886 9.12196C90.0155 9.3781 90.3144 9.80499 90.357 10.3173C90.2717 10.9149 90.0582 11.4699 89.674 11.8968ZM102.353 13.0494C101.456 13.6044 100.389 13.9032 99.3219 13.8605C98.4681 13.8605 97.9558 13.6471 97.8704 13.2202C97.9131 12.8787 98.0839 12.5798 98.34 12.3237C99.0657 11.4272 100.176 10.9149 101.328 10.9576C101.755 10.9576 102.182 11.043 102.609 11.2138C103.249 11.4272 103.548 11.6407 103.548 11.9395C103.548 12.1956 103.121 12.5798 102.353 13.0494Z" fill="#2F4256"/>
</svg>
