<svg width="108" height="32" viewBox="0 0 108 32" fill="none" xmlns="http://www.w3.org/2000/svg">
<path fill-rule="evenodd" clip-rule="evenodd" d="M12.5477 18.3766C15.8669 19.52 18.7011 20.2199 18.7011 23.844C18.7011 24.2874 18.6525 24.7771 18.5555 25.313C17.6894 30.5031 13.4832 31.9514 8.3901 31.9514C5.88858 31.9514 2.82578 31.6465 0.483643 31.0644L1.5577 27.4611C3.31084 27.7937 5.84007 28.0917 7.66251 28.0917C9.51266 28.0917 13.0397 28.1402 13.4832 25.5001C13.5317 25.2922 13.5525 25.1051 13.5525 24.918C13.5525 22.8808 11.4044 22.6729 9.51266 22.0631C6.30434 21.086 3.24155 20.2407 3.24155 16.5542C3.24155 16.1477 3.28081 15.7019 3.35935 15.2168C4.17702 10.29 8.01591 8.88336 12.617 8.88336C15.8461 8.88336 18.4169 9.14668 21.1056 9.74954L20.0315 13.2766C18.2784 12.9301 16.0332 12.6737 13.9752 12.6737C12.0835 12.6737 8.73657 12.6737 8.36238 14.9605C8.33466 15.1037 8.3208 15.2446 8.3208 15.3831C8.3208 17.3719 10.8431 17.7669 12.5477 18.3766Z" fill="#2F4256"/>
<path fill-rule="evenodd" clip-rule="evenodd" d="M40.6049 25.895C40.3693 27.371 40.0644 28.6529 39.7179 30.0111C36.863 31.4386 33.336 31.9998 28.9843 31.9998C23.517 31.9998 21.2441 30.1982 21.2441 26.6919C21.2441 26.1791 21.2926 25.5971 21.3897 24.9873C22.041 21.0583 24.2169 18.6053 28.818 17.9539C31.4373 17.5797 34.2922 17.4619 37.1679 17.3719C37.2465 16.9007 37.2857 16.4641 37.2857 16.0622C37.2857 13.8171 36.0246 12.6737 33.0033 12.6737C30.2246 12.6737 26.3927 13.1172 23.9605 13.4221L25.083 9.81881C27.6538 9.40304 30.6889 8.93184 34.1051 8.93184C38.7132 8.93184 42.4065 10.0336 42.4065 14.3991C42.4065 14.8911 42.358 15.4039 42.261 15.9929L40.6049 25.895ZM26.3026 24.9111C26.2541 25.2645 26.2056 25.5624 26.2056 25.8465C26.2056 27.8768 27.7023 28.4173 30.3009 28.4173C31.8184 28.4173 33.7309 28.2995 35.3039 27.6482C35.5603 26.7335 35.789 25.6386 35.9553 24.6339L36.6551 20.497C34.5763 20.5663 32.1926 20.6079 30.2247 21.0306C27.7231 21.5711 26.7461 22.2917 26.3026 24.9111ZM51.7127 31.688H46.7582L49.8418 13.4152H45.31L46.4048 9.81881H50.4516L50.8743 7.08169C51.5949 2.73695 54.4013 0.256226 59.2658 0.256226C60.132 0.256226 62.0722 0.422531 63.0077 0.561119L61.9752 3.88031C61.9752 3.88031 60.3191 3.78329 59.64 3.81101C57.6304 3.85952 56.2238 4.81577 55.8496 6.9431L55.4061 9.81881H60.1528L59.051 13.4152H54.7963L51.7127 31.688Z" fill="#2F4256"/>
<path fill-rule="evenodd" clip-rule="evenodd" d="M79.0424 25.8952C78.8068 27.3712 78.5019 28.6531 78.1485 30.0113C75.3213 31.4387 71.7665 32 67.4218 32C61.9476 32 59.6816 30.1984 59.6816 26.6921C59.6816 26.1793 59.7301 25.5972 59.8479 24.9874C60.4993 21.0585 62.6751 18.6055 67.2555 17.9541C69.8956 17.5799 72.7297 17.4621 75.6262 17.372C75.7047 16.9008 75.744 16.4643 75.744 16.0624C75.744 13.8172 74.4551 12.6739 71.4408 12.6739C68.6622 12.6739 65.433 12.9511 63.0216 13.2352L64.0749 9.79818C66.6457 9.4032 69.1472 8.93201 72.5426 8.93201C77.1437 8.93201 80.8371 10.0338 80.8371 14.3993C80.8371 14.8913 80.7955 15.4041 80.6985 15.9931L79.0424 25.8952ZM64.7332 24.9112C64.6916 25.2646 64.6639 25.5626 64.6639 25.8467C64.6639 27.877 66.1398 28.4175 68.7592 28.4175C70.2767 28.4175 72.1684 28.2997 73.7622 27.6483C74.0186 26.7337 74.2265 25.6388 74.4136 24.634L75.0926 20.4972C73.0346 20.5665 70.6301 20.6081 68.6622 21.0307C66.1606 21.5712 65.1767 22.2919 64.7332 24.9112ZM82.126 31.6882L84.9116 15.0299C85.168 13.5331 85.4521 12.2443 85.7986 10.893C88.6258 9.48636 92.2291 8.92508 95.2711 8.92508C96.0402 8.92508 96.9757 8.99437 97.6548 9.07059L96.4837 12.8333C95.9917 12.7848 95.2919 12.7362 94.6405 12.7362C93.1437 12.7362 91.3421 12.9926 90.268 13.4846C90.0116 14.3924 89.776 15.4942 89.6097 16.4989L87.0597 31.6882H82.126ZM106.254 9.22997L102.492 31.6882H97.5093L101.279 9.22997H106.254ZM107.841 3.1806C107.564 4.90602 105.949 6.33348 104.196 6.33348C102.443 6.33348 101.251 4.90602 101.508 3.1806C101.785 1.42746 103.42 0 105.152 0C106.906 0 108.097 1.42746 107.841 3.1806Z" fill="#2F4256"/>
</svg>
