<svg width="61" height="40" viewBox="0 0 61 40" fill="none" xmlns="http://www.w3.org/2000/svg">
<path d="M55.5635 39.9811C52.7764 39.9811 51.1233 38.5647 50.9968 36.5246H53.6618C53.6618 37.2046 54.0412 38.1099 55.6899 38.1662C56.8327 38.1662 57.4651 37.4862 57.4651 36.9751C57.3386 36.1824 56.3224 36.126 55.3105 35.9528C54.396 35.8455 53.4999 35.6182 52.6455 35.2771C52.2111 35.0356 51.8515 34.6809 51.6055 34.251C51.3595 33.8212 51.2365 33.3327 51.2498 32.8385C51.2498 31.0237 52.7764 29.6073 55.437 29.6073C57.9754 29.6073 59.6241 30.9111 59.7462 32.8948H57.2121C57.2121 32.3881 57.0857 31.5348 55.5635 31.5348C54.5472 31.5348 53.9148 31.7037 53.7883 32.44C53.7883 33.4622 55.9429 33.406 57.5916 33.8002C59.1138 34.1987 60.13 35.1602 60.13 36.5246C60.13 39.0195 58.1019 39.9811 55.5635 39.9811Z" fill="#2F4256"/>
<path d="M7.00269 23.2412L15.7521 18.1951L20.4453 26.191H8.65157" fill="#2F4256"/>
<path d="M25.4031 39.6784V29.5863V39.6784Z" fill="#2F4256"/>
<path d="M25.4031 39.6784V29.5863" stroke="#2F4256" stroke-width="2.56035"/>
<path d="M2.94155 34.7834C2.94155 36.3687 4.33726 37.6724 5.8551 37.6724C7.50816 37.6724 8.77302 36.3687 8.77302 34.7834C8.77302 33.2544 7.50816 31.8944 5.8551 31.8944C5.0914 31.9202 4.36601 32.2327 3.82528 32.7689C3.28454 33.3051 2.96872 34.025 2.94155 34.7834ZM5.72862 39.9984C2.94155 39.9984 0.533936 37.6724 0.533936 34.7834C0.533936 31.8943 2.94155 29.6246 5.72862 29.6246C6.87136 29.6246 7.88761 29.9106 8.77302 30.53V29.7372H11.3115V39.7688H8.77302V39.145C8.0141 39.7124 6.87136 39.9984 5.72862 39.9984Z" fill="#2F4256"/>
<path d="M39.594 26.1874L27.4207 5.10209L36.1703 -0.000305176L51.388 26.1874" fill="#2F4256"/>
<path d="M14.6099 34.7807C14.6099 36.366 15.8791 37.6697 17.5278 37.6697C19.0456 37.6697 20.4457 36.366 20.4457 34.7807C20.4175 34.022 20.1007 33.3021 19.5593 32.766C19.0178 32.2299 18.2919 31.9175 17.5278 31.8917C16.7565 31.8951 16.0176 32.2003 15.4714 32.7411C14.9251 33.282 14.6156 34.0148 14.6099 34.7807ZM17.4013 39.9958C16.7138 39.997 16.0329 39.8625 15.3982 39.6002C14.7634 39.3379 14.1875 38.9529 13.7038 38.4677C13.2201 37.9826 12.8383 37.4067 12.5805 36.7738C12.3228 36.1409 12.1942 35.4634 12.2023 34.7807C12.2023 31.8917 14.4834 29.622 17.4013 29.622C18.5397 29.622 19.5559 29.9079 20.4457 30.5273V26.2781H22.9798V39.7662H20.4457V39.1424C19.5365 39.7158 18.4782 40.0125 17.4013 39.9958Z" fill="#2F4256"/>
<path d="M17.2742 14.2273L26.1504 9.24188L35.9158 26.1863H26.6562V28.6812H24.122V26.1863" fill="#2F4256"/>
<path d="M58.4868 28.7618C58.1554 28.7522 57.8402 28.6181 57.6046 28.3866C57.369 28.155 57.2306 27.8433 57.2175 27.5144C57.2306 27.1855 57.369 26.8738 57.6046 26.6423C57.8402 26.4107 58.1554 26.2766 58.4868 26.267C58.6536 26.2623 58.8197 26.2913 58.975 26.3521C59.1303 26.413 59.2715 26.5044 59.3901 26.621C59.5088 26.7376 59.6024 26.8769 59.6652 27.0305C59.7281 27.184 59.759 27.3487 59.756 27.5144C59.759 27.6802 59.7281 27.8448 59.6652 27.9983C59.6024 28.1519 59.5088 28.2912 59.3901 28.4078C59.2715 28.5245 59.1303 28.616 58.975 28.6768C58.8197 28.7377 58.6536 28.7665 58.4868 28.7618ZM58.4868 26.4403C57.85 26.4403 57.4705 26.947 57.4705 27.5144C57.4705 28.0818 57.85 28.5929 58.4868 28.5929C59.1192 28.5929 59.4987 28.0818 59.4987 27.5144C59.4987 26.947 59.1192 26.4403 58.4868 26.4403Z" fill="#2F4256"/>
<path d="M58.7491 28.1988L58.4961 27.6314H58.2431V28.1988H58.0512V26.8387H58.6226C58.7491 26.8387 59.0021 27.012 59.0021 27.2372C59.0064 27.3209 58.9844 27.4038 58.939 27.4745C58.8937 27.5451 58.8273 27.6 58.7491 27.6314L59.0021 28.1988M58.4961 27.012H58.2431V27.4625H58.4961C58.7491 27.4625 58.7491 27.4061 58.7491 27.2372C58.7491 27.1203 58.7491 27.012 58.4961 27.012ZM41.7388 34.7825C41.7388 36.3678 43.008 37.6715 44.6567 37.6715C46.1789 37.6715 47.5703 36.3678 47.5703 34.7825C47.5441 34.0238 47.2286 33.3033 46.6877 32.7669C46.1467 32.2305 45.4208 31.9183 44.6567 31.8935C43.8854 31.8969 43.1465 32.2021 42.6003 32.7429C42.0541 33.2838 41.7446 34.0166 41.7388 34.7825ZM44.5259 39.9976C43.8388 39.9982 43.1583 39.8633 42.5241 39.6008C41.8898 39.3382 41.3144 38.9531 40.8312 38.4679C40.3479 37.9828 39.9665 37.4073 39.709 36.7747C39.4515 36.142 39.3231 35.4649 39.3312 34.7825C39.3312 31.8935 41.6123 29.6238 44.5259 29.6238C45.6686 29.6238 46.6849 29.9097 47.5703 30.5291V29.7364H49.9823V39.768H47.5703V39.1442C46.6616 39.7188 45.603 40.0156 44.5259 39.9976ZM30.0802 34.7825C30.0802 36.3678 31.4759 37.6715 32.9981 37.6715C34.6468 37.6715 35.916 36.3678 35.916 34.7825C35.9103 34.0166 35.6008 33.2838 35.0546 32.7429C34.5083 32.2021 33.7695 31.8969 32.9981 31.8935C32.2337 31.9183 31.5072 32.2303 30.9655 32.7666C30.4239 33.3029 30.1075 34.0234 30.0802 34.7825ZM35.916 26.2799H38.4501V39.768H35.916V39.1442C35.0614 39.7334 34.0379 40.0328 32.9981 39.9976C30.0802 39.9976 27.6726 37.6716 27.6726 34.7825C27.6726 31.8935 30.0802 29.6238 32.9981 29.6238C34.1365 29.6238 35.1528 29.9097 35.916 30.5291V26.2799Z" fill="#2F4256"/>
</svg>
