<svg width="180" height="36" viewBox="0 0 180 36" fill="none" xmlns="http://www.w3.org/2000/svg">
<path d="M158.137 30.1335L158.774 30.0675C158.796 30.3808 158.913 30.68 159.11 30.9245C159.185 31.0124 159.278 31.0832 159.382 31.1318C159.487 31.1805 159.601 31.206 159.716 31.2065C159.863 31.2035 160.007 31.1656 160.137 31.0961C160.266 31.0265 160.377 30.9273 160.461 30.8065C160.684 30.4908 160.794 30.1087 160.773 29.7225C160.796 29.364 160.689 29.0092 160.473 28.7225C160.382 28.6091 160.266 28.5181 160.134 28.4562C160.003 28.3943 159.858 28.3633 159.713 28.3655C159.53 28.3659 159.351 28.4197 159.198 28.5205C159.034 28.6258 158.902 28.7742 158.817 28.9495L158.245 28.8595L158.727 25.7595H161.182V26.4675H159.212L158.945 28.0865C159.199 27.8493 159.532 27.7143 159.879 27.7075C160.087 27.7095 160.292 27.758 160.478 27.8496C160.665 27.9411 160.829 28.0733 160.958 28.2365C161.28 28.6393 161.443 29.1465 161.415 29.6615C161.43 30.2029 161.269 30.7345 160.958 31.1775C160.821 31.377 160.637 31.5392 160.422 31.6492C160.206 31.7592 159.967 31.8137 159.725 31.8075C159.523 31.8118 159.323 31.7743 159.136 31.6976C158.95 31.6208 158.781 31.5064 158.641 31.3615C158.331 31.0237 158.153 30.5851 158.141 30.1265M155.141 29.7515C155.122 30.1267 155.231 30.4972 155.45 30.8025C155.529 30.9212 155.634 31.0194 155.759 31.089C155.883 31.1586 156.022 31.1975 156.164 31.2025C156.293 31.1963 156.419 31.159 156.53 31.0937C156.642 31.0284 156.735 30.937 156.804 30.8275C157.008 30.5248 157.107 30.1638 157.086 29.7995C157.109 29.4439 157.01 29.0912 156.805 28.7995C156.728 28.6906 156.625 28.6016 156.507 28.5401C156.388 28.4785 156.257 28.4461 156.123 28.4455C155.989 28.4476 155.857 28.4802 155.738 28.5411C155.618 28.6019 155.514 28.6893 155.434 28.7965C155.223 29.0711 155.118 29.4127 155.138 29.7585L155.141 29.7515ZM157.62 27.1515L157.02 27.2095C156.991 26.9708 156.904 26.743 156.765 26.5465C156.696 26.457 156.608 26.3846 156.506 26.3346C156.405 26.2847 156.294 26.2587 156.181 26.2585C155.99 26.2709 155.807 26.3402 155.655 26.4575C155.503 26.5747 155.39 26.7345 155.33 26.9165C155.118 27.449 155.022 28.0208 155.049 28.5935C155.17 28.3515 155.352 28.1448 155.576 27.9935C155.775 27.8625 156.009 27.793 156.247 27.7935C156.447 27.7971 156.644 27.8469 156.822 27.9392C157 28.0315 157.155 28.1637 157.273 28.3255C157.582 28.7341 157.737 29.2388 157.711 29.7505C157.717 30.1287 157.642 30.5039 157.491 30.8505C157.374 31.141 157.178 31.3927 156.925 31.5765C156.702 31.7312 156.436 31.8129 156.164 31.8105C155.918 31.8105 155.677 31.7487 155.461 31.631C155.245 31.5132 155.063 31.3432 154.93 31.1365C154.55 30.4508 154.382 29.6678 154.446 28.8865C154.379 28.0262 154.552 27.1642 154.946 26.3965C155.076 26.1727 155.261 25.9865 155.485 25.8562C155.708 25.7259 155.961 25.6561 156.22 25.6535C156.395 25.6494 156.57 25.6814 156.733 25.7477C156.895 25.8139 157.042 25.9129 157.165 26.0385C157.439 26.3503 157.598 26.746 157.617 27.1605L157.62 27.1515ZM151.42 29.9645C151.406 30.2894 151.513 30.608 151.72 30.8585C151.806 30.9645 151.915 31.05 152.038 31.1088C152.161 31.1676 152.296 31.1983 152.433 31.1985C152.569 31.2 152.703 31.1711 152.826 31.114C152.949 31.0569 153.058 30.973 153.145 30.8685C153.349 30.6223 153.454 30.3081 153.437 29.9885C153.452 29.6635 153.345 29.3445 153.137 29.0945C153.05 28.9882 152.94 28.9026 152.816 28.8438C152.692 28.785 152.556 28.7545 152.419 28.7545C152.283 28.7541 152.15 28.7842 152.027 28.8427C151.905 28.9013 151.798 28.9867 151.713 29.0925C151.508 29.3393 151.402 29.6532 151.416 29.9735L151.42 29.9645ZM151.62 27.1795C151.607 27.4365 151.69 27.6892 151.854 27.8875C151.925 27.9696 152.013 28.0355 152.111 28.0807C152.21 28.1258 152.317 28.1492 152.426 28.1492C152.535 28.1492 152.642 28.1258 152.74 28.0807C152.839 28.0355 152.927 27.9696 152.998 27.8875C153.158 27.7021 153.242 27.4625 153.232 27.2175C153.242 26.9642 153.156 26.7165 152.99 26.5245C152.921 26.4408 152.835 26.3732 152.737 26.3267C152.639 26.2801 152.532 26.2558 152.424 26.2553C152.316 26.2548 152.209 26.2782 152.111 26.3239C152.012 26.3696 151.925 26.4364 151.856 26.5195C151.692 26.7028 151.606 26.9429 151.617 27.1885L151.62 27.1795ZM151.735 28.4345C151.506 28.3378 151.313 28.173 151.182 27.9625C151.05 27.7309 150.985 27.467 150.995 27.2005C150.978 26.7886 151.124 26.3865 151.401 26.0815C151.534 25.944 151.693 25.8348 151.869 25.7605C152.045 25.6862 152.234 25.6484 152.425 25.6492C152.616 25.65 152.805 25.6896 152.98 25.7654C153.155 25.8413 153.314 25.9519 153.445 26.0905C153.724 26.4014 153.87 26.8091 153.853 27.2265C153.862 27.4841 153.799 27.7392 153.672 27.9635C153.543 28.1731 153.352 28.3379 153.126 28.4355C153.413 28.5439 153.655 28.7448 153.814 29.0065C153.984 29.3038 154.067 29.6425 154.055 29.9845C154.075 30.4665 153.908 30.9375 153.588 31.2985C153.44 31.4587 153.26 31.5865 153.06 31.6739C152.86 31.7613 152.645 31.8064 152.426 31.8064C152.208 31.8064 151.992 31.7613 151.793 31.6739C151.593 31.5865 151.413 31.4587 151.265 31.2985C150.943 30.9313 150.775 30.4536 150.797 29.9655C150.783 29.6151 150.869 29.2679 151.047 28.9655C151.205 28.7147 151.448 28.5294 151.732 28.4435L151.735 28.4345ZM149.419 31.7035H148.811V26.9875C148.642 27.1749 148.453 27.3426 148.247 27.4875C148.045 27.6391 147.827 27.7688 147.597 27.8745V27.1595C147.926 26.9725 148.225 26.7364 148.484 26.4595C148.713 26.2243 148.896 25.9491 149.025 25.6475H149.419V31.7035ZM143.011 29.1035H145.011C145.008 28.8047 144.924 28.5122 144.77 28.2565C144.694 28.1378 144.59 28.039 144.468 27.9685C144.346 27.898 144.208 27.8578 144.067 27.8512C143.926 27.8446 143.786 27.8719 143.658 27.9308C143.529 27.9896 143.417 28.0784 143.33 28.1895C143.122 28.4509 143.008 28.7753 143.008 29.1095L143.011 29.1035ZM145.006 30.3035L145.631 30.3975C145.561 30.8014 145.363 31.1718 145.065 31.4535C144.783 31.6937 144.422 31.8202 144.052 31.8085C143.816 31.8153 143.581 31.7666 143.367 31.6664C143.153 31.5662 142.965 31.4173 142.819 31.2315C142.476 30.7463 142.31 30.1577 142.349 29.5645C142.308 28.9524 142.475 28.3443 142.824 27.8395C142.962 27.6518 143.143 27.4996 143.352 27.3953C143.56 27.291 143.791 27.2376 144.024 27.2395C144.25 27.2381 144.473 27.2903 144.674 27.3918C144.876 27.4933 145.051 27.6413 145.184 27.8235C145.525 28.3183 145.689 28.9139 145.649 29.5135V29.7135H142.975C142.97 30.11 143.089 30.4982 143.316 30.8235C143.402 30.9395 143.513 31.0337 143.642 31.0988C143.771 31.164 143.913 31.1981 144.057 31.1985C144.509 31.2019 144.824 30.9045 145.003 30.3065L145.006 30.3035ZM141.619 30.1095L142.219 30.2095C142.185 30.6534 142.004 31.0732 141.703 31.4015C141.574 31.5342 141.42 31.6391 141.249 31.7097C141.078 31.7804 140.895 31.8154 140.71 31.8125C140.485 31.8156 140.262 31.7648 140.061 31.6645C139.86 31.5641 139.685 31.417 139.552 31.2355C139.214 30.732 139.054 30.1302 139.097 29.5255C139.053 28.9207 139.214 28.3187 139.556 27.8175C139.694 27.6367 139.872 27.4909 140.077 27.3918C140.282 27.2928 140.507 27.2434 140.734 27.2475C141.079 27.238 141.414 27.3615 141.67 27.5925C141.947 27.8714 142.119 28.2379 142.157 28.6295L141.569 28.7405C141.535 28.4948 141.431 28.2641 141.269 28.0765C141.203 28.0059 141.124 27.9498 141.035 27.9119C140.947 27.874 140.851 27.8551 140.755 27.8565C140.608 27.8565 140.463 27.893 140.333 27.9629C140.203 28.0327 140.093 28.1336 140.012 28.2565C139.787 28.6363 139.685 29.0764 139.719 29.5165C139.684 29.9652 139.782 30.4143 140.001 30.8075C140.078 30.93 140.184 31.0309 140.31 31.1009C140.437 31.1709 140.579 31.2076 140.723 31.2075C140.835 31.2085 140.945 31.1853 141.047 31.1396C141.149 31.0938 141.24 31.0266 141.313 30.9425C141.498 30.7042 141.604 30.414 141.616 30.1125L141.619 30.1095ZM135.602 31.7095V27.3425H136.149V27.9625C136.261 27.7437 136.427 27.5574 136.632 27.4215C136.829 27.3001 137.057 27.2376 137.289 27.2415C137.473 27.2399 137.654 27.2788 137.821 27.3555C137.974 27.4242 138.109 27.5267 138.216 27.6555C138.325 27.7954 138.401 27.9576 138.44 28.1305C138.499 28.4267 138.524 28.7287 138.514 29.0305V31.7155H137.905V29.0525C137.916 28.8162 137.888 28.5797 137.822 28.3525C137.774 28.2145 137.684 28.0949 137.565 28.0105C137.448 27.9293 137.308 27.8867 137.165 27.8885C137.032 27.8841 136.899 27.9114 136.778 27.968C136.658 28.0247 136.552 28.1092 136.47 28.2145C136.266 28.5484 136.175 28.9389 136.21 29.3285V31.7135L135.602 31.7095ZM134.239 31.7095V27.3425H134.844V31.7095H134.239ZM134.239 26.5325V25.6805H134.844V26.5325H134.239ZM130.726 30.4055L131.326 30.2905C131.339 30.5464 131.442 30.7893 131.618 30.9755C131.792 31.1299 132.019 31.2103 132.251 31.1995C132.473 31.2122 132.691 31.1408 132.862 30.9995C132.933 30.9372 132.988 30.8601 133.026 30.7737C133.063 30.6872 133.081 30.5936 133.078 30.4995C133.081 30.4229 133.066 30.3467 133.034 30.2772C133.002 30.2076 132.953 30.1467 132.893 30.0995C132.7 29.9891 132.493 29.9063 132.277 29.8535C131.949 29.7657 131.631 29.6413 131.331 29.4825C131.173 29.3824 131.046 29.2418 130.961 29.0755C130.871 28.8955 130.826 28.6966 130.83 28.4955C130.823 28.3275 130.852 28.1599 130.913 28.0034C130.974 27.8468 131.067 27.7045 131.186 27.5855C131.32 27.4644 131.477 27.3712 131.647 27.3113C131.818 27.2514 131.999 27.226 132.179 27.2365C132.42 27.2321 132.659 27.2816 132.879 27.3815C133.066 27.4652 133.227 27.5987 133.343 27.7675C133.466 27.9804 133.542 28.2175 133.565 28.4625L132.973 28.5625C132.974 28.4629 132.954 28.3642 132.915 28.2727C132.875 28.1812 132.817 28.0991 132.744 28.0316C132.671 27.9641 132.584 27.9127 132.49 27.8808C132.395 27.8489 132.295 27.8373 132.196 27.8465C131.988 27.8311 131.78 27.8872 131.608 28.0055C131.547 28.0529 131.498 28.1137 131.465 28.183C131.432 28.2524 131.415 28.3286 131.416 28.4055C131.413 28.4795 131.429 28.553 131.461 28.6197C131.493 28.6864 131.541 28.7443 131.6 28.7885C131.809 28.8994 132.03 28.9872 132.258 29.0505C132.595 29.1457 132.922 29.2743 133.234 29.4345C133.382 29.5302 133.501 29.6643 133.579 29.8225C133.665 30.0038 133.708 30.2028 133.703 30.4035C133.71 30.5907 133.678 30.7773 133.609 30.9515C133.54 31.1257 133.436 31.2837 133.303 31.4155C133.157 31.5484 132.986 31.651 132.8 31.7172C132.614 31.7835 132.416 31.8121 132.219 31.8015C132.028 31.8126 131.838 31.7849 131.658 31.7202C131.478 31.6554 131.314 31.5548 131.174 31.4246C131.035 31.2944 130.923 31.1372 130.846 30.9625C130.769 30.7879 130.728 30.5994 130.726 30.4085V30.4055Z" fill="#2F4256"/>
<path d="M122.301 25.6525V27.3145H123.222V28.5355H122.301V30.0855C122.291 30.2116 122.309 30.3384 122.354 30.4565C122.384 30.504 122.427 30.5422 122.478 30.5669C122.528 30.5916 122.585 30.6019 122.641 30.5965C122.818 30.5858 122.993 30.5494 123.159 30.4885L123.283 31.6455C122.903 31.7316 122.514 31.7769 122.124 31.7805C121.809 31.8002 121.493 31.7454 121.203 31.6205C121.005 31.5138 120.85 31.3416 120.765 31.1335C120.651 30.7923 120.603 30.4327 120.623 30.0735V28.5365H120.006V27.3145H120.623V26.5145L122.301 25.6525ZM115.091 30.4725L116.753 30.3155C116.801 30.4842 116.902 30.6329 117.041 30.7395C117.189 30.8318 117.361 30.8765 117.535 30.8675C117.72 30.8791 117.904 30.828 118.057 30.7225C118.101 30.6934 118.137 30.6537 118.162 30.6071C118.187 30.5605 118.2 30.5084 118.2 30.4555C118.199 30.3957 118.181 30.3374 118.148 30.2879C118.114 30.2383 118.067 30.1996 118.012 30.1765C117.779 30.0938 117.537 30.0358 117.292 30.0035C116.881 29.9432 116.476 29.8488 116.081 29.7215C115.853 29.633 115.655 29.481 115.51 29.2835C115.356 29.0828 115.274 28.8363 115.277 28.5835C115.271 28.3138 115.36 28.0506 115.528 27.8395C115.709 27.621 115.949 27.459 116.219 27.3725C116.602 27.257 117.001 27.2047 117.4 27.2175C117.788 27.2027 118.177 27.2428 118.554 27.3365C118.788 27.408 119.001 27.5353 119.175 27.7075C119.358 27.9029 119.499 28.1336 119.589 28.3855L118.001 28.5425C117.971 28.4186 117.898 28.3092 117.795 28.2335C117.653 28.1425 117.487 28.0964 117.318 28.1015C117.173 28.0894 117.028 28.1245 116.905 28.2015C116.866 28.2289 116.833 28.2654 116.811 28.3078C116.788 28.3503 116.776 28.3975 116.776 28.4455C116.776 28.4978 116.791 28.549 116.821 28.5923C116.85 28.6357 116.891 28.6692 116.94 28.6885C117.171 28.7709 117.412 28.821 117.656 28.8375C118.079 28.871 118.496 28.9591 118.897 29.0995C119.148 29.1951 119.365 29.3628 119.52 29.5815C119.662 29.7823 119.738 30.0226 119.736 30.2685C119.733 30.5313 119.654 30.7874 119.507 31.0055C119.331 31.2638 119.08 31.4623 118.788 31.5745C118.36 31.733 117.905 31.8051 117.449 31.7865C116.862 31.8325 116.273 31.7145 115.749 31.4455C115.41 31.2207 115.173 30.871 115.091 30.4725ZM112.998 29.6075C112.768 29.6902 112.529 29.7632 112.28 29.8265C112.048 29.8685 111.828 29.9595 111.634 30.0935C111.59 30.1336 111.555 30.1824 111.531 30.2367C111.508 30.291 111.495 30.3497 111.495 30.409C111.495 30.4684 111.508 30.5271 111.531 30.5814C111.555 30.6357 111.59 30.6844 111.634 30.7245C111.749 30.8153 111.894 30.8599 112.04 30.8495C112.222 30.8503 112.402 30.8038 112.561 30.7145C112.704 30.6395 112.823 30.5245 112.902 30.3835C112.975 30.2244 113.009 30.0504 113.002 29.8755L112.998 29.6075ZM111.547 28.7275L109.947 28.5595C109.989 28.3243 110.078 28.0999 110.208 27.8995C110.338 27.725 110.506 27.5824 110.699 27.4825C110.898 27.3816 111.112 27.3141 111.332 27.2825C111.62 27.2345 111.912 27.211 112.204 27.2125C112.609 27.2051 113.013 27.2332 113.413 27.2965C113.694 27.3416 113.958 27.4634 114.174 27.6485C114.33 27.7913 114.446 27.9718 114.512 28.1725C114.59 28.3799 114.631 28.5991 114.634 28.8205V30.7485C114.631 30.9104 114.644 31.0723 114.673 31.2315C114.713 31.386 114.771 31.5356 114.844 31.6775H113.273C113.225 31.5957 113.183 31.5097 113.15 31.4205C113.124 31.3294 113.104 31.2365 113.092 31.1425C112.904 31.3326 112.682 31.4859 112.438 31.5945C112.109 31.7211 111.759 31.7826 111.406 31.7755C110.979 31.8058 110.556 31.6768 110.218 31.4135C110.09 31.3036 109.988 31.1667 109.918 31.0127C109.849 30.8587 109.815 30.6913 109.818 30.5225C109.806 30.2224 109.911 29.9292 110.11 29.7045C110.411 29.4393 110.787 29.2728 111.186 29.2275C111.815 29.1009 112.222 29.0125 112.409 28.9625C112.609 28.9065 112.807 28.8398 113 28.7625C113.017 28.6076 112.971 28.4523 112.874 28.3305C112.745 28.2346 112.585 28.1904 112.425 28.2065C112.211 28.1932 111.998 28.2388 111.809 28.3385C111.681 28.4357 111.589 28.5725 111.547 28.7275ZM107.525 25.6525H109.204V31.6815H107.525V25.6525ZM101.425 29.5055C101.4 29.8121 101.484 30.1177 101.662 30.3685C101.734 30.4556 101.825 30.5257 101.928 30.5738C102.03 30.6219 102.142 30.6468 102.256 30.6468C102.369 30.6468 102.481 30.6219 102.583 30.5738C102.686 30.5257 102.777 30.4556 102.849 30.3685C103.027 30.1098 103.109 29.7973 103.082 29.4845C103.105 29.1842 103.022 28.8853 102.848 28.6395C102.779 28.5524 102.69 28.4823 102.59 28.4345C102.489 28.3867 102.379 28.3624 102.268 28.3635C102.153 28.362 102.04 28.3865 101.936 28.4352C101.832 28.4839 101.74 28.5554 101.668 28.6445C101.487 28.8934 101.399 29.1983 101.42 29.5055H101.425ZM99.748 29.5055C99.7387 29.1992 99.7939 28.8944 99.91 28.6108C100.026 28.3273 100.201 28.0713 100.422 27.8595C100.965 27.4222 101.646 27.1931 102.343 27.2137C103.039 27.2342 103.706 27.503 104.222 27.9715C104.592 28.4226 104.783 28.9938 104.759 29.5766C104.735 30.1593 104.498 30.7131 104.093 31.1325C103.842 31.3559 103.55 31.5277 103.233 31.638C102.915 31.7484 102.579 31.7951 102.244 31.7755C101.632 31.8036 101.03 31.614 100.544 31.2405C100.286 31.0334 100.079 30.7694 99.9403 30.469C99.8014 30.1687 99.7338 29.8403 99.743 29.5095L99.748 29.5055ZM98.485 25.6485V27.3105H99.406V28.5315H98.485V30.0815C98.4747 30.2076 98.4928 30.3344 98.538 30.4525C98.5685 30.5001 98.6115 30.5383 98.6623 30.563C98.7131 30.5877 98.7698 30.5979 98.826 30.5925C99.003 30.5818 99.1775 30.5454 99.344 30.4845L99.468 31.6415C99.0876 31.7276 98.6991 31.7729 98.309 31.7765C97.9937 31.7961 97.6782 31.7413 97.388 31.6165C97.1901 31.5097 97.0354 31.3376 96.95 31.1295C96.8364 30.7883 96.7882 30.4287 96.808 30.0695V28.5325H96.19V27.3145H96.808V26.5145L98.485 25.6485ZM92.845 25.6485V27.3105H93.766V28.5315H92.845V30.0815C92.8347 30.2076 92.8528 30.3344 92.898 30.4525C92.9285 30.5001 92.9715 30.5383 93.0223 30.563C93.0732 30.5877 93.1298 30.5979 93.186 30.5925C93.363 30.5818 93.5375 30.5454 93.704 30.4845L93.827 31.6415C93.4466 31.7276 93.0581 31.7729 92.668 31.7765C92.3527 31.7962 92.0372 31.7414 91.747 31.6165C91.5491 31.5097 91.3944 31.3376 91.309 31.1295C91.1954 30.7883 91.1472 30.4287 91.167 30.0695V28.5325H90.549V27.3145H91.167V26.5145L92.845 25.6485ZM88.329 25.6485H90.008V31.6775H88.329V25.6485ZM85.78 27.3105H87.455V31.6775H85.78V27.3105ZM85.78 25.6485H87.455V26.7885H85.78V25.6485ZM84.954 31.6775H83.386V30.9705C83.1981 31.2234 82.9598 31.4346 82.686 31.5905C82.4135 31.7218 82.1133 31.7852 81.811 31.7755C81.6115 31.7865 81.4119 31.7554 81.2251 31.6842C81.0384 31.6131 80.8687 31.5035 80.727 31.3625C80.4384 31.0039 80.2981 30.5484 80.335 30.0895V27.3145H82.017V29.7145C81.9977 29.9208 82.0511 30.1275 82.168 30.2985C82.2222 30.3572 82.2886 30.4031 82.3626 30.433C82.4366 30.4629 82.5164 30.476 82.596 30.4715C82.6901 30.4737 82.7833 30.4541 82.8685 30.4142C82.9537 30.3743 83.0285 30.3152 83.087 30.2415C83.2394 29.9942 83.3065 29.7037 83.278 29.4145V27.3145H84.953L84.954 31.6775ZM76.046 30.3775H76.996C77.2349 30.4006 77.4744 30.3406 77.674 30.2075C77.7398 30.1511 77.792 30.0804 77.8266 30.0009C77.8612 29.9214 77.8774 29.8352 77.874 29.7485C77.8765 29.6662 77.8597 29.5845 77.825 29.5098C77.7903 29.4352 77.7386 29.3696 77.674 29.3185C77.47 29.19 77.2291 29.1327 76.989 29.1555H76.043L76.046 30.3775ZM76.046 28.0095H76.856C77.0695 28.0303 77.2837 27.9773 77.463 27.8595C77.5215 27.8041 77.567 27.7365 77.5964 27.6615C77.6258 27.5865 77.6383 27.5059 77.633 27.4255C77.6372 27.3487 77.6241 27.2719 77.5947 27.2007C77.5653 27.1296 77.5203 27.066 77.463 27.0145C77.2877 26.8979 77.0776 26.8453 76.868 26.8655H76.045L76.046 28.0095ZM74.167 25.6435H77.655C78.1399 25.6111 78.6187 25.7657 78.993 26.0755C79.143 26.2095 79.2624 26.3743 79.343 26.5586C79.4235 26.7429 79.4635 26.9424 79.46 27.1435C79.4671 27.4803 79.3483 27.8076 79.127 28.0615C78.949 28.2493 78.7249 28.3872 78.477 28.4615C78.8463 28.53 79.1824 28.7188 79.433 28.9985C79.6433 29.2718 79.7515 29.6099 79.739 29.9545C79.7433 30.2499 79.6684 30.541 79.522 30.7975C79.3781 31.0446 79.171 31.2489 78.922 31.3895C78.701 31.5 78.4612 31.5679 78.215 31.5895C77.9383 31.6314 77.6596 31.6591 77.38 31.6725H74.166L74.167 25.6435Z" fill="#2F4256"/>
<path fill-rule="evenodd" clip-rule="evenodd" d="M124.647 30.5795C124.773 30.5795 124.897 30.617 125.002 30.6872C125.107 30.7574 125.189 30.8572 125.237 30.9739C125.286 31.0907 125.298 31.2192 125.274 31.3431C125.249 31.4671 125.188 31.581 125.099 31.6703C125.01 31.7597 124.896 31.8206 124.772 31.8452C124.648 31.8699 124.519 31.8572 124.403 31.8088C124.286 31.7605 124.186 31.6786 124.116 31.5735C124.046 31.4684 124.008 31.3449 124.008 31.2185C124.008 31.049 124.075 30.8865 124.195 30.7666C124.315 30.6468 124.478 30.5795 124.647 30.5795Z" fill="#2F4256"/>
<path fill-rule="evenodd" clip-rule="evenodd" d="M126.601 30.5795C126.727 30.5795 126.851 30.617 126.956 30.6872C127.061 30.7574 127.143 30.8572 127.191 30.9739C127.24 31.0907 127.252 31.2192 127.228 31.3431C127.203 31.4671 127.142 31.581 127.053 31.6703C126.964 31.7597 126.85 31.8206 126.726 31.8452C126.602 31.8699 126.473 31.8572 126.357 31.8088C126.24 31.7605 126.14 31.6786 126.07 31.5735C126 31.4684 125.962 31.3449 125.962 31.2185C125.962 31.049 126.029 30.8865 126.149 30.7666C126.269 30.6468 126.432 30.5795 126.601 30.5795Z" fill="#2F4256"/>
<path fill-rule="evenodd" clip-rule="evenodd" d="M128.659 30.5795C128.785 30.5795 128.909 30.617 129.014 30.6872C129.119 30.7574 129.201 30.8572 129.249 30.9739C129.298 31.0907 129.31 31.2192 129.286 31.3431C129.261 31.4671 129.2 31.581 129.111 31.6703C129.021 31.7597 128.908 31.8206 128.784 31.8452C128.66 31.8699 128.531 31.8572 128.414 31.8088C128.298 31.7605 128.198 31.6786 128.128 31.5735C128.058 31.4684 128.02 31.3449 128.02 31.2185C128.02 31.049 128.087 30.8865 128.207 30.7666C128.327 30.6468 128.49 30.5795 128.659 30.5795Z" fill="#2F4256"/>
<path d="M121.729 11.0725H124.886V19.3045H121.729V11.0725ZM121.729 7.9395H124.886V10.0885H121.729V7.9395ZM117.929 11.0725H121.094V19.0555C121.128 19.7839 121.053 20.5132 120.872 21.2195C120.723 21.6446 120.435 22.007 120.054 22.2485C119.536 22.5448 118.943 22.6838 118.347 22.6485C117.583 22.6311 116.823 22.54 116.077 22.3765L116.551 20.0825C116.734 20.1244 116.921 20.1502 117.109 20.1595C117.226 20.1668 117.342 20.1456 117.449 20.0976C117.555 20.0497 117.648 19.9766 117.72 19.8845C117.896 19.5461 117.968 19.1637 117.929 18.7845V11.0725ZM117.929 7.9395H121.094V10.1095H117.929V7.9395ZM111.61 11.0725H114.563V12.4195C114.76 11.9566 115.061 11.5458 115.444 11.2195C115.772 10.9914 116.164 10.8753 116.563 10.8885C117.099 10.9084 117.623 11.0573 118.089 11.3225L117.113 13.5715C116.836 13.4389 116.536 13.3599 116.229 13.3385C116.038 13.3325 115.849 13.3765 115.681 13.4661C115.513 13.5558 115.371 13.688 115.269 13.8495C114.867 14.6894 114.698 15.6218 114.779 16.5495V19.3095H111.609L111.61 11.0725ZM105.247 15.2025C105.2 15.7805 105.358 16.3566 105.694 16.8295C105.83 16.9944 106.001 17.1274 106.194 17.219C106.387 17.3105 106.598 17.3584 106.812 17.3591C107.025 17.3599 107.237 17.3135 107.431 17.2234C107.624 17.1332 107.796 17.0015 107.933 16.8375C108.268 16.3494 108.423 15.7602 108.372 15.1705C108.415 14.6042 108.259 14.0407 107.93 13.5775C107.8 13.4132 107.633 13.2809 107.444 13.1906C107.254 13.1003 107.047 13.0545 106.837 13.0565C106.619 13.0523 106.404 13.0977 106.206 13.1893C106.008 13.281 105.834 13.4165 105.697 13.5855C105.362 14.0564 105.202 14.6301 105.247 15.2065V15.2025ZM102.085 15.2105C102.068 14.6337 102.172 14.0596 102.391 13.5256C102.61 12.9916 102.938 12.5094 103.355 12.1105C104.379 11.2841 105.665 10.8513 106.98 10.8902C108.295 10.9291 109.553 11.4371 110.526 12.3225C111.223 13.1729 111.583 14.2497 111.539 15.3483C111.494 16.4468 111.047 17.4907 110.283 18.2815C109.81 18.7026 109.259 19.0264 108.661 19.2343C108.063 19.4423 107.43 19.5303 106.798 19.4935C105.643 19.5477 104.505 19.1905 103.588 18.4855C103.102 18.0937 102.713 17.5945 102.452 17.0271C102.192 16.4597 102.066 15.8396 102.085 15.2155V15.2105ZM96.1401 15.2025C96.093 15.7805 96.2513 16.3566 96.5871 16.8295C96.723 16.9943 96.8936 17.1271 97.0867 17.2185C97.2797 17.31 97.4906 17.3577 97.7042 17.3585C97.9178 17.3593 98.129 17.313 98.3227 17.2229C98.5164 17.1329 98.6879 17.0013 98.8251 16.8375C99.16 16.3494 99.3152 15.7602 99.2641 15.1705C99.3071 14.6042 99.1507 14.0407 98.8221 13.5775C98.6915 13.4132 98.5252 13.2809 98.3358 13.1906C98.1464 13.1003 97.9389 13.0545 97.729 13.0565C97.5112 13.0522 97.2952 13.0976 97.0975 13.1892C96.8998 13.2809 96.7255 13.4164 96.5881 13.5855C96.254 14.0569 96.0958 14.6305 96.1411 15.2065L96.1401 15.2025ZM92.9781 15.2105C92.9608 14.6337 93.065 14.0596 93.2838 13.5256C93.5025 12.9916 93.8311 12.5094 94.2481 12.1105C95.2719 11.2841 96.5576 10.8513 97.8728 10.8902C99.1879 10.9291 100.446 11.4371 101.419 12.3225C102.116 13.1728 102.477 14.2496 102.432 15.3483C102.387 16.4469 101.94 17.4908 101.176 18.2815C100.703 18.7026 100.152 19.0264 99.5542 19.2343C98.9562 19.4423 98.3231 19.5303 97.6911 19.4935C96.5355 19.5477 95.3982 19.1905 94.481 18.4855C93.995 18.0936 93.6065 17.5943 93.3459 17.027C93.0853 16.4596 92.9597 15.8396 92.979 15.2155L92.9781 15.2105ZM87.438 15.2105C87.3962 15.7274 87.5418 16.2421 87.8481 16.6605C87.9742 16.8123 88.1329 16.9338 88.3125 17.0158C88.492 17.0979 88.6877 17.1385 88.8851 17.1345C89.0639 17.136 89.2406 17.0957 89.401 17.0167C89.5615 16.9376 89.7012 16.8222 89.8091 16.6795C90.1003 16.2223 90.2315 15.6813 90.1821 15.1415C90.2243 14.6221 90.087 14.1039 89.7931 13.6735C89.6832 13.527 89.5407 13.4081 89.3768 13.3263C89.2129 13.2445 89.0322 13.2022 88.8491 13.2025C88.6561 13.1996 88.4649 13.2408 88.2903 13.323C88.1156 13.4051 87.962 13.526 87.841 13.6765C87.5322 14.1271 87.39 14.6714 87.4391 15.2155L87.438 15.2105ZM84.2731 22.4365V11.0725H87.229V12.2895C87.5315 11.8721 87.9135 11.5186 88.3531 11.2495C88.824 11.0033 89.3487 10.8779 89.8801 10.8845C90.3781 10.8633 90.8735 10.9681 91.3203 11.1893C91.7671 11.4104 92.1508 11.7406 92.4361 12.1495C93.0597 13.0694 93.3749 14.1638 93.3361 15.2745C93.4142 16.4064 93.0628 17.5262 92.3521 18.4105C92.0408 18.7603 91.6571 19.0381 91.2276 19.2247C90.7981 19.4112 90.3332 19.5019 89.8651 19.4905C89.4095 19.4966 88.9573 19.413 88.5341 19.2445C88.1292 19.0748 87.7636 18.8235 87.4601 18.5065V22.4385L84.2731 22.4365ZM80.6071 15.3955C80.1731 15.5515 79.7214 15.6892 79.2521 15.8085C78.8156 15.8871 78.4007 16.0575 78.035 16.3085C77.9521 16.3838 77.8857 16.4755 77.8401 16.5778C77.7945 16.6801 77.7707 16.7908 77.7702 16.9029C77.7697 17.0149 77.7926 17.1258 77.8373 17.2286C77.8821 17.3313 77.9477 17.4235 78.0301 17.4995C78.2471 17.6701 78.5197 17.7538 78.7951 17.7345C79.1389 17.7365 79.4773 17.6489 79.7771 17.4805C80.0475 17.3389 80.2709 17.1218 80.4201 16.8555C80.5575 16.5555 80.6219 16.2272 80.6081 15.8975L80.6071 15.3955ZM77.8711 13.7365L74.8571 13.4185C74.937 12.9755 75.1046 12.5529 75.3501 12.1755C75.595 11.8466 75.9117 11.5778 76.2761 11.3895C76.6506 11.2006 77.0536 11.0746 77.4691 11.0165C78.012 10.9257 78.5616 10.8816 79.1121 10.8845C79.8746 10.8708 80.6368 10.924 81.3901 11.0435C81.92 11.1288 82.4162 11.3586 82.8241 11.7075C83.1178 11.9764 83.3375 12.3163 83.4621 12.6945C83.6087 13.0859 83.6865 13.4996 83.6921 13.9175V17.5535C83.6855 17.8586 83.7103 18.1635 83.7661 18.4635C83.8424 18.7549 83.9507 19.0369 84.0891 19.3045H81.1291C81.0373 19.1503 80.9593 18.9884 80.8961 18.8205C80.847 18.6488 80.8109 18.4736 80.7881 18.2965C80.4339 18.655 80.0156 18.944 79.5551 19.1485C78.935 19.3875 78.2744 19.5037 77.6101 19.4905C76.8053 19.5474 76.0079 19.3041 75.3721 18.8075C75.1289 18.6011 74.9344 18.3434 74.8027 18.0529C74.6709 17.7625 74.6052 17.4464 74.6101 17.1275C74.5874 16.5615 74.7845 16.0086 75.16 15.5845C75.7286 15.0843 76.4367 14.7702 77.1891 14.6845C78.3744 14.4458 79.1411 14.2792 79.4891 14.1845C79.8669 14.0793 80.2387 13.9537 80.6031 13.8085C80.6339 13.5161 80.5484 13.2233 80.3651 12.9935C80.1215 12.8132 79.8195 12.7301 79.5181 12.7605C79.1155 12.7355 78.7139 12.8217 78.3571 13.0095C78.1194 13.1936 77.949 13.4509 77.8721 13.7415L77.8711 13.7365ZM65.8881 7.93651H69.0451V12.1225C69.4069 11.7268 69.8406 11.4034 70.3231 11.1695C70.7986 10.9664 71.3121 10.8679 71.8291 10.8805C72.2028 10.8612 72.5765 10.9209 72.9256 11.0559C73.2747 11.1908 73.5914 11.3978 73.8551 11.6635C74.3983 12.34 74.6623 13.1986 74.5931 14.0635V19.2975H71.4291V14.7705C71.4671 14.3815 71.3657 13.9917 71.1431 13.6705C71.0406 13.5606 70.9151 13.4747 70.7757 13.4188C70.6362 13.363 70.4861 13.3386 70.3361 13.3475C70.1581 13.3426 69.9815 13.3794 69.8203 13.4547C69.659 13.53 69.5175 13.6419 69.4071 13.7815C69.1224 14.2484 68.9971 14.7952 69.05 15.3395V19.2925H65.8931L65.8881 7.93651ZM55.5031 15.5365L58.8451 15.3275C58.8812 15.7727 59.0336 16.2006 59.287 16.5685C59.4719 16.7984 59.709 16.9808 59.9786 17.1005C60.2483 17.2201 60.5426 17.2736 60.8371 17.2565C61.2533 17.2838 61.6653 17.1586 61.9961 16.9045C62.1194 16.8065 62.2193 16.6822 62.2885 16.5407C62.3577 16.3992 62.3944 16.244 62.3961 16.0865C62.3934 15.9345 62.3575 15.7848 62.2908 15.6482C62.2241 15.5115 62.1283 15.3911 62.0101 15.2955C61.4646 14.9486 60.8506 14.7238 60.2101 14.6365C59.0185 14.4435 57.8897 13.971 56.9161 13.2575C56.5987 12.9903 56.3452 12.6552 56.1744 12.2771C56.0036 11.8989 55.9198 11.4873 55.9291 11.0725C55.9305 10.4823 56.1073 9.90594 56.4371 9.41649C56.8139 8.8667 57.3448 8.44052 57.9631 8.19149C58.8554 7.85848 59.8054 7.70721 60.757 7.74651C61.9214 7.67134 63.0809 7.95397 64.0801 8.55651C64.4786 8.86315 64.8063 9.25204 65.041 9.69673C65.2757 10.1414 65.4118 10.6315 65.44 11.1335L62.1301 11.3265C62.1202 11.115 62.067 10.9078 61.9737 10.7177C61.8804 10.5276 61.749 10.3587 61.5877 10.2215C61.4264 10.0843 61.2387 9.98174 61.0361 9.92015C60.8335 9.85857 60.6204 9.83927 60.41 9.86348C60.081 9.83855 59.7538 9.93065 59.4861 10.1235C59.3898 10.1983 59.3119 10.2942 59.2584 10.4037C59.2048 10.5132 59.177 10.6336 59.1771 10.7555C59.1801 10.8506 59.2045 10.9437 59.2485 11.028C59.2925 11.1123 59.3549 11.1856 59.4311 11.2425C59.789 11.4667 60.1918 11.6094 60.6111 11.6605C61.7467 11.8652 62.8543 12.2029 63.9111 12.6665C64.5036 12.9408 65.0064 13.3773 65.3611 13.9255C65.6656 14.4336 65.8231 15.0162 65.8161 15.6085C65.8187 16.3252 65.6077 17.0263 65.2101 17.6225C64.7981 18.2469 64.2094 18.7343 63.5191 19.0225C62.6493 19.3669 61.718 19.5289 60.7831 19.4985C58.8497 19.4985 57.5117 19.1262 56.7691 18.3815C56.0169 17.6225 55.5675 16.6152 55.5051 15.5485L55.5031 15.5365Z" fill="#2F4256"/>
<path d="M176.847 10.8715H180.004V19.1035H176.847V10.8715ZM176.847 7.73845H180.004V9.88747H176.847V7.73845ZM173.047 10.8715H176.212V18.8544C176.246 19.5831 176.171 20.3128 175.99 21.0195C175.841 21.4446 175.553 21.8071 175.172 22.0484C174.654 22.3448 174.061 22.4838 173.465 22.4485C172.701 22.4309 171.941 22.3394 171.195 22.1755L171.669 19.8815C171.852 19.9233 172.039 19.949 172.227 19.9585C172.344 19.9658 172.46 19.9446 172.567 19.8967C172.673 19.8488 172.766 19.7756 172.838 19.6835C173.014 19.3451 173.086 18.9627 173.047 18.5835V10.8715ZM173.047 7.73845H176.212V9.90846H173.047V7.73845ZM163.816 10.8715H166.756V12.2105C167.116 11.7325 167.57 11.3336 168.09 11.0385C168.601 10.7884 169.165 10.6666 169.733 10.6835C170.11 10.6629 170.488 10.7218 170.841 10.8564C171.194 10.9909 171.515 11.1981 171.783 11.4645C172.328 12.1418 172.593 13.0028 172.521 13.8695V19.1035H169.347V14.5765C169.385 14.1875 169.284 13.7976 169.061 13.4765C168.959 13.3666 168.833 13.2806 168.694 13.2248C168.554 13.1689 168.404 13.1446 168.254 13.1535C168.076 13.1486 167.9 13.1853 167.738 13.2607C167.577 13.336 167.436 13.4479 167.325 13.5874C167.04 14.0544 166.915 14.6012 166.968 15.1455V19.0985H163.811L163.816 10.8715ZM157.485 15.0015C157.438 15.5795 157.596 16.1556 157.932 16.6285C158.068 16.7932 158.239 16.9261 158.432 17.0175C158.625 17.1089 158.836 17.1567 159.049 17.1575C159.263 17.1583 159.474 17.112 159.668 17.0219C159.861 16.9319 160.033 16.8003 160.17 16.6365C160.505 16.1485 160.66 15.5592 160.609 14.9695C160.652 14.4032 160.496 13.8397 160.167 13.3765C160.036 13.2122 159.87 13.08 159.681 12.9897C159.491 12.8994 159.284 12.8535 159.074 12.8555C158.856 12.8512 158.64 12.8967 158.443 12.9883C158.245 13.08 158.071 13.2154 157.934 13.3844C157.6 13.8543 157.441 14.4265 157.485 15.0015ZM154.323 15.0094C154.306 14.4326 154.41 13.8586 154.629 13.3245C154.848 12.7905 155.176 12.3084 155.593 11.9095C156.617 11.0833 157.903 10.6506 159.218 10.6895C160.533 10.7283 161.791 11.2363 162.764 12.1215C163.461 12.9719 163.821 14.0486 163.777 15.1472C163.732 16.2458 163.285 17.2897 162.521 18.0805C162.048 18.5015 161.497 18.8253 160.899 19.0333C160.301 19.2412 159.668 19.3293 159.036 19.2925C157.881 19.3466 156.744 18.9894 155.827 18.2845C155.34 17.8923 154.951 17.3923 154.69 16.824C154.429 16.2557 154.303 15.6345 154.323 15.0094ZM151.014 7.73845H154.178V19.1025H151.014V7.73845ZM147.214 7.73845H150.378V19.1025H147.214V7.73845ZM143.614 15.1945C143.18 15.3505 142.728 15.4881 142.259 15.6075C141.823 15.6863 141.408 15.8567 141.042 16.1075C140.959 16.1827 140.893 16.2745 140.847 16.3768C140.801 16.4791 140.778 16.5898 140.777 16.7019C140.777 16.8139 140.8 16.9248 140.844 17.0275C140.889 17.1302 140.955 17.2225 141.037 17.2984C141.254 17.4695 141.527 17.5537 141.802 17.5345C142.146 17.5365 142.484 17.4489 142.784 17.2805C143.055 17.139 143.278 16.9218 143.427 16.6555C143.564 16.3554 143.629 16.0272 143.615 15.6975L143.614 15.1945ZM140.878 13.5354L137.865 13.2175C137.945 12.7742 138.112 12.3513 138.357 11.9735C138.602 11.6445 138.919 11.3757 139.283 11.1875C139.658 10.9985 140.061 10.8725 140.477 10.8145C141.02 10.7237 141.57 10.6795 142.12 10.6825C142.883 10.6687 143.645 10.7219 144.398 10.8414C144.928 10.9268 145.424 11.1565 145.832 11.5054C146.126 11.7744 146.345 12.1142 146.47 12.4924C146.617 12.8838 146.695 13.2976 146.7 13.7155V17.3515C146.694 17.6565 146.719 17.9614 146.774 18.2615C146.851 18.5527 146.959 18.8348 147.097 19.1025H144.137C144.045 18.9482 143.967 18.7863 143.904 18.6185C143.855 18.4467 143.819 18.2715 143.796 18.0945C143.442 18.453 143.024 18.742 142.563 18.9465C141.943 19.1855 141.282 19.3016 140.618 19.2885C139.813 19.3454 139.016 19.1021 138.38 18.6055C138.137 18.399 137.943 18.1413 137.811 17.8508C137.679 17.5604 137.613 17.2444 137.618 16.9255C137.595 16.3594 137.792 15.8066 138.168 15.3825C138.737 14.8823 139.445 14.5682 140.197 14.4825C141.382 14.2438 142.151 14.0771 142.502 13.9825C142.88 13.8771 143.252 13.7516 143.616 13.6065C143.647 13.3141 143.562 13.0212 143.378 12.7915C143.135 12.6111 142.833 12.5281 142.531 12.5585C142.128 12.533 141.726 12.6191 141.369 12.8075C141.127 12.9887 140.952 13.2446 140.871 13.5354H140.878ZM132.015 12.5825H132.875C133.377 12.631 133.88 12.5068 134.301 12.2305C134.433 12.1209 134.538 11.9831 134.609 11.8273C134.68 11.6715 134.716 11.5017 134.712 11.3305C134.716 11.1631 134.686 10.9967 134.625 10.841C134.564 10.6852 134.472 10.5433 134.355 10.4234C133.975 10.1284 133.494 9.99451 133.016 10.0505H132.016L132.015 12.5825ZM128.488 7.73747H134.325C135.358 7.6571 136.383 7.98242 137.18 8.64446C137.509 8.98466 137.764 9.38988 137.927 9.83415C138.091 10.2784 138.16 10.752 138.13 11.2245C138.159 11.7208 138.081 12.2175 137.903 12.6815C137.724 13.1455 137.449 13.5661 137.095 13.9155C136.203 14.628 135.074 14.9741 133.936 14.8835H132.015V19.1015H128.488V7.73747Z" fill="#2F4256"/>
<path fill-rule="evenodd" clip-rule="evenodd" d="M1.00305 24.8665L12.7961 25.4195C12.7961 25.4195 18.8961 23.6695 18.9791 23.2685C19.0621 22.8675 18.8961 17.4255 18.8961 17.4255L1.00305 24.8665Z" fill="#B7B8B8"/>
<path fill-rule="evenodd" clip-rule="evenodd" d="M0.0179443 33.3065H11.0999L22.5519 30.1765L26.0109 31.9385L31.0229 30.6065L30.9909 25.5645L47.0329 24.8775L30.0419 18.4775L30.2519 17.9605L45.0349 20.9805L45.7659 16.6445L25.3659 1.34448L24.4959 1.71649L23.6789 1.3465L7.67894 14.0855L4.53794 16.5855L4.49094 20.8275L11.5909 17.6565L18.2909 19.3725L21.3329 25.4495L20.7869 25.9495L1.70295 30.9345L0.0179443 33.3065Z" fill="#D0D1D1"/>
<path fill-rule="evenodd" clip-rule="evenodd" d="M44.938 16.6235L36.9771 16.8095L45.29 20.2925L44.938 16.6235Z" fill="white"/>
<path fill-rule="evenodd" clip-rule="evenodd" d="M4.67901 16.7056L12.361 16.8766L4.328 20.3766L4.67901 16.7056Z" fill="white"/>
<path d="M43.249 17.2235C43.2545 17.0714 43.2257 16.9199 43.1648 16.7804C43.1039 16.6409 43.0124 16.5169 42.897 16.4175C42.4935 16.151 42.0659 15.9227 41.62 15.7355L24.542 6.88351V0.800537C31.574 4.40054 40.529 8.94353 46.683 12.1405C47.368 12.5047 47.9355 13.0557 48.3198 13.7296C48.7041 14.4035 48.8894 15.1726 48.854 15.9475C48.923 17.8805 48.964 20.3195 48.854 22.2425C48.8755 22.7226 48.7778 23.2005 48.5699 23.6338C48.3619 24.067 48.05 24.442 47.662 24.7255C47.152 24.9085 46.662 25.1095 44.883 24.4745L31.826 19.6975C30.939 19.3725 31.037 20.2165 31.014 20.5975L31.024 30.6045L26.396 27.8875C26.0349 27.7099 25.74 27.4215 25.5543 27.0644C25.3687 26.7073 25.302 26.3002 25.364 25.9025V25.3955V14.8655C25.433 12.2805 26.843 12.1655 29.464 13.1315L42.531 18.5445C42.6041 18.5793 42.6846 18.5958 42.7654 18.5926C42.8463 18.5894 42.9252 18.5665 42.9953 18.5261C43.0655 18.4857 43.1247 18.4289 43.1681 18.3605C43.2114 18.2921 43.2374 18.2142 43.244 18.1335C43.265 17.5895 43.26 17.6125 43.255 17.2245" fill="#2F4256"/>
<path d="M0 27.6265L16.624 22.0645C16.993 21.9405 17.324 21.8185 17.686 21.6755C17.976 21.5595 18.196 21.4445 18.195 21.1295L18.202 20.0295C18.233 19.4865 17.946 19.3015 17.202 19.5975L3.524 24.6395C2.69425 24.9676 1.78664 25.0459 0.912998 24.8645C0.151998 24.6255 0.0690013 23.7645 0.0670013 22.2775C0.0670013 20.7255 0.0429987 18.8385 0.0579987 17.0725C0.0324196 16.1636 0.22154 15.2616 0.610001 14.4395C1.04841 13.7444 1.6498 13.1667 2.362 12.7565C2.835 12.4435 3.321 12.1565 3.737 11.8715L24.542 0.793518L24.633 6.91751L6.57 16.5175C6.148 16.7425 5.734 16.8825 5.729 17.2715C5.724 17.6775 5.721 17.9185 5.721 18.3225C5.721 18.5145 5.876 18.7545 6.407 18.5735L19.655 12.9125C20.833 12.4195 23.934 11.8505 23.78 15.7195L23.774 23.2115C23.664 24.2925 24.038 26.1845 21.248 27.1465L0.019001 33.2975L0 27.6265Z" fill="#2F4256"/>
</svg>
