<svg width="57" height="56" viewBox="0 0 57 56" fill="none" xmlns="http://www.w3.org/2000/svg">
<rect x="0.333252" width="56" height="56" rx="28" fill="#6C849D" fill-opacity="0.18"/>
<path d="M39.4857 23.4014L37.8457 25.868C38.6366 27.4455 39.0238 29.1945 38.9726 30.9583C38.9214 32.7222 38.4334 34.4458 37.5523 35.9747H19.0723C17.9272 33.9882 17.4527 31.6855 17.7192 29.4081C17.9856 27.1307 18.9789 24.9998 20.5516 23.3313C22.1244 21.6627 24.1929 20.5454 26.4506 20.145C28.7083 19.7445 31.035 20.0822 33.0857 21.108L35.5523 19.468C33.041 17.8576 30.0621 17.136 27.0922 17.4186C24.1223 17.7012 21.3329 18.9716 19.1703 21.0267C17.0077 23.0818 15.5968 25.8028 15.1633 28.7544C14.7298 31.7061 15.2987 34.7179 16.779 37.308C17.0117 37.7111 17.3458 38.0462 17.7481 38.2801C18.1504 38.514 18.607 38.6385 19.0723 38.6414H37.539C38.0089 38.6432 38.4709 38.5209 38.8783 38.2867C39.2857 38.0526 39.624 37.715 39.859 37.308C41.0875 35.1799 41.704 32.7537 41.6405 30.2973C41.577 27.8409 40.8358 25.4498 39.499 23.388L39.4857 23.4014ZM26.4323 32.5214C26.68 32.7693 26.9741 32.966 27.2978 33.1002C27.6215 33.2344 27.9685 33.3035 28.319 33.3035C28.6694 33.3035 29.0164 33.2344 29.3402 33.1002C29.6639 32.966 29.958 32.7693 30.2057 32.5214L37.7523 21.2014L26.4323 28.748C26.1844 28.9957 25.9877 29.2898 25.8535 29.6135C25.7193 29.9372 25.6502 30.2842 25.6502 30.6347C25.6502 30.9851 25.7193 31.3321 25.8535 31.6559C25.9877 31.9796 26.1844 32.2737 26.4323 32.5214Z" fill="#B1C1D2"/>
</svg>
