<svg width="57" height="56" viewBox="0 0 57 56" fill="none" xmlns="http://www.w3.org/2000/svg">
<rect x="0.666504" width="56" height="56" rx="28" fill="#6C849D" fill-opacity="0.18"/>
<path d="M28.6687 15.3333C28.0554 15.3333 27.4287 15.3866 26.802 15.5199C23.122 16.2266 20.1887 19.1999 19.4954 22.8799C18.8554 26.3599 20.1354 29.5599 22.4554 31.6266C23.0287 32.1333 23.3354 32.8399 23.3354 33.5866V36.6666C23.3354 38.1333 24.5354 39.3333 26.002 39.3333H26.3754C26.842 40.1333 27.682 40.6666 28.6687 40.6666C29.6554 40.6666 30.5087 40.1333 30.962 39.3333H31.3354C32.802 39.3333 34.002 38.1333 34.002 36.6666V33.5866C34.002 32.8533 34.2954 32.1333 34.8554 31.6399C36.7887 29.9333 38.002 27.4399 38.002 24.6666C38.002 19.5066 33.8287 15.3333 28.6687 15.3333ZM31.3354 36.6666H26.002V35.3333H31.3354V36.6666ZM31.3354 33.9999H26.002V32.6666H31.3354V33.9999ZM29.3354 26.5466V29.9999H28.002V26.5466L25.562 24.1199L26.5087 23.1733L28.6687 25.3333L30.8287 23.1733L31.7754 24.1199L29.3354 26.5466Z" fill="#B1C1D2"/>
</svg>
