<svg width="125" height="32" viewBox="0 0 125 32" fill="none" xmlns="http://www.w3.org/2000/svg">
<rect x="0.666626" width="32" height="32" rx="16" fill="#D44A4A"/>
<g filter="url(#filter0_d_274_6659)">
<rect x="10.4444" y="8.88889" width="12.4444" height="15.1111" rx="2.43762" fill="#F7F4FF"/>
<rect x="13.111" y="16" width="7.11111" height="0.888889" rx="0.444444" fill="#D44A4A"/>
<rect x="13.111" y="19.5556" width="7.11111" height="0.888889" rx="0.444444" fill="#D44A4A"/>
<rect x="13.111" y="12.4444" width="7.11111" height="0.888889" rx="0.444444" fill="#D44A4A"/>
</g>
<path fill-rule="evenodd" clip-rule="evenodd" d="M73.9884 0.589051C74.2437 0.332762 74.5514 0.204618 74.9115 0.204618C75.273 0.204618 75.5814 0.332762 75.8367 0.589051C76.0905 0.843962 76.2175 1.15192 76.2175 1.51293C76.2175 1.8767 76.0905 2.18672 75.8367 2.44301C75.5828 2.6993 75.2744 2.82745 74.9115 2.82745C74.5486 2.82745 74.2402 2.6993 73.9864 2.44301C73.7339 2.18672 73.6076 1.8767 73.6076 1.51293C73.6076 1.15192 73.7346 0.843962 73.9884 0.589051ZM75.9877 2.58976C76.2844 2.29213 76.4327 1.93319 76.4327 1.51293C76.4327 1.09405 76.2844 0.737175 75.9877 0.442305C75.6911 0.147435 75.3323 0 74.9115 0C74.4934 0 74.1368 0.147435 73.8415 0.442305C73.5448 0.738553 73.3965 1.09543 73.3965 1.51293C73.3965 1.93457 73.5435 2.29351 73.8374 2.58976C74.1326 2.88738 74.4907 3.0362 74.9115 3.0362C75.3323 3.0362 75.6911 2.88738 75.9877 2.58976ZM75.1971 0.938348C75.2716 0.979685 75.3089 1.06098 75.3089 1.18224C75.3089 1.31038 75.2516 1.39719 75.1371 1.44266C75.075 1.46746 74.9819 1.47986 74.8577 1.47986H74.5928V0.876343H74.8432C75.006 0.876343 75.124 0.897011 75.1971 0.938348ZM75.3379 0.735797C75.2413 0.695838 75.0895 0.675859 74.8825 0.675859H74.2989V2.34174H74.5928V1.68448H74.8246C74.9805 1.68448 75.0895 1.70239 75.1516 1.73822C75.2565 1.80022 75.3089 1.92768 75.3089 2.12058V2.25286L75.3151 2.3066C75.3165 2.31349 75.3179 2.31969 75.3192 2.3252L75.3234 2.34174H75.5986L75.5883 2.32107C75.5814 2.30729 75.5766 2.27835 75.5738 2.23426C75.571 2.19017 75.5697 2.14883 75.5697 2.11025V1.98831C75.5697 1.90425 75.5393 1.81814 75.4786 1.72995C75.4179 1.64177 75.322 1.58734 75.1909 1.56667C75.2944 1.55013 75.3751 1.52327 75.4331 1.48606C75.5421 1.41579 75.5966 1.30625 75.5966 1.15743C75.5966 0.947994 75.5103 0.807448 75.3379 0.735797ZM40.6673 8.43022C40.4338 8.05905 40.317 7.59828 40.317 7.04792C40.317 6.40157 40.4514 5.91201 40.7201 5.57923C40.9921 5.24645 41.3457 5.08007 41.7809 5.08007C42.1712 5.08007 42.4992 5.23685 42.7648 5.55043C43.0304 5.86081 43.1632 6.34077 43.1632 6.99033C43.1632 7.63348 43.0336 8.12785 42.7744 8.47342C42.5184 8.8158 42.1904 8.98698 41.7905 8.98698C41.2753 8.98698 40.9009 8.8014 40.6673 8.43022ZM42.6064 4.5761C42.3408 4.40971 42.0112 4.32652 41.6177 4.32652C40.9073 4.32652 40.3602 4.6017 39.9762 5.15206C39.5954 5.69922 39.405 6.34717 39.405 7.09592C39.405 7.89586 39.6146 8.53742 40.0338 9.02058C40.453 9.50055 40.9489 9.74053 41.5217 9.74053C41.8769 9.74053 42.192 9.67013 42.4672 9.52934C42.7424 9.38855 42.9808 9.15977 43.1824 8.84299V9.55814H43.9599V2.48345H43.1296V5.08007C42.9344 4.84008 42.76 4.67209 42.6064 4.5761ZM46.7005 2.50745H45.3326V9.55814H46.2445V5.39684C46.2445 5.23045 46.2397 4.97127 46.2301 4.6193C46.2237 4.26412 46.2205 4.00014 46.2205 3.82736V3.61137L48.246 9.55814H49.1915L51.2026 3.61137C51.2026 3.99214 51.1994 4.34892 51.193 4.68169C51.1866 5.01447 51.1834 5.25285 51.1834 5.39684V9.55814H52.0905V2.50745H50.737L48.726 8.46862L46.7005 2.50745ZM56.0934 3.55378L57.1637 6.66875H54.9559L56.0934 3.55378ZM56.6742 2.50745H55.5943L52.9401 9.55814H53.9192L54.6823 7.44629H57.4709L58.1861 9.55814H59.2324L56.6742 2.50745ZM65.1504 3.02101C64.6576 2.55065 63.9649 2.31546 63.0721 2.31546C62.0258 2.31546 61.2051 2.67704 60.6099 3.40019C60.0595 4.06574 59.7844 4.91848 59.7844 5.9584C59.7844 7.3279 60.1507 8.34063 60.8835 8.99658C61.4402 9.49255 62.1282 9.74053 62.9473 9.74053C63.8977 9.74053 64.6528 9.43815 65.2128 8.8334C65.6799 8.33103 65.9551 7.70868 66.0383 6.96633H65.1072C65.0112 7.4303 64.8656 7.80467 64.6704 8.08945C64.3024 8.63021 63.7665 8.90059 63.0625 8.90059C62.2978 8.90059 61.7218 8.64461 61.3346 8.13265C60.9507 7.61748 60.7587 6.94713 60.7587 6.12159C60.7587 5.11366 60.9715 4.36652 61.397 3.88015C61.8258 3.39059 62.3874 3.14581 63.0817 3.14581C63.6513 3.14581 64.0928 3.2786 64.4064 3.54418C64.7232 3.80976 64.9344 4.16973 65.04 4.6241H65.9711C65.9167 4.02574 65.6431 3.49138 65.1504 3.02101ZM73.1754 10.1197L73.6554 9.53894L72.6858 8.7854C73.089 8.38223 73.3754 7.86066 73.545 7.22071C73.657 6.80154 73.713 6.36477 73.713 5.91041C73.713 4.93768 73.4794 4.13933 73.0122 3.51538C72.4138 2.71544 71.4923 2.31546 70.2476 2.31546C69.0573 2.31546 68.1582 2.75063 67.5502 3.62097C67.0766 4.29932 66.8399 5.11526 66.8399 6.06879C66.8399 7.11832 67.1134 7.99186 67.6606 8.68941C68.2813 9.40615 69.1389 9.76453 70.2332 9.76453C70.5948 9.76453 70.9276 9.72133 71.2315 9.63494C71.5387 9.54854 71.8235 9.43335 72.0859 9.28936L73.1754 10.1197ZM70.9052 8.87179C70.7324 8.89739 70.5468 8.91019 70.3484 8.91019C69.5229 8.91019 68.8957 8.65901 68.4669 8.15664C68.0414 7.65428 67.8286 6.97913 67.8286 6.13119C67.8286 5.12326 68.051 4.37772 68.4957 3.89455C68.9405 3.40819 69.5437 3.165 70.3052 3.165C71.0571 3.165 71.6491 3.41779 72.0811 3.92335C72.5162 4.42891 72.7338 5.09606 72.7338 5.9248C72.7338 6.30238 72.681 6.69755 72.5754 7.11032C72.473 7.52309 72.2763 7.89586 71.9851 8.22864L71.0635 7.51349L70.5836 8.10385L71.3563 8.7086C71.2283 8.7886 71.0779 8.84299 70.9052 8.87179Z" fill="#2F4256"/>
<path d="M44.745 27.4889H40.945V13.2089H49.385V16.3089H44.745V19.0289H49.025V22.1289H44.745V27.4889ZM64.5863 20.3289C64.5863 21.4356 64.4529 22.4422 64.1863 23.3489C63.9196 24.2422 63.5063 25.0156 62.9463 25.6689C62.3863 26.3222 61.6663 26.8222 60.7863 27.1689C59.9196 27.5156 58.8729 27.6889 57.6463 27.6889C56.4463 27.6889 55.4063 27.5156 54.5263 27.1689C53.6596 26.8222 52.9396 26.3222 52.3663 25.6689C51.8063 25.0156 51.3863 24.2422 51.1063 23.3489C50.8396 22.4422 50.7063 21.4289 50.7063 20.3089C50.7063 18.8289 50.9529 17.5422 51.4463 16.4489C51.9396 15.3422 52.6996 14.4889 53.7263 13.8889C54.7529 13.2889 56.0663 12.9889 57.6663 12.9889C59.2929 12.9889 60.6129 13.2956 61.6263 13.9089C62.6529 14.5089 63.3996 15.3622 63.8663 16.4689C64.3463 17.5622 64.5863 18.8489 64.5863 20.3289ZM54.7663 20.3289C54.7663 21.1822 54.8596 21.9222 55.0463 22.5489C55.2463 23.1622 55.5596 23.6356 55.9863 23.9689C56.4129 24.3022 56.9663 24.4689 57.6463 24.4689C58.3529 24.4689 58.9129 24.3022 59.3263 23.9689C59.7529 23.6356 60.0596 23.1622 60.2463 22.5489C60.4329 21.9222 60.5263 21.1822 60.5263 20.3289C60.5263 19.0356 60.3129 18.0156 59.8863 17.2689C59.4596 16.5222 58.7196 16.1489 57.6663 16.1489C56.9729 16.1489 56.4129 16.3222 55.9863 16.6689C55.5596 17.0022 55.2463 17.4822 55.0463 18.1089C54.8596 18.7222 54.7663 19.4622 54.7663 20.3289ZM71.3438 13.2089C72.6371 13.2089 73.7104 13.3689 74.5638 13.6889C75.4304 14.0089 76.0771 14.4822 76.5038 15.1089C76.9438 15.7222 77.1638 16.4956 77.1638 17.4289C77.1638 18.0022 77.0638 18.5289 76.8638 19.0089C76.6771 19.4889 76.4038 19.9156 76.0438 20.2889C75.6838 20.6622 75.2504 20.9889 74.7438 21.2689L78.9038 27.4889H74.5238L71.5038 22.2889H70.5238V27.4889H66.6638V13.2089H71.3438ZM71.2838 16.1289H70.5238V19.3889H71.2438C71.6438 19.3889 71.9904 19.3356 72.2838 19.2289C72.5904 19.1089 72.8304 18.9222 73.0038 18.6689C73.1771 18.4022 73.2638 18.0489 73.2638 17.6089C73.2638 17.3022 73.1971 17.0422 73.0638 16.8289C72.9304 16.6022 72.7171 16.4289 72.4238 16.3089C72.1304 16.1889 71.7504 16.1289 71.2838 16.1289ZM85.9189 27.4889L82.9989 17.2089H82.9189C82.9456 17.4756 82.9723 17.8356 82.9989 18.2889C83.0256 18.7422 83.0523 19.2356 83.0789 19.7689C83.1056 20.2889 83.1189 20.7956 83.1189 21.2889V27.4889H79.6989V13.2089H84.8389L87.8189 23.3489H87.8989L90.8189 13.2089H95.9589V27.4889H92.4189V21.2289C92.4189 20.7756 92.4256 20.2956 92.4389 19.7889C92.4523 19.2689 92.4723 18.7822 92.4989 18.3289C92.5256 17.8622 92.5456 17.4956 92.5589 17.2289H92.4789L89.5989 27.4889H85.9189ZM107.875 23.1489C107.875 23.9222 107.675 24.6556 107.275 25.3489C106.888 26.0422 106.282 26.6089 105.455 27.0489C104.642 27.4756 103.582 27.6889 102.275 27.6889C101.622 27.6889 101.048 27.6556 100.555 27.5889C100.075 27.5356 99.6215 27.4422 99.1949 27.3089C98.7682 27.1756 98.3282 27.0022 97.8749 26.7889V23.3489C98.6482 23.7356 99.4282 24.0356 100.215 24.2489C101.002 24.4489 101.715 24.5489 102.355 24.5489C102.742 24.5489 103.055 24.5022 103.295 24.4089C103.535 24.3156 103.715 24.1889 103.835 24.0289C103.955 23.8689 104.015 23.6889 104.015 23.4889C104.015 23.2356 103.928 23.0222 103.755 22.8489C103.582 22.6756 103.308 22.4956 102.935 22.3089C102.562 22.1222 102.062 21.8889 101.435 21.6089C100.902 21.3689 100.422 21.1156 99.9949 20.8489C99.5682 20.5822 99.2015 20.2822 98.8949 19.9489C98.6015 19.6156 98.3749 19.2289 98.2149 18.7889C98.0549 18.3356 97.9749 17.8022 97.9749 17.1889C97.9749 16.2689 98.2015 15.5022 98.6549 14.8889C99.1082 14.2622 99.7349 13.7956 100.535 13.4889C101.348 13.1689 102.288 13.0089 103.355 13.0089C104.288 13.0089 105.128 13.1156 105.875 13.3289C106.622 13.5289 107.288 13.7622 107.875 14.0289L106.695 17.0089C106.082 16.7289 105.475 16.5089 104.875 16.3489C104.288 16.1756 103.742 16.0889 103.235 16.0889C102.902 16.0889 102.628 16.1289 102.415 16.2089C102.202 16.2889 102.042 16.4022 101.935 16.5489C101.842 16.6822 101.795 16.8356 101.795 17.0089C101.795 17.2356 101.882 17.4356 102.055 17.6089C102.228 17.7822 102.515 17.9756 102.915 18.1889C103.328 18.3889 103.888 18.6489 104.595 18.9689C105.288 19.2756 105.875 19.6156 106.355 19.9889C106.848 20.3489 107.222 20.7822 107.475 21.2889C107.742 21.7822 107.875 22.4022 107.875 23.1489Z" fill="#192839"/>
<path d="M122.753 21.9702H119.235V25.5685H115.96V21.9702H112.443V18.8772H115.96V15.2587H119.235V18.8772H122.753V21.9702Z" fill="#192839"/>
<defs>
<filter id="filter0_d_274_6659" x="10.4444" y="8.88889" width="13.3586" height="16.0252" filterUnits="userSpaceOnUse" color-interpolation-filters="sRGB">
<feFlood flood-opacity="0" result="BackgroundImageFix"/>
<feColorMatrix in="SourceAlpha" type="matrix" values="0 0 0 0 0 0 0 0 0 0 0 0 0 0 0 0 0 0 127 0" result="hardAlpha"/>
<feOffset dx="0.914107" dy="0.914107"/>
<feComposite in2="hardAlpha" operator="out"/>
<feColorMatrix type="matrix" values="0 0 0 0 0 0 0 0 0 0 0 0 0 0 0 0 0 0 0.25 0"/>
<feBlend mode="normal" in2="BackgroundImageFix" result="effect1_dropShadow_274_6659"/>
<feBlend mode="normal" in="SourceGraphic" in2="effect1_dropShadow_274_6659" result="shape"/>
</filter>
</defs>
</svg>
