<svg width="116" height="32" viewBox="0 0 116 32" fill="none" xmlns="http://www.w3.org/2000/svg">
<path d="M32.3334 16C32.3334 7.16344 25.1699 0 16.3334 0C7.49682 0 0.333374 7.16344 0.333374 16C0.333374 24.8366 7.49682 32 16.3334 32C25.1699 32 32.3334 24.8366 32.3334 16Z" fill="#167B59"/>
<g filter="url(#filter0_d_274_6694)">
<path d="M22.8209 17.4086C22.5413 17.2485 22.3334 16.9692 22.3334 16.6471V14.7619C22.3334 14.3411 21.9923 14 21.5716 14H18.028C17.6443 14 17.3334 13.689 17.3334 13.3055C17.3334 13.0118 17.5223 12.7566 17.7794 12.6147C18.7035 12.1048 19.3334 11.1284 19.3334 10C19.3334 8.34571 17.9877 7 16.3334 7C14.6791 7 13.3334 8.34571 13.3334 10C13.3334 11.1283 13.9633 12.1048 14.8874 12.6146C15.1445 12.7565 15.3335 13.0117 15.3335 13.3054C15.3335 13.689 15.0225 13.9999 14.6388 13.9999H11.0953C10.6745 13.9999 10.3334 14.3411 10.3334 14.7619V16.647C10.3334 16.9692 10.1255 17.2485 9.84593 17.4085C8.94446 17.9245 8.33337 18.8885 8.33337 20C8.33337 21.6543 9.67909 23 11.3334 23C12.9877 23 14.3334 21.6543 14.3334 20C14.3334 18.8716 13.7035 17.8951 12.7794 17.3853C12.5223 17.2434 12.3334 16.9882 12.3334 16.6945C12.3334 16.311 12.6443 16 13.0279 16H19.6388C20.0224 16 20.3334 16.311 20.3334 16.6945C20.3334 16.9882 20.1445 17.2434 19.8873 17.3853C18.9633 17.8951 18.3334 18.8716 18.3334 20C18.3334 21.6543 19.679 23 21.3333 23C22.9876 23 24.3334 21.6543 24.3334 20C24.3334 18.8885 23.7223 17.9245 22.8209 17.4086Z" fill="#F2FFFB"/>
</g>
<path fill-rule="evenodd" clip-rule="evenodd" d="M73.6552 0.589051C73.9104 0.332762 74.2181 0.204618 74.5783 0.204618C74.9398 0.204618 75.2481 0.332762 75.5034 0.589051C75.7573 0.843962 75.8842 1.15192 75.8842 1.51293C75.8842 1.8767 75.7573 2.18672 75.5034 2.44301C75.2495 2.6993 74.9411 2.82745 74.5783 2.82745C74.2154 2.82745 73.907 2.6993 73.6531 2.44301C73.4006 2.18672 73.2744 1.8767 73.2744 1.51293C73.2744 1.15192 73.4013 0.843962 73.6552 0.589051ZM75.6545 2.58976C75.9511 2.29213 76.0995 1.93319 76.0995 1.51293C76.0995 1.09405 75.9511 0.737175 75.6545 0.442305C75.3578 0.147435 74.9991 0 74.5783 0C74.1602 0 73.8035 0.147435 73.5082 0.442305C73.2116 0.738553 73.0633 1.09543 73.0633 1.51293C73.0633 1.93457 73.2102 2.29351 73.5041 2.58976C73.7994 2.88738 74.1574 3.0362 74.5783 3.0362C74.9991 3.0362 75.3578 2.88738 75.6545 2.58976ZM74.8639 0.938348C74.9384 0.979685 74.9756 1.06098 74.9756 1.18224C74.9756 1.31038 74.9184 1.39719 74.8039 1.44266C74.7418 1.46746 74.6486 1.47986 74.5244 1.47986H74.2595V0.876343H74.51C74.6728 0.876343 74.7907 0.897011 74.8639 0.938348ZM75.0046 0.735797C74.908 0.695838 74.7562 0.675859 74.5493 0.675859H73.9656V2.34174H74.2595V1.68448H74.4913C74.6472 1.68448 74.7562 1.70239 74.8183 1.73822C74.9232 1.80022 74.9756 1.92768 74.9756 2.12058V2.25286L74.9818 2.3066C74.9832 2.31349 74.9846 2.31969 74.986 2.3252L74.9901 2.34174H75.2654L75.255 2.32107C75.2481 2.30729 75.2433 2.27835 75.2406 2.23426C75.2378 2.19017 75.2364 2.14883 75.2364 2.11025V1.98831C75.2364 1.90425 75.2061 1.81814 75.1453 1.72995C75.0846 1.64177 74.9887 1.58734 74.8577 1.56667C74.9611 1.55013 75.0419 1.52327 75.0998 1.48606C75.2088 1.41579 75.2633 1.30625 75.2633 1.15743C75.2633 0.947994 75.1771 0.807448 75.0046 0.735797ZM40.3341 8.43022C40.1005 8.05905 39.9837 7.59828 39.9837 7.04792C39.9837 6.40157 40.1181 5.91201 40.3869 5.57923C40.6589 5.24645 41.0124 5.08007 41.4476 5.08007C41.838 5.08007 42.166 5.23685 42.4315 5.55043C42.6971 5.86081 42.8299 6.34077 42.8299 6.99033C42.8299 7.63348 42.7003 8.12785 42.4411 8.47342C42.1852 8.8158 41.8572 8.98698 41.4572 8.98698C40.942 8.98698 40.5677 8.8014 40.3341 8.43022ZM42.2731 4.5761C42.0076 4.40971 41.678 4.32652 41.2844 4.32652C40.5741 4.32652 40.0269 4.6017 39.6429 5.15206C39.2622 5.69922 39.0718 6.34717 39.0718 7.09592C39.0718 7.89586 39.2814 8.53742 39.7005 9.02058C40.1197 9.50055 40.6157 9.74053 41.1884 9.74053C41.5436 9.74053 41.8588 9.67013 42.134 9.52934C42.4091 9.38855 42.6475 9.15977 42.8491 8.84299V9.55814H43.6266V2.48345H42.7963V5.08007C42.6011 4.84008 42.4267 4.67209 42.2731 4.5761ZM46.3673 2.50745H44.9993V9.55814H45.9113V5.39684C45.9113 5.23045 45.9065 4.97127 45.8969 4.6193C45.8905 4.26412 45.8873 4.00014 45.8873 3.82736V3.61137L47.9127 9.55814H48.8583L50.8693 3.61137C50.8693 3.99214 50.8661 4.34892 50.8597 4.68169C50.8533 5.01447 50.8501 5.25285 50.8501 5.39684V9.55814H51.7573V2.50745H50.4038L48.3927 8.46862L46.3673 2.50745ZM55.7602 3.55378L56.8305 6.66875H54.6227L55.7602 3.55378ZM56.3409 2.50745H55.261L52.6068 9.55814H53.5859L54.3491 7.44629H57.1377L57.8528 9.55814H58.8991L56.3409 2.50745ZM64.8171 3.02101C64.3244 2.55065 63.6316 2.31546 62.7389 2.31546C61.6925 2.31546 60.8718 2.67704 60.2766 3.40019C59.7263 4.06574 59.4511 4.91848 59.4511 5.9584C59.4511 7.3279 59.8175 8.34063 60.5502 8.99658C61.107 9.49255 61.7949 9.74053 62.6141 9.74053C63.5644 9.74053 64.3196 9.43815 64.8795 8.8334C65.3467 8.33103 65.6219 7.70868 65.7051 6.96633H64.7739C64.6779 7.4303 64.5323 7.80467 64.3372 8.08945C63.9692 8.63021 63.4332 8.90059 62.7293 8.90059C61.9645 8.90059 61.3886 8.64461 61.0014 8.13265C60.6174 7.61748 60.4254 6.94713 60.4254 6.12159C60.4254 5.11366 60.6382 4.36652 61.0638 3.88015C61.4926 3.39059 62.0541 3.14581 62.7485 3.14581C63.318 3.14581 63.7596 3.2786 64.0732 3.54418C64.3899 3.80976 64.6011 4.16973 64.7067 4.6241H65.6379C65.5835 4.02574 65.3099 3.49138 64.8171 3.02101ZM72.8421 10.1197L73.3221 9.53894L72.3526 8.7854C72.7557 8.38223 73.0421 7.86066 73.2117 7.22071C73.3237 6.80154 73.3797 6.36477 73.3797 5.91041C73.3797 4.93768 73.1461 4.13933 72.679 3.51538C72.0806 2.71544 71.1591 2.31546 69.9144 2.31546C68.724 2.31546 67.8249 2.75063 67.2169 3.62097C66.7434 4.29932 66.5066 5.11526 66.5066 6.06879C66.5066 7.11832 66.7802 7.99186 67.3273 8.68941C67.9481 9.40615 68.8056 9.76453 69.9 9.76453C70.2615 9.76453 70.5943 9.72133 70.8983 9.63494C71.2055 9.54854 71.4902 9.43335 71.7526 9.28936L72.8421 10.1197ZM70.5719 8.87179C70.3991 8.89739 70.2135 8.91019 70.0151 8.91019C69.1896 8.91019 68.5625 8.65901 68.1337 8.15664C67.7081 7.65428 67.4953 6.97913 67.4953 6.13119C67.4953 5.12326 67.7177 4.37772 68.1625 3.89455C68.6072 3.40819 69.2104 3.165 69.9719 3.165C70.7239 3.165 71.3159 3.41779 71.7478 3.92335C72.183 4.42891 72.4006 5.09606 72.4006 5.9248C72.4006 6.30238 72.3478 6.69755 72.2422 7.11032C72.1398 7.52309 71.943 7.89586 71.6518 8.22864L70.7303 7.51349L70.2503 8.10385L71.0231 8.7086C70.8951 8.7886 70.7447 8.84299 70.5719 8.87179Z" fill="#2F4256"/>
<path d="M44.4118 27.4889H40.6118V13.2089H49.0518V16.3089H44.4118V19.0289H48.6918V22.1289H44.4118V27.4889ZM50.893 27.4889V13.2089H54.753V24.3689H60.253V27.4889H50.893ZM75.003 20.3289C75.003 21.4356 74.8697 22.4422 74.603 23.3489C74.3364 24.2422 73.923 25.0156 73.363 25.6689C72.803 26.3222 72.083 26.8222 71.203 27.1689C70.3364 27.5156 69.2897 27.6889 68.063 27.6889C66.863 27.6889 65.823 27.5156 64.943 27.1689C64.0764 26.8222 63.3564 26.3222 62.783 25.6689C62.223 25.0156 61.803 24.2422 61.523 23.3489C61.2564 22.4422 61.123 21.4289 61.123 20.3089C61.123 18.8289 61.3697 17.5422 61.863 16.4489C62.3564 15.3422 63.1164 14.4889 64.143 13.8889C65.1697 13.2889 66.483 12.9889 68.083 12.9889C69.7097 12.9889 71.0297 13.2956 72.043 13.9089C73.0697 14.5089 73.8164 15.3622 74.283 16.4689C74.763 17.5622 75.003 18.8489 75.003 20.3289ZM65.183 20.3289C65.183 21.1822 65.2764 21.9222 65.463 22.5489C65.663 23.1622 65.9764 23.6356 66.403 23.9689C66.8297 24.3022 67.383 24.4689 68.063 24.4689C68.7697 24.4689 69.3297 24.3022 69.743 23.9689C70.1697 23.6356 70.4764 23.1622 70.663 22.5489C70.8497 21.9222 70.943 21.1822 70.943 20.3289C70.943 19.0356 70.7297 18.0156 70.303 17.2689C69.8764 16.5222 69.1364 16.1489 68.083 16.1489C67.3897 16.1489 66.8297 16.3222 66.403 16.6689C65.9764 17.0022 65.663 17.4822 65.463 18.1089C65.2764 18.7222 65.183 19.4622 65.183 20.3289ZM95.8252 13.2089L92.3052 27.4889H87.7452L86.3852 21.2689C86.3585 21.1489 86.3185 20.9489 86.2652 20.6689C86.2119 20.3889 86.1452 20.0689 86.0652 19.7089C85.9985 19.3489 85.9385 18.9956 85.8852 18.6489C85.8319 18.3022 85.7919 18.0089 85.7652 17.7689C85.7385 18.0089 85.6919 18.3022 85.6252 18.6489C85.5719 18.9956 85.5119 19.3489 85.4452 19.7089C85.3785 20.0689 85.3119 20.3889 85.2452 20.6689C85.1919 20.9489 85.1519 21.1489 85.1252 21.2689L83.7452 27.4889H79.1852L75.6452 13.2089H79.3652L80.9252 20.3689C80.9652 20.5422 81.0185 20.7956 81.0852 21.1289C81.1519 21.4489 81.2185 21.7956 81.2852 22.1689C81.3652 22.5422 81.4385 22.9089 81.5052 23.2689C81.5719 23.6156 81.6185 23.9089 81.6452 24.1489C81.6985 23.7489 81.7652 23.2889 81.8452 22.7689C81.9385 22.2489 82.0385 21.7289 82.1452 21.2089C82.2519 20.6756 82.3519 20.1822 82.4452 19.7289C82.5519 19.2756 82.6385 18.9022 82.7052 18.6089L83.9652 13.2089H87.5452L88.7652 18.6089C88.8319 18.8889 88.9119 19.2622 89.0052 19.7289C89.1119 20.1822 89.2185 20.6756 89.3252 21.2089C89.4319 21.7422 89.5319 22.2689 89.6252 22.7889C89.7185 23.3089 89.7852 23.7622 89.8252 24.1489C89.8652 23.8156 89.9319 23.4022 90.0252 22.9089C90.1185 22.4156 90.2119 21.9356 90.3052 21.4689C90.3985 20.9889 90.4719 20.6289 90.5252 20.3889L92.1052 13.2089H95.8252Z" fill="#192839"/>
<path d="M110.419 21.9702H106.902V25.5685H103.627V21.9702H100.11V18.8772H103.627V15.2587H106.902V18.8772H110.419V21.9702Z" fill="#192839"/>
<defs>
<filter id="filter0_d_274_6694" x="8.33337" y="7" width="16" height="17" filterUnits="userSpaceOnUse" color-interpolation-filters="sRGB">
<feFlood flood-opacity="0" result="BackgroundImageFix"/>
<feColorMatrix in="SourceAlpha" type="matrix" values="0 0 0 0 0 0 0 0 0 0 0 0 0 0 0 0 0 0 127 0" result="hardAlpha"/>
<feOffset dy="1"/>
<feComposite in2="hardAlpha" operator="out"/>
<feColorMatrix type="matrix" values="0 0 0 0 0.0291667 0 0 0 0 0.35 0 0 0 0 0.241997 0 0 0 1 0"/>
<feBlend mode="normal" in2="BackgroundImageFix" result="effect1_dropShadow_274_6694"/>
<feBlend mode="normal" in="SourceGraphic" in2="effect1_dropShadow_274_6694" result="shape"/>
</filter>
</defs>
</svg>
