<svg width="103" height="32" viewBox="0 0 103 32" fill="none" xmlns="http://www.w3.org/2000/svg">
<rect width="32" height="32" rx="16" fill="#2950DA"/>
<g filter="url(#filter0_d_274_6620)">
<path d="M15.2827 10.4139L13.9111 9.29328C13.5862 9.02939 13.1957 8.88889 12.7926 8.88889H8.93728C8.41865 8.88889 8 9.34811 8 9.917V22.083C8 22.6519 8.41865 23.1111 8.93728 23.1111H23.059C23.5776 23.1111 23.9963 22.6519 23.9963 22.083V11.8498C23.9963 11.281 23.5776 10.8217 23.059 10.8217H16.4012C15.9981 10.8183 15.6076 10.6778 15.2827 10.4139Z" fill="#B4CDFD"/>
<path d="M10.6982 11.8087H22.225C22.4908 11.8087 22.7053 12.0383 22.7053 12.3227V19.1768C22.7053 19.4612 22.4908 19.6909 22.225 19.6909H10.6982C10.4324 19.6909 10.2179 19.4612 10.2179 19.1768V12.3227C10.2179 12.0383 10.4324 11.8087 10.6982 11.8087Z" fill="#4D7FFF"/>
<path d="M10.0624 13.1244H21.3098C21.5691 13.1244 21.7784 13.3357 21.7784 13.5974V19.9033C21.7784 20.165 21.5691 20.3763 21.3098 20.3763H10.0624C9.80308 20.3763 9.59375 20.165 9.59375 19.9033V13.5974C9.59375 13.3357 9.80308 13.1244 10.0624 13.1244Z" fill="#75A3FF"/>
<path d="M8.93728 14.6151H23.059C23.5776 14.6151 23.9963 15.0232 23.9963 15.5287V22.1975C23.9963 22.703 23.5776 23.1111 23.059 23.1111H8.93728C8.41865 23.1111 8 22.703 8 22.1975V15.5287C8 15.0232 8.41865 14.6151 8.93728 14.6151Z" fill="#F5F8FF"/>
</g>
<path fill-rule="evenodd" clip-rule="evenodd" d="M73.3218 0.589051C73.5771 0.332762 73.8847 0.204618 74.2449 0.204618C74.6064 0.204618 74.9147 0.332762 75.17 0.589051C75.4239 0.843962 75.5508 1.15192 75.5508 1.51293C75.5508 1.8767 75.4239 2.18672 75.17 2.44301C74.9161 2.6993 74.6077 2.82745 74.2449 2.82745C73.882 2.82745 73.5736 2.6993 73.3197 2.44301C73.0672 2.18672 72.941 1.8767 72.941 1.51293C72.941 1.15192 73.0679 0.843962 73.3218 0.589051ZM75.3211 2.58976C75.6177 2.29213 75.7661 1.93319 75.7661 1.51293C75.7661 1.09405 75.6177 0.737175 75.3211 0.442305C75.0244 0.147435 74.6657 0 74.2449 0C73.8268 0 73.4701 0.147435 73.1749 0.442305C72.8782 0.738553 72.7299 1.09543 72.7299 1.51293C72.7299 1.93457 72.8768 2.29351 73.1707 2.58976C73.466 2.88738 73.824 3.0362 74.2449 3.0362C74.6657 3.0362 75.0244 2.88738 75.3211 2.58976ZM74.5305 0.938348C74.605 0.979685 74.6422 1.06098 74.6422 1.18224C74.6422 1.31038 74.585 1.39719 74.4705 1.44266C74.4084 1.46746 74.3152 1.47986 74.1911 1.47986H73.9261V0.876343H74.1766C74.3394 0.876343 74.4574 0.897011 74.5305 0.938348ZM74.6712 0.735797C74.5746 0.695838 74.4229 0.675859 74.2159 0.675859H73.6322V2.34174H73.9261V1.68448H74.1579C74.3139 1.68448 74.4229 1.70239 74.4849 1.73822C74.5898 1.80022 74.6422 1.92768 74.6422 2.12058V2.25286L74.6485 2.3066C74.6498 2.31349 74.6512 2.31969 74.6526 2.3252L74.6567 2.34174H74.932L74.9216 2.32107C74.9147 2.30729 74.9099 2.27835 74.9072 2.23426C74.9044 2.19017 74.903 2.14883 74.903 2.11025V1.98831C74.903 1.90425 74.8727 1.81814 74.812 1.72995C74.7512 1.64177 74.6553 1.58734 74.5243 1.56667C74.6278 1.55013 74.7085 1.52327 74.7664 1.48606C74.8754 1.41579 74.9299 1.30625 74.9299 1.15743C74.9299 0.947994 74.8437 0.807448 74.6712 0.735797ZM40.0007 8.43022C39.7671 8.05905 39.6503 7.59828 39.6503 7.04792C39.6503 6.40157 39.7847 5.91201 40.0535 5.57923C40.3255 5.24645 40.679 5.08007 41.1142 5.08007C41.5046 5.08007 41.8326 5.23685 42.0981 5.55043C42.3637 5.86081 42.4965 6.34077 42.4965 6.99033C42.4965 7.63348 42.3669 8.12785 42.1077 8.47342C41.8518 8.8158 41.5238 8.98698 41.1238 8.98698C40.6087 8.98698 40.2343 8.8014 40.0007 8.43022ZM41.9398 4.5761C41.6742 4.40971 41.3446 4.32652 40.951 4.32652C40.2407 4.32652 39.6935 4.6017 39.3095 5.15206C38.9288 5.69922 38.7384 6.34717 38.7384 7.09592C38.7384 7.89586 38.948 8.53742 39.3671 9.02058C39.7863 9.50055 40.2823 9.74053 40.855 9.74053C41.2102 9.74053 41.5254 9.67013 41.8006 9.52934C42.0757 9.38855 42.3141 9.15977 42.5157 8.84299V9.55814H43.2933V2.48345H42.4629V5.08007C42.2677 4.84008 42.0933 4.67209 41.9398 4.5761ZM46.0339 2.50745H44.666V9.55814H45.5779V5.39684C45.5779 5.23045 45.5731 4.97127 45.5635 4.6193C45.5571 4.26412 45.5539 4.00014 45.5539 3.82736V3.61137L47.5794 9.55814H48.5249L50.5359 3.61137C50.5359 3.99214 50.5327 4.34892 50.5263 4.68169C50.5199 5.01447 50.5167 5.25285 50.5167 5.39684V9.55814H51.4239V2.50745H50.0704L48.0593 8.46862L46.0339 2.50745ZM55.4268 3.55378L56.4971 6.66875H54.2893L55.4268 3.55378ZM56.0075 2.50745H54.9276L52.2734 9.55814H53.2525L54.0157 7.44629H56.8043L57.5194 9.55814H58.5658L56.0075 2.50745ZM64.4837 3.02101C63.991 2.55065 63.2982 2.31546 62.4055 2.31546C61.3592 2.31546 60.5384 2.67704 59.9433 3.40019C59.3929 4.06574 59.1177 4.91848 59.1177 5.9584C59.1177 7.3279 59.4841 8.34063 60.2168 8.99658C60.7736 9.49255 61.4615 9.74053 62.2807 9.74053C63.231 9.74053 63.9862 9.43815 64.5461 8.8334C65.0133 8.33103 65.2885 7.70868 65.3717 6.96633H64.4405C64.3445 7.4303 64.1989 7.80467 64.0038 8.08945C63.6358 8.63021 63.0998 8.90059 62.3959 8.90059C61.6311 8.90059 61.0552 8.64461 60.668 8.13265C60.284 7.61748 60.092 6.94713 60.092 6.12159C60.092 5.11366 60.3048 4.36652 60.7304 3.88015C61.1592 3.39059 61.7207 3.14581 62.4151 3.14581C62.9846 3.14581 63.4262 3.2786 63.7398 3.54418C64.0566 3.80976 64.2677 4.16973 64.3733 4.6241H65.3045C65.2501 4.02574 64.9765 3.49138 64.4837 3.02101ZM72.5088 10.1197L72.9887 9.53894L72.0192 8.7854C72.4224 8.38223 72.7087 7.86066 72.8783 7.22071C72.9903 6.80154 73.0463 6.36477 73.0463 5.91041C73.0463 4.93768 72.8127 4.13933 72.3456 3.51538C71.7472 2.71544 70.8257 2.31546 69.581 2.31546C68.3906 2.31546 67.4915 2.75063 66.8836 3.62097C66.41 4.29932 66.1732 5.11526 66.1732 6.06879C66.1732 7.11832 66.4468 7.99186 66.9939 8.68941C67.6147 9.40615 68.4722 9.76453 69.5666 9.76453C69.9281 9.76453 70.2609 9.72133 70.5649 9.63494C70.8721 9.54854 71.1568 9.43335 71.4192 9.28936L72.5088 10.1197ZM70.2385 8.87179C70.0657 8.89739 69.8801 8.91019 69.6818 8.91019C68.8562 8.91019 68.2291 8.65901 67.8003 8.15664C67.3747 7.65428 67.1619 6.97913 67.1619 6.13119C67.1619 5.12326 67.3843 4.37772 67.8291 3.89455C68.2739 3.40819 68.877 3.165 69.6386 3.165C70.3905 3.165 70.9825 3.41779 71.4144 3.92335C71.8496 4.42891 72.0672 5.09606 72.0672 5.9248C72.0672 6.30238 72.0144 6.69755 71.9088 7.11032C71.8064 7.52309 71.6096 7.89586 71.3184 8.22864L70.3969 7.51349L69.9169 8.10385L70.6897 8.7086C70.5617 8.7886 70.4113 8.84299 70.2385 8.87179Z" fill="#2F4256"/>
<path d="M52.3984 20.0489C52.3984 21.7022 52.0851 23.0822 51.4584 24.1889C50.8451 25.2956 49.9784 26.1222 48.8584 26.6689C47.7384 27.2156 46.4184 27.4889 44.8984 27.4889H40.2784V13.2089H45.2184C46.7517 13.2089 48.0517 13.4756 49.1184 14.0089C50.1851 14.5289 50.9984 15.2956 51.5584 16.3089C52.1184 17.3222 52.3984 18.5689 52.3984 20.0489ZM48.3984 20.1889C48.3984 19.3222 48.2784 18.6022 48.0384 18.0289C47.8117 17.4556 47.4651 17.0289 46.9984 16.7489C46.5451 16.4689 45.9651 16.3289 45.2584 16.3289H44.1384V24.3289H44.9984C46.1717 24.3289 47.0317 23.9889 47.5784 23.3089C48.1251 22.6289 48.3984 21.5889 48.3984 20.1889ZM60.6859 27.4889L57.7659 17.2089H57.6859C57.7126 17.4756 57.7392 17.8356 57.7659 18.2889C57.7926 18.7422 57.8192 19.2356 57.8459 19.7689C57.8726 20.2889 57.8859 20.7956 57.8859 21.2889V27.4889H54.4659V13.2089H59.6059L62.5859 23.3489H62.6659L65.5859 13.2089H70.7259V27.4889H67.1859V21.2289C67.1859 20.7756 67.1926 20.2956 67.2059 19.7889C67.2192 19.2689 67.2392 18.7822 67.2659 18.3289C67.2926 17.8622 67.3126 17.4956 67.3259 17.2289H67.2459L64.3659 27.4889H60.6859ZM82.6418 23.1489C82.6418 23.9222 82.4418 24.6556 82.0418 25.3489C81.6552 26.0422 81.0485 26.6089 80.2218 27.0489C79.4085 27.4756 78.3485 27.6889 77.0418 27.6889C76.3885 27.6889 75.8152 27.6556 75.3218 27.5889C74.8418 27.5356 74.3885 27.4422 73.9618 27.3089C73.5352 27.1756 73.0952 27.0022 72.6418 26.7889V23.3489C73.4152 23.7356 74.1952 24.0356 74.9818 24.2489C75.7685 24.4489 76.4818 24.5489 77.1218 24.5489C77.5085 24.5489 77.8218 24.5022 78.0618 24.4089C78.3018 24.3156 78.4818 24.1889 78.6018 24.0289C78.7218 23.8689 78.7818 23.6889 78.7818 23.4889C78.7818 23.2356 78.6952 23.0222 78.5218 22.8489C78.3485 22.6756 78.0752 22.4956 77.7018 22.3089C77.3285 22.1222 76.8285 21.8889 76.2018 21.6089C75.6685 21.3689 75.1885 21.1156 74.7618 20.8489C74.3352 20.5822 73.9685 20.2822 73.6618 19.9489C73.3685 19.6156 73.1418 19.2289 72.9818 18.7889C72.8218 18.3356 72.7418 17.8022 72.7418 17.1889C72.7418 16.2689 72.9685 15.5022 73.4218 14.8889C73.8752 14.2622 74.5018 13.7956 75.3018 13.4889C76.1152 13.1689 77.0552 13.0089 78.1218 13.0089C79.0552 13.0089 79.8952 13.1156 80.6418 13.3289C81.3885 13.5289 82.0552 13.7622 82.6418 14.0289L81.4618 17.0089C80.8485 16.7289 80.2418 16.5089 79.6418 16.3489C79.0552 16.1756 78.5085 16.0889 78.0018 16.0889C77.6685 16.0889 77.3952 16.1289 77.1818 16.2089C76.9685 16.2889 76.8085 16.4022 76.7018 16.5489C76.6085 16.6822 76.5618 16.8356 76.5618 17.0089C76.5618 17.2356 76.6485 17.4356 76.8218 17.6089C76.9952 17.7822 77.2818 17.9756 77.6818 18.1889C78.0952 18.3889 78.6552 18.6489 79.3618 18.9689C80.0552 19.2756 80.6418 19.6156 81.1218 19.9889C81.6152 20.3489 81.9885 20.7822 82.2418 21.2889C82.5085 21.7822 82.6418 22.4022 82.6418 23.1489Z" fill="#192839"/>
<path d="M97.0859 21.9702H93.5685V25.5685H90.2936V21.9702H86.7762V18.8772H90.2936V15.2587H93.5685V18.8772H97.0859V21.9702Z" fill="#192839"/>
<defs>
<filter id="filter0_d_274_6620" x="8" y="8.88889" width="17.0417" height="15.6161" filterUnits="userSpaceOnUse" color-interpolation-filters="sRGB">
<feFlood flood-opacity="0" result="BackgroundImageFix"/>
<feColorMatrix in="SourceAlpha" type="matrix" values="0 0 0 0 0 0 0 0 0 0 0 0 0 0 0 0 0 0 127 0" result="hardAlpha"/>
<feOffset dx="1.04542" dy="1.39389"/>
<feComposite in2="hardAlpha" operator="out"/>
<feColorMatrix type="matrix" values="0 0 0 0 0.03125 0 0 0 0 0.135769 0 0 0 0 0.5 0 0 0 1 0"/>
<feBlend mode="normal" in2="BackgroundImageFix" result="effect1_dropShadow_274_6620"/>
<feBlend mode="normal" in="SourceGraphic" in2="effect1_dropShadow_274_6620" result="shape"/>
</filter>
</defs>
</svg>
