<svg width="78" height="25" viewBox="0 0 78 25" fill="none" xmlns="http://www.w3.org/2000/svg">
<rect width="24.3692" height="24.3692" rx="12.1846" fill="#2243B6"/>
<g filter="url(#filter0_d_381_2916)">
<path d="M11.6384 7.93066L10.5939 7.07725C10.3464 6.87629 10.049 6.76929 9.74209 6.76929H6.80609C6.41114 6.76929 6.09232 7.119 6.09232 7.55223V16.8171C6.09232 17.2503 6.41114 17.6001 6.80609 17.6001H17.5603C17.9553 17.6001 18.2741 17.2503 18.2741 16.8171V9.02417C18.2741 8.59094 17.9553 8.24123 17.5603 8.24123H12.4901C12.1832 8.23862 11.8858 8.13162 11.6384 7.93066Z" fill="#B4CDFD"/>
<path d="M8.1471 8.99268H16.9253C17.1276 8.99268 17.291 9.16753 17.291 9.38415V14.6038C17.291 14.8204 17.1276 14.9953 16.9253 14.9953H8.1471C7.94471 14.9953 7.78134 14.8204 7.78134 14.6038V9.38415C7.78134 9.16753 7.94471 8.99268 8.1471 8.99268Z" fill="#4D7FFF"/>
<path d="M7.66293 9.99463H16.2283C16.4257 9.99463 16.5851 10.1555 16.5851 10.3548V15.157C16.5851 15.3563 16.4257 15.5172 16.2283 15.5172H7.66293C7.46546 15.5172 7.30605 15.3563 7.30605 15.157V10.3548C7.30605 10.1555 7.46546 9.99463 7.66293 9.99463Z" fill="#75A3FF"/>
<path d="M6.80611 11.1299H17.5603C17.9553 11.1299 18.2741 11.4406 18.2741 11.8256V16.9042C18.2741 17.2891 17.9553 17.5999 17.5603 17.5999H6.80611C6.41115 17.5999 6.09233 17.2891 6.09233 16.9042V11.8256C6.09233 11.4406 6.41115 11.1299 6.80611 11.1299Z" fill="#F5F8FF"/>
</g>
<path d="M32.4997 6.96894H32.4826C32.1824 7.3721 31.7287 7.58554 31.234 7.58554C30.1696 7.58554 29.5009 6.66064 29.5009 5.6341C29.5009 4.57708 30.1559 3.66912 31.2408 3.66912C31.7253 3.66912 32.1892 3.90627 32.4826 4.29927H32.4997V0.965576H33.1172V7.48051H32.4997V6.96894ZM30.1355 5.58667C30.1355 6.31507 30.5517 6.99943 31.3227 6.99943C32.1176 6.99943 32.5338 6.34218 32.5338 5.59345C32.5338 4.8515 32.0801 4.25184 31.3159 4.25184C30.596 4.25184 30.1355 4.89215 30.1355 5.58667Z" fill="#2F4256"/>
<path d="M35.0105 1.18945L37.1223 6.19L39.2409 1.18945L40.4213 7.48418H39.7595L39.0089 3.45596H38.9953L37.1223 7.7281L35.2561 3.45596H35.2391L34.4919 7.48418H33.8301L35.0105 1.18945Z" fill="#2F4256"/>
<path d="M41.8784 5.79336L41.1757 7.48392H40.466L43.1476 1.24341L45.7609 7.48392H45.0444L44.3587 5.79336H41.8784ZM43.1339 2.79168L42.1411 5.17676H44.1062L43.1339 2.79168Z" fill="#2F4256"/>
<path d="M50.6671 2.83271C50.2031 2.34146 49.5651 2.04333 48.8965 2.04333C47.6035 2.04333 46.5527 3.19521 46.5527 4.50633C46.5527 5.81745 47.6069 6.96933 48.9101 6.96933C49.5651 6.96933 50.2031 6.65426 50.6671 6.17995V6.99983C50.1656 7.37249 49.5515 7.58254 48.934 7.58254C47.293 7.58254 45.9045 6.21722 45.9045 4.52666C45.9045 2.81916 47.2691 1.42334 48.934 1.42334C49.5822 1.42334 50.1519 1.61306 50.6671 2.00606V2.83271Z" fill="#2F4256"/>
<path d="M56.5552 7.003C56.0775 7.37567 55.3918 7.58572 54.805 7.58572C53.147 7.58572 51.7755 6.22717 51.7755 4.51289C51.7755 2.80539 53.147 1.42651 54.805 1.42651C56.4835 1.42651 57.8345 2.82572 57.8345 4.52983C57.8345 5.35987 57.5411 6.03067 56.9952 6.63033L57.8652 7.53829H57.0396L56.5552 7.003ZM56.5449 6.15602C56.9748 5.68849 57.1829 5.14643 57.1829 4.50612C57.1829 3.14757 56.1355 2.04311 54.8016 2.04311C53.4676 2.04311 52.4203 3.15773 52.4203 4.50612C52.4203 5.84772 53.4847 6.96912 54.8016 6.96912C55.2349 6.96912 55.7432 6.80311 56.0946 6.52869L54.6924 5.08206H55.5385L56.5449 6.15602Z" fill="#2F4256"/>
<path d="M58.4625 1.82269C58.21 1.82269 57.9951 1.73461 57.8177 1.55505C57.6403 1.37549 57.5516 1.16205 57.5516 0.911346C57.5516 0.657254 57.6403 0.443816 57.8177 0.264257C57.9951 0.088086 58.21 0 58.4625 0C58.7149 0 58.9298 0.088086 59.1073 0.264257C59.2847 0.440428 59.3734 0.657254 59.3734 0.911346C59.3734 1.16205 59.2847 1.37888 59.1073 1.55505C58.9298 1.73122 58.7149 1.82269 58.4625 1.82269ZM58.4625 1.61942C58.6569 1.61942 58.8207 1.54827 58.9606 1.40937C59.1004 1.27046 59.1721 1.10446 59.1721 0.911346C59.1721 0.718236 59.1038 0.54884 58.964 0.409936C58.8241 0.271032 58.6569 0.199887 58.4625 0.199887C58.268 0.199887 58.1042 0.271032 57.9644 0.409936C57.8245 0.54884 57.7563 0.718236 57.7563 0.911346C57.7563 1.10446 57.8245 1.27046 57.9644 1.40937C58.1042 1.55166 58.268 1.61942 58.4625 1.61942ZM58.0974 1.46696V0.379445H58.4113C58.691 0.379445 58.8275 0.474306 58.8275 0.664029C58.8275 0.796157 58.7524 0.901182 58.6023 0.982491L58.8582 1.47035H58.6262L58.3942 1.02653H58.2953V1.47035H58.0974V1.46696ZM58.2953 0.870691H58.384C58.5273 0.870691 58.5989 0.806321 58.5989 0.680968C58.5989 0.579331 58.5307 0.528513 58.3908 0.528513H58.2953V0.870691Z" fill="#2F4256"/>
<path d="M40.2246 16.0899C40.2246 17.4686 39.98 18.6193 39.4907 19.5422C39.0127 20.465 38.34 21.1543 37.4728 21.6102C36.6055 22.066 35.6049 22.2939 34.4708 22.2939H30.6016V10.3862H34.6709C35.894 10.3862 36.9168 10.6085 37.7396 11.0533C38.5624 11.4869 39.1794 12.1262 39.5908 12.9712C40.0133 13.8162 40.2246 14.8558 40.2246 16.0899ZM36.7056 16.2066C36.7056 15.484 36.6333 14.8836 36.4888 14.4055C36.3443 13.9274 36.1163 13.5716 35.805 13.3381C35.5048 13.1046 35.1212 12.9879 34.6543 12.9879H34.0038V19.6589H34.4708C35.2602 19.6589 35.8272 19.3754 36.1719 18.8083C36.5277 18.2413 36.7056 17.3741 36.7056 16.2066ZM47.1044 22.2939L44.953 13.5549H44.8863C44.9086 13.7773 44.9308 14.0775 44.953 14.4555C44.9753 14.8335 44.9975 15.2449 45.0197 15.6896C45.042 16.1233 45.0531 16.5458 45.0531 16.9571V22.2939H42.0511V10.3862H46.9377L48.6888 17.7243H48.7388L50.3566 10.3862H55.2431V22.2939H52.141V16.9071C52.141 16.5291 52.1466 16.1288 52.1577 15.7063C52.1688 15.2727 52.18 14.8669 52.1911 14.4889C52.2133 14.0997 52.2356 13.794 52.2578 13.5716H52.1911L50.2065 22.2939H47.1044ZM65.1471 18.6749C65.1471 19.3198 64.997 19.9313 64.6968 20.5094C64.4077 21.0876 63.9296 21.5601 63.2625 21.927C62.5954 22.2828 61.7115 22.4607 60.6108 22.4607C60.0326 22.4607 59.5434 22.4329 59.1431 22.3773C58.754 22.3329 58.3982 22.255 58.0758 22.1438C57.7533 22.0327 57.3976 21.8881 57.0084 21.7102V18.8417C57.6533 19.1641 58.2981 19.4143 58.943 19.5922C59.5879 19.759 60.1438 19.8423 60.6108 19.8423C60.8554 19.8423 61.0611 19.8034 61.2278 19.7256C61.3946 19.6478 61.5169 19.5422 61.5947 19.4087C61.6837 19.2753 61.7282 19.1252 61.7282 18.9584C61.7282 18.7472 61.6781 18.5693 61.5781 18.4248C61.478 18.2802 61.289 18.1301 61.011 17.9745C60.7331 17.8188 60.3272 17.6298 59.7936 17.4074C59.2932 17.1962 58.8652 16.9794 58.5094 16.757C58.1647 16.5346 57.8868 16.2845 57.6755 16.0065C57.4643 15.7286 57.3086 15.4061 57.2085 15.0392C57.1085 14.6612 57.0584 14.2165 57.0584 13.705C57.0584 12.9378 57.2475 12.2985 57.6255 11.7871C58.0146 11.2645 58.5427 10.8754 59.2098 10.6197C59.877 10.3528 60.6441 10.2194 61.5113 10.2194C62.3341 10.2194 63.0512 10.3084 63.6628 10.4862C64.2854 10.653 64.7913 10.8476 65.1804 11.07L64.1631 13.5549C63.7183 13.3214 63.2458 13.138 62.7455 13.0046C62.2452 12.86 61.8004 12.7877 61.4113 12.7877C61.1778 12.7877 60.9888 12.8211 60.8442 12.8878C60.6997 12.9545 60.5941 13.049 60.5274 13.1713C60.4607 13.2825 60.4273 13.4104 60.4273 13.5549C60.4273 13.7439 60.4885 13.9107 60.6108 14.0552C60.7442 14.1998 60.9721 14.361 61.2945 14.5389C61.6281 14.7057 62.0895 14.9336 62.6788 15.2227C63.2125 15.4673 63.6628 15.7397 64.0297 16.0399C64.3966 16.3401 64.6745 16.7014 64.8635 17.1239C65.0525 17.5353 65.1471 18.0523 65.1471 18.6749Z" fill="#192839"/>
<path d="M76.6654 18.091H73.9868V20.8312H71.4928V18.091H68.8142V15.7356H71.4928V12.9799H73.9868V15.7356H76.6654V18.091Z" fill="#192839"/>
<defs>
<filter id="filter0_d_381_2916" x="6.09232" y="6.76929" width="12.9779" height="11.8923" filterUnits="userSpaceOnUse" color-interpolation-filters="sRGB">
<feFlood flood-opacity="0" result="BackgroundImageFix"/>
<feColorMatrix in="SourceAlpha" type="matrix" values="0 0 0 0 0 0 0 0 0 0 0 0 0 0 0 0 0 0 127 0" result="hardAlpha"/>
<feOffset dx="0.796124" dy="1.0615"/>
<feComposite in2="hardAlpha" operator="out"/>
<feColorMatrix type="matrix" values="0 0 0 0 0.03125 0 0 0 0 0.135769 0 0 0 0 0.5 0 0 0 1 0"/>
<feBlend mode="normal" in2="BackgroundImageFix" result="effect1_dropShadow_381_2916"/>
<feBlend mode="normal" in="SourceGraphic" in2="effect1_dropShadow_381_2916" result="shape"/>
</filter>
</defs>
</svg>
