<svg width="115" height="36" viewBox="0 0 115 36" fill="none" xmlns="http://www.w3.org/2000/svg">
<rect width="36" height="36" rx="18" fill="#2950DA"/>
<g filter="url(#filter0_d_189_4152)">
<path d="M17.193 11.7156L15.65 10.4549C15.2845 10.158 14.8451 9.99997 14.3917 9.99997H10.0544C9.47098 9.99997 9 10.5166 9 11.1566V24.8433C9 25.4833 9.47098 26 10.0544 26H25.9414C26.5248 26 26.9958 25.4833 26.9958 24.8433V13.3311C26.9958 12.6911 26.5248 12.1744 25.9414 12.1744H18.4513C17.9979 12.1706 17.5586 12.0125 17.193 11.7156Z" fill="#B4CDFD"/>
<path d="M12.0354 13.2847H25.0032C25.3021 13.2847 25.5435 13.543 25.5435 13.863V21.5739C25.5435 21.8939 25.3021 22.1522 25.0032 22.1522H12.0354C11.7365 22.1522 11.4951 21.8939 11.4951 21.5739V13.863C11.4951 13.543 11.7365 13.2847 12.0354 13.2847Z" fill="#4D7FFF"/>
<path d="M11.3202 14.765H23.9735C24.2652 14.765 24.5007 15.0026 24.5007 15.297V22.3912C24.5007 22.6856 24.2652 22.9233 23.9735 22.9233H11.3202C11.0285 22.9233 10.793 22.6856 10.793 22.3912V15.297C10.793 15.0026 11.0285 14.765 11.3202 14.765Z" fill="#75A3FF"/>
<path d="M10.0544 16.442H25.9414C26.5248 16.442 26.9958 16.9011 26.9958 17.4698V24.9722C26.9958 25.5409 26.5248 25.9999 25.9414 25.9999H10.0544C9.47098 25.9999 9 25.5409 9 24.9722V17.4698C9 16.9011 9.47098 16.442 10.0544 16.442Z" fill="#F5F8FF"/>
</g>
<path fill-rule="evenodd" clip-rule="evenodd" d="M82.4871 0.662683C82.7743 0.374358 83.1204 0.230195 83.5256 0.230195C83.9322 0.230195 84.2792 0.374358 84.5663 0.662683C84.852 0.949458 84.9948 1.29591 84.9948 1.70205C84.9948 2.11128 84.852 2.46006 84.5663 2.74839C84.2807 3.03671 83.9338 3.18088 83.5256 3.18088C83.1173 3.18088 82.7704 3.03671 82.4848 2.74839C82.2007 2.46006 82.0587 2.11128 82.0587 1.70205C82.0587 1.29591 82.2015 0.949458 82.4871 0.662683ZM84.7363 2.91348C85.07 2.57865 85.2369 2.17484 85.2369 1.70205C85.2369 1.23081 85.07 0.829322 84.7363 0.497593C84.4026 0.165864 83.999 0 83.5256 0C83.0552 0 82.654 0.165864 82.3218 0.497593C81.9881 0.830872 81.8212 1.23236 81.8212 1.70205C81.8212 2.17639 81.9865 2.5802 82.3171 2.91348C82.6493 3.24831 83.0521 3.41572 83.5256 3.41572C83.999 3.41572 84.4026 3.24831 84.7363 2.91348ZM83.8469 1.05564C83.9307 1.10215 83.9726 1.1936 83.9726 1.33002C83.9726 1.47418 83.9082 1.57184 83.7793 1.62299C83.7095 1.65089 83.6047 1.66484 83.465 1.66484H83.167V0.985886H83.4487C83.6319 0.985886 83.7646 1.00914 83.8469 1.05564ZM84.0052 0.827772C83.8965 0.782818 83.7258 0.760341 83.493 0.760341H82.8364V2.63445H83.167V1.89504H83.4278C83.6032 1.89504 83.7258 1.91519 83.7956 1.9555C83.9136 2.02525 83.9726 2.16864 83.9726 2.38566V2.53447L83.9796 2.59493C83.9811 2.60268 83.9827 2.60965 83.9842 2.61585L83.9889 2.63445H84.2986L84.2869 2.6112C84.2792 2.5957 84.2737 2.56315 84.2706 2.51354C84.2675 2.46394 84.266 2.41744 84.266 2.37403V2.23684C84.266 2.14229 84.2318 2.0454 84.1635 1.94619C84.0952 1.84699 83.9874 1.78576 83.8399 1.7625C83.9563 1.7439 84.0471 1.71367 84.1123 1.67182C84.2349 1.59276 84.2962 1.46953 84.2962 1.30211C84.2962 1.06649 84.1992 0.908379 84.0052 0.827772ZM45.0009 9.35899C44.7381 8.94142 44.6067 8.42306 44.6067 7.8039C44.6067 7.07676 44.7579 6.526 45.0603 6.15162C45.3663 5.77725 45.7641 5.59006 46.2536 5.59006C46.6928 5.59006 47.0618 5.76645 47.3605 6.11923C47.6593 6.4684 47.8087 7.00836 47.8087 7.73911C47.8087 8.46266 47.6629 9.01882 47.3713 9.40759C47.0834 9.79276 46.7144 9.98535 46.2644 9.98535C45.6849 9.98535 45.2637 9.77656 45.0009 9.35899ZM47.1824 5.02311C46.8836 4.83592 46.5128 4.74233 46.07 4.74233C45.2709 4.74233 44.6553 5.0519 44.2234 5.67106C43.795 6.28661 43.5808 7.01556 43.5808 7.8579C43.5808 8.75784 43.8166 9.47958 44.2882 10.0231C44.7597 10.5631 45.3177 10.8331 45.962 10.8331C46.3616 10.8331 46.7162 10.7539 47.0258 10.5955C47.3353 10.4371 47.6035 10.1797 47.8303 9.82336V10.6279H48.705V2.66888H47.7709V5.59006C47.5513 5.32008 47.3551 5.1311 47.1824 5.02311ZM51.7882 2.69587H50.2493V10.6279H51.2753V5.94644C51.2753 5.75925 51.2699 5.46767 51.2591 5.0717C51.2519 4.67213 51.2483 4.37515 51.2483 4.18077V3.93778L53.5269 10.6279H54.5906L56.8531 3.93778C56.8531 4.36615 56.8495 4.76752 56.8423 5.1419C56.8351 5.51627 56.8315 5.78445 56.8315 5.94644V10.6279H57.852V2.69587H56.3293L54.0669 9.40219L51.7882 2.69587ZM62.3553 3.87299L63.5594 7.37734H61.0755L62.3553 3.87299ZM63.0086 2.69587H61.7937L58.8077 10.6279H59.9092L60.7678 8.25207H63.9049L64.7095 10.6279H65.8866L63.0086 2.69587ZM72.5443 3.27363C71.99 2.74447 71.2106 2.47989 70.2063 2.47989C69.0292 2.47989 68.1058 2.88666 67.4363 3.7002C66.8171 4.44895 66.5076 5.40828 66.5076 6.57819C66.5076 8.11888 66.9197 9.2582 67.7441 9.99615C68.3704 10.5541 69.1444 10.8331 70.0659 10.8331C71.135 10.8331 71.9846 10.4929 72.6145 9.81256C73.1401 9.2474 73.4497 8.54725 73.5432 7.71211H72.4957C72.3877 8.23407 72.2239 8.65524 72.0044 8.97562C71.5904 9.58398 70.9874 9.88815 70.1955 9.88815C69.3352 9.88815 68.6872 9.60017 68.2516 9.02422C67.8197 8.44466 67.6037 7.69051 67.6037 6.76178C67.6037 5.62786 67.8431 4.78732 68.3218 4.24016C68.8042 3.6894 69.4359 3.41402 70.2171 3.41402C70.8578 3.41402 71.3546 3.56341 71.7074 3.86219C72.0638 4.16097 72.3013 4.56594 72.4201 5.0771H73.4677C73.4065 4.40395 73.0987 3.80279 72.5443 3.27363ZM81.5725 11.2597L82.1124 10.6063L81.0217 9.75856C81.4753 9.305 81.7975 8.71824 81.9882 7.99829C82.1142 7.52672 82.1772 7.03536 82.1772 6.5242C82.1772 5.42988 81.9144 4.53174 81.3889 3.82979C80.7157 2.92986 79.679 2.47989 78.2787 2.47989C76.9396 2.47989 75.9281 2.96945 75.2441 3.94858C74.7114 4.71173 74.445 5.62966 74.445 6.70238C74.445 7.8831 74.7528 8.86583 75.3683 9.65057C76.0667 10.4569 77.0314 10.8601 78.2625 10.8601C78.6693 10.8601 79.0437 10.8115 79.3856 10.7143C79.7312 10.6171 80.0516 10.4875 80.3468 10.3255L81.5725 11.2597ZM79.0185 9.85576C78.8241 9.88455 78.6153 9.89895 78.3921 9.89895C77.4634 9.89895 76.7578 9.61637 76.2755 9.05122C75.7967 8.48606 75.5573 7.72651 75.5573 6.77258C75.5573 5.63866 75.8075 4.79992 76.3078 4.25636C76.8082 3.7092 77.4868 3.43562 78.3435 3.43562C79.1894 3.43562 79.8554 3.72 80.3414 4.28876C80.8309 4.85752 81.0757 5.60806 81.0757 6.5404C81.0757 6.96517 81.0163 7.40973 80.8975 7.8741C80.7823 8.33847 80.5609 8.75784 80.2334 9.13221L79.1966 8.32767L78.6567 8.99182L79.526 9.67217C79.382 9.76216 79.2128 9.82336 79.0185 9.85576Z" fill="#2F4256"/>
<path d="M58.9483 22.68C58.9483 24.54 58.5958 26.0925 57.8908 27.3375C57.2008 28.5825 56.2258 29.5125 54.9658 30.1275C53.7058 30.7425 52.2208 31.05 50.5108 31.05H45.3133V14.985H50.8708C52.5958 14.985 54.0583 15.285 55.2583 15.885C56.4583 16.47 57.3733 17.3325 58.0033 18.4725C58.6333 19.6125 58.9483 21.015 58.9483 22.68ZM54.4483 22.8375C54.4483 21.8625 54.3133 21.0525 54.0433 20.4075C53.7883 19.7625 53.3983 19.2825 52.8733 18.9675C52.3633 18.6525 51.7108 18.495 50.9158 18.495H49.6558V27.495H50.6233C51.9433 27.495 52.9108 27.1125 53.5258 26.3475C54.1408 25.5825 54.4483 24.4125 54.4483 22.8375ZM68.2717 31.05L64.9867 19.485H64.8967C64.9267 19.785 64.9567 20.19 64.9867 20.7C65.0167 21.21 65.0467 21.765 65.0767 22.365C65.1067 22.95 65.1217 23.52 65.1217 24.075V31.05H61.2742V14.985H67.0567L70.4092 26.3925H70.4992L73.7842 14.985H79.5667V31.05H75.5842V24.0075C75.5842 23.4975 75.5917 22.9575 75.6067 22.3875C75.6217 21.8025 75.6442 21.255 75.6742 20.745C75.7042 20.22 75.7267 19.8075 75.7417 19.5075H75.6517L72.4117 31.05H68.2717ZM92.9722 26.1675C92.9722 27.0375 92.7472 27.8625 92.2972 28.6425C91.8622 29.4225 91.1797 30.06 90.2497 30.555C89.3347 31.035 88.1422 31.275 86.6722 31.275C85.9372 31.275 85.2922 31.2375 84.7372 31.1625C84.1972 31.1025 83.6872 30.9975 83.2072 30.8475C82.7272 30.6975 82.2322 30.5025 81.7222 30.2625V26.3925C82.5922 26.8275 83.4697 27.165 84.3547 27.405C85.2397 27.63 86.0422 27.7425 86.7622 27.7425C87.1972 27.7425 87.5497 27.69 87.8197 27.585C88.0897 27.48 88.2922 27.3375 88.4272 27.1575C88.5622 26.9775 88.6297 26.775 88.6297 26.55C88.6297 26.265 88.5322 26.025 88.3372 25.83C88.1422 25.635 87.8347 25.4325 87.4147 25.2225C86.9947 25.0125 86.4322 24.75 85.7272 24.435C85.1272 24.165 84.5872 23.88 84.1072 23.58C83.6272 23.28 83.2147 22.9425 82.8697 22.5675C82.5397 22.1925 82.2847 21.7575 82.1047 21.2625C81.9247 20.7525 81.8347 20.1525 81.8347 19.4625C81.8347 18.4275 82.0897 17.565 82.5997 16.875C83.1097 16.17 83.8147 15.645 84.7147 15.3C85.6297 14.94 86.6872 14.76 87.8872 14.76C88.9372 14.76 89.8822 14.88 90.7222 15.12C91.5622 15.345 92.3122 15.6075 92.9722 15.9075L91.6447 19.26C90.9547 18.945 90.2722 18.6975 89.5972 18.5175C88.9372 18.3225 88.3222 18.225 87.7522 18.225C87.3772 18.225 87.0697 18.27 86.8297 18.36C86.5897 18.45 86.4097 18.5775 86.2897 18.7425C86.1847 18.8925 86.1322 19.065 86.1322 19.26C86.1322 19.515 86.2297 19.74 86.4247 19.935C86.6197 20.13 86.9422 20.3475 87.3922 20.5875C87.8572 20.8125 88.4872 21.105 89.2822 21.465C90.0622 21.81 90.7222 22.1925 91.2622 22.6125C91.8172 23.0175 92.2372 23.505 92.5222 24.075C92.8222 24.63 92.9722 25.3275 92.9722 26.1675Z" fill="#192839"/>
<path d="M109.597 24.8414H105.64V28.8895H101.955V24.8414H97.9983V21.3619H101.955V17.291H105.64V21.3619H109.597V24.8414Z" fill="#192839"/>
<defs>
<filter id="filter0_d_189_4152" x="9" y="9.99997" width="19.1719" height="17.5681" filterUnits="userSpaceOnUse" color-interpolation-filters="sRGB">
<feFlood flood-opacity="0" result="BackgroundImageFix"/>
<feColorMatrix in="SourceAlpha" type="matrix" values="0 0 0 0 0 0 0 0 0 0 0 0 0 0 0 0 0 0 127 0" result="hardAlpha"/>
<feOffset dx="1.17609" dy="1.56812"/>
<feComposite in2="hardAlpha" operator="out"/>
<feColorMatrix type="matrix" values="0 0 0 0 0.03125 0 0 0 0 0.135769 0 0 0 0 0.5 0 0 0 1 0"/>
<feBlend mode="normal" in2="BackgroundImageFix" result="effect1_dropShadow_189_4152"/>
<feBlend mode="normal" in="SourceGraphic" in2="effect1_dropShadow_189_4152" result="shape"/>
</filter>
</defs>
</svg>
