<svg width="88" height="26" viewBox="0 0 88 26" fill="none" xmlns="http://www.w3.org/2000/svg">
<rect y="0.81543" width="24.3692" height="24.3692" rx="12.1846" fill="#167B59"/>
<path d="M17.6452 14.3859C17.4099 14.2512 17.2349 14.0161 17.2349 13.7449V12.1582C17.2349 11.804 16.9478 11.5169 16.5936 11.5169H13.6109C13.2881 11.5169 13.0263 11.2552 13.0263 10.9323C13.0263 10.6852 13.1854 10.4703 13.4018 10.3509C14.1796 9.92176 14.7098 9.09989 14.7098 8.15012C14.7098 6.75768 13.5771 5.625 12.1847 5.625C10.7922 5.625 9.65955 6.75768 9.65955 8.15009C9.65955 9.09985 10.1897 9.92169 10.9675 10.3508C11.1839 10.4702 11.343 10.6851 11.343 10.9323C11.343 11.2551 11.0812 11.5169 10.7584 11.5169H7.77572C7.42154 11.5169 7.13442 11.804 7.13442 12.1582V13.7449C7.13442 14.016 6.95945 14.2512 6.72412 14.3859C5.96535 14.8202 5.451 15.6316 5.451 16.5671C5.451 17.9596 6.58369 19.0922 7.9761 19.0922C9.36851 19.0922 10.5012 17.9595 10.5012 16.5671C10.5012 15.6173 9.97106 14.7955 9.19322 14.3663C8.97681 14.2469 8.81778 14.0321 8.81778 13.7849C8.81778 13.4621 9.07951 13.2003 9.40237 13.2003H14.9668C15.2897 13.2003 15.5514 13.4621 15.5514 13.7849C15.5514 14.0321 15.3924 14.2469 15.176 14.3663C14.3982 14.7955 13.868 15.6173 13.868 16.5671C13.868 17.9596 15.0007 19.0922 16.3931 19.0922C17.7855 19.0922 18.9182 17.9595 18.9182 16.5671C18.9183 15.6316 18.4039 14.8202 17.6452 14.3859Z" fill="#F2FFFB"/>
<path d="M32.4997 8.82196H32.4826C32.1824 9.22512 31.7287 9.43856 31.234 9.43856C30.1696 9.43856 29.5009 8.51367 29.5009 7.48713C29.5009 6.43011 30.1559 5.52215 31.2408 5.52215C31.7253 5.52215 32.1892 5.7593 32.4826 6.1523H32.4997V2.8186H33.1172V9.33354H32.4997V8.82196ZM30.1355 7.4397C30.1355 8.1681 30.5517 8.85246 31.3227 8.85246C32.1176 8.85246 32.5338 8.1952 32.5338 7.44648C32.5338 6.70453 32.0801 6.10487 31.3159 6.10487C30.596 6.10487 30.1355 6.74518 30.1355 7.4397Z" fill="#2F4256"/>
<path d="M35.0105 3.04224L37.1223 8.04278L39.2409 3.04224L40.4213 9.33696H39.7595L39.0089 5.30874H38.9953L37.1223 9.58089L35.2561 5.30874H35.2391L34.4919 9.33696H33.8301L35.0105 3.04224Z" fill="#2F4256"/>
<path d="M41.8784 7.64639L41.1757 9.33695H40.466L43.1476 3.09644L45.7609 9.33695H45.0444L44.3587 7.64639H41.8784ZM43.1339 4.64471L42.1411 7.02979H44.1062L43.1339 4.64471Z" fill="#2F4256"/>
<path d="M50.6671 4.68549C50.2031 4.19424 49.5651 3.89611 48.8965 3.89611C47.6035 3.89611 46.5527 5.048 46.5527 6.35911C46.5527 7.67023 47.6069 8.82212 48.9101 8.82212C49.5651 8.82212 50.2031 8.50704 50.6671 8.03274V8.85261C50.1656 9.22528 49.5515 9.43533 48.934 9.43533C47.293 9.43533 45.9045 8.07 45.9045 6.37944C45.9045 4.67194 47.2691 3.27612 48.934 3.27612C49.5822 3.27612 50.1519 3.46585 50.6671 3.85884V4.68549Z" fill="#2F4256"/>
<path d="M56.5552 8.85578C56.0775 9.22845 55.3918 9.4385 54.805 9.4385C53.147 9.4385 51.7755 8.07995 51.7755 6.36567C51.7755 4.65817 53.147 3.2793 54.805 3.2793C56.4835 3.2793 57.8345 4.6785 57.8345 6.38261C57.8345 7.21265 57.5411 7.88345 56.9952 8.48311L57.8652 9.39107H57.0396L56.5552 8.85578ZM56.5449 8.00881C56.9748 7.54128 57.1829 6.99921 57.1829 6.3589C57.1829 5.00035 56.1355 3.8959 54.8016 3.8959C53.4676 3.8959 52.4203 5.01051 52.4203 6.3589C52.4203 7.70051 53.4847 8.8219 54.8016 8.8219C55.2349 8.8219 55.7432 8.6559 56.0946 8.38148L54.6924 6.93484H55.5385L56.5449 8.00881Z" fill="#2F4256"/>
<path d="M58.4625 3.67572C58.21 3.67572 57.9951 3.58763 57.8177 3.40807C57.6403 3.22852 57.5516 3.01508 57.5516 2.76437C57.5516 2.51028 57.6403 2.29684 57.8177 2.11728C57.9951 1.94111 58.21 1.85303 58.4625 1.85303C58.7149 1.85303 58.9298 1.94111 59.1073 2.11728C59.2847 2.29346 59.3734 2.51028 59.3734 2.76437C59.3734 3.01508 59.2847 3.2319 59.1073 3.40807C58.9298 3.58425 58.7149 3.67572 58.4625 3.67572ZM58.4625 3.47244C58.6569 3.47244 58.8207 3.4013 58.9606 3.26239C59.1004 3.12349 59.1721 2.95748 59.1721 2.76437C59.1721 2.57126 59.1038 2.40187 58.964 2.26296C58.8241 2.12406 58.6569 2.05291 58.4625 2.05291C58.268 2.05291 58.1042 2.12406 57.9644 2.26296C57.8245 2.40187 57.7563 2.57126 57.7563 2.76437C57.7563 2.95748 57.8245 3.12349 57.9644 3.26239C58.1042 3.40469 58.268 3.47244 58.4625 3.47244ZM58.0974 3.31999V2.23247H58.4113C58.691 2.23247 58.8275 2.32733 58.8275 2.51706C58.8275 2.64918 58.7524 2.75421 58.6023 2.83552L58.8582 3.32338H58.6262L58.3942 2.87956H58.2953V3.32338H58.0974V3.31999ZM58.2953 2.72372H58.384C58.5273 2.72372 58.5989 2.65935 58.5989 2.534C58.5989 2.43236 58.5307 2.38154 58.3908 2.38154H58.2953V2.72372Z" fill="#2F4256"/>
<path d="M33.9371 24.1467H30.6016V12.239H37.3393V14.824H33.9371V17.0921H37.0725V19.6771H33.9371V24.1467ZM38.973 24.1467V12.239H42.3752V21.545H46.5446V24.1467H38.973ZM58.5709 18.1762C58.5709 19.099 58.4653 19.9384 58.254 20.6945C58.0539 21.4394 57.7315 22.0843 57.2867 22.6291C56.8531 23.1739 56.2861 23.5908 55.5856 23.8799C54.8963 24.169 54.0568 24.3135 53.0673 24.3135C52.1 24.3135 51.2717 24.169 50.5824 23.8799C49.893 23.5908 49.326 23.1739 48.8812 22.6291C48.4365 22.0843 48.103 21.4394 47.8806 20.6945C47.6693 19.9384 47.5637 19.0934 47.5637 18.1595C47.5637 16.9254 47.7583 15.8524 48.1474 14.9407C48.5366 14.0179 49.137 13.3063 49.9486 12.806C50.7602 12.3057 51.8054 12.0555 53.084 12.0555C54.3959 12.0555 55.4522 12.3112 56.2527 12.8227C57.0644 13.323 57.6536 14.0346 58.0205 14.9574C58.3874 15.8691 58.5709 16.942 58.5709 18.1762ZM51.1327 18.1762C51.1327 18.8877 51.1939 19.5048 51.3162 20.0274C51.4496 20.5388 51.6608 20.9335 51.9499 21.2115C52.239 21.4894 52.6115 21.6284 53.0673 21.6284C53.5565 21.6284 53.9401 21.4894 54.2181 21.2115C54.496 20.9335 54.6961 20.5388 54.8184 20.0274C54.9407 19.5048 55.0019 18.8877 55.0019 18.1762C55.0019 17.0977 54.8574 16.2471 54.5683 15.6245C54.2903 15.0019 53.7956 14.6906 53.084 14.6906C52.6059 14.6906 52.2223 14.8351 51.9332 15.1242C51.6442 15.4021 51.4385 15.8024 51.3162 16.325C51.1939 16.8364 51.1327 17.4535 51.1327 18.1762ZM75.7523 12.239L73.0338 24.1467H68.9812L68.114 19.1268C68.1028 19.0267 68.075 18.8599 68.0306 18.6265C67.9972 18.393 67.9583 18.1206 67.9138 17.8093C67.8694 17.4979 67.8249 17.1866 67.7804 16.8753C67.7471 16.564 67.7193 16.286 67.697 16.0414C67.6748 16.286 67.6414 16.564 67.597 16.8753C67.5525 17.1866 67.508 17.4979 67.4635 17.8093C67.4191 18.1206 67.3746 18.393 67.3301 18.6265C67.2968 18.8599 67.269 19.0267 67.2467 19.1268L66.3628 24.1467H62.2935L59.5584 12.239H62.8105L64.0446 18.3763C64.078 18.5208 64.1114 18.7154 64.1447 18.96C64.1892 19.1935 64.2337 19.4548 64.2781 19.7439C64.3226 20.0218 64.3615 20.3053 64.3949 20.5944C64.4282 20.8724 64.456 21.1281 64.4783 21.3616C64.5116 21.1059 64.545 20.8613 64.5783 20.6278C64.6117 20.3832 64.645 20.1441 64.6784 19.9106C64.7117 19.6771 64.7507 19.4437 64.7951 19.2102C64.8396 18.9656 64.8841 18.721 64.9286 18.4764L66.1293 12.239H69.3147L70.4321 18.3263C70.4766 18.5598 70.5155 18.7988 70.5489 19.0434C70.5934 19.288 70.6323 19.5382 70.6656 19.7939C70.699 20.0385 70.7323 20.2942 70.7657 20.5611C70.8102 20.8168 70.8546 21.0836 70.8991 21.3616C70.9436 21.028 70.9992 20.6556 71.0659 20.2442C71.1437 19.8328 71.216 19.4437 71.2827 19.0768C71.3605 18.7099 71.4161 18.4263 71.4495 18.2262L72.5835 12.239H75.7523Z" fill="#192839"/>
<path d="M86.6654 19.944H83.9868V22.6842H81.4928V19.944H78.8142V17.5886H81.4928V14.833H83.9868V17.5886H86.6654V19.944Z" fill="#192839"/>
</svg>
