<svg width="152" height="36" viewBox="0 0 152 36" fill="none" xmlns="http://www.w3.org/2000/svg">
<path d="M18.126 36C28.1367 36 36.2519 27.9411 36.2519 18C36.2519 8.05888 28.1367 0 18.126 0C8.11527 0 0 8.05888 0 18C0 27.9411 8.11527 36 18.126 36Z" fill="#E9690C"/>
<path fill-rule="evenodd" clip-rule="evenodd" d="M18.4402 2.74121L17.2358 3.06808C17.2358 3.06808 18.9264 8.8254 19.9588 12.3838C21.3577 16.5142 22.1282 22.4573 22.1806 23.4973C18.9863 21.3578 15.1786 19.3446 12.9867 18.9212C10.7948 18.4903 8.43089 19.1143 9.05928 22.0561C10.0542 26.298 15.4105 31.3347 17.4752 32.3079C19.5399 33.281 21.9562 33.0062 22.809 31.097C23.6618 29.1952 23.5346 25.9488 23.5346 25.9488L26.6092 28.1106L27.29 27.026C27.0356 26.7511 23.4448 24.3368 23.4448 24.3368C22.9137 18.7429 22.3751 16.5588 21.2455 12.3169C20.1159 8.0751 18.4402 2.74121 18.4402 2.74121ZM10.3151 20.7708C10.0383 21.9594 11.1454 23.9726 11.1454 23.9726C12.9633 27.1298 16.0379 29.9528 17.6612 30.9705C19.2845 31.9883 20.8256 31.966 21.6335 30.6288C22.4863 29.3956 22.2918 25.0721 22.2918 25.0721C19.8082 23.3263 16.0603 21.2834 13.9881 20.4959C12.9184 20.1096 10.5919 19.5822 10.3151 20.7708Z" fill="white"/>
<path d="M54.1601 28.9731H54.098C53.005 30.4409 51.353 31.218 49.552 31.218C45.6767 31.218 43.2422 27.8506 43.2422 24.1133C43.2422 20.2649 45.627 16.9592 49.5768 16.9592C51.3406 16.9592 53.0298 17.8226 54.098 19.2534H54.1601V7.11621H56.4083V30.8356H54.1601V28.9731ZM45.5525 23.9406C45.5525 26.5925 47.0678 29.0841 49.8749 29.0841C52.769 29.0841 54.2844 26.6912 54.2844 23.9652C54.2844 21.264 52.6324 19.0807 49.8501 19.0807C47.2293 19.0807 45.5525 21.412 45.5525 23.9406Z" fill="white" fill-opacity="0.9"/>
<path d="M63.3023 7.93066L70.9908 26.1365L78.7042 7.93066L83.0018 30.8483H80.5921L77.8595 16.1825H77.8099L70.9908 31.7364L64.1966 16.1825H64.1345L61.4143 30.8483H59.0046L63.3023 7.93066Z" fill="white" fill-opacity="0.9"/>
<path d="M88.305 24.6933L85.7463 30.8482H83.1627L92.9255 8.12793L102.44 30.8482H99.8316L97.335 24.6933H88.305ZM92.8759 13.7648L89.2614 22.4484H96.4158L92.8759 13.7648Z" fill="white" fill-opacity="0.9"/>
<path d="M120.302 13.9134C118.613 12.1249 116.29 11.0395 113.856 11.0395C109.148 11.0395 105.322 15.2332 105.322 20.0067C105.322 24.7802 109.16 28.9739 113.905 28.9739C116.29 28.9739 118.613 27.8268 120.302 26.1V29.0849C118.476 30.4417 116.24 31.2065 113.992 31.2065C108.018 31.2065 102.962 26.2356 102.962 20.0807C102.962 13.8641 107.931 8.78223 113.992 8.78223C116.352 8.78223 118.426 9.47296 120.302 10.9038V13.9134Z" fill="white" fill-opacity="0.9"/>
<path d="M141.74 29.0966C140.001 30.4534 137.504 31.2182 135.368 31.2182C129.331 31.2182 124.338 26.272 124.338 20.0307C124.338 13.8141 129.331 8.79395 135.368 8.79395C141.479 8.79395 146.398 13.8881 146.398 20.0924C146.398 23.1144 145.329 25.5566 143.342 27.7398L146.509 31.0455H143.503L141.74 29.0966ZM141.702 26.013C143.267 24.3108 144.025 22.3373 144.025 20.0061C144.025 15.0599 140.212 11.0388 135.355 11.0388C130.499 11.0388 126.686 15.0969 126.686 20.0061C126.686 24.8906 130.561 28.9733 135.355 28.9733C136.933 28.9733 138.784 28.3689 140.063 27.3698L134.958 22.1029H138.038L141.702 26.013Z" fill="white" fill-opacity="0.9"/>
<path d="M148.684 10.2366C147.764 10.2366 146.982 9.91589 146.336 9.26216C145.69 8.60842 145.367 7.83135 145.367 6.91859C145.367 5.9935 145.69 5.21642 146.336 4.56268C146.982 3.92129 147.764 3.60059 148.684 3.60059C149.603 3.60059 150.385 3.92129 151.031 4.56268C151.677 5.20408 152 5.9935 152 6.91859C152 7.83135 151.677 8.62076 151.031 9.26216C150.385 9.90355 149.603 10.2366 148.684 10.2366ZM148.684 9.49651C149.392 9.49651 149.988 9.23748 150.497 8.73177C151.006 8.22605 151.267 7.62166 151.267 6.91859C151.267 6.21552 151.019 5.59879 150.509 5.09307C150 4.58735 149.392 4.32833 148.684 4.32833C147.976 4.32833 147.379 4.58735 146.87 5.09307C146.361 5.59879 146.112 6.21552 146.112 6.91859C146.112 7.62166 146.361 8.22605 146.87 8.73177C147.379 9.24982 147.976 9.49651 148.684 9.49651ZM147.355 8.94146V4.98206H148.497C149.516 4.98206 150.013 5.32743 150.013 6.01816C150.013 6.49921 149.739 6.88158 149.193 7.17761L150.124 8.95379H149.28L148.435 7.33796H148.075V8.95379H147.355V8.94146ZM148.075 6.77057H148.398C148.92 6.77057 149.18 6.53621 149.18 6.07983C149.18 5.7098 148.932 5.52478 148.423 5.52478H148.075V6.77057Z" fill="white" fill-opacity="0.9"/>
</svg>
