<svg width="200" height="52" viewBox="0 0 200 52" fill="none" xmlns="http://www.w3.org/2000/svg">
<rect width="52" height="52" rx="26" fill="#D44A4A"/>
<g filter="url(#filter0_d_103_11859)">
<rect x="15.8889" y="14.4446" width="20.2222" height="24.5556" rx="3.96113" fill="#FFF5F5"/>
<rect x="20.2223" y="26" width="11.5556" height="1.44444" rx="0.722222" fill="#D44A4A"/>
<rect x="20.2223" y="31.7778" width="11.5556" height="1.44444" rx="0.722222" fill="#D44A4A"/>
<rect x="20.2223" y="20.2224" width="11.5556" height="1.44444" rx="0.722222" fill="#D44A4A"/>
</g>
<path fill-rule="evenodd" clip-rule="evenodd" d="M119.148 0.957208C119.563 0.540739 120.063 0.332504 120.648 0.332504C121.235 0.332504 121.737 0.540739 122.151 0.957208C122.564 1.37144 122.77 1.87187 122.77 2.45851C122.77 3.04963 122.564 3.55343 122.151 3.9699C121.739 4.38637 121.238 4.5946 120.648 4.5946C120.058 4.5946 119.557 4.38637 119.145 3.9699C118.734 3.55343 118.529 3.04963 118.529 2.45851C118.529 1.87187 118.735 1.37144 119.148 0.957208ZM122.397 4.20836C122.879 3.72472 123.12 3.14143 123.12 2.45851C123.12 1.77783 122.879 1.19791 122.397 0.718746C121.915 0.239582 121.332 0 120.648 0C119.969 0 119.389 0.239582 118.909 0.718746C118.427 1.20015 118.186 1.78007 118.186 2.45851C118.186 3.14367 118.425 3.72696 118.902 4.20836C119.382 4.692 119.964 4.93382 120.648 4.93382C121.332 4.93382 121.915 4.692 122.397 4.20836ZM121.112 1.52482C121.233 1.59199 121.294 1.72409 121.294 1.92113C121.294 2.12937 121.201 2.27043 121.015 2.34432C120.914 2.38462 120.762 2.40478 120.561 2.40478H120.13V1.42406H120.537C120.802 1.42406 120.993 1.45764 121.112 1.52482ZM121.341 1.19567C121.184 1.13074 120.937 1.09827 120.601 1.09827H119.652V3.80532H120.13V2.73728H120.507C120.76 2.73728 120.937 2.76639 121.038 2.8246C121.208 2.92536 121.294 3.13248 121.294 3.44595V3.6609L121.304 3.74823C121.306 3.75942 121.308 3.7695 121.311 3.77845L121.317 3.80532H121.765L121.748 3.77174C121.737 3.74935 121.729 3.70233 121.724 3.63067C121.72 3.55902 121.717 3.49185 121.717 3.42916V3.231C121.717 3.09441 121.668 2.95447 121.569 2.81117C121.471 2.66787 121.315 2.57942 121.102 2.54584C121.27 2.51897 121.401 2.47531 121.495 2.41485C121.673 2.30066 121.761 2.12265 121.761 1.88083C121.761 1.54049 121.621 1.3121 121.341 1.19567ZM65.0012 14.0741C64.6216 13.4709 64.4318 12.7222 64.4318 11.8278C64.4318 10.7775 64.6502 9.98195 65.087 9.44119C65.529 8.90043 66.1035 8.63005 66.8107 8.63005C67.445 8.63005 67.978 8.88483 68.4096 9.39439C68.8411 9.89876 69.0569 10.6787 69.0569 11.7342C69.0569 12.7793 68.8463 13.5827 68.4252 14.1442C68.0092 14.7006 67.4762 14.9788 66.8263 14.9788C65.9891 14.9788 65.3808 14.6772 65.0012 14.0741ZM68.1522 7.81111C67.7206 7.54073 67.185 7.40553 66.5455 7.40553C65.3912 7.40553 64.502 7.8527 63.8781 8.74704C63.2593 9.63617 62.95 10.6891 62.95 11.9058C62.95 13.2057 63.2905 14.2482 63.9717 15.0334C64.6528 15.8133 65.4588 16.2033 66.3895 16.2033C66.9667 16.2033 67.4788 16.0889 67.926 15.8601C68.3732 15.6313 68.7605 15.2596 69.0881 14.7448V15.9069H70.3516V4.41055H69.0023V8.63005C68.6851 8.24007 68.4018 7.96709 68.1522 7.81111ZM74.8051 4.44955H72.5823V15.9069H74.0641V9.14481C74.0641 8.87443 74.0563 8.45326 74.0408 7.8813C74.0304 7.30414 74.0252 6.87517 74.0252 6.59439V6.24342L77.3165 15.9069H78.853L82.121 6.24342C82.121 6.86217 82.1158 7.44193 82.1054 7.98269C82.095 8.52345 82.0898 8.91083 82.0898 9.14481V15.9069H83.5639V4.44955H81.3644L78.0965 14.1364L74.8051 4.44955ZM90.0686 6.14983L91.8079 11.2117H88.2201L90.0686 6.14983ZM91.0123 4.44955H89.2575L84.9444 15.9069H86.5354L87.7756 12.4752H92.307L93.4691 15.9069H95.1694L91.0123 4.44955ZM104.786 5.28409C103.985 4.51974 102.86 4.13757 101.409 4.13757C99.7087 4.13757 98.375 4.72513 97.4079 5.90024C96.5135 6.98177 96.0664 8.36747 96.0664 10.0573C96.0664 12.2828 96.6617 13.9285 97.8524 14.9944C98.7572 15.8003 99.8751 16.2033 101.206 16.2033C102.75 16.2033 103.978 15.7119 104.888 14.7292C105.647 13.9129 106.094 12.9015 106.229 11.6952H104.716C104.56 12.4492 104.323 13.0575 104.006 13.5203C103.408 14.399 102.537 14.8384 101.393 14.8384C100.151 14.8384 99.2147 14.4224 98.5856 13.5905C97.9616 12.7533 97.6497 11.664 97.6497 10.3225C97.6497 8.68464 97.9954 7.47053 98.687 6.68019C99.3837 5.88464 100.296 5.48687 101.425 5.48687C102.35 5.48687 103.068 5.70266 103.577 6.13423C104.092 6.5658 104.435 7.15075 104.607 7.8891H106.12C106.031 6.91677 105.587 6.04843 104.786 5.28409ZM117.827 16.8195L118.607 15.8757L117.031 14.6512C117.686 13.9961 118.152 13.1485 118.427 12.1086C118.609 11.4274 118.7 10.7177 118.7 9.97935C118.7 8.39866 118.321 7.10136 117.562 6.08743C116.589 4.78752 115.092 4.13757 113.069 4.13757C111.135 4.13757 109.674 4.84472 108.686 6.25902C107.916 7.36134 107.532 8.68724 107.532 10.2367C107.532 11.9422 107.976 13.3617 108.865 14.4952C109.874 15.6599 111.267 16.2423 113.046 16.2423C113.633 16.2423 114.174 16.1721 114.668 16.0317C115.167 15.8913 115.63 15.7041 116.056 15.4702L117.827 16.8195ZM114.138 14.7916C113.857 14.8332 113.555 14.854 113.233 14.854C111.891 14.854 110.872 14.4458 110.176 13.6295C109.484 12.8131 109.138 11.716 109.138 10.3381C109.138 8.70024 109.5 7.48873 110.222 6.70359C110.945 5.91324 111.925 5.51807 113.163 5.51807C114.385 5.51807 115.347 5.92884 116.049 6.75038C116.756 7.57192 117.109 8.65604 117.109 10.0027C117.109 10.6163 117.023 11.2585 116.852 11.9292C116.685 12.6 116.366 13.2057 115.893 13.7465L114.395 12.5844L113.615 13.5437L114.871 14.5264C114.663 14.6564 114.418 14.7448 114.138 14.7916Z" fill="#2F4256"/>
<path d="M71.6275 45.2944H65.4525V22.0894H79.1675V27.1269H71.6275V31.5469H78.5825V36.5844H71.6275V45.2944ZM103.869 33.6594C103.869 35.4578 103.653 37.0936 103.219 38.5669C102.786 40.0186 102.114 41.2753 101.204 42.3369C100.294 43.3986 99.1245 44.2111 97.6945 44.7744C96.2861 45.3378 94.5853 45.6194 92.592 45.6194C90.642 45.6194 88.952 45.3378 87.522 44.7744C86.1136 44.2111 84.9436 43.3986 84.012 42.3369C83.102 41.2753 82.4195 40.0186 81.9645 38.5669C81.5311 37.0936 81.3145 35.4469 81.3145 33.6269C81.3145 31.2219 81.7153 29.1311 82.517 27.3544C83.3186 25.5561 84.5536 24.1694 86.222 23.1944C87.8903 22.2194 90.0245 21.7319 92.6245 21.7319C95.2678 21.7319 97.4128 22.2303 99.0595 23.2269C100.728 24.2019 101.941 25.5886 102.699 27.3869C103.479 29.1636 103.869 31.2544 103.869 33.6594ZM87.912 33.6594C87.912 35.0461 88.0636 36.2486 88.367 37.2669C88.692 38.2636 89.2011 39.0328 89.8945 39.5744C90.5878 40.1161 91.487 40.3869 92.592 40.3869C93.7403 40.3869 94.6503 40.1161 95.322 39.5744C96.0153 39.0328 96.5136 38.2636 96.817 37.2669C97.1203 36.2486 97.272 35.0461 97.272 33.6594C97.272 31.5578 96.9253 29.9003 96.232 28.6869C95.5386 27.4736 94.3361 26.8669 92.6245 26.8669C91.4978 26.8669 90.5878 27.1486 89.8945 27.7119C89.2011 28.2536 88.692 29.0336 88.367 30.0519C88.0636 31.0486 87.912 32.2511 87.912 33.6594ZM114.85 22.0894C116.952 22.0894 118.696 22.3494 120.083 22.8694C121.491 23.3894 122.542 24.1586 123.235 25.1769C123.95 26.1736 124.308 27.4303 124.308 28.9469C124.308 29.8786 124.145 30.7344 123.82 31.5144C123.517 32.2944 123.073 32.9878 122.488 33.5944C121.903 34.2011 121.199 34.7319 120.375 35.1869L127.135 45.2944H120.018L115.11 36.8444H113.518V45.2944H107.245V22.0894H114.85ZM114.753 26.8344H113.518V32.1319H114.688C115.338 32.1319 115.901 32.0453 116.378 31.8719C116.876 31.6769 117.266 31.3736 117.548 30.9619C117.83 30.5286 117.97 29.9544 117.97 29.2394C117.97 28.7411 117.862 28.3186 117.645 27.9719C117.429 27.6036 117.082 27.3219 116.605 27.1269C116.129 26.9319 115.511 26.8344 114.753 26.8344ZM138.535 45.2944L133.79 28.5894H133.66C133.703 29.0228 133.747 29.6078 133.79 30.3444C133.833 31.0811 133.877 31.8828 133.92 32.7494C133.963 33.5944 133.985 34.4178 133.985 35.2194V45.2944H128.428V22.0894H136.78L141.623 38.5669H141.753L146.498 22.0894H154.85V45.2944H149.098V35.1219C149.098 34.3853 149.108 33.6053 149.13 32.7819C149.152 31.9369 149.184 31.1461 149.228 30.4094C149.271 29.6511 149.303 29.0553 149.325 28.6219H149.195L144.515 45.2944H138.535ZM174.213 38.2419C174.213 39.4986 173.888 40.6903 173.238 41.8169C172.61 42.9436 171.624 43.8644 170.281 44.5794C168.959 45.2728 167.237 45.6194 165.113 45.6194C164.052 45.6194 163.12 45.5653 162.318 45.4569C161.538 45.3703 160.802 45.2186 160.108 45.0019C159.415 44.7853 158.7 44.5036 157.963 44.1569V38.5669C159.22 39.1953 160.488 39.6828 161.766 40.0294C163.044 40.3544 164.203 40.5169 165.243 40.5169C165.872 40.5169 166.381 40.4411 166.771 40.2894C167.161 40.1378 167.453 39.9319 167.648 39.6719C167.843 39.4119 167.941 39.1194 167.941 38.7944C167.941 38.3828 167.8 38.0361 167.518 37.7544C167.237 37.4728 166.793 37.1803 166.186 36.8769C165.579 36.5736 164.767 36.1944 163.748 35.7394C162.882 35.3494 162.102 34.9378 161.408 34.5044C160.715 34.0711 160.119 33.5836 159.621 33.0419C159.144 32.5003 158.776 31.8719 158.516 31.1569C158.256 30.4203 158.126 29.5536 158.126 28.5569C158.126 27.0619 158.494 25.8161 159.231 24.8194C159.968 23.8011 160.986 23.0428 162.286 22.5444C163.608 22.0244 165.135 21.7644 166.868 21.7644C168.385 21.7644 169.75 21.9378 170.963 22.2844C172.177 22.6094 173.26 22.9886 174.213 23.4219L172.296 28.2644C171.299 27.8094 170.313 27.4519 169.338 27.1919C168.385 26.9103 167.497 26.7694 166.673 26.7694C166.132 26.7694 165.688 26.8344 165.341 26.9644C164.994 27.0944 164.734 27.2786 164.561 27.5169C164.409 27.7336 164.333 27.9828 164.333 28.2644C164.333 28.6328 164.474 28.9578 164.756 29.2394C165.038 29.5211 165.503 29.8353 166.153 30.1819C166.825 30.5069 167.735 30.9294 168.883 31.4494C170.01 31.9478 170.963 32.5003 171.743 33.1069C172.545 33.6919 173.152 34.3961 173.563 35.2194C173.997 36.0211 174.213 37.0286 174.213 38.2419Z" fill="#192839"/>
<path d="M197.64 36.3265H191.924V42.1737H186.602V36.3265H180.886V31.3005H186.602V25.4204H191.924V31.3005H197.64V36.3265Z" fill="#192839"/>
<defs>
<filter id="filter0_d_103_11859" x="15.8889" y="14.4446" width="21.7076" height="26.0411" filterUnits="userSpaceOnUse" color-interpolation-filters="sRGB">
<feFlood flood-opacity="0" result="BackgroundImageFix"/>
<feColorMatrix in="SourceAlpha" type="matrix" values="0 0 0 0 0 0 0 0 0 0 0 0 0 0 0 0 0 0 127 0" result="hardAlpha"/>
<feOffset dx="1.48542" dy="1.48542"/>
<feComposite in2="hardAlpha" operator="out"/>
<feColorMatrix type="matrix" values="0 0 0 0 0 0 0 0 0 0 0 0 0 0 0 0 0 0 0.25 0"/>
<feBlend mode="normal" in2="BackgroundImageFix" result="effect1_dropShadow_103_11859"/>
<feBlend mode="normal" in="SourceGraphic" in2="effect1_dropShadow_103_11859" result="shape"/>
</filter>
</defs>
</svg>
