<svg width="89" height="26" viewBox="0 0 89 26" fill="none" xmlns="http://www.w3.org/2000/svg">
<rect y="0.81543" width="24.3692" height="24.3692" rx="12.1846" fill="#D44A4A"/>
<g filter="url(#filter0_d_381_2919)">
<rect x="7.44615" y="7.58472" width="9.47692" height="11.5077" rx="1.85634" fill="#FFF5F5"/>
<rect x="9.47691" y="13" width="5.41538" height="0.676923" rx="0.338462" fill="#D44A4A"/>
<rect x="9.47691" y="15.7078" width="5.41538" height="0.676923" rx="0.338462" fill="#D44A4A"/>
<rect x="9.47691" y="10.2922" width="5.41538" height="0.676923" rx="0.338462" fill="#D44A4A"/>
</g>
<path d="M32.4997 8.82196H32.4826C32.1824 9.22512 31.7287 9.43856 31.234 9.43856C30.1696 9.43856 29.5009 8.51367 29.5009 7.48713C29.5009 6.43011 30.1559 5.52215 31.2408 5.52215C31.7253 5.52215 32.1892 5.7593 32.4826 6.1523H32.4997V2.8186H33.1172V9.33354H32.4997V8.82196ZM30.1355 7.4397C30.1355 8.1681 30.5517 8.85246 31.3227 8.85246C32.1176 8.85246 32.5338 8.1952 32.5338 7.44648C32.5338 6.70453 32.0801 6.10487 31.3159 6.10487C30.596 6.10487 30.1355 6.74518 30.1355 7.4397Z" fill="#2F4256"/>
<path d="M35.0105 3.04224L37.1223 8.04278L39.2409 3.04224L40.4213 9.33696H39.7595L39.0089 5.30874H38.9953L37.1223 9.58089L35.2561 5.30874H35.2391L34.4919 9.33696H33.8301L35.0105 3.04224Z" fill="#2F4256"/>
<path d="M41.8784 7.64639L41.1757 9.33695H40.466L43.1476 3.09644L45.7609 9.33695H45.0444L44.3587 7.64639H41.8784ZM43.1339 4.64471L42.1411 7.02979H44.1062L43.1339 4.64471Z" fill="#2F4256"/>
<path d="M50.6671 4.68549C50.2031 4.19424 49.5651 3.89611 48.8965 3.89611C47.6035 3.89611 46.5527 5.048 46.5527 6.35911C46.5527 7.67023 47.6069 8.82212 48.9101 8.82212C49.5651 8.82212 50.2031 8.50704 50.6671 8.03274V8.85261C50.1656 9.22528 49.5515 9.43533 48.934 9.43533C47.293 9.43533 45.9045 8.07 45.9045 6.37944C45.9045 4.67194 47.2691 3.27612 48.934 3.27612C49.5822 3.27612 50.1519 3.46585 50.6671 3.85884V4.68549Z" fill="#2F4256"/>
<path d="M56.5552 8.85578C56.0775 9.22845 55.3918 9.4385 54.805 9.4385C53.147 9.4385 51.7755 8.07995 51.7755 6.36567C51.7755 4.65817 53.147 3.2793 54.805 3.2793C56.4835 3.2793 57.8345 4.6785 57.8345 6.38261C57.8345 7.21265 57.5411 7.88345 56.9952 8.48311L57.8652 9.39107H57.0396L56.5552 8.85578ZM56.5449 8.00881C56.9748 7.54128 57.1829 6.99921 57.1829 6.3589C57.1829 5.00035 56.1355 3.8959 54.8016 3.8959C53.4676 3.8959 52.4203 5.01051 52.4203 6.3589C52.4203 7.70051 53.4847 8.8219 54.8016 8.8219C55.2349 8.8219 55.7432 8.6559 56.0946 8.38148L54.6924 6.93484H55.5385L56.5449 8.00881Z" fill="#2F4256"/>
<path d="M58.4625 3.67572C58.21 3.67572 57.9951 3.58763 57.8177 3.40807C57.6403 3.22852 57.5516 3.01508 57.5516 2.76437C57.5516 2.51028 57.6403 2.29684 57.8177 2.11728C57.9951 1.94111 58.21 1.85303 58.4625 1.85303C58.7149 1.85303 58.9298 1.94111 59.1073 2.11728C59.2847 2.29346 59.3734 2.51028 59.3734 2.76437C59.3734 3.01508 59.2847 3.2319 59.1073 3.40807C58.9298 3.58425 58.7149 3.67572 58.4625 3.67572ZM58.4625 3.47244C58.6569 3.47244 58.8207 3.4013 58.9606 3.26239C59.1004 3.12349 59.1721 2.95748 59.1721 2.76437C59.1721 2.57126 59.1038 2.40187 58.964 2.26296C58.8241 2.12406 58.6569 2.05291 58.4625 2.05291C58.268 2.05291 58.1042 2.12406 57.9644 2.26296C57.8245 2.40187 57.7563 2.57126 57.7563 2.76437C57.7563 2.95748 57.8245 3.12349 57.9644 3.26239C58.1042 3.40469 58.268 3.47244 58.4625 3.47244ZM58.0974 3.31999V2.23247H58.4113C58.691 2.23247 58.8275 2.32733 58.8275 2.51706C58.8275 2.64918 58.7524 2.75421 58.6023 2.83552L58.8582 3.32338H58.6262L58.3942 2.87956H58.2953V3.32338H58.0974V3.31999ZM58.2953 2.72372H58.384C58.5273 2.72372 58.5989 2.65935 58.5989 2.534C58.5989 2.43236 58.5307 2.38154 58.3908 2.38154H58.2953V2.72372Z" fill="#2F4256"/>
<path d="M33.9371 24.1467H30.6016V12.239H37.3393V14.824H33.9371V17.0921H37.0725V19.6771H33.9371V24.1467ZM49.6132 18.1762C49.6132 19.099 49.5076 19.9384 49.2964 20.6945C49.0962 21.4394 48.7738 22.0843 48.3291 22.6291C47.8954 23.1739 47.3284 23.5908 46.628 23.8799C45.9386 24.169 45.0992 24.3135 44.1096 24.3135C43.1423 24.3135 42.314 24.169 41.6247 23.8799C40.9354 23.5908 40.3683 23.1739 39.9236 22.6291C39.4788 22.0843 39.1453 21.4394 38.9229 20.6945C38.7117 19.9384 38.6061 19.0934 38.6061 18.1595C38.6061 16.9254 38.8006 15.8524 39.1898 14.9407C39.5789 14.0179 40.1793 13.3063 40.9909 12.806C41.8026 12.3057 42.8477 12.0555 44.1263 12.0555C45.4383 12.0555 46.4945 12.3112 47.2951 12.8227C48.1067 13.323 48.696 14.0346 49.0629 14.9574C49.4298 15.8691 49.6132 16.942 49.6132 18.1762ZM42.175 18.1762C42.175 18.8877 42.2362 19.5048 42.3585 20.0274C42.4919 20.5388 42.7032 20.9335 42.9922 21.2115C43.2813 21.4894 43.6538 21.6284 44.1096 21.6284C44.5989 21.6284 44.9824 21.4894 45.2604 21.2115C45.5384 20.9335 45.7385 20.5388 45.8608 20.0274C45.9831 19.5048 46.0442 18.8877 46.0442 18.1762C46.0442 17.0977 45.8997 16.2471 45.6106 15.6245C45.3327 15.0019 44.8379 14.6906 44.1263 14.6906C43.6482 14.6906 43.2646 14.8351 42.9756 15.1242C42.6865 15.4021 42.4808 15.8024 42.3585 16.325C42.2362 16.8364 42.175 17.4535 42.175 18.1762ZM55.3837 12.239C56.3954 12.239 57.2404 12.3724 57.9186 12.6392C58.608 12.9061 59.125 13.3008 59.4697 13.8233C59.8143 14.3348 59.9867 14.9796 59.9867 15.7579C59.9867 16.236 59.9199 16.6752 59.7865 17.0755C59.6642 17.4757 59.4697 17.8315 59.2028 18.1428C58.9471 18.4541 58.6135 18.7265 58.2022 18.96L61.4376 24.1467H57.5684L55.367 19.8106H54.8833V24.1467H51.4811V12.239H55.3837ZM55.4003 14.6739H54.8833V17.3923H55.3336C55.5226 17.3923 55.7117 17.3479 55.9007 17.2589C56.0897 17.1588 56.2453 17.0032 56.3676 16.7919C56.5011 16.5696 56.5678 16.2749 56.5678 15.908C56.5678 15.6523 56.5289 15.4355 56.451 15.2576C56.3732 15.0686 56.2509 14.924 56.0841 14.824C55.9173 14.7239 55.6894 14.6739 55.4003 14.6739ZM67.2836 24.1467L65.1322 15.4077H65.0655C65.0877 15.6301 65.11 15.9303 65.1322 16.3083C65.1544 16.6863 65.1767 17.0977 65.1989 17.5424C65.2211 17.976 65.2323 18.3985 65.2323 18.8099V24.1467H62.2303V12.239H67.1168L68.868 19.5771H68.918L70.5357 12.239H75.4222V24.1467H72.3202V18.7599C72.3202 18.3819 72.3258 17.9816 72.3369 17.5591C72.348 17.1255 72.3591 16.7197 72.3703 16.3416C72.3925 15.9525 72.4147 15.6467 72.437 15.4244H72.3703L70.3856 24.1467H67.2836Z" fill="#192839"/>
<path d="M87.6654 19.944H84.9868V22.6842H82.4928V19.944H79.8142V17.5886H82.4928V14.833H84.9868V17.5886H87.6654V19.944Z" fill="#192839"/>
<defs>
<filter id="filter0_d_381_2919" x="7.44615" y="7.58472" width="10.1731" height="12.2039" filterUnits="userSpaceOnUse" color-interpolation-filters="sRGB">
<feFlood flood-opacity="0" result="BackgroundImageFix"/>
<feColorMatrix in="SourceAlpha" type="matrix" values="0 0 0 0 0 0 0 0 0 0 0 0 0 0 0 0 0 0 127 0" result="hardAlpha"/>
<feOffset dx="0.696128" dy="0.696128"/>
<feComposite in2="hardAlpha" operator="out"/>
<feColorMatrix type="matrix" values="0 0 0 0 0 0 0 0 0 0 0 0 0 0 0 0 0 0 0.25 0"/>
<feBlend mode="normal" in2="BackgroundImageFix" result="effect1_dropShadow_381_2919"/>
<feBlend mode="normal" in="SourceGraphic" in2="effect1_dropShadow_381_2919" result="shape"/>
</filter>
</defs>
</svg>
