<svg width="149" height="36" viewBox="0 0 149 36" fill="none" xmlns="http://www.w3.org/2000/svg">
<path d="M18 36C27.9411 36 36 27.9411 36 18C36 8.05888 27.9411 0 18 0C8.05888 0 0 8.05888 0 18C0 27.9411 8.05888 36 18 36Z" fill="#FC5523"/>
<path fill-rule="evenodd" clip-rule="evenodd" d="M18.3133 2.74121L17.1172 3.06808C17.1172 3.06808 18.7961 8.8254 19.8213 12.3838C21.2105 16.5142 21.9757 22.4573 22.0277 23.4973C18.8556 21.3578 15.0743 19.3446 12.8976 18.9212C10.721 18.4903 8.37351 19.1143 8.99753 22.0561C9.98556 26.298 15.3046 31.3347 17.3549 32.3079C19.4053 33.281 21.8048 33.0062 22.6517 31.097C23.4986 29.1952 23.3723 25.9488 23.3723 25.9488L26.4255 28.1106L27.1015 27.026C26.849 26.7511 23.2831 24.3368 23.2831 24.3368C22.7557 18.7429 22.2208 16.5588 21.0991 12.3169C19.9773 8.0751 18.3133 2.74121 18.3133 2.74121ZM10.2444 20.7708C9.96958 21.9594 11.069 23.9726 11.069 23.9726C12.8742 27.1298 15.9275 29.9528 17.5395 30.9705C19.1516 31.9883 20.6819 31.966 21.4842 30.6288C22.3311 29.3956 22.138 25.0721 22.138 25.0721C19.6716 23.3263 15.9498 21.2834 13.892 20.4959C12.8297 20.1096 10.5193 19.5822 10.2444 20.7708Z" fill="#0F0F0F"/>
<path fill-rule="evenodd" clip-rule="evenodd" d="M142.053 5.08276C142.777 4.35611 143.649 3.99279 144.67 3.99279C145.695 3.99279 146.57 4.35611 147.293 5.08276C148.013 5.8055 148.373 6.67865 148.373 7.70221C148.373 8.73358 148.013 9.61259 147.293 10.3392C146.574 11.0659 145.699 11.4292 144.67 11.4292C143.642 11.4292 142.767 11.0659 142.047 10.3392C141.331 9.61259 140.974 8.73358 140.974 7.70221C140.974 6.67865 141.333 5.8055 142.053 5.08276ZM147.722 10.7553C148.563 9.91145 148.983 8.89376 148.983 7.70221C148.983 6.51457 148.563 5.50273 147.722 4.6667C146.881 3.83066 145.864 3.41264 144.67 3.41264C143.485 3.41264 142.474 3.83066 141.637 4.6667C140.796 5.50664 140.375 6.51848 140.375 7.70221C140.375 8.89766 140.792 9.91536 141.625 10.7553C142.462 11.5992 143.477 12.0211 144.67 12.0211C145.864 12.0211 146.881 11.5992 147.722 10.7553ZM145.48 6.07311C145.691 6.19031 145.797 6.42081 145.797 6.7646C145.797 7.12792 145.635 7.37405 145.31 7.50297C145.134 7.57329 144.87 7.60845 144.518 7.60845H143.767V5.89731H144.477C144.938 5.89731 145.273 5.95591 145.48 6.07311ZM145.879 5.49883C145.605 5.38553 145.175 5.32888 144.588 5.32888H142.933V10.0521H143.767V8.18859H144.424C144.866 8.18859 145.175 8.23938 145.351 8.34096C145.648 8.51676 145.797 8.87813 145.797 9.42507V9.80011L145.815 9.95247C145.818 9.96784 145.821 9.982 145.824 9.99495C145.825 9.99846 145.826 10.0019 145.826 10.0052L145.838 10.0521H146.619L146.589 9.99349C146.57 9.95443 146.556 9.87239 146.548 9.74737C146.54 9.62236 146.536 9.50516 146.536 9.39577V9.05002C146.536 8.81172 146.45 8.56755 146.278 8.31752C146.106 8.06749 145.834 7.91317 145.463 7.85457C145.756 7.80769 145.985 7.73151 146.149 7.62603C146.458 7.42679 146.613 7.1162 146.613 6.69428C146.613 6.10046 146.368 5.70197 145.879 5.49883ZM47.579 27.7972C46.9167 26.7448 46.5856 25.4384 46.5856 23.878C46.5856 22.0454 46.9666 20.6574 47.7287 19.7139C48.4998 18.7704 49.5023 18.2986 50.7361 18.2986C51.8429 18.2986 52.7728 18.7432 53.5258 19.6322C54.2788 20.5122 54.6553 21.8731 54.6553 23.7147C54.6553 25.5382 54.2879 26.9399 53.553 27.9197C52.8273 28.8904 51.8974 29.3758 50.7633 29.3758C49.3027 29.3758 48.2413 28.8496 47.579 27.7972ZM53.0767 16.8698C52.3237 16.398 51.3893 16.1621 50.2734 16.1621C48.2594 16.1621 46.7081 16.9423 45.6194 18.5028C44.5398 20.0541 44 21.8912 44 24.0141C44 26.2822 44.5942 28.1011 45.7827 29.471C46.9711 30.8319 48.3773 31.5123 50.0013 31.5123C51.0083 31.5123 51.9019 31.3127 52.6821 30.9135C53.4623 30.5143 54.1382 29.8657 54.7097 28.9675V30.9952H56.9143V10.9365H54.56V18.2986C54.0066 17.6182 53.5122 17.1419 53.0767 16.8698ZM64.6846 11.0046H60.8063V30.9952H63.3918V19.1968C63.3918 18.725 63.3782 17.9902 63.351 16.9922C63.3329 15.9852 63.3238 15.2368 63.3238 14.7469V14.1345L69.0665 30.9952H71.7473L77.4492 14.1345C77.4492 15.2141 77.4401 16.2256 77.422 17.1691C77.4038 18.1126 77.3948 18.7885 77.3948 19.1968V30.9952H79.9667V11.0046H76.1292L70.4273 27.9061L64.6846 11.0046ZM91.3161 13.9712L94.3507 22.803H88.0909L91.3161 13.9712ZM92.9627 11.0046H89.9008L82.3754 30.9952H85.1515L87.3152 25.0075H95.2216L97.2493 30.9952H100.216L92.9627 11.0046ZM116.995 12.4607C115.598 11.1271 113.634 10.4602 111.103 10.4602C108.136 10.4602 105.809 11.4854 104.121 13.5357C102.561 15.4227 101.781 17.8405 101.781 20.7889C101.781 24.6718 102.82 27.5432 104.897 29.403C106.476 30.8092 108.426 31.5123 110.749 31.5123C113.443 31.5123 115.584 30.655 117.172 28.9403C118.496 27.516 119.277 25.7514 119.512 23.6467H116.872C116.6 24.9622 116.188 26.0236 115.634 26.831C114.591 28.3642 113.071 29.1308 111.075 29.1308C108.907 29.1308 107.274 28.4051 106.176 26.9535C105.088 25.4929 104.543 23.5923 104.543 21.2516C104.543 18.3939 105.147 16.2755 106.353 14.8966C107.569 13.5085 109.161 12.8145 111.13 12.8145C112.745 12.8145 113.997 13.191 114.886 13.944C115.784 14.697 116.383 15.7176 116.682 17.0058H119.322C119.168 15.3093 118.392 13.7943 116.995 12.4607ZM139.748 32.5873L141.109 30.9407L138.36 28.8042C139.503 27.6611 140.315 26.1824 140.796 24.3679C141.113 23.1795 141.272 21.9411 141.272 20.6529C141.272 17.8949 140.61 15.6314 139.285 13.8623C137.589 11.5943 134.976 10.4602 131.447 10.4602C128.072 10.4602 125.523 11.6941 123.799 14.1617C122.456 16.085 121.785 18.3984 121.785 21.1019C121.785 24.0776 122.561 26.5543 124.112 28.5321C125.872 30.5642 128.303 31.5803 131.406 31.5803C132.431 31.5803 133.375 31.4579 134.237 31.2129C135.108 30.968 135.915 30.6414 136.659 30.2331L139.748 32.5873ZM133.311 29.0492C132.821 29.1218 132.295 29.1581 131.733 29.1581C129.392 29.1581 127.614 28.4459 126.398 27.0215C125.192 25.5972 124.588 23.683 124.588 21.2788C124.588 18.4211 125.219 16.3073 126.48 14.9374C127.741 13.5584 129.451 12.8689 131.61 12.8689C133.742 12.8689 135.421 13.5856 136.645 15.019C137.879 16.4524 138.496 18.344 138.496 20.6937C138.496 21.7642 138.346 22.8846 138.047 24.0549C137.757 25.2253 137.199 26.2822 136.373 27.2257L133.76 25.198L132.4 26.8719L134.59 28.5865C134.228 28.8133 133.801 28.9675 133.311 29.0492Z" fill="#FC5523"/>
</svg>
