<svg width="30" height="28" viewBox="0 0 30 28" fill="none" xmlns="http://www.w3.org/2000/svg">
<ellipse cx="15.0161" cy="14" rx="14.3387" ry="14" fill="#192839"/>
<path d="M17.7694 8.49512H12.2309C11.3743 8.49603 10.5531 8.83671 9.9474 9.4424C9.34172 10.0481 9.00104 10.8693 9.00012 11.7259V17.2643C9.00104 18.1209 9.34172 18.9421 9.9474 19.5478C10.5531 20.1535 11.3743 20.4942 12.2309 20.4951H17.7694C18.6259 20.4942 19.4472 20.1535 20.0528 19.5478C20.6585 18.9421 20.9992 18.1209 21.0001 17.2643V11.7259C20.9992 10.8693 20.6585 10.0481 20.0528 9.4424C19.4472 8.83671 18.6259 8.49603 17.7694 8.49512ZM15.0001 17.2643C14.4524 17.2643 13.917 17.1019 13.4616 16.7976C13.0062 16.4934 12.6513 16.0609 12.4417 15.5549C12.2321 15.0488 12.1773 14.492 12.2841 13.9549C12.391 13.4177 12.6547 12.9243 13.042 12.537C13.4293 12.1497 13.9227 11.8859 14.4599 11.7791C14.9971 11.6722 15.5539 11.7271 16.0599 11.9367C16.5659 12.1463 16.9984 12.5012 17.3027 12.9566C17.6069 13.412 17.7694 13.9474 17.7694 14.4951C17.7686 15.2293 17.4766 15.9332 16.9574 16.4524C16.4383 16.9716 15.7343 17.2636 15.0001 17.2643ZM18.4617 11.7259C18.3247 11.7259 18.1909 11.6853 18.077 11.6092C17.9632 11.5331 17.8745 11.425 17.8221 11.2985C17.7697 11.172 17.7559 11.0328 17.7827 10.8985C17.8094 10.7642 17.8753 10.6409 17.9721 10.544C18.0689 10.4472 18.1923 10.3813 18.3266 10.3546C18.4609 10.3279 18.6001 10.3416 18.7266 10.394C18.8531 10.4464 18.9612 10.5351 19.0373 10.649C19.1134 10.7628 19.154 10.8967 19.154 11.0336C19.154 11.2172 19.081 11.3933 18.9512 11.5231C18.8214 11.6529 18.6453 11.7259 18.4617 11.7259ZM16.8463 14.4951C16.8463 14.8603 16.738 15.2172 16.5351 15.5208C16.3323 15.8244 16.044 16.061 15.7066 16.2007C15.3693 16.3405 14.9981 16.377 14.64 16.3058C14.2818 16.2346 13.9529 16.0587 13.6947 15.8005C13.4365 15.5424 13.2607 15.2134 13.1894 14.8553C13.1182 14.4972 13.1548 14.126 13.2945 13.7886C13.4342 13.4513 13.6709 13.163 13.9745 12.9601C14.2781 12.7572 14.635 12.649 15.0001 12.649C15.4898 12.649 15.9593 12.8435 16.3055 13.1897C16.6518 13.5359 16.8463 14.0055 16.8463 14.4951Z" fill="white" fill-opacity="0.9"/>
</svg>
