<svg width="29" height="29" viewBox="0 0 29 29" fill="none" xmlns="http://www.w3.org/2000/svg">
<ellipse cx="14.3387" cy="14.1572" rx="14.3387" ry="14" fill="#192839"/>
<path d="M19.0769 7.65234H8.92308C8.67826 7.65234 8.44347 7.7496 8.27036 7.92271C8.09725 8.09582 8 8.33061 8 8.57542V18.7293C8 18.9741 8.09725 19.2089 8.27036 19.382C8.44347 19.5551 8.67826 19.6523 8.92308 19.6523H19.0769C19.3217 19.6523 19.5565 19.5551 19.7296 19.382C19.9027 19.2089 20 18.9741 20 18.7293V8.57542C20 8.33061 19.9027 8.09582 19.7296 7.92271C19.5565 7.7496 19.3217 7.65234 19.0769 7.65234ZM12.1538 16.4216C12.1538 16.544 12.1052 16.6614 12.0187 16.7479C11.9321 16.8345 11.8147 16.8831 11.6923 16.8831C11.5699 16.8831 11.4525 16.8345 11.366 16.7479C11.2794 16.6614 11.2308 16.544 11.2308 16.4216V12.7293C11.2308 12.6069 11.2794 12.4895 11.366 12.4029C11.4525 12.3164 11.5699 12.2677 11.6923 12.2677C11.8147 12.2677 11.9321 12.3164 12.0187 12.4029C12.1052 12.4895 12.1538 12.6069 12.1538 12.7293V16.4216ZM11.6923 11.8062C11.5554 11.8062 11.4215 11.7656 11.3077 11.6895C11.1938 11.6134 11.1051 11.5053 11.0527 11.3788C11.0003 11.2523 10.9866 11.1131 11.0133 10.9788C11.04 10.8445 11.106 10.7212 11.2028 10.6243C11.2996 10.5275 11.423 10.4616 11.5572 10.4349C11.6915 10.4082 11.8307 10.4219 11.9572 10.4743C12.0837 10.5267 12.1919 10.6154 12.2679 10.7293C12.344 10.8431 12.3846 10.977 12.3846 11.1139C12.3846 11.2975 12.3117 11.4736 12.1818 11.6034C12.052 11.7333 11.8759 11.8062 11.6923 11.8062ZM17.2308 16.4216C17.2308 16.544 17.1821 16.6614 17.0956 16.7479C17.009 16.8345 16.8916 16.8831 16.7692 16.8831C16.6468 16.8831 16.5294 16.8345 16.4429 16.7479C16.3563 16.6614 16.3077 16.544 16.3077 16.4216V14.3447C16.3077 14.0386 16.1861 13.7451 15.9697 13.5288C15.7534 13.3124 15.4599 13.1908 15.1538 13.1908C14.8478 13.1908 14.5543 13.3124 14.338 13.5288C14.1216 13.7451 14 14.0386 14 14.3447V16.4216C14 16.544 13.9514 16.6614 13.8648 16.7479C13.7783 16.8345 13.6609 16.8831 13.5385 16.8831C13.4161 16.8831 13.2987 16.8345 13.2121 16.7479C13.1255 16.6614 13.0769 16.544 13.0769 16.4216V12.7293C13.0775 12.6162 13.1195 12.5073 13.1951 12.4232C13.2706 12.3391 13.3744 12.2856 13.4868 12.273C13.5991 12.2603 13.7122 12.2893 13.8045 12.3545C13.8969 12.4197 13.9622 12.5165 13.9879 12.6266C14.3001 12.4148 14.6641 12.292 15.0409 12.2715C15.4176 12.251 15.7928 12.3334 16.1262 12.5101C16.4596 12.6867 16.7385 12.9508 16.9331 13.274C17.1278 13.5972 17.2306 13.9674 17.2308 14.3447V16.4216Z" fill="white" fill-opacity="0.9"/>
</svg>
