<svg width="29" height="28" viewBox="0 0 29 28" fill="none" xmlns="http://www.w3.org/2000/svg">
<ellipse cx="14.3387" cy="14" rx="14.3387" ry="14" fill="#192839"/>
<path d="M19.0769 7.49512H8.92308C8.67826 7.49512 8.44347 7.59237 8.27036 7.76548C8.09725 7.93859 8 8.17338 8 8.41819V18.572C8 18.8169 8.09725 19.0516 8.27036 19.2248C8.44347 19.3979 8.67826 19.4951 8.92308 19.4951H19.0769C19.3217 19.4951 19.5565 19.3979 19.7296 19.2248C19.9027 19.0516 20 18.8169 20 18.572V8.41819C20 8.17338 19.9027 7.93859 19.7296 7.76548C19.5565 7.59237 19.3217 7.49512 19.0769 7.49512ZM12.1538 16.2643C12.1538 16.3868 12.1052 16.5042 12.0187 16.5907C11.9321 16.6773 11.8147 16.7259 11.6923 16.7259C11.5699 16.7259 11.4525 16.6773 11.366 16.5907C11.2794 16.5042 11.2308 16.3868 11.2308 16.2643V12.572C11.2308 12.4496 11.2794 12.3322 11.366 12.2457C11.4525 12.1591 11.5699 12.1105 11.6923 12.1105C11.8147 12.1105 11.9321 12.1591 12.0187 12.2457C12.1052 12.3322 12.1538 12.4496 12.1538 12.572V16.2643ZM11.6923 11.649C11.5554 11.649 11.4215 11.6084 11.3077 11.5323C11.1938 11.4562 11.1051 11.3481 11.0527 11.2216C11.0003 11.0951 10.9866 10.9559 11.0133 10.8216C11.04 10.6873 11.106 10.5639 11.2028 10.4671C11.2996 10.3703 11.423 10.3044 11.5572 10.2777C11.6915 10.2509 11.8307 10.2646 11.9572 10.317C12.0837 10.3694 12.1919 10.4582 12.2679 10.572C12.344 10.6859 12.3846 10.8197 12.3846 10.9567C12.3846 11.1403 12.3117 11.3164 12.1818 11.4462C12.052 11.576 11.8759 11.649 11.6923 11.649ZM17.2308 16.2643C17.2308 16.3868 17.1821 16.5042 17.0956 16.5907C17.009 16.6773 16.8916 16.7259 16.7692 16.7259C16.6468 16.7259 16.5294 16.6773 16.4429 16.5907C16.3563 16.5042 16.3077 16.3868 16.3077 16.2643V14.1874C16.3077 13.8814 16.1861 13.5879 15.9697 13.3715C15.7534 13.1551 15.4599 13.0336 15.1538 13.0336C14.8478 13.0336 14.5543 13.1551 14.338 13.3715C14.1216 13.5879 14 13.8814 14 14.1874V16.2643C14 16.3868 13.9514 16.5042 13.8648 16.5907C13.7783 16.6773 13.6609 16.7259 13.5385 16.7259C13.4161 16.7259 13.2987 16.6773 13.2121 16.5907C13.1255 16.5042 13.0769 16.3868 13.0769 16.2643V12.572C13.0775 12.459 13.1195 12.3501 13.1951 12.266C13.2706 12.1819 13.3744 12.1284 13.4868 12.1157C13.5991 12.1031 13.7122 12.1321 13.8045 12.1973C13.8969 12.2624 13.9622 12.3593 13.9879 12.4693C14.3001 12.2575 14.6641 12.1348 15.0409 12.1143C15.4176 12.0937 15.7928 12.1762 16.1262 12.3528C16.4596 12.5295 16.7385 12.7936 16.9331 13.1168C17.1278 13.44 17.2306 13.8101 17.2308 14.1874V16.2643Z" fill="white" fill-opacity="0.9"/>
</svg>
