<svg width="143" height="37" viewBox="0 0 143 37" fill="none" xmlns="http://www.w3.org/2000/svg">
<rect width="36" height="36" rx="18" fill="#167B59"/>
<g filter="url(#filter0_d_91_6252)">
<path fill-rule="evenodd" clip-rule="evenodd" d="M19.881 8.21875H16.2926C15.4255 8.21875 14.7227 8.92163 14.7227 9.78868V13.3771C14.7227 14.2441 15.4255 14.947 16.2926 14.947H17.4609V17.1895H13.5523C13.1361 17.1899 12.7371 17.3555 12.4428 17.6498C12.1485 17.9441 11.9829 18.3432 11.9824 18.7594V19.6565C11.9824 19.8349 12.0533 20.0061 12.1795 20.1322C12.3057 20.2584 12.4768 20.3293 12.6552 20.3293C12.8337 20.3293 13.0048 20.2584 13.131 20.1322C13.2572 20.0061 13.3281 19.8349 13.3281 19.6565V18.7594C13.3281 18.6999 13.3517 18.6429 13.3938 18.6008C13.4358 18.5587 13.4929 18.5351 13.5523 18.5351H18.1075C18.1163 18.5354 18.125 18.5356 18.1338 18.5356C18.1425 18.5356 18.1513 18.5354 18.16 18.5351H22.6056C22.6651 18.5351 22.7222 18.5587 22.7642 18.6008C22.8063 18.6429 22.8299 18.6999 22.8299 18.7594V19.6565C22.8299 19.8349 22.9008 20.0061 23.027 20.1322C23.1532 20.2584 23.3243 20.3293 23.5027 20.3293C23.6812 20.3293 23.8523 20.2584 23.9785 20.1322C24.1047 20.0061 24.1756 19.8349 24.1756 19.6565V18.7594C24.1751 18.3432 24.0095 17.9441 23.7152 17.6498C23.4209 17.3555 23.0219 17.1899 22.6056 17.1895H18.8066V14.947H19.881C20.748 14.947 21.4509 14.2441 21.4509 13.3771V9.78868C21.4509 8.92163 20.748 8.21875 19.881 8.21875ZM15.4294 21.2294H9.78672C8.91968 21.2294 8.2168 21.9323 8.2168 22.7993V26.3877C8.2168 27.2548 8.91968 27.9576 9.78672 27.9576H15.4294C16.2965 27.9576 16.9994 27.2548 16.9994 26.3877V22.7993C16.9994 21.9323 16.2965 21.2294 15.4294 21.2294ZM20.7438 21.2295H26.3865C27.2535 21.2295 27.9564 21.9324 27.9564 22.7994V26.3878C27.9564 27.2549 27.2535 27.9577 26.3865 27.9577H20.7438C19.8767 27.9577 19.1738 27.2549 19.1738 26.3878V22.7994C19.1738 21.9324 19.8767 21.2295 20.7438 21.2295Z" fill="#F2FFFB"/>
</g>
<path d="M48.8904 11.5773H48.8626C48.373 12.2347 47.633 12.5828 46.8263 12.5828C45.0905 12.5828 44 11.0745 44 9.40044C44 7.67667 45.0682 6.19599 46.8374 6.19599C47.6275 6.19599 48.3841 6.58274 48.8626 7.22363H48.8904V1.78711H49.8974V12.4115H48.8904V11.5773ZM45.0348 9.3231C45.0348 10.511 45.7136 11.627 46.971 11.627C48.2673 11.627 48.946 10.5552 48.946 9.33414C48.946 8.12419 48.2061 7.14628 46.9598 7.14628C45.7859 7.14628 45.0348 8.19049 45.0348 9.3231Z" fill="#2F4256"/>
<path d="M52.9853 2.15234L56.4292 10.3071L59.8841 2.15234L61.8091 12.4176H60.7298L59.5058 5.84851H59.4836L56.4292 12.8154L53.3859 5.84851H53.3581L52.1396 12.4176H51.0603L52.9853 2.15234Z" fill="#2F4256"/>
<path d="M64.1849 9.6602L63.0388 12.4171H61.8816L66.2546 2.24023L70.5163 12.4171H69.3479L68.2296 9.6602H64.1849ZM66.2323 4.76512L64.6133 8.65466H67.8179L66.2323 4.76512Z" fill="#2F4256"/>
<path d="M78.5172 4.83157C77.7606 4.03046 76.7202 3.54426 75.6298 3.54426C73.5212 3.54426 71.8076 5.42273 71.8076 7.56088C71.8076 9.69902 73.5267 11.5775 75.652 11.5775C76.7202 11.5775 77.7606 11.0637 78.5172 10.2902V11.6272C77.6994 12.235 76.698 12.5775 75.6909 12.5775C73.0149 12.5775 70.7505 10.351 70.7505 7.59403C70.7505 4.80947 72.9759 2.5332 75.6909 2.5332C76.748 2.5332 77.6771 2.8426 78.5172 3.48349V4.83157Z" fill="#2F4256"/>
<path d="M88.1193 11.6331C87.3404 12.2408 86.2221 12.5834 85.2652 12.5834C82.5613 12.5834 80.3247 10.3679 80.3247 7.57226C80.3247 4.7877 82.5613 2.53906 85.2652 2.53906C88.0024 2.53906 90.2056 4.82085 90.2056 7.59989C90.2056 8.95349 89.7272 10.0474 88.837 11.0253L90.2557 12.506H88.9093L88.1193 11.6331ZM88.1026 10.2518C88.8036 9.48941 89.143 8.60542 89.143 7.56121C89.143 5.34572 87.435 3.5446 85.2596 3.5446C83.0842 3.5446 81.3762 5.36229 81.3762 7.56121C81.3762 9.74908 83.1121 11.5778 85.2596 11.5778C85.9662 11.5778 86.7952 11.3071 87.3682 10.8596L85.0816 8.50045H86.4613L88.1026 10.2518Z" fill="#2F4256"/>
<path d="M91.2296 3.1853C90.8179 3.1853 90.4674 3.04165 90.1781 2.74883C89.8888 2.45601 89.7441 2.10794 89.7441 1.69909C89.7441 1.28473 89.8888 0.936656 90.1781 0.643835C90.4674 0.356539 90.8179 0.212891 91.2296 0.212891C91.6413 0.212891 91.9918 0.356539 92.2811 0.643835C92.5704 0.931131 92.7151 1.28473 92.7151 1.69909C92.7151 2.10794 92.5704 2.46153 92.2811 2.74883C91.9918 3.03612 91.6413 3.1853 91.2296 3.1853ZM91.2296 2.8538C91.5467 2.8538 91.8138 2.73778 92.0419 2.51126C92.27 2.28473 92.3868 2.01401 92.3868 1.69909C92.3868 1.38417 92.2756 1.10793 92.0475 0.881406C91.8194 0.654884 91.5467 0.538862 91.2296 0.538862C90.9125 0.538862 90.6454 0.654884 90.4173 0.881406C90.1892 1.10793 90.078 1.38417 90.078 1.69909C90.078 2.01401 90.1892 2.28473 90.4173 2.51126C90.6454 2.7433 90.9125 2.8538 91.2296 2.8538ZM90.6343 2.60518V0.831682H91.1462C91.6024 0.831682 91.8249 0.986379 91.8249 1.29577C91.8249 1.51125 91.7025 1.68252 91.4577 1.81512L91.875 2.61071H91.4967L91.1183 1.88694H90.957V2.61071H90.6343V2.60518ZM90.957 1.63279H91.1017C91.3353 1.63279 91.4522 1.52782 91.4522 1.3234C91.4522 1.15765 91.3409 1.07478 91.1128 1.07478H90.957V1.63279Z" fill="#2F4256"/>
<path d="M58.5234 16.8259V21.0686H50.8537V24.4411H56.5108V28.4935H50.8537V36H45.5231V16.8259H58.5234ZM66.0991 31.9204H72.0554V36H60.7685V16.8259H66.0991V31.9204ZM83.3208 36.1904C81.5258 36.1904 79.8758 35.7734 78.3709 34.9393C76.866 34.0871 75.6693 32.9176 74.7808 31.4308C73.9105 29.9259 73.4754 28.2306 73.4754 26.3449C73.4754 24.4592 73.9105 22.773 74.7808 21.2862C75.6693 19.7813 76.866 18.6118 78.3709 17.7778C79.8758 16.9437 81.5258 16.5267 83.3208 16.5267C85.134 16.5267 86.7839 16.9437 88.2707 17.7778C89.7757 18.6118 90.9633 19.7813 91.8336 21.2862C92.7039 22.773 93.1391 24.4592 93.1391 26.3449C93.1391 28.2306 92.7039 29.9259 91.8336 31.4308C90.9633 32.9176 89.7757 34.0871 88.2707 34.9393C86.7658 35.7734 85.1158 36.1904 83.3208 36.1904ZM83.3208 31.2405C84.6807 31.2405 85.7504 30.7962 86.5301 29.9078C87.3279 29.0193 87.7268 27.8317 87.7268 26.3449C87.7268 24.8219 87.3279 23.6252 86.5301 22.7549C85.7504 21.8664 84.6807 21.4222 83.3208 21.4222C81.9428 21.4222 80.864 21.8664 80.0843 22.7549C79.3047 23.6252 78.9148 24.8219 78.9148 26.3449C78.9148 27.8499 79.3047 29.0465 80.0843 29.935C80.864 30.8053 81.9428 31.2405 83.3208 31.2405ZM122.542 16.8259L117.837 36H111.283L108.645 24.2507L105.952 36H99.3974L94.7467 16.8259H100.513L102.743 29.935L105.762 16.8259H111.609L114.546 29.8262L116.777 16.8259H122.542Z" fill="#2F4256"/>
<path d="M140.576 29.1463H136.208V33.615H132.141V29.1463H127.773V25.3052H132.141V20.8113H136.208V25.3052H140.576V29.1463Z" fill="#2F4256"/>
<defs>
<filter id="filter0_d_91_6252" x="8.2168" y="8.21875" width="19.7396" height="21.3074" filterUnits="userSpaceOnUse" color-interpolation-filters="sRGB">
<feFlood flood-opacity="0" result="BackgroundImageFix"/>
<feColorMatrix in="SourceAlpha" type="matrix" values="0 0 0 0 0 0 0 0 0 0 0 0 0 0 0 0 0 0 127 0" result="hardAlpha"/>
<feOffset dy="1.56908"/>
<feComposite in2="hardAlpha" operator="out"/>
<feColorMatrix type="matrix" values="0 0 0 0 0.0495833 0 0 0 0 0.35 0 0 0 0 0.247079 0 0 0 1 0"/>
<feBlend mode="normal" in2="BackgroundImageFix" result="effect1_dropShadow_91_6252"/>
<feBlend mode="normal" in="SourceGraphic" in2="effect1_dropShadow_91_6252" result="shape"/>
</filter>
</defs>
</svg>
