<svg width="40" height="40" viewBox="0 0 40 40" fill="none" xmlns="http://www.w3.org/2000/svg">
<path d="M32 19.6667C32 19.9319 31.8946 20.1862 31.7071 20.3738C31.5196 20.5613 31.2652 20.6667 31 20.6667H9C8.73478 20.6667 8.48043 20.5613 8.29289 20.3738C8.10536 20.1862 8 19.9319 8 19.6667C8 19.4014 8.10536 19.1471 8.29289 18.9595C8.48043 18.772 8.73478 18.6667 9 18.6667H31C31.2652 18.6667 31.5196 18.772 31.7071 18.9595C31.8946 19.1471 32 19.4014 32 19.6667ZM9 12.6667H31C31.2652 12.6667 31.5196 12.5613 31.7071 12.3738C31.8946 12.1862 32 11.9319 32 11.6667C32 11.4014 31.8946 11.1471 31.7071 10.9595C31.5196 10.772 31.2652 10.6667 31 10.6667H9C8.73478 10.6667 8.48043 10.772 8.29289 10.9595C8.10536 11.1471 8 11.4014 8 11.6667C8 11.9319 8.10536 12.1862 8.29289 12.3738C8.48043 12.5613 8.73478 12.6667 9 12.6667ZM31 26.6667H9C8.73478 26.6667 8.48043 26.772 8.29289 26.9595C8.10536 27.1471 8 27.4014 8 27.6667C8 27.9319 8.10536 28.1862 8.29289 28.3738C8.48043 28.5613 8.73478 28.6667 9 28.6667H31C31.2652 28.6667 31.5196 28.5613 31.7071 28.3738C31.8946 28.1862 32 27.9319 32 27.6667C32 27.4014 31.8946 27.1471 31.7071 26.9595C31.5196 26.772 31.2652 26.6667 31 26.6667Z" fill="#080707"/>
</svg>
