<svg width="192" height="33" viewBox="0 0 192 33" fill="none" xmlns="http://www.w3.org/2000/svg">
<path d="M15.0489 3.0208C15.3483 2.09949 16.6517 2.09949 16.9511 3.0208L19.3677 10.4585C19.5016 10.8705 19.8855 11.1495 20.3188 11.1495H28.1392C29.1079 11.1495 29.5107 12.3891 28.727 12.9585L22.4001 17.5552C22.0496 17.8099 21.903 18.2613 22.0369 18.6733L24.4535 26.111C24.7529 27.0323 23.6984 27.7984 22.9147 27.229L16.5878 22.6323C16.2373 22.3776 15.7627 22.3776 15.4122 22.6323L9.08533 27.229C8.30162 27.7984 7.24714 27.0323 7.54649 26.111L9.96315 18.6733C10.097 18.2613 9.95036 17.8099 9.59987 17.5552L3.27299 12.9585C2.48928 12.3891 2.89206 11.1495 3.86078 11.1495H11.6812C12.1145 11.1495 12.4984 10.8705 12.6323 10.4585L15.0489 3.0208Z" fill="#FF9040"/>
<path d="M55.0489 3.0208C55.3483 2.09949 56.6517 2.09949 56.9511 3.0208L59.3677 10.4585C59.5016 10.8705 59.8855 11.1495 60.3188 11.1495H68.1392C69.1079 11.1495 69.5107 12.3891 68.727 12.9585L62.4001 17.5552C62.0496 17.8099 61.903 18.2613 62.0369 18.6733L64.4535 26.111C64.7529 27.0323 63.6984 27.7984 62.9147 27.229L56.5878 22.6323C56.2373 22.3776 55.7627 22.3776 55.4122 22.6323L49.0853 27.229C48.3016 27.7984 47.2471 27.0323 47.5465 26.111L49.9631 18.6733C50.097 18.2613 49.9504 17.8099 49.5999 17.5552L43.273 12.9585C42.4893 12.3891 42.8921 11.1495 43.8608 11.1495H51.6812C52.1145 11.1495 52.4984 10.8705 52.6323 10.4585L55.0489 3.0208Z" fill="#FF9040"/>
<path d="M95.0489 3.0208C95.3483 2.09949 96.6517 2.09949 96.9511 3.0208L99.3677 10.4585C99.5016 10.8705 99.8855 11.1495 100.319 11.1495H108.139C109.108 11.1495 109.511 12.3891 108.727 12.9585L102.4 17.5552C102.05 17.8099 101.903 18.2613 102.037 18.6733L104.454 26.111C104.753 27.0323 103.698 27.7984 102.915 27.229L96.5878 22.6323C96.2373 22.3776 95.7627 22.3776 95.4122 22.6323L89.0853 27.229C88.3016 27.7984 87.2471 27.0323 87.5465 26.111L89.9631 18.6733C90.097 18.2613 89.9504 17.8099 89.5999 17.5552L83.273 12.9585C82.4893 12.3891 82.8921 11.1495 83.8608 11.1495H91.6812C92.1145 11.1495 92.4984 10.8705 92.6323 10.4585L95.0489 3.0208Z" fill="#FF9040"/>
<path d="M135.049 3.0208C135.348 2.09949 136.652 2.09949 136.951 3.0208L139.368 10.4585C139.502 10.8705 139.886 11.1495 140.319 11.1495H148.139C149.108 11.1495 149.511 12.3891 148.727 12.9585L142.4 17.5552C142.05 17.8099 141.903 18.2613 142.037 18.6733L144.454 26.111C144.753 27.0323 143.698 27.7984 142.915 27.229L136.588 22.6323C136.237 22.3776 135.763 22.3776 135.412 22.6323L129.085 27.229C128.302 27.7984 127.247 27.0323 127.546 26.111L129.963 18.6733C130.097 18.2613 129.95 17.8099 129.6 17.5552L123.273 12.9585C122.489 12.3891 122.892 11.1495 123.861 11.1495H131.681C132.114 11.1495 132.498 10.8705 132.632 10.4585L135.049 3.0208Z" fill="#FF9040"/>
<path d="M175.049 3.0208C175.348 2.09949 176.652 2.09949 176.951 3.0208L179.368 10.4585C179.502 10.8705 179.886 11.1495 180.319 11.1495H188.139C189.108 11.1495 189.511 12.3891 188.727 12.9585L182.4 17.5552C182.05 17.8099 181.903 18.2613 182.037 18.6733L184.454 26.111C184.753 27.0323 183.698 27.7984 182.915 27.229L176.588 22.6323C176.237 22.3776 175.763 22.3776 175.412 22.6323L169.085 27.229C168.302 27.7984 167.247 27.0323 167.546 26.111L169.963 18.6733C170.097 18.2613 169.95 17.8099 169.6 17.5552L163.273 12.9585C162.489 12.3891 162.892 11.1495 163.861 11.1495H171.681C172.114 11.1495 172.498 10.8705 172.632 10.4585L175.049 3.0208Z" fill="#FF9040"/>
</svg>
