<svg width="25" height="24" viewBox="0 0 25 24" fill="none" xmlns="http://www.w3.org/2000/svg">
<g clip-path="url(#clip0_274_5548)">
<path d="M12.1462 21C11.886 21 11.666 20.8116 11.603 20.5591C11.4021 19.7545 11.0176 18.8988 10.4494 17.9922C9.77622 16.9036 8.81666 15.8939 7.57058 14.9629C6.48678 14.1438 5.40298 13.5851 4.31926 13.2872C4.06252 13.2166 3.87524 12.989 3.87524 12.7229C3.87524 12.4618 4.05534 12.2368 4.30631 12.1652C5.36891 11.8618 6.39248 11.3692 7.3772 10.6875C8.50869 9.89971 9.45398 8.95442 10.2131 7.85156C10.8847 6.86907 11.3457 5.89747 11.5961 4.93659C11.6618 4.68488 11.8834 4.5 12.1435 4.5C12.4065 4.5 12.6296 4.68892 12.6937 4.9441C12.8382 5.52011 13.0641 6.10974 13.3713 6.7129C13.7581 7.45771 14.2522 8.17381 14.8538 8.86136C15.4696 9.53456 16.1572 10.1432 16.9163 10.6875C17.9082 11.3906 18.9166 11.8847 19.9416 12.1695C20.1931 12.2394 20.3752 12.4632 20.3752 12.7242C20.3752 12.9891 20.1876 13.2148 19.9321 13.2848C19.2824 13.463 18.6137 13.7502 17.9261 14.1465C17.0953 14.6335 16.3219 15.2135 15.6057 15.8867C14.8896 16.5456 14.3023 17.2402 13.844 17.9707C13.2747 18.8792 12.8898 19.7415 12.6893 20.5577C12.6271 20.8109 12.4068 21 12.1462 21Z" fill="#2950DA"/>
</g>
<g clip-path="url(#clip1_274_5548)">
<path d="M19.2569 8.25C19.1741 8.25 19.1041 8.19004 19.0841 8.10972C19.0202 7.8537 18.8978 7.58144 18.717 7.29298C18.5028 6.94661 18.1975 6.62533 17.801 6.3291C17.4562 6.06847 17.1113 5.89073 16.7665 5.79591C16.6848 5.77347 16.6252 5.70105 16.6252 5.61636C16.6252 5.53331 16.6825 5.4617 16.7624 5.43891C17.1005 5.34239 17.4262 5.18565 17.7395 4.96875C18.0995 4.71809 18.4003 4.41732 18.6418 4.06641C18.8555 3.75379 19.0022 3.44465 19.0819 3.13891C19.1028 3.05883 19.1733 3 19.256 3C19.3397 3 19.4107 3.06011 19.4311 3.1413C19.4771 3.32458 19.549 3.51219 19.6467 3.7041C19.7698 3.94109 19.927 4.16894 20.1184 4.38771C20.3144 4.60191 20.5331 4.79558 20.7747 4.96875C21.0903 5.19248 21.4111 5.34966 21.7373 5.4403C21.8173 5.46254 21.8752 5.53375 21.8752 5.61678C21.8752 5.70107 21.8155 5.77289 21.7343 5.79518C21.5275 5.85185 21.3148 5.94325 21.096 6.06933C20.8316 6.22429 20.5855 6.40885 20.3577 6.62305C20.1298 6.83268 19.943 7.05371 19.7971 7.28613C19.616 7.57519 19.4935 7.84956 19.4297 8.10927C19.4099 8.18984 19.3398 8.25 19.2569 8.25Z" fill="#2950DA"/>
</g>
<defs>
<clipPath id="clip0_274_5548">
<rect width="16.5" height="16.5" fill="white" transform="translate(3.87524 4.5)"/>
</clipPath>
<clipPath id="clip1_274_5548">
<rect width="5.25" height="5.25" fill="white" transform="translate(16.6252 3)"/>
</clipPath>
</defs>
</svg>
