<svg width="29" height="28" viewBox="0 0 29 28" fill="none" xmlns="http://www.w3.org/2000/svg">
<ellipse cx="14.3709" cy="14" rx="14.3387" ry="14" fill="#192839"/>
<path d="M20.4443 10.5427C20.0151 10.7289 19.5621 10.8453 19.0853 10.9151C19.5621 10.6358 19.9436 10.1935 20.1105 9.65807C19.6575 9.91414 19.1568 10.1004 18.6084 10.2168C18.1793 9.77447 17.5594 9.49512 16.8918 9.49512C15.6043 9.49512 14.5552 10.5194 14.5552 11.7765C14.5552 11.9627 14.5791 12.1256 14.6268 12.2886C12.6955 12.1955 10.9551 11.2876 9.78679 9.89086C9.59606 10.24 9.47684 10.6125 9.47684 11.0315C9.47684 11.823 9.88216 12.5214 10.5259 12.9404C10.1444 12.9171 9.78679 12.824 9.453 12.6611V12.6843C9.453 13.8017 10.2636 14.7329 11.3365 14.9424C11.1458 14.989 10.9312 15.0122 10.7166 15.0122C10.5736 15.0122 10.4067 14.989 10.2636 14.9657C10.5736 15.8736 11.4319 16.5487 12.4571 16.5487C11.6465 17.1539 10.6451 17.5264 9.54837 17.5264C9.35763 17.5264 9.1669 17.5264 9 17.5031C10.0491 18.1549 11.265 18.5274 12.6002 18.5274C16.9156 18.5274 19.276 15.0355 19.276 12.0093C19.276 11.9161 19.276 11.7997 19.276 11.7066C19.729 11.404 20.1343 11.0083 20.4443 10.5427Z" fill="white" fill-opacity="0.9"/>
</svg>
