<svg width="167" height="53" viewBox="0 0 167 53" fill="none" xmlns="http://www.w3.org/2000/svg">
<rect y="0.5" width="52" height="52" rx="26" fill="#2950DA"/>
<g filter="url(#filter0_d_103_11831)">
<path d="M24.8344 17.4228L22.6056 15.6017C22.0776 15.1729 21.443 14.9446 20.788 14.9446H14.5231C13.6803 14.9446 13 15.6908 13 16.6153V36.385C13 37.3095 13.6803 38.0557 14.5231 38.0557H37.4709C38.3137 38.0557 38.994 37.3095 38.994 36.385V19.7561C38.994 18.8317 38.3137 18.0855 37.4709 18.0855H26.6519C25.997 18.0799 25.3624 17.8516 24.8344 17.4228Z" fill="#B4CDFD"/>
<path d="M17.3846 19.689H36.1158C36.5476 19.689 36.8962 20.0621 36.8962 20.5243V31.6622C36.8962 32.1244 36.5476 32.4975 36.1158 32.4975H17.3846C16.9527 32.4975 16.6041 32.1244 16.6041 31.6622V20.5243C16.6041 20.0621 16.9527 19.689 17.3846 19.689Z" fill="#4D7FFF"/>
<path d="M16.3514 21.8274H34.6284C35.0498 21.8274 35.3899 22.1707 35.3899 22.5959V32.8431C35.3899 33.2684 35.0498 33.6116 34.6284 33.6116H16.3514C15.93 33.6116 15.5898 33.2684 15.5898 32.8431V22.5959C15.5898 22.1707 15.93 21.8274 16.3514 21.8274Z" fill="#75A3FF"/>
<path d="M14.5231 24.2498H37.4709C38.3137 24.2498 38.994 24.9128 38.994 25.7343V36.5711C38.994 37.3926 38.3137 38.0556 37.4709 38.0556H14.5231C13.6803 38.0556 13 37.3926 13 36.5711V25.7343C13 24.9128 13.6803 24.2498 14.5231 24.2498Z" fill="#F5F8FF"/>
</g>
<path fill-rule="evenodd" clip-rule="evenodd" d="M119.148 1.45721C119.563 1.04074 120.063 0.832504 120.648 0.832504C121.235 0.832504 121.737 1.04074 122.151 1.45721C122.564 1.87144 122.77 2.37187 122.77 2.95851C122.77 3.54963 122.564 4.05343 122.151 4.4699C121.739 4.88637 121.238 5.0946 120.648 5.0946C120.058 5.0946 119.557 4.88637 119.145 4.4699C118.734 4.05343 118.529 3.54963 118.529 2.95851C118.529 2.37187 118.735 1.87144 119.148 1.45721ZM122.397 4.70836C122.879 4.22472 123.12 3.64143 123.12 2.95851C123.12 2.27783 122.879 1.69791 122.397 1.21875C121.915 0.739582 121.332 0.5 120.648 0.5C119.969 0.5 119.389 0.739582 118.909 1.21875C118.427 1.70015 118.186 2.28007 118.186 2.95851C118.186 3.64367 118.425 4.22696 118.902 4.70836C119.382 5.192 119.964 5.43382 120.648 5.43382C121.332 5.43382 121.915 5.192 122.397 4.70836ZM121.112 2.02482C121.233 2.09199 121.294 2.22409 121.294 2.42113C121.294 2.62937 121.201 2.77043 121.015 2.84432C120.914 2.88462 120.762 2.90478 120.561 2.90478H120.13V1.92406H120.537C120.802 1.92406 120.993 1.95764 121.112 2.02482ZM121.341 1.69567C121.184 1.63074 120.937 1.59827 120.601 1.59827H119.652V4.30532H120.13V3.23728H120.507C120.76 3.23728 120.937 3.26639 121.038 3.3246C121.208 3.42536 121.294 3.63248 121.294 3.94595V4.1609L121.304 4.24823C121.306 4.25942 121.308 4.2695 121.311 4.27845L121.317 4.30532H121.765L121.748 4.27174C121.737 4.24935 121.729 4.20233 121.724 4.13067C121.72 4.05902 121.717 3.99185 121.717 3.92916V3.731C121.717 3.59441 121.668 3.45447 121.569 3.31117C121.471 3.16787 121.315 3.07942 121.102 3.04584C121.27 3.01897 121.401 2.97531 121.495 2.91485C121.673 2.80066 121.761 2.62265 121.761 2.38083C121.761 2.04049 121.621 1.8121 121.341 1.69567ZM65.0012 14.5741C64.6216 13.9709 64.4318 13.2222 64.4318 12.3278C64.4318 11.2775 64.6502 10.4819 65.087 9.94119C65.529 9.40043 66.1035 9.13005 66.8107 9.13005C67.445 9.13005 67.978 9.38483 68.4096 9.89439C68.8411 10.3988 69.0569 11.1787 69.0569 12.2342C69.0569 13.2793 68.8463 14.0827 68.4252 14.6442C68.0092 15.2006 67.4762 15.4788 66.8263 15.4788C65.9891 15.4788 65.3808 15.1772 65.0012 14.5741ZM68.1522 8.31111C67.7206 8.04073 67.185 7.90553 66.5455 7.90553C65.3912 7.90553 64.502 8.3527 63.8781 9.24704C63.2593 10.1362 62.95 11.1891 62.95 12.4058C62.95 13.7057 63.2905 14.7482 63.9717 15.5334C64.6528 16.3133 65.4588 16.7033 66.3895 16.7033C66.9667 16.7033 67.4788 16.5889 67.926 16.3601C68.3732 16.1313 68.7605 15.7596 69.0881 15.2448V16.4069H70.3516V4.91055H69.0023V9.13005C68.6851 8.74007 68.4018 8.46709 68.1522 8.31111ZM74.8051 4.94955H72.5823V16.4069H74.0641V9.64481C74.0641 9.37443 74.0563 8.95326 74.0408 8.3813C74.0304 7.80414 74.0252 7.37517 74.0252 7.09439V6.74342L77.3165 16.4069H78.853L82.121 6.74342C82.121 7.36217 82.1158 7.94193 82.1054 8.48269C82.095 9.02345 82.0898 9.41083 82.0898 9.64481V16.4069H83.5639V4.94955H81.3644L78.0965 14.6364L74.8051 4.94955ZM90.0686 6.64983L91.8079 11.7117H88.2201L90.0686 6.64983ZM91.0123 4.94955H89.2575L84.9444 16.4069H86.5354L87.7756 12.9752H92.307L93.4691 16.4069H95.1694L91.0123 4.94955ZM104.786 5.78409C103.985 5.01974 102.86 4.63757 101.409 4.63757C99.7087 4.63757 98.375 5.22513 97.4079 6.40024C96.5135 7.48177 96.0664 8.86747 96.0664 10.5573C96.0664 12.7828 96.6617 14.4285 97.8524 15.4944C98.7572 16.3003 99.8751 16.7033 101.206 16.7033C102.75 16.7033 103.978 16.2119 104.888 15.2292C105.647 14.4129 106.094 13.4015 106.229 12.1952H104.716C104.56 12.9492 104.323 13.5575 104.006 14.0203C103.408 14.899 102.537 15.3384 101.393 15.3384C100.151 15.3384 99.2147 14.9224 98.5856 14.0905C97.9616 13.2533 97.6497 12.164 97.6497 10.8225C97.6497 9.18464 97.9954 7.97053 98.687 7.18019C99.3837 6.38464 100.296 5.98687 101.425 5.98687C102.35 5.98687 103.068 6.20266 103.577 6.63423C104.092 7.0658 104.435 7.65075 104.607 8.3891H106.12C106.031 7.41677 105.587 6.54843 104.786 5.78409ZM117.827 17.3195L118.607 16.3757L117.031 15.1512C117.686 14.4961 118.152 13.6485 118.427 12.6086C118.609 11.9274 118.7 11.2177 118.7 10.4793C118.7 8.89866 118.321 7.60136 117.562 6.58743C116.589 5.28752 115.092 4.63757 113.069 4.63757C111.135 4.63757 109.674 5.34472 108.686 6.75902C107.916 7.86134 107.532 9.18724 107.532 10.7367C107.532 12.4422 107.976 13.8617 108.865 14.9952C109.874 16.1599 111.267 16.7423 113.046 16.7423C113.633 16.7423 114.174 16.6721 114.668 16.5317C115.167 16.3913 115.63 16.2041 116.056 15.9702L117.827 17.3195ZM114.138 15.2916C113.857 15.3332 113.555 15.354 113.233 15.354C111.891 15.354 110.872 14.9458 110.176 14.1295C109.484 13.3131 109.138 12.216 109.138 10.8381C109.138 9.20024 109.5 7.98873 110.222 7.20359C110.945 6.41324 111.925 6.01807 113.163 6.01807C114.385 6.01807 115.347 6.42884 116.049 7.25038C116.756 8.07192 117.109 9.15604 117.109 10.5027C117.109 11.1163 117.023 11.7585 116.852 12.4292C116.685 13.1 116.366 13.7057 115.893 14.2465L114.395 13.0844L113.615 14.0437L114.871 15.0264C114.663 15.1564 114.418 15.2448 114.138 15.2916Z" fill="#2F4256"/>
<path d="M85.1475 33.7044C85.1475 36.3911 84.6383 38.6336 83.62 40.4319C82.6233 42.2303 81.215 43.5736 79.395 44.4619C77.575 45.3503 75.43 45.7944 72.96 45.7944H65.4525V22.5894H73.48C75.9716 22.5894 78.0841 23.0228 79.8175 23.8894C81.5508 24.7344 82.8725 25.9803 83.7825 27.6269C84.6925 29.2736 85.1475 31.2994 85.1475 33.7044ZM78.6475 33.9319C78.6475 32.5236 78.4525 31.3536 78.0625 30.4219C77.6941 29.4903 77.1308 28.7969 76.3725 28.3419C75.6358 27.8869 74.6933 27.6594 73.545 27.6594H71.725V40.6594H73.1225C75.0291 40.6594 76.4266 40.1069 77.315 39.0019C78.2033 37.8969 78.6475 36.2069 78.6475 33.9319ZM98.6146 45.7944L93.8696 29.0894H93.7396C93.783 29.5228 93.8263 30.1078 93.8696 30.8444C93.913 31.5811 93.9563 32.3828 93.9996 33.2494C94.043 34.0944 94.0646 34.9178 94.0646 35.7194V45.7944H88.5071V22.5894H96.8596L101.702 39.0669H101.832L106.577 22.5894H114.93V45.7944H109.177V35.6219C109.177 34.8853 109.188 34.1053 109.21 33.2819C109.231 32.4369 109.264 31.6461 109.307 30.9094C109.35 30.1511 109.383 29.5553 109.405 29.1219H109.275L104.595 45.7944H98.6146ZM134.293 38.7419C134.293 39.9986 133.968 41.1903 133.318 42.3169C132.69 43.4436 131.704 44.3644 130.361 45.0794C129.039 45.7728 127.316 46.1194 125.193 46.1194C124.131 46.1194 123.2 46.0653 122.398 45.9569C121.618 45.8703 120.881 45.7186 120.188 45.5019C119.495 45.2853 118.78 45.0036 118.043 44.6569V39.0669C119.3 39.6953 120.567 40.1828 121.846 40.5294C123.124 40.8544 124.283 41.0169 125.323 41.0169C125.951 41.0169 126.461 40.9411 126.851 40.7894C127.241 40.6378 127.533 40.4319 127.728 40.1719C127.923 39.9119 128.021 39.6194 128.021 39.2944C128.021 38.8828 127.88 38.5361 127.598 38.2544C127.316 37.9728 126.872 37.6803 126.266 37.3769C125.659 37.0736 124.846 36.6944 123.828 36.2394C122.961 35.8494 122.181 35.4378 121.488 35.0044C120.795 34.5711 120.199 34.0836 119.701 33.5419C119.224 33.0003 118.856 32.3719 118.596 31.6569C118.336 30.9203 118.206 30.0536 118.206 29.0569C118.206 27.5619 118.574 26.3161 119.311 25.3194C120.047 24.3011 121.066 23.5428 122.366 23.0444C123.687 22.5244 125.215 22.2644 126.948 22.2644C128.465 22.2644 129.83 22.4378 131.043 22.7844C132.256 23.1094 133.34 23.4886 134.293 23.9219L132.376 28.7644C131.379 28.3094 130.393 27.9519 129.418 27.6919C128.465 27.4103 127.576 27.2694 126.753 27.2694C126.211 27.2694 125.767 27.3344 125.421 27.4644C125.074 27.5944 124.814 27.7786 124.641 28.0169C124.489 28.2336 124.413 28.4828 124.413 28.7644C124.413 29.1328 124.554 29.4578 124.836 29.7394C125.117 30.0211 125.583 30.3353 126.233 30.6819C126.905 31.0069 127.815 31.4294 128.963 31.9494C130.09 32.4478 131.043 33.0003 131.823 33.6069C132.625 34.1919 133.231 34.8961 133.643 35.7194C134.076 36.5211 134.293 37.5286 134.293 38.7419Z" fill="#192839"/>
<path d="M157.64 36.8265H151.924V42.6737H146.602V36.8265H140.886V31.8005H146.602V25.9204H151.924V31.8005H157.64V36.8265Z" fill="#192839"/>
<defs>
<filter id="filter0_d_103_11831" x="13" y="14.9446" width="27.6928" height="25.3762" filterUnits="userSpaceOnUse" color-interpolation-filters="sRGB">
<feFlood flood-opacity="0" result="BackgroundImageFix"/>
<feColorMatrix in="SourceAlpha" type="matrix" values="0 0 0 0 0 0 0 0 0 0 0 0 0 0 0 0 0 0 127 0" result="hardAlpha"/>
<feOffset dx="1.6988" dy="2.26507"/>
<feComposite in2="hardAlpha" operator="out"/>
<feColorMatrix type="matrix" values="0 0 0 0 0.03125 0 0 0 0 0.135769 0 0 0 0 0.5 0 0 0 1 0"/>
<feBlend mode="normal" in2="BackgroundImageFix" result="effect1_dropShadow_103_11831"/>
<feBlend mode="normal" in="SourceGraphic" in2="effect1_dropShadow_103_11831" result="shape"/>
</filter>
</defs>
</svg>
