<svg width="188" height="52" viewBox="0 0 188 52" fill="none" xmlns="http://www.w3.org/2000/svg">
<path d="M52 26C52 11.6406 40.3594 0 26 0C11.6406 0 0 11.6406 0 26C0 40.3594 11.6406 52 26 52C40.3594 52 52 40.3594 52 26Z" fill="#167B59"/>
<g filter="url(#filter0_d_103_11884)">
<path d="M36.5423 28.2889C36.0879 28.0289 35.7501 27.5749 35.7501 27.0515V23.9882C35.7501 23.3043 35.1958 22.75 34.5121 22.75H28.7537C28.1303 22.75 27.6251 22.2446 27.6251 21.6214C27.6251 21.1441 27.9321 20.7295 28.3499 20.4989C29.8515 19.6704 30.875 18.0837 30.875 16.25C30.875 13.5618 28.6882 11.375 26.0001 11.375C23.3119 11.375 21.1251 13.5618 21.1251 16.25C21.1251 18.0836 22.1486 19.6702 23.6502 20.4988C24.068 20.7293 24.3751 21.144 24.3751 21.6213C24.3751 22.2447 23.8698 22.7499 23.2464 22.7499H17.4882C16.8044 22.7499 16.25 23.3043 16.25 23.988V27.0513C16.25 27.5749 15.9122 28.0287 15.4579 28.2888C13.993 29.1273 13 30.6939 13 32.5C13 35.1882 15.1868 37.375 17.875 37.375C20.5632 37.375 22.75 35.1882 22.75 32.5C22.75 30.6663 21.7265 29.0796 20.2248 28.251C19.807 28.0205 19.5 27.6058 19.5 27.1286C19.5 26.5053 20.0052 26 20.6286 26H31.3714C31.9947 26 32.5 26.5053 32.5 27.1286C32.5 27.6058 32.193 28.0205 31.7752 28.251C30.2736 29.0796 29.25 30.6663 29.25 32.5C29.25 35.1882 31.4367 37.375 34.125 37.375C36.8132 37.375 39 35.1882 39 32.5C39 30.6939 38.007 29.1273 36.5423 28.2889Z" fill="#F2FFFB"/>
</g>
<path fill-rule="evenodd" clip-rule="evenodd" d="M119.148 0.957208C119.563 0.540739 120.063 0.332504 120.648 0.332504C121.235 0.332504 121.737 0.540739 122.151 0.957208C122.564 1.37144 122.77 1.87187 122.77 2.45851C122.77 3.04963 122.564 3.55343 122.151 3.9699C121.739 4.38637 121.238 4.5946 120.648 4.5946C120.058 4.5946 119.557 4.38637 119.145 3.9699C118.734 3.55343 118.529 3.04963 118.529 2.45851C118.529 1.87187 118.735 1.37144 119.148 0.957208ZM122.397 4.20836C122.879 3.72472 123.12 3.14143 123.12 2.45851C123.12 1.77783 122.879 1.19791 122.397 0.718746C121.915 0.239582 121.332 0 120.648 0C119.969 0 119.389 0.239582 118.909 0.718746C118.427 1.20015 118.186 1.78007 118.186 2.45851C118.186 3.14367 118.425 3.72696 118.902 4.20836C119.382 4.692 119.964 4.93382 120.648 4.93382C121.332 4.93382 121.915 4.692 122.397 4.20836ZM121.112 1.52482C121.233 1.59199 121.294 1.72409 121.294 1.92113C121.294 2.12937 121.201 2.27043 121.015 2.34432C120.914 2.38462 120.762 2.40478 120.561 2.40478H120.13V1.42406H120.537C120.802 1.42406 120.993 1.45764 121.112 1.52482ZM121.341 1.19567C121.184 1.13074 120.937 1.09827 120.601 1.09827H119.652V3.80532H120.13V2.73728H120.507C120.76 2.73728 120.937 2.76639 121.038 2.8246C121.208 2.92536 121.294 3.13248 121.294 3.44595V3.6609L121.304 3.74823C121.306 3.75942 121.308 3.7695 121.311 3.77845L121.317 3.80532H121.765L121.748 3.77174C121.737 3.74935 121.729 3.70233 121.724 3.63067C121.72 3.55902 121.717 3.49185 121.717 3.42916V3.231C121.717 3.09441 121.668 2.95447 121.569 2.81117C121.471 2.66787 121.315 2.57942 121.102 2.54584C121.27 2.51897 121.401 2.47531 121.495 2.41485C121.673 2.30066 121.761 2.12265 121.761 1.88083C121.761 1.54049 121.621 1.3121 121.341 1.19567ZM65.0012 14.0741C64.6216 13.4709 64.4318 12.7222 64.4318 11.8278C64.4318 10.7775 64.6502 9.98195 65.087 9.44119C65.529 8.90043 66.1035 8.63005 66.8107 8.63005C67.445 8.63005 67.978 8.88483 68.4096 9.39439C68.8411 9.89876 69.0569 10.6787 69.0569 11.7342C69.0569 12.7793 68.8463 13.5827 68.4252 14.1442C68.0092 14.7006 67.4762 14.9788 66.8263 14.9788C65.9891 14.9788 65.3808 14.6772 65.0012 14.0741ZM68.1522 7.81111C67.7206 7.54073 67.185 7.40553 66.5455 7.40553C65.3912 7.40553 64.502 7.8527 63.8781 8.74704C63.2593 9.63617 62.95 10.6891 62.95 11.9058C62.95 13.2057 63.2905 14.2482 63.9717 15.0334C64.6528 15.8133 65.4588 16.2033 66.3895 16.2033C66.9667 16.2033 67.4788 16.0889 67.926 15.8601C68.3732 15.6313 68.7605 15.2596 69.0881 14.7448V15.9069H70.3516V4.41055H69.0023V8.63005C68.6851 8.24007 68.4018 7.96709 68.1522 7.81111ZM74.8051 4.44955H72.5823V15.9069H74.0641V9.14481C74.0641 8.87443 74.0563 8.45326 74.0408 7.8813C74.0304 7.30414 74.0252 6.87517 74.0252 6.59439V6.24342L77.3165 15.9069H78.853L82.121 6.24342C82.121 6.86217 82.1158 7.44193 82.1054 7.98269C82.095 8.52345 82.0898 8.91083 82.0898 9.14481V15.9069H83.5639V4.44955H81.3644L78.0965 14.1364L74.8051 4.44955ZM90.0686 6.14983L91.8079 11.2117H88.2201L90.0686 6.14983ZM91.0123 4.44955H89.2575L84.9444 15.9069H86.5354L87.7756 12.4752H92.307L93.4691 15.9069H95.1694L91.0123 4.44955ZM104.786 5.28409C103.985 4.51974 102.86 4.13757 101.409 4.13757C99.7087 4.13757 98.375 4.72513 97.4079 5.90024C96.5135 6.98177 96.0664 8.36747 96.0664 10.0573C96.0664 12.2828 96.6617 13.9285 97.8524 14.9944C98.7572 15.8003 99.8751 16.2033 101.206 16.2033C102.75 16.2033 103.978 15.7119 104.888 14.7292C105.647 13.9129 106.094 12.9015 106.229 11.6952H104.716C104.56 12.4492 104.323 13.0575 104.006 13.5203C103.408 14.399 102.537 14.8384 101.393 14.8384C100.151 14.8384 99.2147 14.4224 98.5856 13.5905C97.9616 12.7533 97.6497 11.664 97.6497 10.3225C97.6497 8.68464 97.9954 7.47053 98.687 6.68019C99.3837 5.88464 100.296 5.48687 101.425 5.48687C102.35 5.48687 103.068 5.70266 103.577 6.13423C104.092 6.5658 104.435 7.15075 104.607 7.8891H106.12C106.031 6.91677 105.587 6.04843 104.786 5.28409ZM117.827 16.8195L118.607 15.8757L117.031 14.6512C117.686 13.9961 118.152 13.1485 118.427 12.1086C118.609 11.4274 118.7 10.7177 118.7 9.97935C118.7 8.39866 118.321 7.10136 117.562 6.08743C116.589 4.78752 115.092 4.13757 113.069 4.13757C111.135 4.13757 109.674 4.84472 108.686 6.25902C107.916 7.36134 107.532 8.68724 107.532 10.2367C107.532 11.9422 107.976 13.3617 108.865 14.4952C109.874 15.6599 111.267 16.2423 113.046 16.2423C113.633 16.2423 114.174 16.1721 114.668 16.0317C115.167 15.8913 115.63 15.7041 116.056 15.4702L117.827 16.8195ZM114.138 14.7916C113.857 14.8332 113.555 14.854 113.233 14.854C111.891 14.854 110.872 14.4458 110.176 13.6295C109.484 12.8131 109.138 11.716 109.138 10.3381C109.138 8.70024 109.5 7.48873 110.222 6.70359C110.945 5.91324 111.925 5.51807 113.163 5.51807C114.385 5.51807 115.347 5.92884 116.049 6.75038C116.756 7.57192 117.109 8.65604 117.109 10.0027C117.109 10.6163 117.023 11.2585 116.852 11.9292C116.685 12.6 116.366 13.2057 115.893 13.7465L114.395 12.5844L113.615 13.5437L114.871 14.5264C114.663 14.6564 114.418 14.7448 114.138 14.7916Z" fill="#2F4256"/>
<path d="M71.6275 45.2944H65.4525V22.0894H79.1675V27.1269H71.6275V31.5469H78.5825V36.5844H71.6275V45.2944ZM82.1595 45.2944V22.0894H88.432V40.2244H97.3695V45.2944H82.1595ZM121.338 33.6594C121.338 35.4578 121.122 37.0936 120.688 38.5669C120.255 40.0186 119.583 41.2753 118.673 42.3369C117.763 43.3986 116.593 44.2111 115.163 44.7744C113.755 45.3378 112.054 45.6194 110.061 45.6194C108.111 45.6194 106.421 45.3378 104.991 44.7744C103.582 44.2111 102.412 43.3986 101.481 42.3369C100.571 41.2753 99.8882 40.0186 99.4332 38.5669C98.9999 37.0936 98.7832 35.4469 98.7832 33.6269C98.7832 31.2219 99.1841 29.1311 99.9857 27.3544C100.787 25.5561 102.022 24.1694 103.691 23.1944C105.359 22.2194 107.493 21.7319 110.093 21.7319C112.737 21.7319 114.882 22.2303 116.528 23.2269C118.197 24.2019 119.41 25.5886 120.168 27.3869C120.948 29.1636 121.338 31.2544 121.338 33.6594ZM105.381 33.6594C105.381 35.0461 105.532 36.2486 105.836 37.2669C106.161 38.2636 106.67 39.0328 107.363 39.5744C108.057 40.1161 108.956 40.3869 110.061 40.3869C111.209 40.3869 112.119 40.1161 112.791 39.5744C113.484 39.0328 113.982 38.2636 114.286 37.2669C114.589 36.2486 114.741 35.0461 114.741 33.6594C114.741 31.5578 114.394 29.9003 113.701 28.6869C113.007 27.4736 111.805 26.8669 110.093 26.8669C108.967 26.8669 108.057 27.1486 107.363 27.7119C106.67 28.2536 106.161 29.0336 105.836 30.0519C105.532 31.0486 105.381 32.2511 105.381 33.6594ZM155.174 22.0894L149.454 45.2944H142.044L139.834 35.1869C139.791 34.9919 139.726 34.6669 139.639 34.2119C139.553 33.7569 139.444 33.2369 139.314 32.6519C139.206 32.0669 139.108 31.4928 139.022 30.9294C138.935 30.3661 138.87 29.8894 138.827 29.4994C138.783 29.8894 138.708 30.3661 138.599 30.9294C138.513 31.4928 138.415 32.0669 138.307 32.6519C138.198 33.2369 138.09 33.7569 137.982 34.2119C137.895 34.6669 137.83 34.9919 137.787 35.1869L135.544 45.2944H128.134L122.382 22.0894H128.427L130.962 33.7244C131.027 34.0061 131.113 34.4178 131.222 34.9594C131.33 35.4794 131.438 36.0428 131.547 36.6494C131.677 37.2561 131.796 37.8519 131.904 38.4369C132.013 39.0003 132.088 39.4769 132.132 39.8669C132.218 39.2169 132.327 38.4694 132.457 37.6244C132.608 36.7794 132.771 35.9344 132.944 35.0894C133.118 34.2228 133.28 33.4211 133.432 32.6844C133.605 31.9478 133.746 31.3411 133.854 30.8644L135.902 22.0894H141.719L143.702 30.8644C143.81 31.3194 143.94 31.9261 144.092 32.6844C144.265 33.4211 144.438 34.2228 144.612 35.0894C144.785 35.9561 144.948 36.8119 145.099 37.6569C145.251 38.5019 145.359 39.2386 145.424 39.8669C145.489 39.3253 145.598 38.6536 145.749 37.8519C145.901 37.0503 146.053 36.2703 146.204 35.5119C146.356 34.7319 146.475 34.1469 146.562 33.7569L149.129 22.0894H155.174Z" fill="#192839"/>
<path d="M177.64 36.3265H171.924V42.1737H166.602V36.3265H160.886V31.3005H166.602V25.4204H171.924V31.3005H177.64V36.3265Z" fill="#192839"/>
<defs>
<filter id="filter0_d_103_11884" x="13" y="11.375" width="26" height="27.625" filterUnits="userSpaceOnUse" color-interpolation-filters="sRGB">
<feFlood flood-opacity="0" result="BackgroundImageFix"/>
<feColorMatrix in="SourceAlpha" type="matrix" values="0 0 0 0 0 0 0 0 0 0 0 0 0 0 0 0 0 0 127 0" result="hardAlpha"/>
<feOffset dy="1.625"/>
<feComposite in2="hardAlpha" operator="out"/>
<feColorMatrix type="matrix" values="0 0 0 0 0.0291667 0 0 0 0 0.35 0 0 0 0 0.241997 0 0 0 1 0"/>
<feBlend mode="normal" in2="BackgroundImageFix" result="effect1_dropShadow_103_11884"/>
<feBlend mode="normal" in="SourceGraphic" in2="effect1_dropShadow_103_11884" result="shape"/>
</filter>
</defs>
</svg>
