<svg width="60" height="60" viewBox="0 0 60 60" fill="none" xmlns="http://www.w3.org/2000/svg">
<path d="M37.3112 29.4978C37.6008 32.7611 35.0379 35.5001 31.8332 35.5001H24.5402C23.2734 35.5001 22.3751 34.2791 22.7528 33.0709C23.6731 30.1211 26.3021 25.4351 30.526 24.623C33.7435 24.0033 37.0215 26.2345 37.3112 29.4978ZM37.3735 22.7842C38.7302 23.8071 39.7183 25.184 40.327 26.7093L50.7018 15.5535C52.4306 13.8265 52.4343 11.0252 50.7073 9.29639C48.9821 7.5694 46.1845 7.56757 44.4575 9.29272C44.3988 9.35139 34.2404 21.2332 34.2404 21.2332C35.3569 21.554 36.4257 22.0692 37.3735 22.7842ZM38.5963 36.1894C36.8657 38.0814 34.3999 39.1686 31.835 39.1686H24.5421C22.7858 39.1686 21.1174 38.3252 20.0779 36.9136C19.0384 35.5019 18.7304 33.6576 19.2529 31.9819C20.5894 27.7066 24.0581 22.3955 29.4554 21.1378L37.5 11.6705H17.1666C12.1121 11.6669 8 15.779 8 20.8335V35.5001C8 40.5546 12.1121 44.6667 17.1666 44.6667H28.1666V48.3334H22.6666C21.6546 48.3334 20.8333 49.1528 20.8333 50.1667C20.8333 51.1805 21.6546 52 22.6666 52H37.3332C38.347 52 39.1665 51.1805 39.1665 50.1667C39.1665 49.1528 38.347 48.3334 37.3332 48.3334H31.8332V44.6667H42.8331C47.8876 44.6667 51.9998 40.5546 51.9998 35.5001V19.5227L40.833 31.5236C40.5397 33.2469 39.7917 34.8786 38.5963 36.1857V36.1894Z" fill="#4D7FFF"/>
</svg>
