<svg width="60" height="60" viewBox="0 0 60 60" fill="none" xmlns="http://www.w3.org/2000/svg">
<g clip-path="url(#clip0_2_8855)">
<path d="M22.6937 44.528C23.0117 48.404 24.3997 52 30.4457 52C36.4917 52 37.8837 48.396 38.2017 44.512C35.8717 44.874 33.2997 45.052 30.4177 45.052C27.5577 45.052 25.0037 44.878 22.6937 44.528Z" fill="#4D7FFF"/>
<path d="M30.448 8C19.522 8 13 14.55 13 25.522C13 35.056 18.708 38.898 22.11 40.338C22.146 40.354 23.99 40.884 28.486 41.02V29.944C27.298 29.526 26.122 28.726 24.93 27.528C24.15 26.746 24.154 25.48 24.936 24.7C25.72 23.918 26.984 23.922 27.766 24.706C29.826 26.776 30.982 26.874 33.136 24.706C33.92 23.924 35.182 23.92 35.966 24.7C36.748 25.48 36.752 26.746 35.972 27.528C35.138 28.364 33.968 29.396 32.488 29.93V41.016C37.318 40.778 38.76 40.338 38.788 40.326C42.174 38.884 47.858 35.042 47.858 25.522C47.858 14.388 41.51 8 30.448 8Z" fill="#4D7FFF"/>
</g>
<defs>
<clipPath id="clip0_2_8855">
<rect width="34.858" height="44" fill="white" transform="translate(13 8)"/>
</clipPath>
</defs>
</svg>
