<svg width="62" height="60" viewBox="0 0 62 60" fill="none" xmlns="http://www.w3.org/2000/svg">
<path d="M26.3333 22.7419H26.2957L23.9641 30.5829H28.7402L26.3333 22.7419ZM26.3333 22.7419H26.2957L23.9641 30.5829H28.7402L26.3333 22.7419ZM45.1367 8H15.9915C11.5726 8 8 11.5726 8 15.9915V44.0085C8 48.4273 11.5726 52 15.9915 52H45.1367C49.5556 52 53.1282 48.4273 53.1282 44.0085V15.9915C53.1282 11.5726 49.5556 8 45.1367 8ZM35.641 39.0821H31.7111C31.5795 39.1009 31.4479 39.0068 31.4103 38.8752L29.8684 34.4H22.8735L21.4444 38.8188C21.4068 38.988 21.2564 39.1009 21.0872 39.0821H17.5521C17.3453 39.0821 17.2889 38.9692 17.3453 38.7436L23.4 21.3128C23.4564 21.1248 23.5128 20.9179 23.588 20.6923C23.6632 20.2974 23.7009 19.8838 23.7009 19.4701C23.6821 19.3761 23.7573 19.2821 23.8513 19.2632H28.7214C28.8718 19.2632 28.947 19.3197 28.9658 19.4137L35.8291 38.7812C35.8855 38.988 35.8291 39.0821 35.641 39.0821ZM42.0342 38.8C42.0342 39.0068 41.959 39.1009 41.7897 39.1009H38.1043C37.9162 39.1009 37.8222 38.988 37.8222 38.8V24.3214C37.8222 24.1333 37.8974 24.0581 38.0667 24.0581H41.7897C41.959 24.0581 42.0342 24.1521 42.0342 24.3214V38.8ZM41.6393 21.8205C41.2068 22.2718 40.5675 22.5162 39.9282 22.4786C39.3077 22.4974 38.706 22.253 38.2547 21.8205C37.8222 21.3504 37.5966 20.7299 37.6154 20.0906C37.5966 19.4513 37.841 18.8496 38.2923 18.4171C38.7436 17.9846 39.3453 17.759 39.9658 17.759C40.6991 17.759 41.2632 17.9846 41.6769 18.4171C42.0906 18.8684 42.3162 19.4701 42.2974 20.0906C42.3162 20.7299 42.0906 21.3504 41.6393 21.8205ZM26.2957 22.7419L23.9641 30.5829H28.7402L26.3333 22.7419H26.2957Z" fill="#4D7FFF"/>
</svg>
