<svg width="30" height="29" viewBox="0 0 30 29" fill="none" xmlns="http://www.w3.org/2000/svg">
<ellipse cx="15.0161" cy="14.0938" rx="14.3387" ry="14" fill="#471303"/>
<path d="M17.7694 8.58887H12.2309C11.3743 8.58978 10.5531 8.93046 9.9474 9.53615C9.34172 10.1418 9.00104 10.9631 9.00012 11.8196V17.3581C9.00104 18.2147 9.34172 19.0359 9.9474 19.6416C10.5531 20.2473 11.3743 20.588 12.2309 20.5889H17.7694C18.6259 20.588 19.4472 20.2473 20.0528 19.6416C20.6585 19.0359 20.9992 18.2147 21.0001 17.3581V11.8196C20.9992 10.9631 20.6585 10.1418 20.0528 9.53615C19.4472 8.93046 18.6259 8.58978 17.7694 8.58887ZM15.0001 17.3581C14.4524 17.3581 13.917 17.1957 13.4616 16.8914C13.0062 16.5871 12.6513 16.1546 12.4417 15.6486C12.2321 15.1426 12.1773 14.5858 12.2841 14.0486C12.391 13.5114 12.6547 13.018 13.042 12.6307C13.4293 12.2434 13.9227 11.9797 14.4599 11.8728C14.9971 11.766 15.5539 11.8208 16.0599 12.0304C16.5659 12.24 16.9984 12.595 17.3027 13.0504C17.6069 13.5058 17.7694 14.0412 17.7694 14.5889C17.7686 15.3231 17.4766 16.027 16.9574 16.5462C16.4383 17.0653 15.7343 17.3573 15.0001 17.3581ZM18.4617 11.8196C18.3247 11.8196 18.1909 11.779 18.077 11.703C17.9632 11.6269 17.8745 11.5188 17.8221 11.3923C17.7697 11.2658 17.7559 11.1266 17.7827 10.9923C17.8094 10.858 17.8753 10.7346 17.9721 10.6378C18.0689 10.541 18.1923 10.475 18.3266 10.4483C18.4609 10.4216 18.6001 10.4353 18.7266 10.4877C18.8531 10.5401 18.9612 10.6289 19.0373 10.7427C19.1134 10.8566 19.154 10.9904 19.154 11.1273C19.154 11.3109 19.081 11.487 18.9512 11.6169C18.8214 11.7467 18.6453 11.8196 18.4617 11.8196ZM16.8463 14.5889C16.8463 14.954 16.738 15.3109 16.5351 15.6145C16.3323 15.9181 16.044 16.1548 15.7066 16.2945C15.3693 16.4342 14.9981 16.4708 14.64 16.3995C14.2818 16.3283 13.9529 16.1525 13.6947 15.8943C13.4365 15.6361 13.2607 15.3072 13.1894 14.949C13.1182 14.5909 13.1548 14.2197 13.2945 13.8824C13.4342 13.545 13.6709 13.2567 13.9745 13.0538C14.2781 12.851 14.635 12.7427 15.0001 12.7427C15.4898 12.7427 15.9593 12.9372 16.3055 13.2834C16.6518 13.6297 16.8463 14.0992 16.8463 14.5889Z" fill="white" fill-opacity="0.9"/>
</svg>
