<svg width="29" height="29" viewBox="0 0 29 29" fill="none" xmlns="http://www.w3.org/2000/svg">
<ellipse cx="14.3387" cy="14.0938" rx="14.3387" ry="14" fill="#471303"/>
<path d="M19.0769 7.58887H8.92308C8.67826 7.58887 8.44347 7.68612 8.27036 7.85923C8.09725 8.03234 8 8.26713 8 8.51194V18.6658C8 18.9106 8.09725 19.1454 8.27036 19.3185C8.44347 19.4916 8.67826 19.5889 8.92308 19.5889H19.0769C19.3217 19.5889 19.5565 19.4916 19.7296 19.3185C19.9027 19.1454 20 18.9106 20 18.6658V8.51194C20 8.26713 19.9027 8.03234 19.7296 7.85923C19.5565 7.68612 19.3217 7.58887 19.0769 7.58887ZM12.1538 16.3581C12.1538 16.4805 12.1052 16.5979 12.0187 16.6845C11.9321 16.771 11.8147 16.8196 11.6923 16.8196C11.5699 16.8196 11.4525 16.771 11.366 16.6845C11.2794 16.5979 11.2308 16.4805 11.2308 16.3581V12.6658C11.2308 12.5434 11.2794 12.426 11.366 12.3394C11.4525 12.2529 11.5699 12.2043 11.6923 12.2043C11.8147 12.2043 11.9321 12.2529 12.0187 12.3394C12.1052 12.426 12.1538 12.5434 12.1538 12.6658V16.3581ZM11.6923 11.7427C11.5554 11.7427 11.4215 11.7021 11.3077 11.626C11.1938 11.55 11.1051 11.4418 11.0527 11.3153C11.0003 11.1888 10.9866 11.0496 11.0133 10.9153C11.04 10.781 11.106 10.6577 11.2028 10.5609C11.2996 10.464 11.423 10.3981 11.5572 10.3714C11.6915 10.3447 11.8307 10.3584 11.9572 10.4108C12.0837 10.4632 12.1919 10.5519 12.2679 10.6658C12.344 10.7796 12.3846 10.9135 12.3846 11.0504C12.3846 11.234 12.3117 11.4101 12.1818 11.5399C12.052 11.6698 11.8759 11.7427 11.6923 11.7427ZM17.2308 16.3581C17.2308 16.4805 17.1821 16.5979 17.0956 16.6845C17.009 16.771 16.8916 16.8196 16.7692 16.8196C16.6468 16.8196 16.5294 16.771 16.4429 16.6845C16.3563 16.5979 16.3077 16.4805 16.3077 16.3581V14.2812C16.3077 13.9752 16.1861 13.6817 15.9697 13.4653C15.7534 13.2489 15.4599 13.1273 15.1538 13.1273C14.8478 13.1273 14.5543 13.2489 14.338 13.4653C14.1216 13.6817 14 13.9752 14 14.2812V16.3581C14 16.4805 13.9514 16.5979 13.8648 16.6845C13.7783 16.771 13.6609 16.8196 13.5385 16.8196C13.4161 16.8196 13.2987 16.771 13.2121 16.6845C13.1255 16.5979 13.0769 16.4805 13.0769 16.3581V12.6658C13.0775 12.5527 13.1195 12.4438 13.1951 12.3597C13.2706 12.2756 13.3744 12.2222 13.4868 12.2095C13.5991 12.1968 13.7122 12.2258 13.8045 12.291C13.8969 12.3562 13.9622 12.453 13.9879 12.5631C14.3001 12.3513 14.6641 12.2285 15.0409 12.208C15.4176 12.1875 15.7928 12.27 16.1262 12.4466C16.4596 12.6232 16.7385 12.8873 16.9331 13.2105C17.1278 13.5338 17.2306 13.9039 17.2308 14.2812V16.3581Z" fill="white" fill-opacity="0.9"/>
</svg>
