<svg width="105" height="42" viewBox="0 0 105 42" fill="none" xmlns="http://www.w3.org/2000/svg">
<path d="M10.1323 8.44046L0.774658 17.7981L10.1323 27.1557L19.4899 17.7981L10.1323 8.44046Z" fill="white"/>
<path d="M5.448 13.0789V22.5133L8.22283 19.7385L14.8824 22.5133V13.1643L12.1076 15.7684L5.448 13.0789Z" fill="#C1C1C1"/>
<path d="M26.4939 32.8881H104.958" stroke="#EBEBEB" stroke-width="0.149414" stroke-miterlimit="10"/>
<path d="M48.1365 36.56C48.35 37.243 48.5634 37.8407 48.7342 38.4383C48.9049 39.036 49.1611 39.5056 49.3318 39.9752C49.4599 39.4629 49.6306 38.8652 49.7587 38.1822C49.8868 37.4991 50.0575 36.7734 50.1856 36.005H50.6125C50.5271 36.4746 50.4418 36.9015 50.3564 37.2857C50.271 37.6699 50.1856 38.0541 50.1002 38.4383C50.0149 38.8225 49.9295 39.1214 49.8441 39.4629C49.7587 39.8044 49.6306 40.1032 49.5453 40.4447H49.0757C48.9903 40.1886 48.8622 39.9751 48.7769 39.719C48.6915 39.4629 48.5634 39.2067 48.478 38.9506C48.3926 38.6945 48.2646 38.4383 48.1792 38.1395C48.0938 37.8407 47.9658 37.5418 47.8804 37.243C47.795 37.5418 47.6669 37.8407 47.5815 38.1395C47.4962 38.4383 47.3681 38.6945 47.2827 38.9506C47.1973 39.2067 47.0693 39.4629 46.9839 39.719C46.8985 39.9751 46.7704 40.1886 46.6851 40.4447H46.2155C46.0874 40.1459 46.002 39.8044 45.9166 39.4629C45.8313 39.1214 45.7459 38.7798 45.6605 38.4383C45.5751 38.0968 45.4897 37.7126 45.4044 37.2857C45.319 36.9015 45.2336 36.4746 45.1909 36.005H45.6178C45.7032 36.3892 45.7459 36.7307 45.8313 37.1149C45.9166 37.4991 45.9593 37.8407 46.0447 38.1395C46.1301 38.4383 46.2155 38.7798 46.2582 39.0787C46.3009 39.3775 46.4289 39.6763 46.4716 39.8898L47.0693 38.3529C47.2827 37.798 47.4962 37.2003 47.7096 36.4746L48.1365 36.56Z" fill="#E0E0E0"/>
<path d="M51.252 38.7789C51.252 38.5228 51.2946 38.2667 51.38 38.0105C51.4654 37.7971 51.5508 37.6263 51.7215 37.4555C51.8496 37.3275 52.0204 37.1994 52.1911 37.114C52.3619 37.0286 52.5326 36.986 52.7034 37.0286C53.0876 37.0286 53.4291 37.1567 53.6853 37.4129C53.9414 37.7544 54.0695 38.1813 54.0268 38.6509C54.0268 38.6936 54.0268 38.7362 54.0268 38.7362C54.0268 38.7789 54.0268 38.8216 54.0268 38.8216H51.7215C51.7215 39.1631 51.8069 39.5047 52.0204 39.7608C52.2765 40.0169 52.5753 40.1023 52.9169 40.1023C53.0876 40.1023 53.2584 40.1023 53.4291 40.0169C53.5145 39.9742 53.6426 39.9742 53.728 39.9316L53.8133 40.2731C53.6853 40.3158 53.5999 40.3585 53.4718 40.4011C53.3011 40.4438 53.0876 40.4865 52.9169 40.4865C52.6607 40.4865 52.4046 40.4438 52.1911 40.3585C51.9777 40.2731 51.8069 40.145 51.6789 40.0169C51.5508 39.8462 51.4654 39.6754 51.38 39.462C51.2946 39.2485 51.2946 39.0351 51.252 38.7789ZM53.6426 38.5228C53.6426 38.224 53.5572 37.9678 53.3864 37.7117C53.2157 37.4982 53.0022 37.4129 52.7461 37.4129C52.618 37.4129 52.49 37.4555 52.3619 37.4982C52.2338 37.5409 52.1484 37.6263 52.0631 37.7544C51.9777 37.8398 51.8923 37.9678 51.8496 38.0959C51.8069 38.224 51.7642 38.3947 51.7642 38.5228H53.6426Z" fill="#E0E0E0"/>
<path d="M56.0764 37.0724C56.2472 37.0724 56.4606 37.115 56.6314 37.1577C56.7595 37.2004 56.8875 37.2858 57.0156 37.4139C57.101 37.5419 57.1863 37.67 57.229 37.7981C57.2717 37.9688 57.3144 38.1396 57.2717 38.2677V40.3168C57.229 40.3168 57.1437 40.3595 57.101 40.3595L56.8021 40.4022L56.4606 40.4448C56.3326 40.4448 56.2045 40.4448 56.0764 40.4448C55.9057 40.4448 55.7349 40.4449 55.6068 40.4022C55.4788 40.3595 55.3507 40.3168 55.2226 40.2314C55.0946 40.146 55.0092 40.0179 54.9665 39.8899C54.8811 39.7191 54.8811 39.5911 54.8811 39.4203C54.8811 39.2495 54.9238 39.1215 54.9665 38.9507C55.0519 38.8226 55.1372 38.6946 55.2653 38.6519C55.3934 38.5665 55.5215 38.4811 55.6922 38.4811C55.863 38.4384 56.0764 38.4384 56.2472 38.4384H56.4179C56.5033 38.4384 56.546 38.4384 56.5887 38.4811L56.7595 38.5238L56.8448 38.5665V38.3531C56.8448 38.225 56.8448 38.1396 56.8021 38.0115C56.8021 37.9262 56.7595 37.7981 56.6741 37.7127C56.6314 37.6273 56.546 37.5419 56.4179 37.4993C56.2899 37.4566 56.1191 37.4139 55.991 37.4139C55.8203 37.4139 55.6068 37.4139 55.4361 37.4566L55.1799 37.5419L55.1372 37.1577C55.2653 37.115 55.3507 37.0724 55.4788 37.0724C55.6922 37.0297 55.863 37.0297 56.0764 37.0724ZM56.0764 40.1033C56.2045 40.1033 56.3752 40.1033 56.5033 40.1033C56.5887 40.1033 56.7168 40.1033 56.8021 40.0606V38.908C56.7168 38.8653 56.6741 38.8653 56.5887 38.8653C56.4606 38.8226 56.2899 38.8226 56.1618 38.8226C56.0337 38.8226 55.9483 38.8226 55.8203 38.8653C55.6922 38.8653 55.6068 38.908 55.5214 38.9507C55.4361 38.9934 55.3507 39.0788 55.308 39.1642C55.2653 39.2495 55.2226 39.3776 55.2226 39.5057C55.2226 39.6337 55.2226 39.7191 55.2653 39.8045C55.308 39.8899 55.3507 39.9753 55.4361 40.018C55.5215 40.0606 55.6068 40.1033 55.6922 40.146C55.863 40.1033 55.991 40.146 56.0764 40.1033Z" fill="#E0E0E0"/>
<path d="M59.2786 40.5291C59.1505 40.5291 59.0225 40.5291 58.8944 40.4864C58.809 40.4437 58.7236 40.4011 58.6383 40.3584C58.5529 40.273 58.5102 40.1876 58.4675 40.1022C58.4248 39.9742 58.4248 39.8461 58.4248 39.718V35.6198L58.8517 35.5344V39.6753C58.8517 39.7607 58.8517 39.8461 58.8944 39.9315C58.8944 39.9742 58.9371 40.0595 58.9798 40.1022C59.0225 40.1449 59.0651 40.1876 59.1505 40.1876C59.2359 40.1876 59.2786 40.2303 59.364 40.2303L59.2786 40.5291Z" fill="#E0E0E0"/>
<path d="M60.5592 37.1576H61.8826V37.4992H60.5592V39.2494C60.5592 39.4202 60.5592 39.5483 60.6019 39.719C60.6446 39.8044 60.6873 39.8898 60.73 39.9752C60.7727 40.0605 60.858 40.1032 60.9434 40.1032C61.0288 40.1459 61.1142 40.1459 61.1996 40.1459C61.3276 40.1459 61.4984 40.1459 61.6265 40.1032C61.7118 40.0605 61.7972 40.0179 61.8826 39.9752L61.968 40.3167C61.8826 40.3594 61.7545 40.4021 61.6692 40.4447C61.4984 40.4874 61.3276 40.5301 61.1996 40.5301C61.0288 40.5301 60.8581 40.4874 60.6873 40.4447C60.5592 40.4021 60.4312 40.3167 60.3458 40.1886C60.2604 40.0605 60.175 39.9325 60.175 39.7617C60.1323 39.591 60.1323 39.3775 60.1323 39.2067V36.1758L60.5592 36.0904V37.1576Z" fill="#E0E0E0"/>
<path d="M62.7371 40.4449V35.5782L63.164 35.4929V37.2431C63.292 37.2004 63.4628 37.1578 63.5909 37.1151C63.7189 37.0724 63.8897 37.0724 64.0178 37.0724C64.2312 37.0724 64.4446 37.1151 64.6581 37.1578C64.8289 37.2431 64.9569 37.3285 65.085 37.4566C65.2131 37.5847 65.2558 37.7554 65.2984 37.9262C65.3411 38.1396 65.3411 38.3531 65.3411 38.5238V40.3595H64.9142V38.6519C64.9142 38.4384 64.9142 38.2677 64.8715 38.0542C64.8289 37.9262 64.7862 37.7981 64.7008 37.67C64.6154 37.5847 64.53 37.4993 64.402 37.4566C64.2312 37.4139 64.1031 37.3712 63.9324 37.3712C63.847 37.3712 63.7616 37.3712 63.6762 37.3712L63.4201 37.4139L63.2493 37.4566L63.1213 37.4993V40.3168L62.7371 40.4449Z" fill="#E0E0E0"/>
<path d="M68.7554 40.1458C68.9688 40.1458 69.1396 40.1031 69.353 40.0177C69.5238 39.9323 69.6092 39.8043 69.6092 39.6335C69.6092 39.5481 69.6092 39.4627 69.5665 39.4201C69.5238 39.3347 69.4811 39.292 69.4384 39.2493C69.353 39.2066 69.2676 39.1212 69.1823 39.1212L68.7981 38.9505C68.67 38.9078 68.5419 38.8651 68.4565 38.7797C68.3712 38.737 68.2431 38.6516 68.1577 38.6089C68.0723 38.5236 67.987 38.4382 67.9443 38.3528C67.9016 38.2247 67.8589 38.1394 67.8589 38.0113C67.8589 37.7552 67.9443 37.499 68.1577 37.3709C68.4139 37.2002 68.7127 37.1148 68.9688 37.1148C69.1396 37.1148 69.353 37.1148 69.5238 37.1575C69.6092 37.1575 69.7372 37.2002 69.8226 37.2429L69.7372 37.6271C69.6519 37.5844 69.5665 37.5417 69.4811 37.5417C69.3103 37.499 69.1396 37.4563 68.9688 37.499C68.8834 37.499 68.7981 37.499 68.7127 37.5417C68.6273 37.5417 68.5419 37.5844 68.4992 37.6271C68.4565 37.6698 68.3712 37.7125 68.3285 37.7978C68.2858 37.8832 68.2858 37.9259 68.2858 38.0113C68.2858 38.0967 68.2858 38.1821 68.3285 38.2247C68.3712 38.3101 68.4139 38.3528 68.4992 38.3955C68.5846 38.4382 68.67 38.4809 68.7554 38.5236L69.0969 38.6516L69.4811 38.8224C69.6092 38.8651 69.6945 38.9505 69.7799 38.9932C69.8653 39.0785 69.9507 39.1639 69.9934 39.2493C70.0361 39.3774 70.0788 39.5054 70.0788 39.6335C70.0788 39.8896 69.9507 40.1458 69.7372 40.3165C69.4811 40.4873 69.1396 40.5727 68.8407 40.53C68.6273 40.53 68.4139 40.53 68.1577 40.4446C68.0723 40.4019 67.9443 40.3592 67.8589 40.3165L67.9443 39.9323L68.0296 39.975C68.0723 40.0177 68.1577 40.0177 68.2004 40.0177C68.2858 40.0604 68.3712 40.0604 68.4565 40.0604C68.4992 40.1458 68.6273 40.1458 68.7554 40.1458Z" fill="#E0E0E0"/>
<path d="M70.7197 38.7789C70.7197 38.5228 70.7624 38.2667 70.8478 38.0105C70.9332 37.7971 71.0186 37.6263 71.1893 37.4555C71.3174 37.3275 71.4881 37.1994 71.6589 37.114C71.8297 37.0286 72.0004 36.986 72.1712 37.0286C72.5554 37.0286 72.8969 37.1567 73.153 37.4129C73.4092 37.7544 73.5372 38.1813 73.4946 38.6509C73.4946 38.6936 73.4946 38.7362 73.4946 38.7362C73.4946 38.7789 73.4946 38.8216 73.4946 38.8216H71.1466C71.1466 39.1631 71.232 39.5047 71.4455 39.7608C71.7016 40.0169 72.0004 40.1023 72.3419 40.1023C72.5127 40.1023 72.7261 40.1023 72.8969 40.0169C72.9823 39.9742 73.1104 39.9742 73.1957 39.9316L73.2811 40.2731C73.153 40.3158 73.0677 40.3585 72.9396 40.4011C72.7688 40.4438 72.5554 40.4865 72.3419 40.4865C72.0858 40.4865 71.8297 40.4438 71.6162 40.3585C71.4028 40.2731 71.232 40.145 71.1039 40.0169C70.9759 39.8462 70.8905 39.6754 70.8478 39.5047C70.7624 39.2912 70.7197 39.0351 70.7197 38.7789ZM73.0677 38.5655C73.0677 38.2667 72.9823 38.0105 72.8115 37.7544C72.6408 37.5409 72.4273 37.4555 72.1712 37.4555C72.0431 37.4555 71.915 37.4982 71.787 37.5409C71.6589 37.5836 71.5735 37.669 71.4881 37.7971C71.4028 37.8824 71.3174 38.0105 71.2747 38.1386C71.232 38.2667 71.1893 38.4374 71.1893 38.5655H73.0677Z" fill="#E0E0E0"/>
<path d="M74.9027 37.1566H76.2261V37.4981H74.9027V39.2484C74.9027 39.4191 74.9027 39.5472 74.9454 39.718C74.9881 39.8033 75.0308 39.8887 75.0735 39.9741C75.1162 40.0168 75.2016 40.1022 75.2869 40.1022C75.5004 40.1448 75.7565 40.1448 75.97 40.0595C76.0554 40.0168 76.1407 39.9741 76.2261 39.9314L76.3115 40.2729C76.2261 40.3156 76.098 40.3583 76.0127 40.401C75.8419 40.4437 75.6711 40.4864 75.5431 40.4864C75.3723 40.4864 75.2016 40.4437 75.0308 40.401C74.9027 40.3583 74.7747 40.2729 74.6893 40.1448C74.6039 40.0168 74.5185 39.8887 74.5185 39.718C74.4758 39.5472 74.4758 39.3337 74.4758 39.163V36.132L74.9027 36.0466V37.1566Z" fill="#E0E0E0"/>
<path d="M77.7636 40.1458C77.9771 40.1458 78.1905 40.1031 78.3613 40.0177C78.532 39.9323 78.6174 39.8043 78.6174 39.6335C78.6174 39.5481 78.6174 39.4627 78.5747 39.4201C78.532 39.3347 78.4894 39.292 78.4467 39.2493C78.3613 39.2066 78.2759 39.1212 78.1905 39.1212L77.8063 38.9505C77.6783 38.9078 77.5502 38.8651 77.4648 38.7797C77.3794 38.737 77.2514 38.6516 77.166 38.6089C77.0806 38.5236 76.9952 38.4382 76.9525 38.3528C76.9098 38.2247 76.8671 38.1394 76.8671 38.0113C76.8671 37.7552 76.9525 37.499 77.166 37.3709C77.4221 37.2002 77.7209 37.1148 77.9771 37.1148C78.1478 37.1148 78.3613 37.1148 78.5321 37.1575C78.6601 37.1575 78.7455 37.2002 78.8309 37.2429L78.7455 37.6271C78.6601 37.5844 78.5747 37.5417 78.4894 37.5417C78.3186 37.499 78.1478 37.4563 77.9771 37.499C77.8917 37.499 77.8063 37.499 77.7209 37.5417C77.6356 37.5417 77.5502 37.5844 77.5075 37.6271C77.4648 37.6698 77.3794 37.7125 77.3367 37.7978C77.294 37.8832 77.294 37.9259 77.294 38.0113C77.294 38.0967 77.294 38.1821 77.3367 38.2247C77.3794 38.3101 77.4221 38.3528 77.5075 38.3955C77.5929 38.4382 77.6783 38.4809 77.7636 38.5236L78.1052 38.6516L78.4894 38.8224C78.6174 38.8651 78.7028 38.9505 78.7882 38.9932C78.8736 39.0785 78.9589 39.1639 79.0016 39.2493C79.0443 39.3774 79.087 39.5054 79.087 39.6335C79.087 39.8896 78.9589 40.1458 78.7455 40.3165C78.4894 40.4873 78.1478 40.5727 77.849 40.53C77.6356 40.53 77.4221 40.53 77.166 40.4446C77.0379 40.4019 76.9525 40.4019 76.8245 40.3592L76.9098 39.975L76.9952 40.0177C77.0379 40.0604 77.1233 40.0604 77.166 40.0604C77.2514 40.1031 77.3367 40.1031 77.4221 40.1031C77.5075 40.1885 77.6356 40.1885 77.7636 40.1458Z" fill="#E0E0E0"/>
<path d="M82.4173 40.53C82.2892 40.2738 82.1611 40.0177 82.0331 39.7189C81.905 39.4201 81.7769 39.1639 81.6489 38.8651C81.5208 38.5663 81.4354 38.2674 81.35 38.0113C81.2646 37.7552 81.1793 37.4563 81.0939 37.1575H81.5208C81.5635 37.3709 81.6062 37.5844 81.6915 37.8405C81.7769 38.0967 81.8623 38.3101 81.9477 38.5663C82.0331 38.8224 82.1184 39.0785 82.2465 39.3347C82.3746 39.5908 82.46 39.847 82.6307 40.1031C82.7161 39.847 82.8015 39.5908 82.8869 39.3347C82.9722 39.0785 83.0149 38.8651 83.1003 38.6516C83.1857 38.4382 83.2284 38.1821 83.2711 37.9259C83.3138 37.6698 83.3991 37.4136 83.4418 37.1148H83.8687C83.7407 37.7125 83.5699 38.3528 83.3991 38.9078C83.2284 39.4627 83.0576 39.975 82.8442 40.53C82.7588 40.7007 82.6734 40.8715 82.588 41.0423C82.5027 41.1703 82.4173 41.2984 82.2892 41.3838C82.2038 41.4692 82.0758 41.5545 81.905 41.5972C81.7342 41.6399 81.5635 41.6826 81.4354 41.6399C81.35 41.6399 81.222 41.6399 81.1366 41.5972C81.0939 41.5972 81.0085 41.5545 80.9658 41.5545L81.0512 41.213C81.0939 41.2557 81.1366 41.2557 81.1793 41.2557C81.2646 41.2984 81.35 41.2984 81.4354 41.2984C81.5635 41.2984 81.6489 41.2984 81.7769 41.2557C81.8623 41.213 81.9477 41.1703 82.0331 41.1276C82.1184 41.0423 82.2038 40.9996 82.2465 40.8715C82.2892 40.7861 82.3746 40.6581 82.4173 40.53Z" fill="#E0E0E0"/>
<path d="M87.4541 38.8213C87.4541 39.0774 87.4114 39.2909 87.326 39.547C87.2407 39.7604 87.1553 39.9312 87.0272 40.1019C86.8991 40.23 86.7284 40.3581 86.5576 40.4435C86.1734 40.6142 85.7465 40.6142 85.3623 40.4435C85.1915 40.3581 85.0208 40.23 84.8927 40.1019C84.7646 39.9312 84.6366 39.7604 84.5939 39.547C84.5085 39.3335 84.4658 39.0774 84.4658 38.8213C84.4658 38.5651 84.5085 38.3517 84.5939 38.0955C84.6793 37.8821 84.7646 37.7113 84.8927 37.5406C85.0208 37.3698 85.1915 37.2844 85.3623 37.1991C85.7465 37.0283 86.1734 37.0283 86.5576 37.1991C86.7284 37.2844 86.8991 37.4125 87.0272 37.5406C87.1553 37.7113 87.2833 37.8821 87.326 38.0955C87.4114 38.309 87.4541 38.5651 87.4541 38.8213ZM87.0272 38.8213C87.0272 38.4797 86.9418 38.1382 86.7284 37.8394C86.3869 37.4125 85.7465 37.3698 85.3196 37.7113C85.2769 37.754 85.2342 37.7967 85.1915 37.8394C84.9781 38.1382 84.8927 38.4797 84.8927 38.8213C84.8927 39.1628 84.9781 39.5043 85.1915 39.8031C85.5331 40.23 86.1734 40.2727 86.643 39.9312C86.6857 39.8885 86.7284 39.8458 86.7711 39.8031C86.9418 39.5043 87.0272 39.1628 87.0272 38.8213Z" fill="#E0E0E0"/>
<path d="M90.9977 40.3581L90.4854 40.4862C90.2292 40.5289 89.9731 40.5716 89.717 40.5289C89.5035 40.5289 89.2901 40.4862 89.1193 40.4435C88.9486 40.3581 88.8205 40.2727 88.7351 40.1447C88.607 40.0166 88.5643 39.8458 88.5217 39.6751C88.479 39.4616 88.4363 39.2482 88.4363 39.0774V37.2418H88.8632V38.9493C88.8632 39.1628 88.8632 39.3336 88.9059 39.547C88.9486 39.6751 88.9912 39.8458 89.0766 39.9312C89.162 40.0166 89.2474 40.102 89.3755 40.1447C89.5035 40.1874 89.6743 40.23 89.845 40.23C90.0158 40.23 90.1866 40.23 90.3573 40.1874C90.4427 40.1874 90.5281 40.1447 90.6135 40.1447V37.2418H91.0403L90.9977 40.3581Z" fill="#E0E0E0"/>
<path d="M94.9686 35.4923C95.0967 35.4923 95.2674 35.4923 95.3955 35.535C95.4809 35.535 95.5236 35.5777 95.6089 35.6204L95.5236 35.9619C95.4382 35.9192 95.3955 35.9192 95.3101 35.8765C95.182 35.8339 95.0967 35.8339 94.9686 35.8339C94.7551 35.7912 94.499 35.8765 94.3283 36.0473C94.2002 36.2608 94.1148 36.5169 94.1575 36.773V37.1145H95.4809V37.4561H94.1575V40.4017H93.7306V36.7303C93.6879 36.3888 93.816 36.0473 94.0294 35.7485C94.2856 35.5777 94.6271 35.4497 94.9686 35.4923Z" fill="#E0E0E0"/>
<path d="M97.4012 37.071C97.5292 37.071 97.6573 37.071 97.7854 37.1137C97.8707 37.1137 97.9561 37.1564 98.0415 37.1564L97.9561 37.4979C97.8707 37.4552 97.8281 37.4552 97.7427 37.4552C97.6146 37.4552 97.4438 37.4125 97.3158 37.4125C97.1877 37.4125 97.017 37.4125 96.8889 37.4552C96.8035 37.4552 96.7608 37.4979 96.6754 37.4979V40.4008H96.2485V37.2417C96.3766 37.1991 96.5474 37.1564 96.6754 37.1137C96.8889 37.1137 97.145 37.071 97.4012 37.071Z" fill="#E0E0E0"/>
<path d="M98.5532 38.7789C98.5532 38.5228 98.5959 38.2667 98.6813 38.0105C98.7667 37.7971 98.8521 37.6263 99.0228 37.4555C99.1509 37.3275 99.3216 37.1994 99.4924 37.114C99.6632 37.0286 99.8339 36.986 100.005 37.0286C100.389 37.0286 100.73 37.1567 100.987 37.4129C101.243 37.7544 101.371 38.1813 101.328 38.6509C101.328 38.6936 101.328 38.7362 101.328 38.7362C101.328 38.7789 101.328 38.8216 101.328 38.8216H99.0228C99.0228 39.1631 99.1082 39.5047 99.3216 39.7608C99.5351 40.0169 99.8766 40.1023 100.218 40.1023C100.389 40.1023 100.602 40.1023 100.773 40.0169C100.858 39.9742 100.987 39.9742 101.072 39.9316L101.157 40.2731C101.072 40.3158 100.944 40.3585 100.816 40.4011C100.645 40.4438 100.432 40.4865 100.218 40.4865C99.962 40.4865 99.7059 40.4438 99.4924 40.3585C99.279 40.2731 99.1082 40.145 98.9801 40.0169C98.8521 39.8462 98.724 39.6754 98.6813 39.462C98.5959 39.2485 98.5959 39.0351 98.5532 38.7789ZM100.944 38.5228C100.944 38.224 100.858 37.9678 100.688 37.7117C100.517 37.4982 100.304 37.4129 100.047 37.4129C99.9193 37.4129 99.7912 37.4555 99.6632 37.4982C99.5351 37.5409 99.4497 37.6263 99.3643 37.7544C99.2789 37.8398 99.1936 37.9678 99.1509 38.0959C99.1082 38.224 99.0655 38.3947 99.0655 38.5228H100.944Z" fill="#E0E0E0"/>
<path d="M102.182 38.7789C102.182 38.5228 102.225 38.2667 102.31 38.0105C102.396 37.7971 102.481 37.6263 102.652 37.4555C102.78 37.3275 102.951 37.1994 103.122 37.114C103.292 37.0286 103.463 36.986 103.634 37.0286C104.018 37.0286 104.36 37.1567 104.616 37.4129C104.872 37.7544 105 38.1813 105 38.6509C105 38.6936 105 38.7362 105 38.7362C105 38.7789 105 38.8216 105 38.8216H102.695C102.695 39.1631 102.78 39.5047 102.993 39.7608C103.25 40.0169 103.548 40.1023 103.89 40.1023C104.061 40.1023 104.231 40.1023 104.402 40.0169C104.488 39.9742 104.616 39.9742 104.701 39.9316L104.786 40.2731C104.701 40.3158 104.573 40.3585 104.445 40.4011C104.274 40.4438 104.061 40.4865 103.847 40.4865C103.591 40.4865 103.335 40.4438 103.122 40.3585C102.908 40.2731 102.737 40.145 102.609 40.0169C102.481 39.8462 102.396 39.6754 102.31 39.462C102.225 39.2485 102.182 39.0351 102.182 38.7789ZM104.53 38.5228C104.53 38.224 104.445 37.9678 104.274 37.7117C104.103 37.4982 103.89 37.4129 103.634 37.4129C103.506 37.4129 103.378 37.4555 103.25 37.4982C103.122 37.5409 103.036 37.6263 102.951 37.7544C102.865 37.8398 102.78 37.9678 102.737 38.0959C102.695 38.224 102.652 38.3947 102.652 38.5228H104.53Z" fill="#E0E0E0"/>
<path d="M28.1588 19.6542C28.3722 20.0384 28.6283 20.508 28.9272 21.063C29.226 21.618 29.4821 22.2156 29.781 22.8133C30.0798 23.4109 30.3359 24.0513 30.6348 24.6916C30.9336 25.332 31.147 25.9296 31.4032 26.4419C31.6593 25.8869 31.8728 25.332 32.1716 24.6916C32.4704 24.0513 32.7266 23.4536 33.0254 22.8133C33.3242 22.1729 33.5804 21.618 33.8792 21.063C34.178 20.508 34.3915 20.0384 34.6049 19.6542H36.3125C36.3979 20.4227 36.4833 21.2338 36.5686 22.0875C36.654 22.9413 36.7394 23.8378 36.7821 24.7343C36.8248 25.6308 36.9102 26.5273 36.9528 27.4665C36.9955 28.4056 37.0382 29.2594 37.0809 30.1559H35.1599C35.1172 28.9179 35.0745 27.6799 35.0318 26.3565C34.9891 25.0331 34.9037 23.7951 34.7757 22.5998C34.6476 22.8133 34.5195 23.1121 34.3915 23.4109C34.2634 23.7098 34.0926 24.094 33.9219 24.4782L33.4096 25.6735L32.8973 26.8688C32.7266 27.253 32.5558 27.5945 32.4277 27.936C32.2997 28.2776 32.1716 28.5337 32.0862 28.7898H30.6775C30.5921 28.5764 30.464 28.2776 30.2932 27.936C30.1225 27.5945 29.9944 27.253 29.8237 26.8688L29.3114 25.6735C29.1406 25.2466 28.9699 24.8624 28.7991 24.5209C28.6283 24.1793 28.4576 23.7951 28.3295 23.4536C28.2015 23.1121 28.0307 22.856 27.9453 22.6425C27.8172 23.8378 27.7319 25.1185 27.6892 26.3992C27.6465 27.6799 27.6038 28.9606 27.5611 30.1986H25.5547C25.5974 29.3448 25.6401 28.4483 25.6828 27.5091C25.7254 26.57 25.8108 25.6308 25.8535 24.7343C25.8962 23.8378 25.9816 22.9413 26.067 22.0875C26.1523 21.2338 26.2377 20.4227 26.3231 19.6969L28.1588 19.6542Z" fill="#E0E0E0"/>
<path d="M44.8496 29.9421C44.5081 30.0274 44.0385 30.1128 43.4835 30.1982C42.8858 30.2836 42.2455 30.369 41.6052 30.3263C41.0502 30.3263 40.4952 30.2409 39.9829 30.0701C39.5987 29.8994 39.2145 29.6432 38.9584 29.3017C38.7023 28.9602 38.4888 28.576 38.4034 28.1491C38.2754 27.6795 38.2327 27.1672 38.2327 26.6549V22.2152H40.0683V26.3561C40.0256 26.9965 40.1537 27.6368 40.4525 28.1918C40.7514 28.576 41.2209 28.7894 41.7332 28.7467C41.9467 28.7467 42.2028 28.7467 42.459 28.704C42.6297 28.704 42.8432 28.6614 43.0139 28.6187V22.2152H44.8496V29.9421Z" fill="#E0E0E0"/>
<path d="M46.2153 20.1238L48.051 19.825V22.2156H50.8685V23.7524H48.051V26.9968C48.0083 27.4664 48.0937 27.936 48.3498 28.3629C48.606 28.6617 48.9902 28.8325 49.3744 28.7898C49.6732 28.7898 49.972 28.7471 50.2709 28.7044C50.527 28.619 50.7404 28.5763 50.8685 28.491L51.1673 29.9424C50.8685 30.0705 50.6124 30.1559 50.3135 30.1986C49.9293 30.2839 49.5024 30.3693 49.1182 30.3266C48.6486 30.3266 48.1791 30.2412 47.7095 30.0705C47.368 29.9424 47.0264 29.6863 46.813 29.3875C46.5995 29.0886 46.4288 28.7044 46.3434 28.3629C46.258 27.8933 46.2153 27.4237 46.2153 26.9541V20.1238Z" fill="#E0E0E0"/>
<path d="M58.3396 29.9421C57.998 30.0274 57.5285 30.1128 56.9735 30.1982C56.3758 30.2836 55.7355 30.369 55.0951 30.3263C54.5402 30.3263 53.9852 30.2409 53.4729 30.0701C53.0887 29.8994 52.7045 29.6432 52.4484 29.3017C52.1922 28.9602 51.9788 28.576 51.8934 28.1491C51.7653 27.6795 51.7227 27.1672 51.7227 26.6549V22.2152H53.5583V26.3561C53.5156 26.9965 53.6437 27.6368 53.9425 28.1918C54.2413 28.576 54.7109 28.7894 55.2232 28.7467C55.4367 28.7467 55.6928 28.7467 55.9063 28.704C56.077 28.704 56.2905 28.6614 56.4612 28.6187V22.2152H58.2969L58.3396 29.9421Z" fill="#E0E0E0"/>
<path d="M62.4375 22.0445C62.9498 22.0445 63.4621 22.1299 63.9744 22.2579C64.3586 22.386 64.7001 22.5995 64.9562 22.8983C65.2124 23.1971 65.3831 23.5386 65.4685 23.8802C65.5966 24.3071 65.6393 24.7339 65.6393 25.1608V29.9848C65.3404 30.0275 64.9135 30.1129 64.3586 30.1982C63.7182 30.2836 63.0779 30.3263 62.4375 30.3263C62.0106 30.3263 61.5411 30.2836 61.1142 30.1982C60.7726 30.1129 60.4311 29.9848 60.0896 29.7713C59.7908 29.5579 59.5773 29.3018 59.4492 29.0029C59.2785 28.6187 59.1931 28.2345 59.1931 27.8076C59.1931 27.4234 59.2785 26.9965 59.4492 26.655C59.62 26.3562 59.8762 26.0573 60.175 25.8866C60.5165 25.6731 60.858 25.5451 61.2422 25.4597C61.6691 25.3743 62.0533 25.3316 62.4802 25.3316C62.6937 25.3316 62.9071 25.3316 63.1206 25.3743C63.3767 25.417 63.5902 25.4597 63.8463 25.5024V25.2035C63.8463 24.9901 63.8036 24.7766 63.7609 24.6059C63.7182 24.4351 63.6328 24.2644 63.5048 24.0936C63.3767 23.9228 63.2059 23.8375 62.9925 23.7521C62.7364 23.6667 62.4802 23.624 62.2241 23.624C61.8399 23.624 61.4557 23.6667 61.0715 23.7094C60.7726 23.7521 60.5165 23.8375 60.2177 23.9228L60.0042 22.4287C60.3457 22.3006 60.6873 22.2579 61.0288 22.1726C61.4984 22.0872 61.9679 22.0445 62.4375 22.0445ZM62.6083 28.8749C63.0352 28.8749 63.4621 28.8749 63.889 28.7895V26.7404C63.7609 26.6977 63.5902 26.655 63.4621 26.655C63.2486 26.6123 63.0352 26.6123 62.8217 26.6123C62.6083 26.6123 62.3948 26.6123 62.2241 26.655C62.0106 26.6977 61.8399 26.7404 61.6691 26.8257C61.4984 26.9111 61.3703 27.0392 61.2849 27.1673C61.1995 27.338 61.1142 27.5088 61.1142 27.7222C61.0715 28.0637 61.2422 28.448 61.5411 28.6187C61.8826 28.8322 62.2668 28.9175 62.6083 28.8749Z" fill="#E0E0E0"/>
<path d="M69.8226 30.3258C69.3531 30.3258 68.9262 30.2831 68.4566 30.155C68.1577 30.0696 67.8589 29.8989 67.6028 29.6854C67.3893 29.472 67.2186 29.2158 67.1332 28.917C67.0478 28.5755 67.0051 28.234 67.0051 27.8498V18.7142L68.8408 18.4153V27.5083C68.8408 27.679 68.8408 27.8925 68.8835 28.0632C68.9262 28.3621 69.1396 28.6182 69.4384 28.7036C69.6519 28.7463 69.8226 28.789 70.0361 28.8316L69.8226 30.3258Z" fill="#E0E0E0"/>
<path d="M74.605 30.1559V19.6542H81.2219V21.2764H76.526V23.9659H80.7096V25.5881H76.526V30.1559H74.605Z" fill="#E0E0E0"/>
<path d="M88.1801 29.9421C87.8386 30.0274 87.369 30.1128 86.8141 30.1982C86.2164 30.2836 85.5761 30.369 84.9357 30.3263C84.3808 30.3263 83.8258 30.2409 83.3135 30.0701C82.9293 29.8994 82.5451 29.6432 82.289 29.3017C82.0328 28.9602 81.8194 28.576 81.734 28.1491C81.6059 27.6795 81.5632 27.1672 81.5632 26.6549V22.2152H83.3989V26.3561C83.3562 26.9965 83.4843 27.6368 83.7831 28.1918C84.0819 28.576 84.5515 28.7894 85.0638 28.7467C85.2772 28.7467 85.5334 28.7467 85.7895 28.704C85.9603 28.704 86.1737 28.6614 86.3445 28.6187V22.2152H88.1801V29.9421Z" fill="#E0E0E0"/>
<path d="M89.6731 22.4714C90.1427 22.3433 90.5696 22.2579 91.0392 22.1726C91.6795 22.0872 92.2772 22.0445 92.9175 22.0445C93.4725 22.0445 94.0275 22.1299 94.5397 22.3006C94.9239 22.4714 95.3081 22.7275 95.5643 23.0264C95.8204 23.3679 96.0339 23.7521 96.1192 24.179C96.2473 24.6486 96.29 25.1608 96.29 25.6731V30.1129H94.4543V25.9293C94.4543 25.5451 94.4117 25.2035 94.369 24.862C94.3263 24.6059 94.2409 24.3497 94.1128 24.1363C93.9848 23.9228 93.814 23.7948 93.6005 23.7094C93.3444 23.624 93.0883 23.5813 92.7894 23.5813C92.5333 23.5813 92.3199 23.5813 92.0637 23.624L91.5088 23.7094V30.1129H89.6731V22.4714Z" fill="#E0E0E0"/>
<path d="M104.402 29.9416C103.932 30.0696 103.506 30.155 103.036 30.2404C102.481 30.3258 101.883 30.3685 101.286 30.3685C100.731 30.3685 100.133 30.2831 99.5781 30.0696C99.1085 29.8989 98.6389 29.6001 98.2974 29.2585C97.9559 28.8743 97.6571 28.4474 97.4863 27.9778C97.2729 27.4229 97.1875 26.8679 97.1875 26.2703C97.1875 25.6726 97.2729 25.1176 97.4436 24.5627C97.5717 24.0931 97.8278 23.6235 98.1267 23.2393C98.4255 22.8551 98.8097 22.5989 99.2366 22.3855C99.7062 22.172 100.218 22.0867 100.731 22.0867C101.072 22.0867 101.414 22.1294 101.755 22.2147C102.011 22.3001 102.268 22.3855 102.524 22.5136V18.7142L104.359 18.4153L104.402 29.9416ZM99.1512 26.1849C99.1085 26.8679 99.322 27.5509 99.7062 28.0632C100.09 28.5328 100.688 28.789 101.286 28.7463C101.542 28.7463 101.798 28.7463 102.054 28.7036C102.225 28.7036 102.396 28.6609 102.566 28.6182V24.0504C102.353 23.9223 102.14 23.8369 101.926 23.7516C101.67 23.6662 101.371 23.6235 101.072 23.6235C100.517 23.5808 99.9623 23.8369 99.6208 24.3065C99.2793 24.9042 99.1085 25.5445 99.1512 26.1849Z" fill="#E0E0E0"/>
<path d="M32.9827 15.0439C32.6411 14.5316 32.2996 13.9339 31.9154 13.3363C31.5312 12.7386 31.1043 12.0983 30.6774 11.4579C30.2505 10.8176 29.8236 10.2199 29.3967 9.62227C28.9698 9.02461 28.5429 8.51234 28.1587 8.04275V15.0439H26.4084V5.31061H27.8599C28.2441 5.69482 28.6283 6.1644 29.0552 6.71937C29.4821 7.27433 29.909 7.8293 30.3786 8.38427C30.8482 8.93923 31.2324 9.53689 31.6593 10.1345C32.0862 10.7322 32.4277 11.2872 32.7692 11.7568V5.31061H34.5622V15.0866H32.9827V15.0439Z" fill="#E0E0E0"/>
<path d="M37.8067 5.52309C37.8067 5.82192 37.7214 6.07805 37.5079 6.2915C37.2945 6.46226 37.0383 6.59033 36.7822 6.59033C36.5261 6.59033 36.2272 6.50495 36.0138 6.2915C35.5869 5.86461 35.5869 5.18157 36.0138 4.75467C36.2272 4.58391 36.4834 4.49854 36.7395 4.49854C36.9956 4.49854 37.2945 4.58391 37.4652 4.79736C37.7214 4.96812 37.8067 5.26695 37.8067 5.52309ZM37.636 15.0856H35.9284V7.70027H37.636V15.0856Z" fill="#E0E0E0"/>
<path d="M45.5761 11.3722C45.5761 11.8845 45.4908 12.4395 45.3627 12.9091C45.2346 13.336 45.0212 13.7629 44.765 14.1044C44.5089 14.4459 44.1247 14.702 43.7405 14.8728C43.3136 15.0435 42.844 15.1716 42.3317 15.1716C41.9902 15.1716 41.6914 15.1289 41.3925 15.0435C41.1364 14.9582 40.8803 14.8728 40.6668 14.7447V17.6049H38.9592V7.91436C39.3007 7.82898 39.7276 7.7436 40.2399 7.65822C40.7522 7.57284 41.3072 7.53015 41.8621 7.53015C42.3744 7.53015 42.9294 7.61553 43.4416 7.78629C43.8685 7.95705 44.2954 8.21319 44.637 8.55471C44.9785 8.89622 45.2346 9.32312 45.4054 9.75002C45.5334 10.2623 45.6188 10.8173 45.5761 11.3722ZM43.8685 11.3722C43.9112 10.7319 43.6978 10.0915 43.3563 9.62195C42.9294 9.15236 42.3317 8.93891 41.6914 8.9816C41.5206 8.9816 41.3499 8.9816 41.1791 8.9816C41.0083 8.9816 40.8376 9.02429 40.6668 9.06698V13.2933C40.8376 13.4213 41.051 13.5067 41.2645 13.5921C41.5206 13.6775 41.7767 13.7202 42.0756 13.7202C42.5879 13.7629 43.1428 13.5067 43.4416 13.0798C43.7405 12.5675 43.8685 11.9699 43.8685 11.3722Z" fill="#E0E0E0"/>
<path d="M53.1323 11.3722C53.1323 11.8845 53.0469 12.4395 52.9188 12.9091C52.7908 13.336 52.5773 13.7629 52.2785 14.1044C52.0224 14.4459 51.6381 14.702 51.2539 14.8728C50.827 15.0435 50.3575 15.1716 49.8879 15.1716C49.5463 15.1716 49.2475 15.1289 48.9487 15.0435C48.6926 14.9582 48.4791 14.8728 48.223 14.7447V17.6049H46.5154V7.91436C46.8569 7.82898 47.2838 7.7436 47.7961 7.65822C48.3083 7.57284 48.8633 7.53015 49.4183 7.53015C49.9306 7.53015 50.4855 7.61553 50.9978 7.78629C51.4247 7.95705 51.8516 8.21319 52.1931 8.55471C52.5346 8.89622 52.7908 9.32312 52.9188 9.79271C53.0469 10.305 53.1323 10.8173 53.1323 11.3722ZM51.382 11.4149C51.4247 10.7746 51.2539 10.1342 50.8697 9.62195C50.4428 9.15236 49.8452 8.93891 49.2048 8.9816C49.0341 8.9816 48.8633 8.9816 48.6926 8.9816C48.5218 8.9816 48.351 9.02429 48.1803 9.06698V13.2933C48.351 13.4213 48.5645 13.5067 48.7779 13.5921C49.0341 13.6775 49.2902 13.7202 49.589 13.7202C50.1013 13.7629 50.6563 13.5067 50.9551 13.0798C51.2966 12.5675 51.4247 11.9699 51.382 11.4149Z" fill="#E0E0E0"/>
<path d="M60.731 11.3717C60.731 11.9267 60.6456 12.439 60.4749 12.9512C60.3041 13.4208 60.0907 13.805 59.7492 14.1892C59.4503 14.5308 59.0661 14.7869 58.6392 14.9577C58.1696 15.1711 57.7001 15.2565 57.1878 15.2565C56.6755 15.2565 56.2059 15.1711 55.7363 14.9577C55.3094 14.7869 54.9252 14.5308 54.6264 14.1892C54.2849 13.8477 54.0714 13.4208 53.9007 12.9512C53.7299 12.439 53.6445 11.884 53.6445 11.3717C53.6445 10.8167 53.7299 10.3045 53.9007 9.79219C54.0714 9.32261 54.3276 8.9384 54.6264 8.55419C54.9252 8.21267 55.3094 7.95653 55.7363 7.78577C56.2059 7.61502 56.6755 7.48695 57.1451 7.52964C57.6147 7.52964 58.1269 7.61502 58.5965 7.78577C59.0234 7.95653 59.4076 8.21267 59.7065 8.55419C60.0053 8.89571 60.2614 9.32261 60.4322 9.79219C60.6456 10.3045 60.731 10.8167 60.731 11.3717ZM58.9807 11.3717C59.0234 10.7741 58.8527 10.1337 58.5112 9.62143C57.9562 8.89571 56.8889 8.76764 56.1632 9.32261C56.0352 9.40799 55.9498 9.49336 55.8644 9.62143C55.5229 10.1337 55.3521 10.7314 55.3948 11.3717C55.3521 12.0121 55.5229 12.6097 55.8644 13.122C56.4194 13.8477 57.4866 13.9758 58.2123 13.4208C58.3404 13.3354 58.4258 13.2501 58.5112 13.122C58.8527 12.6097 59.0234 11.9694 58.9807 11.3717Z" fill="#E0E0E0"/>
<path d="M61.6272 7.91436C62.0541 7.78629 62.481 7.70091 62.9079 7.65822C63.5055 7.57284 64.0605 7.53015 64.6582 7.53015C65.1704 7.53015 65.6827 7.61553 66.1523 7.78629C66.5365 7.91436 66.878 8.1705 67.1342 8.46933C67.3903 8.76816 67.5611 9.15236 67.6465 9.53657C67.7745 10.0062 67.8172 10.4331 67.8172 10.9026V15.0435H66.1096V11.1588C66.1096 10.8173 66.1096 10.4757 66.0242 10.1342C65.9816 9.87809 65.8962 9.66464 65.7681 9.45119C65.64 9.28043 65.4693 9.15236 65.2985 9.06698C65.0424 8.9816 64.8289 8.93891 64.5728 8.93891C64.3593 8.93891 64.1032 8.93891 63.8898 8.9816L63.3775 9.06698V15.0009H61.6699L61.6272 7.91436Z" fill="#E0E0E0"/>
<path d="M71.5747 2.53545C71.9589 2.66352 72.3004 2.91966 72.5138 3.30387L73.1115 4.49918C73.1969 4.54187 73.2823 4.54187 73.3676 4.54187C73.453 4.54187 73.4957 4.54187 73.5811 4.49918C73.5811 4.37111 73.5811 4.24304 73.5811 4.11497C73.4103 3.73076 73.2823 3.34656 73.1542 2.91966C73.0261 2.53545 72.8981 2.15124 72.7273 1.76704C72.4712 1.42552 72.1723 1.16938 71.7881 1.04131C71.4893 0.913244 71.1478 0.785174 70.6782 0.657104H70.3367V0.870553C70.5928 1.42552 70.7636 1.85242 70.849 2.10856C71.0197 2.322 71.2758 2.49276 71.5747 2.53545Z" fill="white"/>
<path d="M71.5735 14.4448L73.0676 15.2559V7.57172H71.5735V14.4448Z" fill="white"/>
<path d="M79.2143 7.57172C78.4032 7.57172 77.6348 7.87055 76.9944 8.38282L76.1833 8.98048V7.91324H74.6465V14.4875L76.0979 15.2559V12.7799C76.0979 11.7126 76.3968 10.6881 76.9944 9.83427C77.6775 8.80972 78.4886 8.25475 79.5131 8.25475C80.8365 8.25475 81.5195 8.98048 81.5195 10.3892C81.5622 11.2857 81.3061 12.1822 80.7084 12.9079C80.3242 13.3775 79.8973 13.8044 79.4704 14.2313L81.178 15.2986C82.3306 14.0606 82.7575 12.9079 82.7575 11.5419C82.7575 10.5173 82.416 9.53545 81.7757 8.76703C81.2207 7.99861 80.2388 7.57172 79.2143 7.57172Z" fill="white"/>
<path d="M94.4548 2.53545C94.839 2.66352 95.1805 2.91966 95.4367 3.30387L95.9916 4.49918C96.077 4.54187 96.1624 4.54187 96.2478 4.54187C96.3758 4.54187 96.4185 4.54187 96.4612 4.49918C96.4612 4.37111 96.4612 4.24304 96.4612 4.11497C96.2905 3.73076 96.1624 3.34656 96.0343 2.91966C95.9063 2.53545 95.7782 2.15124 95.6074 1.76704C95.394 1.42552 95.0525 1.16938 94.6682 1.04131C94.284 0.870554 93.9425 0.742484 93.5583 0.657104H93.2168V0.870553C93.3876 1.29745 93.601 1.68166 93.7291 2.10856C93.8998 2.322 94.156 2.49276 94.4548 2.53545Z" fill="white"/>
<path d="M94.4558 14.4875L95.95 15.2986V7.57172H94.4558V14.4875Z" fill="white"/>
<path d="M104.957 6.46178V5.39454H92.4062C92.4488 3.77233 92.15 2.19281 91.5097 0.698669H89.6313C89.9728 1.25364 90.229 1.89398 90.4424 2.53433C90.6986 3.4735 90.7839 4.45537 90.7412 5.39454H70.4636V6.46178H90.7839V9.96234C89.9728 9.10855 89.5032 8.59627 89.2898 8.42551C88.7775 7.95592 88.0945 7.6571 87.3688 7.61441C86.3442 7.61441 85.405 8.084 84.8074 8.8951C84.167 9.66352 83.8682 10.3039 83.8682 10.9015C83.8682 11.5846 84.1243 12.2676 84.5512 12.8226C84.9354 13.3775 85.4477 13.8898 86.0027 14.3167C86.5577 14.7436 87.2407 14.9997 87.9237 15.0424C88.8629 15.0424 89.8021 14.4021 90.7412 13.1641V14.5728L92.3635 15.2559V6.46178H98.4681V8.76703L98.4254 8.80972L98.0839 9.10855V9.79158C98.4254 9.66352 98.7669 9.53545 99.1084 9.40738C99.9622 9.06586 100.816 8.8951 101.713 8.8951C102.054 8.85241 102.396 8.93779 102.737 9.06586C103.036 9.23662 103.292 9.45007 103.505 9.7489V10.4746C102.908 10.0477 102.182 9.83427 101.456 9.87696C100.133 9.83427 98.8523 10.3466 97.9558 11.2857C97.5289 11.6699 97.2728 12.1822 97.2301 12.7372C97.2301 13.1641 97.4008 13.591 97.6997 13.9325C98.3827 14.7009 99.3646 15.0851 100.389 15.0424C101.158 15.0424 101.926 14.9144 102.609 14.5728C102.822 14.4875 103.079 14.3594 103.377 14.1459C103.463 14.1886 103.505 14.4875 103.505 14.6582C104.317 14.9997 104.786 15.1705 104.914 15.2559V11.7553C104.914 10.2612 104.786 9.23662 104.53 8.72434C104.146 7.99862 103.292 7.61441 101.969 7.61441C101.627 7.61441 101.328 7.6571 100.987 7.69979C100.56 7.78517 100.133 7.87055 99.7061 7.95592C99.7061 7.91324 99.6634 7.91324 99.6207 7.91324V6.46178H104.957ZM89.674 12.0541C89.3325 12.5237 88.9483 12.9506 88.4787 13.2921C88.0091 13.719 87.4114 13.9752 86.7711 14.0179C86.2588 14.0179 85.7892 13.7617 85.5331 13.3348C85.2343 12.9079 85.1062 12.4383 85.1062 11.9261C85.1062 10.9442 85.7039 10.0904 86.8565 9.36469C87.2407 9.06586 87.7103 8.8951 88.1799 8.85241C88.6921 8.85241 89.1617 8.98048 89.5886 9.27931C90.0155 9.53544 90.3144 9.96234 90.357 10.4746C90.2717 11.0723 90.0582 11.6272 89.674 12.0541ZM102.353 13.2068C101.456 13.7617 100.389 14.0606 99.3219 14.0179C98.4681 14.0179 97.9558 13.8044 97.8704 13.3775C97.9131 13.036 98.0839 12.7372 98.34 12.481C99.0657 11.5846 100.176 11.0723 101.328 11.115C101.755 11.115 102.182 11.2003 102.609 11.3711C103.249 11.5846 103.548 11.798 103.548 12.0968C103.548 12.353 103.121 12.7372 102.353 13.2068Z" fill="white"/>
</svg>
