<svg width="98" height="36" viewBox="0 0 98 36" fill="none" xmlns="http://www.w3.org/2000/svg">
<path d="M0.292969 35.4999H97.5385V0.814819H0.292969V35.4999Z" fill="white"/>
<path d="M7.58122 8.12873H27.5188V28.1194H7.58122V8.12873ZM29.2046 6.44293H5.90869V29.792H29.1913V6.44293H29.2046Z" fill="#2243B6"/>
<path d="M9.78418 14.2222H25.3148V10.3329H9.78418V14.2222ZM9.78418 25.9033H13.6602V22.0008H9.78418V25.9033ZM9.78418 20.0628H19.4742V16.1602H9.78418V20.0628Z" fill="#2243B6"/>
<path d="M39.0526 11.6589V16.6898H40.4463C41.9728 16.6898 42.3312 16.1057 42.3312 14.1544C42.3312 12.0704 42.1056 11.6589 40.2738 11.6589H39.0526ZM40.6587 10.3448C43.0613 10.3448 43.9241 11.3934 43.9241 14.1279C43.9241 16.7694 43.0082 17.9906 40.6454 17.9906H37.4729V10.3448H40.6587ZM34.4199 17.9906H35.9995V10.3448H34.4199V17.9906ZM45.1586 10.3448H50.5213V11.6589H46.7249V13.4509H50.0435V14.7651H46.7249V18.0039H45.1453L45.1586 10.3448ZM57.8751 15.4819C57.7689 16.9818 56.946 18.1765 54.5832 18.1765C52.2868 18.1765 51.1187 17.0349 51.1187 14.2208C51.1187 11.4598 52.2204 10.1855 54.5832 10.1855C56.4548 10.1855 57.6097 10.982 57.8619 12.7341H56.2823C56.0964 12.0572 55.884 11.5262 54.5832 11.5262C53.2823 11.5262 52.7115 12.3094 52.7115 14.3536C52.7115 15.9464 53.1363 16.8358 54.6097 16.8358C55.6716 16.8358 56.1628 16.5039 56.2955 15.4951H57.8751V15.4819ZM62.0697 10.3448H67.4324V11.6589H63.6493V13.4509H66.9678V14.7651H63.6493V18.0039H62.0697V10.3448ZM68.4678 17.9906H70.0474V10.3448H68.4678V17.9906ZM73.1004 11.6589V13.6766H74.5208C75.7818 13.6766 76.2198 13.5438 76.2198 12.5881C76.2198 11.8182 75.9544 11.6589 74.627 11.6589H73.1004ZM71.5208 10.3448H74.8393C76.4322 10.3448 77.8127 10.3846 77.8127 12.6412C77.8127 14.1412 77.1889 14.6854 76.326 14.8978L78.3171 18.0039H76.3924L74.5208 14.9907H73.1004V18.0039H71.5208V10.3448ZM80.295 15.588C80.3613 16.3845 80.4808 16.8093 81.994 16.8093C82.7905 16.8093 83.3745 16.6898 83.3745 15.9066C83.3745 15.442 83.1622 15.1765 82.4852 15.004L80.6268 14.4996C79.6976 14.2474 78.8747 13.8093 78.8747 12.4023C78.8747 11.3005 79.3791 10.1457 81.7418 10.1457C83.9852 10.1457 84.6887 11.1943 84.7285 12.5616H83.1622C83.0825 11.9244 83.056 11.4996 81.6887 11.4996C80.8923 11.4996 80.4808 11.6457 80.4808 12.2563C80.4808 12.8138 80.8127 12.9731 81.2507 13.0925L82.9498 13.5571C84.0382 13.8491 84.9542 14.2739 84.9542 15.8004C84.9542 17.9508 83.1091 18.1632 81.9675 18.1632C79.472 18.1632 78.795 17.1809 78.7021 15.588H80.295ZM87.6488 11.6855H85.3524V10.3448H91.5248V11.6855H89.2417V17.9906H87.6621V11.6855H87.6488ZM35.9995 26.1143V28.132H37.4199C38.8534 28.132 39.172 28.0258 39.172 27.1497C39.172 26.2338 38.88 26.1143 37.7252 26.1143H35.9995ZM35.9995 23.1011V24.8002H37.765C38.7074 24.8002 38.9464 24.6808 38.9464 23.8976C38.9464 23.2604 38.8004 23.1011 37.4729 23.1011H35.9995ZM38.1499 21.787C39.6499 21.787 40.4729 22.318 40.4729 23.7781C40.4729 24.9595 39.9286 25.2117 39.5968 25.3445C40.5392 25.7161 40.7649 26.4329 40.7649 27.2294C40.7649 28.4904 40.1941 29.4329 38.0836 29.4329H34.4199V21.7737L38.1499 21.787ZM45.1321 26.8444L44.0967 27.017C43.5259 27.0966 43.1277 27.2161 43.1277 27.8134C43.1277 28.2382 43.3401 28.4771 44.0038 28.4771C44.9064 28.4771 45.1321 27.986 45.1321 27.2957V26.8444ZM41.8136 25.517C41.8932 24.0701 42.7162 23.6719 44.2294 23.6719C45.7825 23.6719 46.6055 24.0834 46.6055 25.3179V29.4329H45.1984V29.0081C44.9064 29.3001 44.3622 29.5789 43.4728 29.5789C42.1321 29.5789 41.6543 28.9815 41.6543 28.0258C41.6543 26.7781 42.464 26.3002 43.287 26.1807L45.1453 25.8887V25.5436C45.1453 25.0126 44.8799 24.8666 44.1896 24.8666C43.4595 24.8666 43.3002 25.0392 43.2339 25.517H41.8136ZM51.5169 26.2073C51.5169 25.3445 51.5036 24.8931 50.5611 24.8931C49.4992 24.8931 49.393 25.4506 49.393 26.778V29.4461H47.9196V23.8179H49.3267V24.548C49.7249 24.0038 50.1629 23.6852 51.1983 23.6852C52.6319 23.6852 53.0036 24.3091 53.0036 26.0082V29.4461H51.5169V26.2073ZM54.4239 21.787H55.8973V25.902L57.7158 23.8179H59.5344L57.5698 25.9551L59.614 29.4461H57.9017L56.5345 27.0037L55.8973 27.6674V29.4461H54.4106L54.4239 21.787Z" fill="#2243B6"/>
</svg>
