<svg width="109" height="33" viewBox="0 0 109 33" fill="none" xmlns="http://www.w3.org/2000/svg">
<path fill-rule="evenodd" clip-rule="evenodd" d="M12.9926 18.534C16.3117 19.6773 19.1459 20.3772 19.1459 24.0013C19.1459 24.4448 19.0974 24.9345 19.0004 25.4703C18.1342 30.6605 13.928 32.1087 8.83492 32.1087C6.3334 32.1087 3.27061 31.8038 0.928467 31.2217L2.00252 27.6185C3.75566 27.9511 6.2849 28.249 8.10733 28.249C9.95748 28.249 13.4846 28.2975 13.928 25.6574C13.9765 25.4495 13.9973 25.2625 13.9973 25.0754C13.9973 23.0381 11.8492 22.8302 9.95748 22.2204C6.74917 21.2434 3.68637 20.398 3.68637 16.7116C3.68637 16.305 3.72564 15.8592 3.80417 15.3742C4.62184 10.4474 8.46073 9.04071 13.0619 9.04071C16.291 9.04071 18.8618 9.30403 21.5504 9.90689L20.4763 13.434C18.7232 13.0875 16.4781 12.8311 14.42 12.8311C12.5283 12.8311 9.18139 12.8311 8.8072 15.1178C8.77948 15.261 8.76563 15.4019 8.76563 15.5405C8.76563 17.5292 11.2879 17.9242 12.9926 18.534Z" fill="white"/>
<path fill-rule="evenodd" clip-rule="evenodd" d="M41.0497 26.0524C40.8141 27.5283 40.5092 28.8103 40.1628 30.1684C37.3078 31.5959 33.7808 32.1572 29.4291 32.1572C23.9618 32.1572 21.689 30.3555 21.689 26.8493C21.689 26.3365 21.7375 25.7544 21.8345 25.1446C22.4858 21.2157 24.6617 18.7626 29.2628 18.1113C31.8821 17.7371 34.737 17.6193 37.6127 17.5292C37.6913 17.058 37.7305 16.6215 37.7305 16.2196C37.7305 13.9744 36.4694 12.8311 33.4482 12.8311C30.6695 12.8311 26.8375 13.2746 24.4053 13.5794L25.5279 9.97616C28.0987 9.56039 31.1337 9.08919 34.5499 9.08919C39.158 9.08919 42.8514 10.191 42.8514 14.5565C42.8514 15.0485 42.8029 15.5613 42.7059 16.1503L41.0497 26.0524ZM26.7474 25.0684C26.6989 25.4218 26.6504 25.7198 26.6504 26.0039C26.6504 28.0342 28.1472 28.5747 30.7457 28.5747C32.2632 28.5747 34.1758 28.4569 35.7487 27.8055C36.0051 26.8908 36.2338 25.796 36.4001 24.7912L37.1 20.6544C35.0211 20.7237 32.6374 20.7652 30.6695 21.1879C28.168 21.7284 27.1909 22.4491 26.7474 25.0684ZM52.1576 31.8454H47.203L50.2866 13.5725H45.7548L46.8496 9.97616H50.8964L51.3191 7.23904C52.0398 2.8943 54.8462 0.413574 59.7106 0.413574C60.5768 0.413574 62.517 0.57988 63.4525 0.718468L62.42 4.03765C62.42 4.03765 60.7639 3.94064 60.0848 3.96836C58.0753 4.01687 56.6686 4.97312 56.2944 7.10045L55.8509 9.97616H60.5976L59.4958 13.5725H55.2411L52.1576 31.8454Z" fill="white"/>
<path fill-rule="evenodd" clip-rule="evenodd" d="M79.4872 26.0525C79.2516 27.5285 78.9467 28.8104 78.5933 30.1686C75.7661 31.5961 72.2113 32.1573 67.8666 32.1573C62.3924 32.1573 60.1265 30.3557 60.1265 26.8494C60.1265 26.3366 60.175 25.7546 60.2928 25.1448C60.9441 21.2158 63.12 18.7628 67.7003 18.1114C70.3404 17.7373 73.1745 17.6195 76.071 17.5294C76.1496 17.0582 76.1888 16.6216 76.1888 16.2197C76.1888 13.9746 74.9 12.8312 71.8857 12.8312C69.107 12.8312 65.8779 13.1084 63.4664 13.3925L64.5197 9.95553C67.0905 9.56055 69.592 9.08935 72.9874 9.08935C77.5886 9.08935 81.2819 10.1911 81.2819 14.5567C81.2819 15.0486 81.2404 15.5614 81.1434 16.1504L79.4872 26.0525ZM65.178 25.0686C65.1364 25.422 65.1087 25.7199 65.1087 26.004C65.1087 28.0344 66.5847 28.5748 69.204 28.5748C70.7215 28.5748 72.6133 28.457 74.207 27.8057C74.4634 26.891 74.6713 25.7962 74.8584 24.7914L75.5375 20.6545C73.4794 20.7238 71.0749 20.7654 69.107 21.1881C66.6055 21.7286 65.6215 22.4492 65.178 25.0686ZM82.5708 31.8455L85.3564 15.1872C85.6128 13.6905 85.8969 12.4016 86.2434 11.0504C89.0706 9.64371 92.6739 9.08242 95.7159 9.08242C96.4851 9.08242 97.4205 9.15172 98.0996 9.22794L96.9285 12.9906C96.4366 12.9421 95.7367 12.8936 95.0853 12.8936C93.5886 12.8936 91.7869 13.15 90.7129 13.642C90.4565 14.5497 90.2209 15.6515 90.0546 16.6563L87.5045 31.8455H82.5708ZM106.699 9.38732L102.936 31.8455H97.9541L101.724 9.38732H106.699ZM108.286 3.33795C108.009 5.06337 106.394 6.49083 104.641 6.49083C102.888 6.49083 101.696 5.06337 101.952 3.33795C102.23 1.58481 103.865 0.157349 105.597 0.157349C107.35 0.157349 108.542 1.58481 108.286 3.33795Z" fill="white"/>
</svg>
