<svg width="60" height="41" viewBox="0 0 60 41" fill="none" xmlns="http://www.w3.org/2000/svg">
<path d="M55.3894 40.1384C52.6023 40.1384 50.9492 38.722 50.8228 36.682H53.4877C53.4877 37.362 53.8672 38.2672 55.5159 38.3235C56.6586 38.3235 57.291 37.6435 57.291 37.1324C57.1645 36.3398 56.1483 36.2834 55.1364 36.1101C54.2219 36.0028 53.3258 35.7756 52.4715 35.4344C52.0371 35.1929 51.6774 34.8382 51.4314 34.4084C51.1854 33.9786 51.0624 33.4901 51.0758 32.9959C51.0758 31.181 52.6023 29.7646 55.2629 29.7646C57.8014 29.7646 59.45 31.0684 59.5722 33.0522H57.0381C57.0381 32.5454 56.9116 31.6921 55.3894 31.6921C54.3731 31.6921 53.7407 31.861 53.6142 32.5973C53.6142 33.6195 55.7688 33.5634 57.4175 33.9575C58.9397 34.356 59.956 35.3176 59.956 36.682C59.956 39.1768 57.9278 40.1384 55.3894 40.1384Z" fill="white"/>
<path d="M6.82874 23.3986L15.5782 18.3524L20.2714 26.3484H8.47762" fill="white"/>
<path d="M25.229 39.8358V29.7437V39.8358Z" fill="white"/>
<path d="M25.229 39.8358V29.7437" stroke="white" stroke-width="2.56035"/>
<path d="M2.7676 34.9407C2.7676 36.526 4.16331 37.8297 5.68115 37.8297C7.33421 37.8297 8.59907 36.526 8.59907 34.9407C8.59907 33.4117 7.33421 32.0517 5.68115 32.0517C4.91745 32.0775 4.19206 32.39 3.65132 32.9262C3.11059 33.4624 2.79477 34.1823 2.7676 34.9407ZM5.55467 40.1558C2.7676 40.1558 0.359985 37.8298 0.359985 34.9407C0.359985 32.0517 2.7676 29.782 5.55467 29.782C6.69741 29.782 7.71366 30.0679 8.59907 30.6873V29.8946H11.1375V39.9262H8.59907V39.3024C7.84015 39.8698 6.69741 40.1558 5.55467 40.1558Z" fill="white"/>
<path d="M39.42 26.3447L27.2466 5.25944L35.9962 0.157043L51.2139 26.3447" fill="white"/>
<path d="M14.4359 34.9381C14.4359 36.5234 15.7052 37.8271 17.3538 37.8271C18.8717 37.8271 20.2718 36.5234 20.2718 34.9381C20.2435 34.1793 19.9268 33.4594 19.3853 32.9233C18.8439 32.3873 18.118 32.0749 17.3538 32.0491C16.5825 32.0525 15.8436 32.3577 15.2974 32.8985C14.7512 33.4393 14.4417 34.1721 14.4359 34.9381ZM17.2274 40.1531C16.5399 40.1543 15.859 40.0198 15.2242 39.7575C14.5895 39.4952 14.0135 39.1103 13.5298 38.6251C13.0461 38.1399 12.6643 37.5641 12.4066 36.9312C12.1488 36.2982 12.0202 35.6208 12.0283 34.9381C12.0283 32.049 14.3094 29.7793 17.2274 29.7793C18.3657 29.7793 19.382 30.0653 20.2718 30.6847V26.4355H22.8059V39.9235H20.2718V39.2998C19.3626 39.8732 18.3043 40.1699 17.2274 40.1531Z" fill="white"/>
<path d="M17.1002 14.3846L25.9764 9.39923L35.7418 26.3437H26.4822V28.8386H23.9481V26.3437" fill="white"/>
<path d="M58.3127 28.9192C57.9814 28.9096 57.6661 28.7755 57.4305 28.5439C57.1949 28.3124 57.0566 28.0007 57.0435 27.6718C57.0566 27.3429 57.1949 27.0312 57.4305 26.7996C57.6661 26.5681 57.9814 26.434 58.3127 26.4243C58.4795 26.4196 58.6456 26.4486 58.8009 26.5095C58.9562 26.5703 59.0974 26.6617 59.216 26.7783C59.3347 26.8949 59.4283 27.0343 59.4912 27.1878C59.5541 27.3414 59.5849 27.506 59.5819 27.6718C59.5849 27.8375 59.5541 28.0021 59.4912 28.1557C59.4283 28.3092 59.3347 28.4486 59.216 28.5652C59.0974 28.6818 58.9562 28.7733 58.8009 28.8342C58.6456 28.895 58.4795 28.9239 58.3127 28.9192ZM58.3127 26.5976C57.6759 26.5976 57.2964 27.1043 57.2964 27.6718C57.2964 28.2392 57.6759 28.7502 58.3127 28.7502C58.9451 28.7502 59.3246 28.2392 59.3246 27.6718C59.3246 27.1043 58.9451 26.5976 58.3127 26.5976Z" fill="white"/>
<path d="M58.575 28.3562L58.322 27.7887H58.0691V28.3562H57.8772V26.996H58.4485C58.575 26.996 58.828 27.1693 58.828 27.3946C58.8323 27.4782 58.8103 27.5612 58.7649 27.6318C58.7196 27.7025 58.6532 27.7573 58.575 27.7887L58.828 28.3562M58.322 27.1693H58.0691V27.6198H58.322C58.575 27.6198 58.575 27.5635 58.575 27.3946C58.575 27.2776 58.575 27.1693 58.322 27.1693ZM41.5648 34.9399C41.5648 36.5252 42.834 37.8289 44.4827 37.8289C46.0049 37.8289 47.3962 36.5252 47.3962 34.9399C47.3701 34.1812 47.0546 33.4606 46.5136 32.9242C45.9727 32.3878 45.2467 32.0757 44.4827 32.0509C43.7113 32.0543 42.9725 32.3595 42.4262 32.9003C41.88 33.4411 41.5705 34.1739 41.5648 34.9399ZM44.3518 40.1549C43.6647 40.1556 42.9842 40.0207 42.35 39.7581C41.7158 39.4956 41.1403 39.1104 40.6571 38.6253C40.1739 38.1402 39.7924 37.5647 39.535 36.932C39.2775 36.2994 39.1491 35.6222 39.1571 34.9399C39.1571 32.0508 41.4383 29.7811 44.3518 29.7811C45.4946 29.7811 46.5108 30.0671 47.3962 30.6865V29.8938H49.8082V39.9253H47.3962V39.3016C46.4876 39.8761 45.4289 40.173 44.3518 40.1549ZM29.9062 34.9399C29.9062 36.5252 31.3019 37.8289 32.8241 37.8289C34.4728 37.8289 35.742 36.5252 35.742 34.9399C35.7362 34.1739 35.4267 33.4411 34.8805 32.9003C34.3343 32.3595 33.5954 32.0543 32.8241 32.0509C32.0596 32.0756 31.3331 32.3876 30.7915 32.9239C30.2498 33.4602 29.9334 34.1808 29.9062 34.9399ZM35.742 26.4373H38.2761V39.9253H35.742V39.3016C34.8873 39.8908 33.8639 40.1901 32.8241 40.1549C29.9061 40.1549 27.4985 37.8289 27.4985 34.9399C27.4985 32.0508 29.9061 29.7811 32.8241 29.7811C33.9624 29.7811 34.9787 30.0671 35.742 30.6865V26.4373Z" fill="white"/>
</svg>
