<svg width="136" height="25" viewBox="0 0 136 25" fill="none" xmlns="http://www.w3.org/2000/svg">
<path d="M48.5964 24.0255C43.7125 24.0255 39.1789 22.5609 36.1527 19.8446C33.8664 17.7925 32.7678 15.0051 32.7678 12.1362C32.7678 9.30223 33.9138 6.49559 36.1524 4.4543C38.9628 1.89294 43.9247 0.288879 48.5964 0.288879C53.7662 0.288879 57.904 1.59108 61.0672 4.46134C63.3178 6.50371 64.4058 9.2979 64.4058 12.1365C64.4058 14.8879 63.2512 17.818 61.0672 19.8446C58.1217 22.5785 53.4928 24.0255 48.5964 24.0255V20.8948C51.1886 20.8948 53.5932 19.9998 55.2726 18.3288C56.9403 16.6693 57.7172 14.6293 57.7172 12.1362C57.7172 9.74785 56.8791 7.51488 55.2726 5.93112C53.6157 4.29917 51.1537 3.38086 48.5964 3.38086C46.0313 3.38086 43.5676 4.2897 41.9094 5.93112C40.3116 7.51434 39.4713 9.7538 39.4713 12.1362C39.4713 14.5113 40.3213 16.7494 41.9094 18.3291C43.569 19.98 46.024 20.8948 48.5964 20.8948V24.0255ZM12.8999 0.30025C10.2873 0.30025 7.31933 0.788914 4.7975 1.91514C2.47005 2.95366 0.564942 4.63325 0.564942 7.41769C0.563859 9.92544 2.15763 11.3941 2.11432 11.3535C2.79222 11.9776 3.88353 13.0402 6.73673 13.6642C8.01186 13.943 10.7381 14.3713 13.4529 14.6551C16.1478 14.9393 18.7998 15.2095 19.88 15.4829C20.7382 15.7014 22.1799 15.999 22.1799 17.6163C22.1799 19.2271 20.6611 19.7188 20.3971 19.8254C20.1334 19.9297 18.3114 20.7657 15.0362 20.7657C12.618 20.7657 9.71095 20.0385 8.65132 19.6595C7.42979 19.2247 6.14844 18.6497 4.95317 17.1896C4.65591 16.8277 4.18701 15.8322 4.18701 14.8465H1.22281V23.1524H4.51757V22.0302C4.51757 21.9025 4.6773 21.377 5.2304 21.6269C5.91859 21.9395 7.93876 22.7439 10.051 23.1849C11.7828 23.5471 12.8996 23.8068 15.0527 23.8068C18.5656 23.8068 20.4529 23.2344 21.7575 22.8619C22.9866 22.51 24.5054 21.8781 25.7391 20.8943C26.4073 20.3623 27.8725 18.9986 27.8725 16.5234C27.8725 14.1474 26.5973 12.6728 26.1487 12.2242C25.5377 11.6129 24.7913 11.1391 24.0135 10.7739C23.3359 10.455 22.2665 10.0719 21.3915 9.85776C19.6932 9.44084 15.8532 8.92646 14.0169 8.73424C12.0912 8.53309 8.75067 8.25641 7.41653 7.84354C7.01206 7.7182 6.18742 7.32537 6.18742 6.36808C6.18742 5.6872 6.56454 5.11 7.30986 4.64354C8.49294 3.90229 10.8827 3.44151 13.3736 3.44151C16.3186 3.43068 18.8125 4.10398 20.399 4.81329C20.9386 5.05423 21.5699 5.40022 22.0713 5.80957C22.6371 6.27089 23.4314 7.22953 23.7187 8.56666H26.3799V1.3366H23.4084V2.17694C23.4084 2.44821 23.1282 2.80069 22.5984 2.50939C21.2686 1.81172 17.5087 0.306477 12.8993 0.30025M78.0191 1.61409L92.5145 14.6957L92.3656 5.88808C92.3509 4.73315 92.1381 4.25098 90.889 4.25098H88.1636V1.61626H100.558V4.25098H97.899C96.6249 4.25098 96.5445 4.65843 96.5291 5.88808L96.7538 22.7173H92.5093L75.8135 7.81647L75.817 18.3916C75.8317 19.5412 75.8855 20.0826 77.07 20.0826H80.0466V22.7163H67.8747V20.0829H70.72C71.7829 20.0829 71.7407 19.0696 71.7407 18.3318V5.98825C71.7407 5.19149 71.6289 4.25288 69.9601 4.25288H67.6513V1.61409H78.0191ZM114.72 20.0777C114.837 20.0777 115.354 20.0629 115.454 20.0323C115.74 19.9429 115.934 19.7388 116.024 19.526C116.062 19.4367 116.081 19.0414 116.081 18.9556L116.083 14.7918C116.083 14.6916 116.076 14.6483 115.906 14.4252C115.719 14.1816 108.313 5.78899 107.974 5.41945C107.553 4.96056 106.814 4.25125 105.691 4.25125H103.116V1.61545H117.65V4.24801H115.898C115.493 4.24801 115.223 4.63244 115.57 5.05965C115.57 5.05965 120.46 10.9093 120.506 10.9705C120.552 11.0327 120.591 11.0476 120.653 10.9908C120.714 10.9326 125.666 5.11325 125.705 5.06723C125.94 4.78513 125.78 4.25098 125.273 4.25098H123.475V1.61545H135.387V4.25098H132.726C131.761 4.25098 131.368 4.42966 130.642 5.25078C130.309 5.62655 122.825 14.1699 122.621 14.4014C122.514 14.5224 122.524 14.6911 122.524 14.7912V18.9545C122.524 19.039 122.543 19.4348 122.58 19.5236C122.671 19.7374 122.866 19.9416 123.152 20.0298C123.252 20.0607 123.762 20.0758 123.878 20.0758H126.6V22.7111H112.141V20.0756L114.721 20.0777H114.72Z" fill="white"/>
</svg>
