<svg width="139" height="28" viewBox="0 0 139 28" fill="none" xmlns="http://www.w3.org/2000/svg">
<g clip-path="url(#clip0_178_8646)">
<path fill-rule="evenodd" clip-rule="evenodd" d="M11.6561 0.795112C13.0404 0.7855 14.3745 1.31333 15.3776 2.2675C16.3807 3.22167 16.9744 4.52776 17.0339 5.91088C17.0935 7.294 16.6141 8.64627 15.6967 9.68308C14.7793 10.7199 13.4955 11.3604 12.1154 11.4697V7.35351C12.399 7.24614 12.6359 7.04273 12.785 6.77868C12.9341 6.51463 12.9858 6.20667 12.9312 5.9084C12.8767 5.61013 12.7192 5.34044 12.4863 5.14628C12.2534 4.95212 11.9598 4.84578 11.6566 4.84578C11.3533 4.84578 11.0597 4.95212 10.8268 5.14628C10.5939 5.34044 10.4364 5.61013 10.3819 5.9084C10.3273 6.20667 10.379 6.51463 10.5281 6.77868C10.6772 7.04273 10.9141 7.24614 11.1977 7.35351V11.4697C9.82665 11.3485 8.55512 10.7033 7.64769 9.6684C6.74025 8.63348 6.2668 7.28852 6.32585 5.91338C6.38489 4.53824 6.97189 3.23882 7.96469 2.28549C8.9575 1.33216 10.2797 0.798346 11.6561 0.795112ZM5.34316 10.8183C6.7613 10.8183 8.12141 11.3814 9.12455 12.3838C10.1277 13.3862 10.6918 14.7459 10.6928 16.164C10.6927 17.5032 10.1899 18.7936 9.28397 19.7798C8.37802 20.7661 7.13488 21.3764 5.80052 21.49V17.3767C6.08444 17.2698 6.32184 17.0666 6.47135 16.8027C6.62086 16.5387 6.67301 16.2306 6.61871 15.9321C6.56441 15.6336 6.40709 15.3636 6.17419 15.1692C5.94128 14.9748 5.64754 14.8683 5.34415 14.8682C4.62545 14.8682 4.04435 15.4493 4.04435 16.165C4.04435 16.7194 4.39677 17.1936 4.88779 17.3767V21.4909C3.51531 21.3725 2.24154 20.7288 1.33212 19.6941C0.422704 18.6593 -0.0521563 17.3134 0.00657374 15.9371C0.0653037 14.5608 0.65309 13.2603 1.64735 12.3068C2.64161 11.3533 3.96559 10.8204 5.34316 10.8193M17.6957 10.8183C19.0736 10.8187 20.398 11.351 21.3929 12.3043C22.3877 13.2575 22.9761 14.5581 23.0352 15.9347C23.0943 17.3112 22.6197 18.6574 21.7102 19.6925C20.8008 20.7275 19.5268 21.3715 18.1541 21.49V17.3767C18.4379 17.2697 18.6752 17.0664 18.8246 16.8024C18.9739 16.5383 19.026 16.2303 18.9715 15.9318C18.9171 15.6334 18.7597 15.3635 18.5268 15.1692C18.2938 14.9749 18.0001 14.8684 17.6967 14.8684C17.3934 14.8684 17.0996 14.9749 16.8667 15.1692C16.6337 15.3635 16.4763 15.6334 16.4219 15.9318C16.3675 16.2303 16.4195 16.5383 16.5689 16.8024C16.7182 17.0664 16.9555 17.2697 17.2394 17.3767V21.4909C15.9053 21.3769 14.6627 20.7664 13.7572 19.7802C12.8516 18.794 12.3491 17.5039 12.349 16.165C12.349 13.214 14.7467 10.8193 17.6947 10.8193M7.72795 26.9139H15.3327C12.9232 24.6063 11.8283 21.6414 11.4759 18.3053C11.0839 21.8008 9.73358 24.5944 7.72795 26.9139Z" fill="white"/>
<path fill-rule="evenodd" clip-rule="evenodd" d="M26.802 14.3726V12.067C27.3398 12.4775 27.9252 12.6976 28.5581 12.7273C29.3527 12.697 29.8262 12.3535 29.9787 11.6968C30.0708 11.2662 29.9985 10.9068 29.7609 10.6108C29.518 10.3152 29.1095 9.96901 28.5354 9.57238C27.9625 9.17442 27.5408 8.83024 27.2702 8.53986C26.6683 7.93698 26.3535 7.11236 26.3179 6.05806C26.3535 5.46805 26.4268 4.99486 26.5456 4.64046C26.7495 3.95541 27.1247 3.41292 27.68 3.01892C28.2351 2.62955 28.8614 2.4342 29.559 2.43288C30.6053 2.4309 30.9488 2.62592 31.6378 3.01497V5.36609C31.0373 4.86188 30.4516 4.6101 29.8807 4.61076C29.2372 4.61076 28.8363 4.99486 28.6878 5.769C28.699 6.04684 28.7772 6.30753 28.9224 6.55106C29.0663 6.7926 29.2808 7.03613 29.5659 7.28164C29.8517 7.52978 30.1529 7.76605 30.4697 7.99044C30.7852 8.21879 30.9551 8.3422 30.9795 8.36068C31.4164 8.70584 31.7514 9.13383 31.9843 9.64464C32.214 10.1515 32.3298 10.7098 32.3298 11.3097C32.3298 11.9657 32.1823 12.5759 31.8873 13.1401C31.6026 13.6916 31.1723 14.1545 30.6429 14.4786C30.115 14.8046 29.5111 14.9676 28.8313 14.9676C28.1364 14.9682 27.4599 14.7699 26.802 14.3726ZM33.8048 2.62592H36.5757C37.4696 2.62592 38.2131 2.87538 38.8179 3.36838C39.4159 3.86038 39.7742 4.60383 39.8792 5.59279V6.12538C39.8792 7.19584 39.4601 7.98978 38.6219 8.50719C39.5594 9.03483 40.0455 9.95944 40.09 11.279C40.1247 12.0215 39.9712 12.6531 39.6376 13.1906C39.3094 13.7179 38.8289 14.1332 38.2596 14.3815C37.6762 14.6442 37.0182 14.7755 36.2856 14.7755H33.8048V2.62592ZM36.2233 4.64046V7.60634C36.5312 7.62614 36.8469 7.52021 37.1568 7.28164C37.4696 7.04801 37.6313 6.67282 37.6419 6.15607C37.6412 5.68221 37.5313 5.31164 37.3122 5.04436C37.0875 4.77509 36.7489 4.64046 36.2856 4.64046H36.2233ZM36.2233 9.45655V12.76C36.5668 12.7719 36.8568 12.6976 37.0845 12.5422C37.3135 12.3871 37.4805 12.1756 37.5854 11.9077C37.6877 11.6397 37.7389 11.3493 37.7389 11.0365C37.7376 10.597 37.6109 10.2241 37.3588 9.91787C37.108 9.61098 36.7295 9.45721 36.2233 9.45655ZM41.6135 14.7755H44.028V2.62592H41.6135V14.7755ZM50.3587 2.62592H53.4969L54.6601 9.79709H54.6898L55.6748 2.62592H58.9139L60.1711 14.7755H57.723C57.6867 14.2806 57.6457 13.6681 57.6002 12.9382L57.4537 10.7474C57.4052 10.0149 57.3478 9.16947 57.2854 8.2013C57.2395 7.47574 57.1854 6.75072 57.123 6.02638H57.0904C57.0148 6.79904 56.9208 7.56977 56.8082 8.33791C56.698 9.12789 56.5697 9.9116 56.4232 10.689C56.278 11.4691 56.1592 12.0984 56.0668 12.5769C55.975 13.054 55.8444 13.7866 55.6748 14.7745H53.8196C53.7453 14.3786 53.5652 13.4579 53.2801 12.0215C53.0577 10.9134 52.8439 9.80367 52.6386 8.69231C52.4875 7.88311 52.3555 7.07047 52.2426 6.25506V6.02638H52.2099L51.8714 14.7755H49.2777L50.3587 2.62592ZM61.4362 2.62592H63.82V11.1474C63.82 12.2436 64.2177 12.792 65.0129 12.7927C65.5297 12.8065 65.8583 12.6541 66.0019 12.3521C66.1497 12.042 66.223 11.5925 66.2216 11.0038V2.62691H68.6371V11.5057C68.6371 12.5782 68.388 13.416 67.8897 14.0192C67.3918 14.6191 66.4444 14.9389 65.0476 14.9696C63.9817 14.9913 63.1129 14.7333 62.441 14.1954C61.7738 13.6599 61.4362 12.7521 61.4362 11.4711V2.62592ZM69.7775 2.62592H75.9301V4.86419H74.0442V14.7736H71.6614V4.86617H69.7775V2.62691V2.62592ZM77.0675 2.62592H79.4533V11.1474C79.4526 12.2436 79.8503 12.792 80.6462 12.7927C81.1629 12.8065 81.4926 12.6541 81.6361 12.3521C81.7846 12.0423 81.8539 11.5929 81.8539 11.0038V2.62691H84.2723V11.5057C84.2723 12.5782 84.0229 13.416 83.5239 14.0192C83.023 14.6191 82.0737 14.9389 80.6769 14.9696C79.6143 14.9913 78.7478 14.7333 78.0773 14.1954C77.4041 13.6602 77.0675 12.7521 77.0675 11.4711V2.62592ZM88.1173 2.62592H90.6308L93.5462 14.7755H91L90.5328 12.7273H88.1163L87.6619 14.7755H85.2762L88.1173 2.62592ZM90.1952 10.8128L89.3092 5.73534H89.2745L88.4865 10.8108H90.1942L90.1952 10.8128ZM94.5876 2.62592H97.006V12.5006H99.4868V14.7755H94.5866L94.5876 2.62592ZM104.62 2.62592H109.468V4.86419H107.033V7.47765H109.244V9.73374H107.033V14.7765H104.62V2.62592ZM111.009 2.62592H113.395V11.1474C113.394 12.2436 113.792 12.792 114.587 12.7927C115.099 12.8065 115.433 12.6541 115.579 12.3521C115.723 12.042 115.794 11.5925 115.794 11.0038V2.62691H118.21V11.5057C118.21 12.5782 117.961 13.416 117.462 14.0192C116.962 14.6191 116.015 14.9389 114.618 14.9696C113.554 14.9913 112.686 14.7333 112.015 14.1954C111.344 13.6602 111.009 12.7521 111.009 11.4711V2.62592ZM119.948 2.62592H122.235L125.262 9.95944L125.295 9.9248C125.21 9.63441 125.145 9.20444 125.102 8.6349V2.62592H127.486V14.7755H125.227L122.234 7.44399L122.202 7.47666C122.288 8.22902 122.341 8.80319 122.362 9.19917V14.7755H119.948V2.62592ZM129.254 2.62592H131.672C133.365 2.62592 134.616 3.23473 135.417 4.44643C136.214 5.66208 136.585 7.20244 136.516 9.07245C136.388 12.8738 134.707 14.7745 131.475 14.7745H129.254V2.62592ZM131.672 4.76816V12.6323C132.539 12.6422 133.163 12.2479 133.543 11.4493C133.925 10.6455 134.117 9.69117 134.117 8.57154C134.117 7.57169 133.911 6.68866 133.491 5.91947C133.071 5.15523 132.464 4.76816 131.672 4.76816ZM27.9255 20.4786H28.568L29.8698 26.5381H29.0561L28.8185 25.364H27.6295L27.393 26.5381H26.6059L27.9255 20.4786ZM28.7135 24.7295L28.2364 21.6438H28.2225L27.7404 24.7295H28.7135ZM38.6882 26.5381V20.4786H39.8326C40.3527 20.4799 40.7318 20.6057 40.9701 20.8558C41.2044 21.1092 41.3294 21.5062 41.3453 22.0467C41.3502 22.7258 41.2087 23.195 40.9216 23.4623C40.6345 23.7237 40.2266 23.8603 39.7079 23.8702C39.6465 23.8587 39.5842 23.8531 39.5218 23.8534V26.5381H38.6882ZM39.5218 23.1822C39.8227 23.1954 40.0531 23.1327 40.2128 22.9941C40.3745 22.8555 40.4546 22.6037 40.4533 22.2387C40.4533 21.8494 40.3791 21.5676 40.2306 21.3933C40.0821 21.2171 39.8445 21.1409 39.5218 21.1557V23.1822ZM46.3762 20.4786H47.0533L48.4125 26.5381H47.5631L47.3107 25.364H46.0663L45.8258 26.5381H44.9982L46.3762 20.4786ZM47.2018 24.7295L46.7058 21.6438H46.687L46.1841 24.7295H47.2018ZM52.7217 26.5381V20.4786H53.8681C54.3274 20.4799 54.6686 20.5849 54.8917 20.7934C55.1148 21.0086 55.2484 21.3428 55.2926 21.7962C55.3177 22.0919 55.2979 22.3747 55.2332 22.6446C55.1826 22.8847 55.0768 23.1097 54.9244 23.302C54.8654 23.3806 54.7911 23.4465 54.7061 23.4958C54.621 23.5451 54.5269 23.5768 54.4294 23.589L55.5916 26.5391H54.7234L53.5691 23.5732H53.5533V26.5381H52.7217ZM53.5533 23.1653C54.1255 23.1891 54.4126 22.8505 54.4126 22.1398C54.4126 21.8645 54.3568 21.6342 54.2453 21.4488C54.1413 21.2637 53.9513 21.1716 53.6879 21.1716H53.5523L53.5533 23.1653ZM59.2861 20.4786H62.0777V21.1716H61.1274V26.5381H60.2711V21.1716H59.2861V20.4786ZM66.3008 26.5381V20.4786H67.1027L68.5797 25.0749L68.6144 25.0581L68.548 24.1672C68.5256 23.8939 68.5008 23.5857 68.4738 23.2426C68.45 22.902 68.4322 22.5595 68.4203 22.2279C68.4104 21.8942 68.4015 21.3102 68.4015 20.4786H69.2539V26.5381H68.4619L66.9908 21.8636L66.972 21.8754C67.0228 22.4186 67.0585 22.8377 67.0789 23.1327C67.0997 23.4316 67.1136 23.7544 67.1304 24.1088C67.1463 24.4559 67.1538 24.8374 67.1532 25.2531C67.1532 25.5194 67.1512 25.7461 67.1482 25.9243C67.1463 26.1075 67.1383 26.3134 67.1324 26.5381H66.3008ZM74.0422 20.4786H76.3033V21.1716H74.8718V23.0842H76.1587V23.7722H74.8718V25.8293H76.3033V26.5381H74.0422V20.4786ZM80.7303 26.5381V20.4786H81.8747C82.336 20.4799 82.6779 20.5849 82.9003 20.7934C83.1247 21.0086 83.259 21.3428 83.3032 21.7962C83.3272 22.0807 83.3054 22.3671 83.2388 22.6446C83.1891 22.8844 83.0844 23.1094 82.9329 23.302C82.7914 23.4712 82.632 23.5692 82.4399 23.589L83.5982 26.5391H82.729L81.5777 23.5732H81.5639V26.5381H80.7303ZM81.5639 23.1653C82.136 23.1891 82.4211 22.8505 82.4211 22.1398C82.4211 21.8645 82.3664 21.6342 82.2568 21.4488C82.1499 21.2637 81.9598 21.1716 81.6955 21.1716H81.5639V23.1653ZM91.4415 20.4786H93.7184V21.1716H92.2731V23.0842H93.5679V23.7722H92.2731V26.5381H91.4415V20.4786ZM97.9089 23.9187C97.9089 23.7286 97.9036 23.5818 97.893 23.4782C97.9036 22.9568 97.9432 22.4876 98.0118 22.0705C98.0811 21.6527 98.2078 21.2943 98.4048 20.9924C98.4944 20.8486 98.6137 20.7256 98.7548 20.6317C98.8958 20.5378 99.0553 20.4751 99.2225 20.4479C99.6324 20.3727 99.9775 20.4123 100.258 20.5667C100.535 20.7261 100.749 20.9528 100.891 21.2567C101.034 21.5636 101.12 21.8966 101.15 22.2556C101.192 22.9228 101.214 23.4089 101.214 23.7237C101.215 24.6311 101.091 25.3393 100.842 25.8481C100.591 26.3622 100.16 26.6186 99.5492 26.6173C99.0391 26.6173 98.6431 26.4002 98.3613 25.9659C98.0781 25.5333 97.9257 24.8473 97.9089 23.9187ZM98.8077 23.7425C98.7959 25.1442 99.0463 25.857 99.568 25.8788C99.5884 25.8696 99.6101 25.8639 99.6324 25.862C99.7216 25.8526 99.8072 25.8213 99.8815 25.7709C99.9558 25.7204 100.016 25.6524 100.058 25.5729C100.156 25.4013 100.221 25.2066 100.253 24.9888C100.283 24.7737 100.304 24.5305 100.313 24.2592C100.32 23.9873 100.323 23.69 100.323 23.3673C100.332 22.9714 100.309 22.5754 100.254 22.1833C100.199 21.8401 100.117 21.5808 100.008 21.4052C99.8987 21.229 99.7574 21.1409 99.5838 21.1409H99.5492C99.2476 21.16 99.0483 21.3772 98.9513 21.7923C98.8556 22.2081 98.8038 22.7486 98.7959 23.4138C98.8031 23.4976 98.8071 23.6072 98.8077 23.7425ZM105.852 26.5381V20.4786H106.999C107.455 20.4786 107.798 20.5855 108.02 20.7934C108.247 21.0086 108.383 21.3428 108.426 21.7962C108.449 22.0919 108.428 22.3747 108.364 22.6446C108.312 22.8841 108.207 23.1088 108.057 23.302C107.997 23.3802 107.923 23.4458 107.838 23.4951C107.753 23.5444 107.659 23.5763 107.562 23.589L108.718 26.5391H107.851L106.703 23.5732H106.684V26.5381H105.852ZM106.684 23.1653C107.256 23.1891 107.541 22.8505 107.541 22.1398C107.541 21.8645 107.487 21.6342 107.379 21.4488C107.265 21.2637 107.082 21.1716 106.818 21.1716H106.684V23.1653ZM116.561 20.4786H117.395V25.8293H118.824V26.5381H116.561V20.4786ZM123.098 26.5381H123.935V20.4786H123.098V26.5381ZM128.737 20.4786H131.016V21.1716H129.568V23.0842H130.863V23.7722H129.568V26.5381H128.737V20.4786ZM135.375 20.4786H137.636V21.1716H136.207V23.0842H137.495V23.7722H136.208V25.8293H137.636V26.5381H135.375V20.4786Z" fill="white"/>
<path fill-rule="evenodd" clip-rule="evenodd" d="M26.6376 17.9625H136.809V17.1101H26.6376V17.9625Z" fill="#008AC4"/>
</g>
<defs>
<clipPath id="clip0_178_8646">
<rect width="138.593" height="26.7286" fill="white" transform="translate(0 0.793091)"/>
</clipPath>
</defs>
</svg>
