<svg width="455" height="449" viewBox="0 0 455 449" fill="none" xmlns="http://www.w3.org/2000/svg">
<path d="M122.662 100.576C112.59 106.573 102.117 112.026 91.9133 117.998C44.9413 145.485 6.27562 182.346 1.53951 238.808C-1.92784 280.152 11.0888 328.246 47.458 352.178C56.4139 358.071 66.471 362.147 76.9709 364.285C91.8056 367.306 107.514 366.125 122.662 365.253V100.576Z" fill="#75A3FF"/>
<path d="M340.716 41.7765H194.881C185.562 47.5636 176.754 54.349 168.588 61.9272H369.007C360.141 54.4175 350.694 47.6284 340.716 41.7765Z" fill="#75A3FF"/>
<path d="M333.893 37.9787C323.348 32.3837 312.257 27.8274 300.662 24.5803C265.788 14.8132 231.246 21.3075 201.35 37.9787H333.893Z" fill="#75A3FF"/>
<path d="M419.38 120.912C406.901 100.88 391.404 81.8296 373.362 65.7249H238.209V383C248.336 386.204 258.541 389.129 269.117 390.823C338.033 401.853 415.13 377.309 441.863 307.859C465.82 245.616 453.908 176.337 419.38 120.912Z" fill="#75A3FF"/>
<path d="M229.92 65.7249H164.616C161.914 68.3872 159.284 71.1278 156.742 73.9577C149.077 82.4976 140.282 89.3393 130.951 95.4225V364.844C154.54 363.945 178.249 366.29 201.201 371.802C210.934 374.139 220.427 377.246 229.92 380.334V65.7249Z" fill="#75A3FF"/>
<g opacity="0.8">
<path d="M122.662 100.576C112.59 106.573 102.117 112.026 91.9133 117.998C44.9413 145.485 6.27562 182.346 1.53951 238.808C-1.92784 280.152 11.0888 328.246 47.458 352.178C56.4139 358.071 66.471 362.147 76.9709 364.285C91.8056 367.306 107.514 366.125 122.662 365.253V100.576Z" fill="white"/>
<path d="M340.716 41.7765H194.881C185.562 47.5636 176.754 54.349 168.588 61.9272H369.007C360.141 54.4175 350.694 47.6284 340.716 41.7765Z" fill="white"/>
<path d="M333.893 37.9787C323.348 32.3837 312.257 27.8274 300.662 24.5803C265.788 14.8132 231.246 21.3075 201.35 37.9787H333.893Z" fill="white"/>
<path d="M419.38 120.912C406.901 100.88 391.404 81.8296 373.362 65.7249H238.209V383C248.336 386.204 258.541 389.129 269.117 390.823C338.033 401.853 415.13 377.309 441.863 307.859C465.82 245.616 453.908 176.337 419.38 120.912Z" fill="white"/>
<path d="M229.92 65.7249H164.616C161.914 68.3872 159.284 71.1278 156.742 73.9577C149.077 82.4976 140.282 89.3393 130.951 95.4225V364.844C154.54 363.945 178.249 366.29 201.201 371.802C210.934 374.139 220.427 377.246 229.92 380.334V65.7249Z" fill="white"/>
</g>
<path d="M181.966 96.125H164.162V100.008V122.837V126.721H201.926V100.008H183.233L181.966 96.125Z" fill="#75A3FF"/>
<path d="M181.966 154.352H164.162V158.234V181.063V184.946H201.926V158.234H183.233L181.966 154.352Z" fill="#75A3FF"/>
<path d="M181.966 212.577H164.162V216.459V239.288V243.172H201.926V216.459H183.233L181.966 212.577Z" fill="#75A3FF"/>
<path d="M181.966 270.803H164.162V274.686V297.514V301.397H201.926V274.686H183.233L181.966 270.803Z" fill="#75A3FF"/>
<path d="M181.966 329.028H164.162V332.912V355.741V359.623H201.926V332.912H183.233L181.966 329.028Z" fill="#75A3FF"/>
<path d="M296.099 96.125H278.293V100.008V122.837V126.721H316.058V100.008H297.364L296.099 96.125Z" fill="#75A3FF"/>
<path d="M296.099 154.352H278.293V158.234V181.063V184.946H316.058V158.234H297.364L296.099 154.352Z" fill="#75A3FF"/>
<path d="M296.099 212.578H278.293V216.46V239.289V243.172H316.058V216.46H297.364L296.099 212.578Z" fill="#75A3FF"/>
<path d="M296.099 270.803H278.293V274.686V297.514V301.397H316.058V274.686H297.364L296.099 270.803Z" fill="#75A3FF"/>
<path d="M368.881 270.803H351.076V274.686V297.514V301.397H388.84V274.686H370.147L368.881 270.803Z" fill="#75A3FF"/>
<path d="M296.099 329.028H278.293V332.912V355.741V359.623H316.058V332.912H297.364L296.099 329.028Z" fill="#75A3FF"/>
<path d="M64.7978 270.753H46.9924V274.636V297.465V301.347H84.7577V274.636H66.0629L64.7978 270.753Z" fill="#75A3FF"/>
<path d="M368.881 329.028H351.076V332.912V355.741V359.623H388.84V332.912H370.147L368.881 329.028Z" fill="#75A3FF"/>
<g opacity="0.5">
<path d="M181.966 96.125H164.162V100.008V122.837V126.721H201.926V100.008H183.233L181.966 96.125Z" fill="white"/>
<path d="M181.966 154.352H164.162V158.234V181.063V184.946H201.926V158.234H183.233L181.966 154.352Z" fill="white"/>
<path d="M181.966 212.577H164.162V216.459V239.288V243.172H201.926V216.459H183.233L181.966 212.577Z" fill="white"/>
<path d="M181.966 270.803H164.162V274.686V297.514V301.397H201.926V274.686H183.233L181.966 270.803Z" fill="white"/>
<path d="M181.966 329.028H164.162V332.912V355.741V359.623H201.926V332.912H183.233L181.966 329.028Z" fill="white"/>
<path d="M296.099 96.125H278.293V100.008V122.837V126.721H316.058V100.008H297.364L296.099 96.125Z" fill="white"/>
<path d="M296.099 154.352H278.293V158.234V181.063V184.946H316.058V158.234H297.364L296.099 154.352Z" fill="white"/>
<path d="M296.099 212.578H278.293V216.46V239.289V243.172H316.058V216.46H297.364L296.099 212.578Z" fill="white"/>
<path d="M296.099 270.803H278.293V274.686V297.514V301.397H316.058V274.686H297.364L296.099 270.803Z" fill="white"/>
<path d="M368.881 270.803H351.076V274.686V297.514V301.397H388.84V274.686H370.147L368.881 270.803Z" fill="white"/>
<path d="M296.099 329.028H278.293V332.912V355.741V359.623H316.058V332.912H297.364L296.099 329.028Z" fill="white"/>
<path d="M64.7978 270.753H46.9924V274.636V297.465V301.347H84.7577V274.636H66.0629L64.7978 270.753Z" fill="white"/>
<path d="M368.881 329.028H351.076V332.912V355.741V359.623H388.84V332.912H370.147L368.881 329.028Z" fill="white"/>
</g>
<g opacity="0.3">
<path d="M184.634 448.157C218.757 448.157 246.42 442.406 246.42 435.311C246.42 428.216 218.757 422.464 184.634 422.464C150.51 422.464 122.848 428.216 122.848 435.311C122.848 442.406 150.51 448.157 184.634 448.157Z" fill="#B4CDFD"/>
<path opacity="0.1" d="M184.634 448.157C218.757 448.157 246.42 442.406 246.42 435.311C246.42 428.216 218.757 422.464 184.634 422.464C150.51 422.464 122.848 428.216 122.848 435.311C122.848 442.406 150.51 448.157 184.634 448.157Z" fill="white"/>
</g>
<path d="M230.422 162.528C230.422 162.528 230.17 155.979 230.17 149.179C230.17 142.377 233.696 140.866 235.963 140.866C238.23 140.866 239.237 141.118 239.237 141.118C239.237 141.118 240.496 130.287 248.557 128.524C256.617 126.761 262.662 133.31 265.433 131.043C268.205 128.776 258.884 129.028 262.914 125.754C266.944 122.48 278.531 122.228 279.791 134.318C281.05 146.409 272.739 151.95 268.707 152.958C264.677 153.966 259.136 146.661 253.846 146.913C248.557 147.165 249.312 153.21 246.038 155.729C242.763 158.248 240.244 156.988 240.244 160.263C240.244 163.537 238.733 165.302 234.703 165.552C230.674 165.802 230.422 162.528 230.422 162.528Z" fill="#263238" stroke="#263238" stroke-width="1.22348" stroke-miterlimit="10" stroke-linecap="round" stroke-linejoin="round"/>
<path d="M267.746 143.046C267.746 143.046 271.666 144.856 276.794 141.539C281.92 138.222 278.604 130.683 277.699 130.381" stroke="white" stroke-width="1.22348" stroke-miterlimit="10" stroke-linecap="round" stroke-linejoin="round"/>
<path d="M244.826 141.237C244.826 141.237 246.636 133.396 252.969 133.698C259.301 134 258.397 139.73 263.825 141.539" stroke="white" stroke-width="1.22348" stroke-miterlimit="10" stroke-linecap="round" stroke-linejoin="round"/>
<path d="M241.503 146.155C241.503 146.155 237.889 142.443 234.572 143.347C231.256 144.252 232.763 149.982 233.064 151.792C233.366 153.601 230.953 158.728 230.953 158.728" stroke="white" stroke-width="1.22348" stroke-miterlimit="10" stroke-linecap="round" stroke-linejoin="round"/>
<path d="M156.448 166.821L165.556 199.308L180.13 198.701L171.628 165.91L156.448 166.821Z" fill="#263238" stroke="#263238" stroke-width="1.22348" stroke-miterlimit="10" stroke-linecap="round" stroke-linejoin="round"/>
<path d="M180.437 227.546L176.49 229.671C176.49 229.671 171.632 214.49 169.506 208.722C167.381 202.953 166.773 200.524 166.773 200.524L166.873 200.466C168.983 199.235 170.052 196.779 169.516 194.397L168.821 191.307C168.821 191.307 169.795 193.487 171.808 192.161C172.822 191.493 171.742 184.776 170.528 182.346C169.313 179.917 165.254 181.7 164.04 182.308C162.825 182.915 161.611 184.13 161.611 184.13L160.7 180.486C160.7 180.486 165.255 180.183 166.165 180.183C167.077 180.183 170.415 177.146 168.897 176.843C167.379 176.539 158.878 176.539 156.753 178.361C154.628 180.183 158.271 187.47 158.878 188.988C159.485 190.506 162.522 205.991 163.736 210.241C164.951 214.492 167.987 245.765 169.809 248.498C171.63 251.23 185.293 238.479 185.293 238.479L180.437 227.546Z" fill="white" stroke="#263238" stroke-width="1.22348" stroke-miterlimit="10" stroke-linecap="round" stroke-linejoin="round"/>
<path d="M162.635 186.398C162.635 186.398 166.903 182.771 170.743 183.625" stroke="#263238" stroke-width="1.22348" stroke-miterlimit="10" stroke-linecap="round" stroke-linejoin="round"/>
<path d="M163.914 190.024C163.914 190.024 166.901 186.824 170.955 187.038" stroke="#263238" stroke-width="1.22348" stroke-miterlimit="10" stroke-linecap="round" stroke-linejoin="round"/>
<path d="M212.79 188.472C212.79 188.472 207.156 193.843 204.728 198.398C202.299 202.952 179.223 227.546 179.223 227.546L185.903 250.318L202.299 236.352C202.299 236.352 211.408 218.742 213.836 207.507C216.265 196.273 218.425 188.263 212.79 188.472Z" fill="#2950DA" stroke="#263238" stroke-width="1.22348" stroke-miterlimit="10" stroke-linecap="round" stroke-linejoin="round"/>
<path d="M263.167 194.517C263.167 194.517 245.283 193.006 235.208 191.494C225.132 189.983 214.049 187.212 212.79 188.471C211.531 189.73 203.619 229.294 195.913 245.145C185.713 266.128 178.688 277.248 178.688 277.248C178.688 277.248 188.308 272.933 200.903 275.2C213.497 277.467 233.095 290.849 233.095 290.849C233.095 290.849 242.512 270.586 252.587 250.183C262.663 229.781 267.952 199.302 267.952 197.539C267.952 195.776 264.678 194.265 263.167 194.517Z" fill="#2950DA" stroke="#263238" stroke-width="1.22348" stroke-miterlimit="10" stroke-linecap="round" stroke-linejoin="round"/>
<path d="M255.511 193.82C249.434 193.239 241.022 192.366 235.208 191.494C234.361 191.367 233.507 191.23 232.652 191.088C231.81 193.465 230.72 197.247 230.422 201.571C229.918 208.875 234.2 216.936 237.474 216.936C240.748 216.936 250.825 203.335 253.09 199.555C254.734 196.817 255.312 194.756 255.511 193.82Z" fill="white" stroke="#263238" stroke-width="1.22348" stroke-miterlimit="10" stroke-linecap="round" stroke-linejoin="round"/>
<path d="M238.985 177.39C238.985 177.39 236.466 190.236 234.451 195.525C232.436 200.814 234.703 210.135 237.222 210.387C239.741 210.639 249.817 197.54 249.817 197.54L253.343 182.931C253.343 182.931 240.498 179.405 238.985 177.39Z" fill="white" stroke="#263238" stroke-width="1.22348" stroke-miterlimit="10" stroke-linecap="round" stroke-linejoin="round"/>
<path d="M265.451 195.058C265.451 195.058 269.398 195.362 271.827 199.612C274.256 203.862 298.545 244.245 298.545 244.245L282.15 248.495L259.378 228.152C259.378 228.152 253.913 221.168 259.985 208.72" fill="#2950DA"/>
<path d="M265.451 195.058C265.451 195.058 269.398 195.362 271.827 199.612C274.256 203.862 298.545 244.245 298.545 244.245L282.15 248.495L259.378 228.152C259.378 228.152 253.913 221.168 259.985 208.72" stroke="#263238" stroke-width="1.22348" stroke-miterlimit="10" stroke-linecap="round" stroke-linejoin="round"/>
<path d="M218.086 233.315C218.086 233.315 212.317 238.477 212.014 239.691C211.71 240.906 215.05 245.763 215.961 246.066C216.872 246.37 217.176 243.638 216.872 242.423C216.569 241.208 215.961 239.386 215.961 239.386L219.301 235.439C219.301 235.439 220.516 233.922 218.086 233.315Z" fill="white" stroke="#263238" stroke-width="1.22348" stroke-miterlimit="10" stroke-linecap="round" stroke-linejoin="round"/>
<path d="M292.171 234.529C292.171 234.529 287.009 232.404 280.634 232.707C274.257 233.011 260.898 236.351 252.397 236.654C243.895 236.958 244.2 237.261 239.645 236.047C235.091 234.832 225.679 227.545 223.552 227.545C221.427 227.545 215.05 238.173 215.962 239.386C216.873 240.601 224.464 246.37 226.589 246.673C228.714 246.977 233.269 244.245 233.269 244.245C233.269 244.245 256.041 247.585 266.668 248.8C277.295 250.015 290.351 251.532 295.513 248.193C300.673 244.853 299.155 237.566 292.171 234.529Z" fill="white" stroke="#263238" stroke-width="1.22348" stroke-miterlimit="10" stroke-linecap="round" stroke-linejoin="round"/>
<path d="M223.55 231.189L217.781 240.298" stroke="#263238" stroke-width="1.22348" stroke-miterlimit="10" stroke-linecap="round" stroke-linejoin="round"/>
<path d="M227.802 234.529L221.123 243.638" stroke="#263238" stroke-width="1.22348" stroke-miterlimit="10" stroke-linecap="round" stroke-linejoin="round"/>
<path d="M230.839 238.476L225.07 245.459" stroke="#263238" stroke-width="1.22348" stroke-miterlimit="10" stroke-linecap="round" stroke-linejoin="round"/>
<path d="M233.267 244.246L232.66 242.119L229.623 243.941" stroke="#263238" stroke-width="1.22348" stroke-miterlimit="10" stroke-linecap="round" stroke-linejoin="round"/>
<path d="M269.214 161.521C269.214 161.521 271.734 159.758 272.238 164.544C272.742 169.331 270.979 172.605 269.718 173.361C268.459 174.117 266.947 172.857 266.947 172.857L269.214 161.521Z" fill="white" stroke="#263238" stroke-width="1.22348" stroke-miterlimit="10" stroke-linecap="round" stroke-linejoin="round"/>
<path d="M232.94 162.276C232.94 162.276 228.91 156.987 226.643 161.52C224.375 166.054 226.139 171.847 229.162 174.114C232.185 176.382 235.207 173.106 235.207 173.106C235.207 173.106 241.756 186.456 247.297 186.96C252.839 187.464 263.166 183.434 266.944 175.625C270.722 167.817 270.218 155.223 270.722 150.436C271.226 145.65 265.936 139.605 256.113 139.605C246.289 139.605 241.503 146.154 241.503 146.154C241.503 146.154 244.274 147.665 242.259 150.436C240.244 153.208 237.725 154.971 236.97 156.734C236.214 158.497 236.97 160.26 235.963 161.772C234.955 163.284 232.94 162.276 232.94 162.276Z" fill="white" stroke="#263238" stroke-width="1.22348" stroke-miterlimit="10" stroke-linecap="round" stroke-linejoin="round"/>
<path d="M255.779 154.236C255.56 155.648 254.852 156.71 254.196 156.609C253.54 156.507 253.187 155.28 253.404 153.868C253.623 152.456 254.332 151.394 254.988 151.496C255.643 151.599 255.998 152.825 255.779 154.236Z" fill="#263238"/>
<path d="M265.849 157.009C265.63 158.421 264.922 159.483 264.266 159.381C263.61 159.28 263.257 158.053 263.474 156.641C263.693 155.229 264.402 154.167 265.058 154.268C265.715 154.37 266.068 155.597 265.849 157.009Z" fill="#263238"/>
<path d="M250.805 148.325C250.805 148.325 253.947 144.629 258.011 146.662" stroke="#263238" stroke-width="1.22348" stroke-miterlimit="10" stroke-linecap="round" stroke-linejoin="round"/>
<path d="M264.108 149.618C264.108 149.618 268.728 147.955 269.651 154.238" stroke="#263238" stroke-width="1.22348" stroke-miterlimit="10" stroke-linecap="round" stroke-linejoin="round"/>
<path d="M262.076 154.422C262.076 154.422 260.413 157.564 260.783 158.488C261.152 159.412 265.772 160.52 264.294 161.815C262.816 163.108 259.12 164.587 258.012 163.847" stroke="#263238" stroke-width="1.22348" stroke-miterlimit="10" stroke-linecap="round" stroke-linejoin="round"/>
<path d="M248.217 164.401C248.217 164.401 249.51 168.836 255.423 169.76" stroke="#263238" stroke-width="1.22348" stroke-miterlimit="10" stroke-linecap="round" stroke-linejoin="round"/>
<path d="M180.861 275.201C180.861 275.201 174.11 281.952 164.406 292.078C154.702 302.203 129.809 336.38 132.34 347.772C134.871 359.164 197.317 376.463 197.317 376.463L204.068 371.822C204.068 371.822 166.517 343.975 163.985 337.646C161.454 331.317 193.942 310.643 193.942 310.643L230.228 287.437C230.226 287.437 213.982 260.011 180.861 275.201Z" fill="#263238" stroke="#263238" stroke-width="1.22348" stroke-miterlimit="10" stroke-linecap="round" stroke-linejoin="round"/>
<path d="M226.43 258.324C226.43 258.324 234.446 271.825 233.602 287.859C232.758 303.893 226.43 318.238 210.818 317.816C195.206 317.394 196.473 293.766 201.536 281.952C206.598 270.138 207.443 254.527 226.43 258.324Z" fill="#263238" stroke="#263238" stroke-width="1.22348" stroke-miterlimit="10" stroke-linecap="round" stroke-linejoin="round"/>
<path d="M203.644 266.341C203.644 266.341 194.784 307.267 190.564 315.283C186.344 323.3 178.75 342.709 178.75 342.709L188.033 345.24C188.033 345.24 201.113 327.097 216.723 308.111C232.335 289.125 229.804 263.809 226.428 258.324C223.054 252.839 209.974 253.26 203.644 266.341Z" fill="#263238" stroke="#263238" stroke-width="1.22348" stroke-miterlimit="10" stroke-linecap="round" stroke-linejoin="round"/>
<path d="M228.748 274.357C228.748 274.357 221.786 303.469 212.293 315.494" stroke="white" stroke-width="1.22348" stroke-miterlimit="10" stroke-linecap="round" stroke-linejoin="round"/>
<path d="M197.316 376.462C197.316 376.462 198.583 383.214 196.05 387.854C193.519 392.495 187.612 402.2 191.83 402.622C196.05 403.044 201.957 396.715 206.175 391.652C210.395 386.589 210.816 381.947 213.77 378.151C216.723 374.353 204.065 371.822 204.065 371.822L198.58 374.775L197.316 376.462Z" fill="#2950DA" stroke="#263238" stroke-width="1.22348" stroke-miterlimit="10" stroke-linecap="round" stroke-linejoin="round"/>
<path d="M213.772 378.151C214.783 376.85 213.964 375.699 212.449 374.746C209.903 380.132 206.175 387.162 201.747 392.918C197.33 398.66 193.264 400.237 190.387 400.44C190.293 401.669 190.669 402.507 191.832 402.623C196.052 403.045 201.959 396.716 206.177 391.653C210.396 386.589 210.818 381.947 213.772 378.151Z" fill="white" stroke="#263238" stroke-width="1.22348" stroke-miterlimit="10" stroke-linecap="round" stroke-linejoin="round"/>
<path d="M178.751 342.709C178.751 342.709 170.734 341.865 163.983 337.646C157.232 333.428 155.967 333.428 155.967 341.022C155.967 348.616 165.25 352.414 170.312 356.211C175.375 360.009 178.329 362.118 182.126 361.696C185.924 361.274 188.033 345.242 188.033 345.242C188.033 345.242 185.923 341.022 178.751 342.709Z" fill="#2950DA" stroke="#263238" stroke-width="1.22348" stroke-miterlimit="10" stroke-linecap="round" stroke-linejoin="round"/>
<path d="M155.967 341.021C155.967 348.615 165.25 352.412 170.312 356.21C175.33 359.974 178.277 362.071 182.025 361.699C173.174 356.062 172.201 347.039 163.983 337.646C157.232 333.426 155.967 333.426 155.967 341.021Z" fill="white" stroke="#263238" stroke-width="1.22348" stroke-miterlimit="10" stroke-linecap="round" stroke-linejoin="round"/>
<path d="M176.429 351.992C175.051 348.893 171.545 343.762 168.949 340.139C167.306 339.479 165.607 338.662 163.981 337.646C157.23 333.426 155.965 333.426 155.965 341.022C155.965 348.617 165.248 352.414 170.31 356.211C175.373 360.009 178.327 362.118 182.124 361.696C183.051 361.593 183.875 360.558 184.595 359.058C181.648 358.179 178.354 356.321 176.429 351.992Z" stroke="#263238" stroke-width="1.22348" stroke-miterlimit="10" stroke-linecap="round" stroke-linejoin="round"/>
<path d="M50.5454 209.151C50.6017 208.542 50.6604 207.933 50.724 207.325" stroke="#243547" stroke-width="1.22348" stroke-miterlimit="10"/>
<path d="M51.1333 203.697C62.0174 115.347 137.334 46.9432 228.628 46.9432C319.542 46.9432 394.613 114.78 405.984 202.598" stroke="#243547" stroke-width="1.22348" stroke-miterlimit="10" stroke-dasharray="3.65 3.65"/>
<path d="M406.208 204.41C406.28 205.017 406.349 205.625 406.416 206.233" stroke="#243547" stroke-width="1.22348" stroke-miterlimit="10"/>
<path d="M74.7459 85.1244L58.9238 134.49L121.58 143.983L132.339 98.4151C132.339 98.4151 94.3657 95.8825 74.7459 85.1244Z" fill="white" stroke="#243547" stroke-width="1.22348" stroke-miterlimit="10" stroke-linecap="round" stroke-linejoin="round"/>
<path d="M139.932 53.479C139.932 53.479 169.677 56.6429 191.196 42.0872C191.196 42.0872 217.777 62.972 227.904 64.8709C227.904 64.8709 212.082 81.9592 195.626 87.022C195.626 87.022 155.121 68.6685 139.932 53.479Z" fill="white" stroke="#243547" stroke-width="1.22348" stroke-miterlimit="10" stroke-linecap="round" stroke-linejoin="round"/>
<path d="M139.932 53.479C139.932 53.479 145.199 48.9839 154.692 46.4525C154.692 46.4525 154.692 59.3652 164.866 70.9136C164.866 70.9136 146.448 60.9973 139.932 53.479Z" fill="#243547" stroke="#243547" stroke-width="1.22348" stroke-miterlimit="10" stroke-linecap="round" stroke-linejoin="round"/>
<path d="M257.368 74.2587C257.368 74.2587 256.323 77.4311 262.642 82.697C265.522 85.0963 272.002 86.0567 272.002 86.0567L289.012 64.7644C289.012 64.7644 261.165 68.5621 257.368 74.2587Z" fill="#243547" stroke="#243547" stroke-width="1.22348" stroke-miterlimit="10" stroke-linecap="round" stroke-linejoin="round"/>
<path d="M257.368 74.2586C257.368 74.2586 270.658 69.1959 286.48 69.8284C302.302 70.4609 311.163 81.8528 311.163 81.8528L329.516 59.0691C329.516 59.0691 313.694 44.5133 295.973 45.1459C278.253 45.7784 258.633 69.1959 257.368 74.2586Z" fill="white" stroke="#243547" stroke-width="1.22348" stroke-miterlimit="10" stroke-linecap="round" stroke-linejoin="round"/>
<path d="M364.062 86.4396C364.062 86.4396 352.67 116.397 327.776 120.615C327.776 120.615 352.669 150.15 366.593 153.526C366.593 153.526 394.862 140.867 402.457 127.366C402.457 127.366 377.563 113.021 364.062 86.4396Z" fill="white" stroke="#243547" stroke-width="1.22348" stroke-miterlimit="10" stroke-linecap="round" stroke-linejoin="round"/>
<path d="M92.4716 239.048L103.529 192.185H29.2861L27.7053 239.048H92.4716Z" fill="#243547" stroke="#243547" stroke-width="1.22348" stroke-miterlimit="10" stroke-linecap="round" stroke-linejoin="round"/>
<path d="M37.6207 174.818L37.3833 228.652L92.9343 234.295L97.1162 177.054L37.6207 174.818Z" fill="white" stroke="#243547" stroke-width="1.22348" stroke-miterlimit="10" stroke-linecap="round" stroke-linejoin="round"/>
<path d="M19.2795 183.76L27.7044 239.048H92.4707L88.2583 189.026H53.5052L50.3462 182.708L19.2795 183.76Z" fill="#2950DA" stroke="#243547" stroke-width="1.22348" stroke-miterlimit="10" stroke-linecap="round" stroke-linejoin="round"/>
<path d="M371.345 239.048L360.287 192.185H434.531L436.11 239.048H371.345Z" fill="#243547" stroke="#243547" stroke-width="1.22348" stroke-miterlimit="10" stroke-linecap="round" stroke-linejoin="round"/>
<path d="M426.195 174.818L426.434 228.652L370.883 234.295L366.699 177.054L426.195 174.818Z" fill="white" stroke="#243547" stroke-width="1.22348" stroke-miterlimit="10" stroke-linecap="round" stroke-linejoin="round"/>
<path d="M444.534 183.76L436.109 239.048H371.344L375.556 189.026H410.308L413.467 182.708L444.534 183.76Z" fill="#2950DA" stroke="#243547" stroke-width="1.22348" stroke-miterlimit="10" stroke-linecap="round" stroke-linejoin="round"/>
</svg>
