<svg width="29" height="29" viewBox="0 0 29 29" fill="none" xmlns="http://www.w3.org/2000/svg">
<ellipse cx="14.3709" cy="14.0938" rx="14.3387" ry="14" fill="#471303"/>
<path d="M20.4443 10.6364C20.0151 10.8227 19.5621 10.9391 19.0853 11.0089C19.5621 10.7295 19.9436 10.2872 20.1105 9.75182C19.6575 10.0079 19.1568 10.1941 18.6084 10.3105C18.1793 9.86822 17.5594 9.58887 16.8918 9.58887C15.6043 9.58887 14.5552 10.6131 14.5552 11.8702C14.5552 12.0564 14.5791 12.2194 14.6268 12.3823C12.6955 12.2892 10.9551 11.3814 9.78679 9.98461C9.59606 10.3338 9.47684 10.7063 9.47684 11.1253C9.47684 11.9168 9.88216 12.6151 10.5259 13.0342C10.1444 13.0109 9.78679 12.9178 9.453 12.7548V12.7781C9.453 13.8955 10.2636 14.8266 11.3365 15.0362C11.1458 15.0827 10.9312 15.106 10.7166 15.106C10.5736 15.106 10.4067 15.0827 10.2636 15.0594C10.5736 15.9673 11.4319 16.6424 12.4571 16.6424C11.6465 17.2477 10.6451 17.6201 9.54837 17.6201C9.35763 17.6201 9.1669 17.6201 9 17.5968C10.0491 18.2487 11.265 18.6211 12.6002 18.6211C16.9156 18.6211 19.276 15.1293 19.276 12.103C19.276 12.0099 19.276 11.8935 19.276 11.8004C19.729 11.4977 20.1343 11.102 20.4443 10.6364Z" fill="white" fill-opacity="0.9"/>
</svg>
