<svg width="23" height="24" viewBox="0 0 23 24" fill="none" xmlns="http://www.w3.org/2000/svg">
<path fill-rule="evenodd" clip-rule="evenodd" d="M11.5 23.5C17.8513 23.5 23 18.3513 23 12C23 5.64873 17.8513 0.5 11.5 0.5C5.14873 0.5 0 5.64873 0 12C0 18.3513 5.14873 23.5 11.5 23.5ZM14.9274 8.99249C15.3161 8.6225 15.9311 8.63765 16.3011 9.02632C16.6711 9.415 16.6559 10.03 16.2673 10.4L10.5764 15.8172C10.3847 15.9997 10.1268 16.0961 9.86235 16.0841C9.5979 16.0721 9.34981 15.9526 9.17544 15.7535L6.98667 13.2532C6.6332 12.8494 6.67398 12.2356 7.07774 11.8821C7.48151 11.5287 8.09536 11.5694 8.44883 11.9732L9.97033 13.7112L14.9274 8.99249Z" fill="#167B59"/>
</svg>
