<svg width="108" height="20" viewBox="0 0 108 20" fill="none" xmlns="http://www.w3.org/2000/svg">
<path d="M38.7461 19.4614C34.8527 19.4614 31.2386 18.2938 28.8262 16.1285C27.0036 14.4926 26.1278 12.2705 26.1278 9.98349C26.1278 7.72431 27.0414 5.48692 28.826 3.85965C31.0664 1.81779 35.0219 0.539062 38.7461 0.539062C42.8673 0.539062 46.1659 1.57715 48.6875 3.86526C50.4816 5.49339 51.349 7.72085 51.349 9.98371C51.349 12.1771 50.4285 14.5129 48.6875 16.1285C46.3394 18.3078 42.6494 19.4614 38.7461 19.4614V16.9657C40.8125 16.9657 42.7294 16.2522 44.0681 14.9201C45.3976 13.5972 46.017 11.971 46.017 9.98349C46.017 8.07954 45.3488 6.29947 44.0681 5.03693C42.7473 3.73598 40.7847 3.00393 38.7461 3.00393C36.7012 3.00393 34.7372 3.72843 33.4153 5.03693C32.1416 6.29904 31.4717 8.08429 31.4717 9.98349C31.4717 11.8769 32.1494 13.661 33.4153 14.9203C34.7383 16.2364 36.6954 16.9657 38.7461 16.9657V19.4614ZM10.2895 0.548127C8.20689 0.548127 5.84088 0.937679 3.83053 1.83548C1.97514 2.66336 0.456421 4.0023 0.456421 6.22199C0.455558 8.22112 1.72608 9.39194 1.69155 9.35956C2.23196 9.85702 3.10192 10.7041 5.37643 11.2016C6.39294 11.4239 8.56623 11.7653 10.7305 11.9915C12.8787 12.2181 14.9929 12.4335 15.854 12.6514C16.5381 12.8256 17.6874 13.0628 17.6874 14.3521C17.6874 15.6362 16.4766 16.0281 16.2662 16.1132C16.056 16.1963 14.6035 16.8627 11.9926 16.8627C10.0649 16.8627 7.74742 16.283 6.9027 15.9809C5.92893 15.6343 4.90746 15.1759 3.95462 14.012C3.71765 13.7234 3.34386 12.9298 3.34386 12.1441H0.98086V18.7654H3.60737V17.8708C3.60737 17.7689 3.7347 17.35 4.17562 17.5492C4.72423 17.7985 6.33467 18.4397 8.01848 18.7913C9.39907 19.08 10.2893 19.287 12.0057 19.287C14.8062 19.287 16.3107 18.8308 17.3507 18.5338C18.3305 18.2532 19.5412 17.7495 20.5247 16.9652C21.0574 16.5411 22.2254 15.4541 22.2254 13.4808C22.2254 11.5868 21.2089 10.4112 20.8513 10.0536C20.3642 9.56632 19.7691 9.18863 19.1491 8.8975C18.6089 8.64326 17.7564 8.33788 17.0589 8.16717C15.7051 7.83481 12.6439 7.42475 11.18 7.27152C9.64489 7.11117 6.98191 6.8906 5.91835 6.56148C5.59592 6.46155 4.93854 6.1484 4.93854 5.38527C4.93854 4.84248 5.23917 4.38236 5.83332 4.0105C6.77645 3.41959 8.68148 3.05227 10.6672 3.05227C13.0149 3.04364 15.003 3.58038 16.2677 4.14582C16.6978 4.3379 17.2011 4.61372 17.6008 4.94003C18.0519 5.30779 18.6851 6.072 18.9141 7.13793H21.0356V1.37428H18.6667V2.04418C18.6667 2.26043 18.4434 2.54143 18.021 2.30921C16.9609 1.75304 13.9636 0.553091 10.2891 0.548127M62.2012 1.59549L73.7566 12.0238L73.6379 5.00262C73.6262 4.08194 73.4566 3.69757 72.4608 3.69757H70.2881V1.59722H80.1683V3.69757H78.049C77.0333 3.69757 76.9692 4.02237 76.9569 5.00262L77.1361 18.4185H73.7525L60.4429 6.5399L60.4457 14.9702C60.4574 15.8866 60.5003 16.3182 61.4446 16.3182H63.8175V18.4177H54.1143V16.3184H56.3825C57.2298 16.3184 57.1962 15.5106 57.1962 14.9225V5.08247C57.1962 4.44732 57.107 3.69908 55.7767 3.69908H53.9362V1.59549H62.2012ZM91.4584 16.3143C91.5512 16.3143 91.9634 16.3024 92.0433 16.2781C92.2714 16.2068 92.4262 16.0441 92.4978 15.8745C92.528 15.8033 92.5431 15.4882 92.5431 15.4197L92.5449 12.1005C92.5449 12.0206 92.539 11.9861 92.4035 11.8082C92.2546 11.614 86.3509 4.92363 86.0807 4.62904C85.7451 4.26323 85.1559 3.69778 84.2607 3.69778H82.2076V1.59657H93.7942V3.69519H92.3974C92.0744 3.69519 91.8596 4.00165 92.1357 4.34222C92.1357 4.34222 96.034 9.00541 96.0709 9.05418C96.1072 9.10382 96.1382 9.11569 96.1879 9.07037C96.2366 9.02396 100.184 4.38495 100.215 4.34826C100.403 4.12338 100.275 3.69757 99.8708 3.69757H98.438V1.59657H107.934V3.69757H105.813C105.043 3.69757 104.73 3.84001 104.151 4.49458C103.886 4.79414 97.9192 11.6047 97.7569 11.7892C97.6718 11.8857 97.6792 12.0202 97.6792 12.1V15.4189C97.6792 15.4862 97.6943 15.8017 97.7245 15.8725C97.7964 16.043 97.952 16.2058 98.1799 16.2761C98.2597 16.3007 98.6663 16.3128 98.7589 16.3128H100.929V18.4136H89.4021V16.3126L91.4589 16.3143H91.4584Z" fill="#E3EAF3"/>
</svg>
