<svg width="86" height="26" viewBox="0 0 86 26" fill="none" xmlns="http://www.w3.org/2000/svg">
<path fill-rule="evenodd" clip-rule="evenodd" d="M10.0067 14.896C12.6527 15.8074 14.912 16.3653 14.912 19.2544C14.912 19.6079 14.8733 19.9983 14.796 20.4255C14.1055 24.5629 10.7524 25.7174 6.69232 25.7174C4.69816 25.7174 2.25657 25.4744 0.389465 25.0104L1.24568 22.1379C2.64325 22.403 4.65949 22.6406 6.1123 22.6406C7.5872 22.6406 10.3989 22.6792 10.7524 20.5746C10.7911 20.4089 10.8077 20.2597 10.8077 20.1106C10.8077 18.4865 9.09524 18.3208 7.5872 17.8347C5.0296 17.0558 2.58801 16.3819 2.58801 13.4432C2.58801 13.1191 2.61931 12.7637 2.68191 12.377C3.33374 8.44949 6.39402 7.32812 10.0619 7.32812C12.6361 7.32812 14.6855 7.53804 16.8288 8.01862L15.9726 10.8303C14.575 10.5541 12.7853 10.3497 11.1446 10.3497C9.63659 10.3497 6.96851 10.3497 6.67022 12.1726C6.64812 12.2868 6.63708 12.3991 6.63708 12.5096C6.63708 14.095 8.6478 14.4099 10.0067 14.896Z" fill="#E3EAF3"/>
<path fill-rule="evenodd" clip-rule="evenodd" d="M32.3732 20.8879C32.1854 22.0645 31.9423 23.0865 31.6661 24.1691C29.3902 25.3071 26.5785 25.7545 23.1095 25.7545C18.7511 25.7545 16.9392 24.3183 16.9392 21.5232C16.9392 21.1144 16.9779 20.6504 17.0552 20.1643C17.5745 17.0322 19.309 15.0767 22.9769 14.5574C25.065 14.2591 27.3408 14.1652 29.6333 14.0934C29.6959 13.7178 29.7272 13.3698 29.7272 13.0494C29.7272 11.2596 28.7218 10.3482 26.3134 10.3482C24.0983 10.3482 21.0435 10.7017 19.1046 10.9448L19.9995 8.0723C22.0489 7.74086 24.4684 7.36523 27.1917 7.36523C30.8651 7.36523 33.8094 8.24354 33.8094 11.7236C33.8094 12.1158 33.7707 12.5246 33.6934 12.9942L32.3732 20.8879ZM20.9717 20.1035C20.933 20.3852 20.8944 20.6228 20.8944 20.8492C20.8944 22.4678 22.0875 22.8986 24.159 22.8986C25.3688 22.8986 26.8934 22.8047 28.1473 22.2855C28.3517 21.5563 28.534 20.6835 28.6666 19.8825L29.2245 16.5847C27.5673 16.64 25.6671 16.6731 24.0983 17.0101C22.1041 17.441 21.3252 18.0154 20.9717 20.1035ZM41.2281 25.506H37.2785L39.7366 10.9392H36.124L36.9967 8.0723H40.2227L40.5597 5.89033C41.1342 2.4268 43.3714 0.449219 47.2492 0.449219C47.9397 0.449219 49.4864 0.581794 50.2322 0.692273L49.4091 3.33826C49.4091 3.33826 48.0889 3.26092 47.5475 3.28302C45.9456 3.32168 44.8242 4.08399 44.5259 5.77985L44.1724 8.0723H47.9563L47.078 10.9392H43.6863L41.2281 25.506Z" fill="#E3EAF3"/>
<path fill-rule="evenodd" clip-rule="evenodd" d="M63.0147 20.8892C62.8269 22.0658 62.5839 23.0877 62.3021 24.1704C60.0484 25.3084 57.2146 25.7558 53.751 25.7558C49.3871 25.7558 47.5807 24.3196 47.5807 21.5244C47.5807 21.1157 47.6194 20.6516 47.7133 20.1655C48.2326 17.0334 49.9671 15.078 53.6184 14.5587C55.7231 14.2604 57.9824 14.1665 60.2914 14.0947C60.354 13.7191 60.3853 13.371 60.3853 13.0507C60.3853 11.2609 59.3579 10.3494 56.9549 10.3494C54.7398 10.3494 52.1656 10.5704 50.2433 10.7969L51.0829 8.05699C53.1323 7.74212 55.1265 7.36649 57.8332 7.36649C61.5012 7.36649 64.4454 8.2448 64.4454 11.7249C64.4454 12.1171 64.4123 12.5259 64.335 12.9954L63.0147 20.8892ZM51.6077 20.1048C51.5746 20.3865 51.5525 20.624 51.5525 20.8505C51.5525 22.469 52.7291 22.8999 54.8172 22.8999C56.0269 22.8999 57.5349 22.806 58.8055 22.2867C59.0098 21.5576 59.1756 20.6848 59.3247 19.8838L59.8661 16.586C58.2254 16.6412 56.3086 16.6744 54.7398 17.0113C52.7457 17.4422 51.9613 18.0167 51.6077 20.1048ZM65.4729 25.5072L67.6935 12.2276C67.8979 11.0344 68.1244 10.007 68.4006 8.92978C70.6544 7.80841 73.5268 7.36097 75.9519 7.36097C76.565 7.36097 77.3108 7.41621 77.8521 7.47697L76.9186 10.4765C76.5264 10.4378 75.9684 10.3992 75.4492 10.3992C74.256 10.3992 72.8198 10.6035 71.9636 10.9957C71.7592 11.7194 71.5714 12.5977 71.4388 13.3987L69.406 25.5072H65.4729ZM84.7074 7.60402L81.7078 25.5072H77.7361L80.7411 7.60402H84.7074ZM85.9724 2.7816C85.7514 4.15707 84.4643 5.295 83.0667 5.295C81.6692 5.295 80.7191 4.15707 80.9234 2.7816C81.1444 1.38403 82.4481 0.246094 83.829 0.246094C85.2266 0.246094 86.1767 1.38403 85.9724 2.7816Z" fill="#E3EAF3"/>
</svg>
