<svg width="49" height="32" viewBox="0 0 49 32" fill="none" xmlns="http://www.w3.org/2000/svg">
<path d="M44.7756 31.9297C42.5538 31.9297 41.236 30.8006 41.1352 29.1743H43.2596C43.2596 29.7164 43.5621 30.438 44.8764 30.4829C45.7874 30.4829 46.2916 29.9408 46.2916 29.5334C46.1907 28.9015 45.3806 28.8565 44.5739 28.7184C43.8449 28.6329 43.1306 28.4517 42.4495 28.1797C42.1032 27.9872 41.8165 27.7045 41.6204 27.3618C41.4243 27.0192 41.3263 26.6298 41.3369 26.2358C41.3369 24.789 42.5538 23.6599 44.6748 23.6599C46.6984 23.6599 48.0127 24.6993 48.11 26.2807H46.0899C46.0899 25.8767 45.9891 25.1965 44.7756 25.1965C43.9655 25.1965 43.4613 25.3311 43.3605 25.9181C43.3605 26.733 45.0781 26.6882 46.3924 27.0024C47.6059 27.3201 48.416 28.0866 48.416 29.1743C48.416 31.1631 46.7992 31.9297 44.7756 31.9297Z" fill="#E3EAF3"/>
<path d="M6.06409 18.5852L13.039 14.5625L16.7802 20.9367H7.37855" fill="#E3EAF3"/>
<path d="M20.7325 31.6878V23.6426V31.6878Z" fill="#E3EAF3"/>
<path d="M20.7325 31.6878V23.6426" stroke="#E3EAF3" stroke-width="2.04105"/>
<path d="M2.82665 27.7841C2.82665 29.0478 3.93928 30.0871 5.14927 30.0871C6.46704 30.0871 7.47536 29.0478 7.47536 27.7841C7.47536 26.5652 6.46704 25.481 5.14927 25.481C4.54046 25.5016 3.9622 25.7507 3.53113 26.1782C3.10007 26.6056 2.8483 27.1795 2.82665 27.7841ZM5.04844 31.9414C2.82665 31.9414 0.907349 30.0872 0.907349 27.7841C0.907349 25.481 2.82665 23.6716 5.04844 23.6716C5.95941 23.6716 6.76954 23.8996 7.47536 24.3934V23.7614H9.49897V31.7584H7.47536V31.2611C6.87037 31.7134 5.95941 31.9414 5.04844 31.9414Z" fill="#E3EAF3"/>
<path d="M32.0452 20.9329L22.3408 4.12416L29.3158 0.0566406L41.447 20.9329" fill="#E3EAF3"/>
<path d="M12.1284 27.7816C12.1284 29.0454 13.1402 30.0846 14.4545 30.0846C15.6645 30.0846 16.7806 29.0454 16.7806 27.7816C16.7581 27.1767 16.5056 26.6028 16.0739 26.1755C15.6423 25.7481 15.0636 25.4991 14.4545 25.4785C13.8396 25.4812 13.2506 25.7245 12.8152 26.1557C12.3797 26.5868 12.133 27.171 12.1284 27.7816ZM14.3537 31.9389C13.8056 31.9399 13.2628 31.8326 12.7568 31.6235C12.2508 31.4144 11.7916 31.1076 11.4061 30.7208C11.0205 30.334 10.7161 29.875 10.5106 29.3704C10.3051 28.8659 10.2026 28.3258 10.2091 27.7816C10.2091 25.4785 12.0276 23.6692 14.3537 23.6692C15.2611 23.6692 16.0713 23.8971 16.7806 24.3909V21.0035H18.8007V31.7559H16.7806V31.2586C16.0558 31.7157 15.2121 31.9523 14.3537 31.9389Z" fill="#E3EAF3"/>
<path d="M14.2523 11.3981L21.3282 7.42383L29.1129 20.9316H21.7314V22.9204H19.7112V20.9316" fill="#E3EAF3"/>
<path d="M47.106 22.9859C46.8419 22.9783 46.5906 22.8714 46.4028 22.6868C46.215 22.5022 46.1047 22.2537 46.0942 21.9915C46.1047 21.7293 46.215 21.4808 46.4028 21.2963C46.5906 21.1117 46.8419 21.0048 47.106 20.9971C47.2391 20.9933 47.3715 21.0165 47.4952 21.065C47.619 21.1135 47.7316 21.1863 47.8262 21.2793C47.9208 21.3723 47.9954 21.4833 48.0455 21.6057C48.0956 21.7282 48.1202 21.8594 48.1178 21.9915C48.1202 22.1236 48.0956 22.2549 48.0455 22.3773C47.9954 22.4997 47.9208 22.6108 47.8262 22.7037C47.7316 22.7967 47.619 22.8697 47.4952 22.9182C47.3715 22.9667 47.2391 22.9897 47.106 22.9859ZM47.106 21.1352C46.5984 21.1352 46.2959 21.5392 46.2959 21.9915C46.2959 22.4438 46.5984 22.8513 47.106 22.8513C47.6102 22.8513 47.9127 22.4438 47.9127 21.9915C47.9127 21.5392 47.6102 21.1352 47.106 21.1352Z" fill="#E3EAF3"/>
<path d="M47.3152 22.5374L47.1135 22.085H46.9118V22.5374H46.7589V21.4531H47.2143C47.3152 21.4531 47.5169 21.5913 47.5169 21.7708C47.5203 21.8375 47.5027 21.9036 47.4666 21.96C47.4304 22.0163 47.3775 22.06 47.3152 22.085L47.5169 22.5374M47.1135 21.5912H46.9118V21.9504H47.1135C47.3152 21.9504 47.3152 21.9055 47.3152 21.7708C47.3152 21.6776 47.3152 21.5912 47.1135 21.5912ZM33.755 27.7858C33.755 29.0495 34.7668 30.0888 36.0811 30.0888C37.2945 30.0888 38.4037 29.0495 38.4037 27.7858C38.3828 27.1809 38.1313 26.6065 37.7001 26.1789C37.2689 25.7513 36.6901 25.5025 36.0811 25.4827C35.4662 25.4854 34.8772 25.7287 34.4417 26.1598C34.0063 26.591 33.7595 27.1752 33.755 27.7858ZM35.9768 31.9431C35.429 31.9436 34.8866 31.8361 34.381 31.6268C33.8754 31.4175 33.4166 31.1104 33.0314 30.7237C32.6462 30.337 32.3421 29.8782 32.1369 29.3739C31.9316 28.8695 31.8292 28.3297 31.8357 27.7858C31.8357 25.4827 33.6541 23.6733 35.9768 23.6733C36.8877 23.6733 37.6979 23.9013 38.4037 24.395V23.7631H40.3265V31.7601H38.4037V31.2628C37.6793 31.7208 36.8354 31.9575 35.9768 31.9431ZM24.461 27.7858C24.461 29.0495 25.5736 30.0888 26.7871 30.0888C28.1014 30.0888 29.1132 29.0495 29.1132 27.7858C29.1086 27.1752 28.8619 26.591 28.4264 26.1598C27.991 25.7287 27.402 25.4854 26.7871 25.4827C26.1777 25.5025 25.5985 25.7512 25.1667 26.1787C24.7349 26.6062 24.4827 27.1806 24.461 27.7858ZM29.1132 21.0077H31.1333V31.7601H29.1132V31.2628C28.4319 31.7325 27.616 31.9712 26.7871 31.9431C24.461 31.9431 22.5417 30.0889 22.5417 27.7858C22.5417 25.4827 24.461 23.6733 26.7871 23.6733C27.6946 23.6733 28.5047 23.9013 29.1132 24.395V21.0077Z" fill="#E3EAF3"/>
</svg>
