<svg width="111" height="22" viewBox="0 0 111 22" fill="none" xmlns="http://www.w3.org/2000/svg">
<g clip-path="url(#clip0_192_3747)">
<path fill-rule="evenodd" clip-rule="evenodd" d="M9.29193 0.347759C10.3955 0.340097 11.459 0.760868 12.2587 1.52151C13.0583 2.28215 13.5316 3.32334 13.5791 4.42594C13.6265 5.52853 13.2444 6.60653 12.513 7.43305C11.7817 8.25957 10.7583 8.77015 9.65811 8.85732V5.57597C9.88417 5.49038 10.0731 5.32822 10.1919 5.11773C10.3107 4.90723 10.352 4.66173 10.3085 4.42396C10.265 4.18618 10.1395 3.97119 9.95379 3.81641C9.76812 3.66163 9.53405 3.57687 9.29233 3.57687C9.05061 3.57687 8.81654 3.66163 8.63087 3.81641C8.4452 3.97119 8.31969 4.18618 8.27618 4.42396C8.23268 4.66173 8.27393 4.90723 8.39277 5.11773C8.5116 5.32822 8.70049 5.49038 8.92655 5.57597V8.85732C7.83357 8.76069 6.81993 8.24637 6.09655 7.42135C5.37316 6.59633 4.99574 5.52416 5.04281 4.42793C5.08988 3.3317 5.55782 2.29583 6.34926 1.53586C7.1407 0.775885 8.1947 0.350337 9.29193 0.347759ZM4.25943 8.33805C5.38994 8.33805 6.47419 8.78692 7.27388 9.58601C8.07356 10.3851 8.52324 11.469 8.52408 12.5995C8.52397 13.6671 8.12316 14.6958 7.40096 15.482C6.67875 16.2682 5.68775 16.7547 4.62403 16.8452V13.5663C4.85036 13.481 5.03961 13.3191 5.1588 13.1086C5.27799 12.8982 5.31956 12.6526 5.27627 12.4146C5.23298 12.1767 5.10758 11.9615 4.92191 11.8065C4.73624 11.6515 4.50208 11.5666 4.26022 11.5665C3.68729 11.5665 3.22405 12.0298 3.22405 12.6003C3.22405 13.0423 3.50499 13.4203 3.89642 13.5663V16.846C2.80231 16.7516 1.78689 16.2384 1.06192 15.4136C0.336951 14.5887 -0.0415974 13.5158 0.00522085 12.4186C0.0520391 11.3215 0.520609 10.2847 1.31321 9.52461C2.10582 8.7645 3.16126 8.33971 4.25943 8.33884M14.1066 8.33805C15.205 8.33832 16.2609 8.76268 17.0539 9.5226C17.847 10.2825 18.316 11.3193 18.3631 12.4167C18.4103 13.514 18.0319 14.5872 17.3069 15.4123C16.5819 16.2375 15.5663 16.7508 14.472 16.8452V13.5663C14.6983 13.4809 14.8874 13.3189 15.0065 13.1084C15.1256 12.8979 15.1671 12.6523 15.1237 12.4144C15.0803 12.1765 14.9548 11.9614 14.7691 11.8065C14.5834 11.6516 14.3492 11.5667 14.1074 11.5667C13.8656 11.5667 13.6314 11.6516 13.4457 11.8065C13.26 11.9614 13.1345 12.1765 13.0912 12.4144C13.0478 12.6523 13.0892 12.8979 13.2083 13.1084C13.3274 13.3189 13.5166 13.4809 13.7428 13.5663V16.846C12.6794 16.7551 11.6888 16.2684 10.9669 15.4823C10.245 14.6961 9.84442 13.6676 9.84435 12.6003C9.84435 10.2478 11.7557 8.33884 14.1058 8.33884M6.16053 21.1691H12.2229C10.3021 19.3295 9.42925 16.966 9.14831 14.3065C8.8358 17.093 7.75938 19.3201 6.16053 21.1691Z" fill="#E3EAF3"/>
<path fill-rule="evenodd" clip-rule="evenodd" d="M21.3659 11.1724V9.33445C21.7947 9.66169 22.2614 9.83715 22.7659 9.86083C23.3994 9.83663 23.7768 9.56279 23.8984 9.03931C23.9718 8.69602 23.9142 8.40955 23.7248 8.17359C23.5311 7.9379 23.2055 7.66195 22.7478 7.34576C22.2911 7.02852 21.9549 6.75415 21.7392 6.52266C21.2594 6.04206 21.0085 5.38469 20.98 4.54423C21.0085 4.07389 21.0668 3.69667 21.1615 3.41414C21.3241 2.86804 21.6232 2.43558 22.0659 2.12149C22.5084 1.81109 23.0077 1.65536 23.5638 1.65431C24.3979 1.65273 24.6718 1.8082 25.221 2.11834V3.9926C24.7422 3.59065 24.2753 3.38994 23.8202 3.39047C23.3073 3.39047 22.9877 3.69667 22.8693 4.31379C22.8782 4.53528 22.9406 4.7431 23.0563 4.93723C23.171 5.12979 23.342 5.32392 23.5693 5.51963C23.7971 5.71745 24.0373 5.9058 24.2898 6.08468C24.5413 6.26671 24.6767 6.36509 24.6962 6.37982C25.0445 6.65498 25.3115 6.99616 25.4972 7.40337C25.6803 7.80742 25.7726 8.25251 25.7726 8.73074C25.7726 9.2537 25.655 9.74009 25.4199 10.1899C25.1929 10.6295 24.8499 10.9985 24.4279 11.2569C24.007 11.5168 23.5256 11.6467 22.9837 11.6467C22.4297 11.6472 21.8905 11.4891 21.3659 11.1724ZM26.9485 1.8082H29.1574C29.87 1.8082 30.4626 2.00707 30.9448 2.40007C31.4215 2.79228 31.7071 3.38495 31.7908 4.17332V4.59789C31.7908 5.45124 31.4567 6.08415 30.7886 6.49662C31.5359 6.91724 31.9234 7.65432 31.9589 8.70628C31.9865 9.29815 31.8642 9.80164 31.5982 10.2302C31.3366 10.6505 30.9535 10.9815 30.4997 11.1795C30.0346 11.3889 29.5101 11.4936 28.9261 11.4936H26.9485V1.8082ZM28.8764 3.41414V5.77848C29.1218 5.79426 29.3736 5.70982 29.6206 5.51963C29.87 5.33339 29.9989 5.0343 30.0073 4.62236C30.0068 4.24461 29.9192 3.9492 29.7445 3.73612C29.5654 3.52147 29.2955 3.41414 28.9261 3.41414H28.8764ZM28.8764 7.25343V9.88687C29.1503 9.89634 29.3815 9.83715 29.563 9.71325C29.7456 9.58962 29.8787 9.421 29.9623 9.2074C30.0439 8.9938 30.0846 8.76231 30.0846 8.51293C30.0836 8.16255 29.9826 7.86529 29.7816 7.62118C29.5817 7.37654 29.2799 7.25395 28.8764 7.25343ZM33.1734 11.4936H35.0982V1.8082H33.1734V11.4936ZM40.1449 1.8082H42.6465L43.5738 7.5249H43.5975L44.3827 1.8082H46.9648L47.9671 11.4936H46.0155C45.9865 11.099 45.9539 10.6108 45.9176 10.0289L45.8008 8.2825C45.7622 7.69852 45.7164 7.02457 45.6667 6.25277C45.6301 5.67437 45.587 5.0964 45.5373 4.51897H45.5112C45.451 5.13492 45.376 5.74933 45.2863 6.36167C45.1984 6.99143 45.0961 7.61618 44.9793 8.23594C44.8636 8.8578 44.7689 9.35944 44.6952 9.74087C44.6221 10.1213 44.5179 10.7052 44.3827 11.4928H42.9038C42.8446 11.1772 42.701 10.4432 42.4737 9.29815C42.2965 8.41482 42.126 7.53014 41.9623 6.64419C41.8419 5.99912 41.7366 5.3513 41.6467 4.70127V4.51897H41.6206L41.3507 11.4936H39.2831L40.1449 1.8082ZM48.9756 1.8082H50.8759V8.60132C50.8759 9.47519 51.1929 9.91239 51.8269 9.91291C52.2388 9.92396 52.5008 9.80243 52.6153 9.56173C52.7331 9.31446 52.7915 8.95618 52.7905 8.48689V1.80898H54.716V8.887C54.716 9.74193 54.5174 10.4098 54.1202 10.8907C53.7233 11.3689 52.968 11.6238 51.8545 11.6483C51.0048 11.6656 50.3122 11.4599 49.7766 11.0312C49.2447 10.6042 48.9756 9.88056 48.9756 8.85938V1.8082ZM55.6251 1.8082H60.5298V3.5925H59.0264V11.492H57.1269V3.59407H55.6251V1.80898V1.8082ZM61.4365 1.8082H63.3384V8.60132C63.3379 9.47519 63.6549 9.91239 64.2894 9.91291C64.7013 9.92396 64.9641 9.80243 65.0785 9.56173C65.1969 9.31473 65.2522 8.95645 65.2522 8.48689V1.80898H67.1801V8.887C67.1801 9.74193 66.9812 10.4098 66.5835 10.8907C66.1842 11.3689 65.4273 11.6238 64.3138 11.6483C63.4668 11.6656 62.776 11.4599 62.2415 11.0312C61.7049 10.6045 61.4365 9.88056 61.4365 8.85938V1.8082ZM70.2452 1.8082H72.2489L74.573 11.4936H72.5432L72.1708 9.86083H70.2444L69.8822 11.4936H67.9803L70.2452 1.8082ZM71.9016 8.33458L71.1953 4.28696H71.1677L70.5396 8.333H71.9009L71.9016 8.33458ZM75.4032 1.8082H77.3311V9.68011H79.3087V11.4936H75.4024L75.4032 1.8082ZM83.4006 1.8082H87.2659V3.5925H85.3245V5.67589H87.0868V7.47439H85.3245V11.4944H83.4006V1.8082ZM88.4938 1.8082H90.3957V8.60132C90.3952 9.47519 90.7122 9.91239 91.3467 9.91291C91.7547 9.92396 92.0206 9.80243 92.1374 9.56173C92.2516 9.31446 92.3086 8.95618 92.3086 8.48689V1.80898H94.2342V8.887C94.2347 9.74193 94.0361 10.4098 93.6384 10.8907C93.2399 11.3689 92.4846 11.6238 91.3711 11.6483C90.5225 11.6656 89.8307 11.4599 89.2956 11.0312C88.7611 10.6045 88.4938 9.88056 88.4938 8.85938V1.8082ZM95.62 1.8082H97.443L99.8562 7.65432L99.8822 7.6267C99.8144 7.39522 99.7631 7.05245 99.7284 6.59842V1.8082H101.629V11.4936H99.8286L97.4422 5.64906L97.4169 5.6751C97.4853 6.27487 97.5276 6.73258 97.544 7.04825V11.4936H95.62V1.8082ZM103.038 1.8082H104.966C106.316 1.8082 107.313 2.29353 107.951 3.25947C108.587 4.22856 108.883 5.4565 108.827 6.94723C108.725 9.97762 107.386 11.4928 104.809 11.4928H103.038V1.8082ZM104.966 3.51595V9.78507C105.657 9.79296 106.155 9.47861 106.458 8.84202C106.762 8.20121 106.915 7.44046 106.915 6.54792C106.915 5.75086 106.751 5.04693 106.416 4.43375C106.081 3.82451 105.597 3.51595 104.966 3.51595ZM22.2616 16.04H22.7738L23.8116 20.8705H23.1629L22.9735 19.9345H22.0257L21.8371 20.8705H21.2097L22.2616 16.04ZM22.8898 19.4287L22.5094 16.9688H22.4984L22.1141 19.4287H22.8898ZM30.8414 20.8705V16.04H31.7537C32.1683 16.041 32.4705 16.1413 32.6605 16.3407C32.8472 16.5427 32.9469 16.8591 32.9596 17.29C32.9635 17.8314 32.8506 18.2055 32.6218 18.4185C32.3929 18.6269 32.0678 18.7358 31.6543 18.7437C31.6054 18.7345 31.5557 18.73 31.5059 18.7302V20.8705H30.8414ZM31.5059 18.1952C31.7458 18.2057 31.9294 18.1557 32.0567 18.0452C32.1856 17.9348 32.2496 17.7341 32.2485 17.4431C32.2485 17.1327 32.1893 16.9081 32.071 16.7692C31.9526 16.6287 31.7632 16.5679 31.5059 16.5798V18.1952ZM36.9701 16.04H37.5099L38.5934 20.8705H37.9163L37.7151 19.9345H36.7231L36.5313 20.8705H35.8716L36.9701 16.04ZM37.6283 19.4287L37.2329 16.9688H37.2179L36.817 19.4287H37.6283ZM42.0286 20.8705V16.04H42.9425C43.3087 16.041 43.5807 16.1247 43.7585 16.2909C43.9363 16.4624 44.0428 16.7289 44.0781 17.0904C44.0981 17.3261 44.0823 17.5515 44.0307 17.7667C43.9904 17.9581 43.9061 18.1374 43.7845 18.2907C43.7375 18.3533 43.6783 18.4059 43.6105 18.4452C43.5427 18.4845 43.4677 18.5098 43.3899 18.5195L44.3164 20.8712H43.6243L42.7042 18.5069H42.6915V20.8705H42.0286ZM42.6915 18.1818C43.1477 18.2007 43.3765 17.9308 43.3765 17.3642C43.3765 17.1448 43.3321 16.9612 43.2432 16.8134C43.1603 16.6658 43.0088 16.5924 42.7989 16.5924H42.6907L42.6915 18.1818ZM47.2616 16.04H49.487V16.5924H48.7294V20.8705H48.0468V16.5924H47.2616V16.04ZM52.8536 20.8705V16.04H53.4928L54.6702 19.7041L54.6979 19.6907L54.645 18.9804C54.6271 18.7626 54.6074 18.5169 54.5858 18.2433C54.5669 17.9719 54.5527 17.6988 54.5432 17.4344C54.5353 17.1685 54.5282 16.7029 54.5282 16.04H55.2077V20.8705H54.5763L53.4036 17.144L53.3886 17.1535C53.4292 17.5865 53.4576 17.9206 53.4739 18.1557C53.4904 18.3941 53.5015 18.6513 53.5149 18.9338C53.5275 19.2106 53.5336 19.5147 53.5331 19.8461C53.5331 20.0584 53.5315 20.2391 53.5291 20.3812C53.5275 20.5272 53.5212 20.6913 53.5165 20.8705H52.8536ZM59.0249 16.04H60.8273V16.5924H59.6862V18.1171H60.7121V18.6655H59.6862V20.3054H60.8273V20.8705H59.0249V16.04ZM64.3565 20.8705V16.04H65.2687C65.6365 16.041 65.909 16.1247 66.0863 16.2909C66.2652 16.4624 66.3722 16.7289 66.4075 17.0904C66.4266 17.3171 66.4093 17.5454 66.3562 17.7667C66.3165 17.9578 66.233 18.1372 66.1123 18.2907C65.9995 18.4256 65.8724 18.5038 65.7193 18.5195L66.6427 20.8712H65.9498L65.032 18.5069H65.0209V20.8705H64.3565ZM65.0209 18.1818C65.4771 18.2007 65.7043 17.9308 65.7043 17.3642C65.7043 17.1448 65.6607 16.9612 65.5733 16.8134C65.4881 16.6658 65.3366 16.5924 65.1259 16.5924H65.0209V18.1818ZM72.8952 16.04H74.7103V16.5924H73.5581V18.1171H74.5903V18.6655H73.5581V20.8705H72.8952V16.04ZM78.0508 18.7823C78.0508 18.6308 78.0466 18.5138 78.0382 18.4312C78.0466 18.0155 78.0782 17.6415 78.1329 17.309C78.1881 16.9759 78.2891 16.6903 78.4462 16.4496C78.5176 16.3349 78.6127 16.2369 78.7251 16.162C78.8376 16.0871 78.9647 16.0372 79.098 16.0155C79.4248 15.9555 79.6999 15.9871 79.9235 16.1102C80.1445 16.2373 80.3149 16.418 80.4278 16.6603C80.5419 16.9049 80.6109 17.1703 80.6345 17.4565C80.6677 17.9884 80.6858 18.3759 80.6858 18.6269C80.6864 19.3503 80.5875 19.9148 80.3891 20.3204C80.1892 20.7302 79.8456 20.9346 79.3585 20.9336C78.9518 20.9336 78.6361 20.7605 78.4115 20.4143C78.1858 20.0695 78.0642 19.5226 78.0508 18.7823ZM78.7674 18.6419C78.7579 19.7593 78.9576 20.3275 79.3735 20.3449C79.3897 20.3375 79.407 20.333 79.4248 20.3315C79.4959 20.324 79.5642 20.2991 79.6234 20.2589C79.6826 20.2187 79.7309 20.1644 79.7641 20.101C79.842 19.9642 79.8938 19.809 79.9196 19.6354C79.9438 19.4639 79.9598 19.27 79.9677 19.0538C79.973 18.837 79.9756 18.6 79.9756 18.3428C79.9827 18.0272 79.9642 17.7115 79.9203 17.3989C79.8767 17.1253 79.8112 16.9186 79.7238 16.7786C79.637 16.6382 79.5244 16.5679 79.3861 16.5679H79.3585C79.118 16.5832 78.9591 16.7563 78.8818 17.0872C78.8055 17.4187 78.7642 17.8495 78.7579 18.3799C78.7637 18.4467 78.7668 18.534 78.7674 18.6419ZM84.3831 20.8705V16.04H85.2969C85.6607 16.04 85.9346 16.1252 86.1113 16.2909C86.2923 16.4624 86.4002 16.7289 86.4349 17.0904C86.4528 17.3261 86.4362 17.5515 86.3852 17.7667C86.3442 17.9576 86.2606 18.1367 86.1405 18.2907C86.0932 18.353 86.0339 18.4054 85.9662 18.4446C85.8984 18.4839 85.8236 18.5094 85.746 18.5195L86.6677 20.8712H85.9764L85.061 18.5069H85.046V20.8705H84.3831ZM85.046 18.1818C85.5021 18.2007 85.7294 17.9308 85.7294 17.3642C85.7294 17.1448 85.6862 16.9612 85.6 16.8134C85.5092 16.6658 85.3632 16.5924 85.1533 16.5924H85.046V18.1818ZM92.9202 16.04H93.5847V20.3054H94.7243V20.8705H92.9202V16.04ZM98.1311 20.8705H98.7979V16.04H98.1311V20.8705ZM102.626 16.04H104.443V16.5924H103.289V18.1171H104.321V18.6655H103.289V20.8705H102.626V16.04ZM107.918 16.04H109.721V16.5924H108.581V18.1171H109.608V18.6655H108.582V20.3054H109.721V20.8705H107.918V16.04Z" fill="#E3EAF3"/>
<path fill-rule="evenodd" clip-rule="evenodd" d="M21.2349 14.033H109.061V13.3535H21.2349V14.033Z" fill="#58728D"/>
</g>
<defs>
<clipPath id="clip0_192_3747">
<rect width="110.483" height="21.3074" fill="white" transform="translate(0 0.345703)"/>
</clipPath>
</defs>
</svg>
