<svg width="56" height="56" viewBox="0 0 56 56" fill="none" xmlns="http://www.w3.org/2000/svg">
<rect width="56" height="56" rx="28" fill="#192839"/>
<path d="M28.0022 15.334C27.3888 15.334 26.7622 15.3873 26.1355 15.5207C22.4555 16.2273 19.5222 19.2007 18.8288 22.8807C18.1888 26.3607 19.4688 29.5607 21.7888 31.6273C22.3622 32.134 22.6688 32.8407 22.6688 33.5873V36.6673C22.6688 38.134 23.8688 39.334 25.3355 39.334H25.7088C26.1755 40.134 27.0155 40.6673 28.0022 40.6673C28.9888 40.6673 29.8422 40.134 30.2955 39.334H30.6688C32.1355 39.334 33.3355 38.134 33.3355 36.6673V33.5873C33.3355 32.854 33.6288 32.134 34.1888 31.6406C36.1222 29.934 37.3355 27.4406 37.3355 24.6673C37.3355 19.5073 33.1622 15.334 28.0022 15.334ZM30.6688 34.0007H25.3355V32.6673H30.6688V34.0007ZM25.3355 36.6673V35.334H30.6688V36.6673H25.3355ZM32.4155 29.654C32.2955 29.7606 32.2022 29.894 32.0955 30.0007H23.8955C23.7888 29.8807 23.6955 29.7473 23.5755 29.6406C21.8155 28.0673 21.0288 25.7206 21.4555 23.374C21.9355 20.7873 24.0688 18.6407 26.6421 18.134C27.0955 18.0407 27.5488 18.0007 28.0022 18.0007C31.6822 18.0007 34.6688 20.9873 34.6688 24.6673C34.6688 26.574 33.8555 28.3873 32.4155 29.654Z" fill="#B1C1D2"/>
<path d="M28.6688 26.0007H27.3355V30.0007H28.6688V26.0007Z" fill="#B1C1D2"/>
<path d="M25.8415 23.1656L24.8987 24.1084L27.7271 26.9368L28.6699 25.994L25.8415 23.1656Z" fill="#B1C1D2"/>
<path d="M27.3368 26.0076L28.2796 26.9504L31.108 24.122L30.1652 23.1792L27.3368 26.0076Z" fill="#B1C1D2"/>
</svg>
