<svg width="56" height="56" viewBox="0 0 56 56" fill="none" xmlns="http://www.w3.org/2000/svg">
<rect width="56" height="56" rx="28" fill="#192839"/>
<path d="M39.1523 23.4021L37.5123 25.8688C38.3032 27.4462 38.6904 29.1952 38.6393 30.9591C38.5881 32.7229 38.1001 34.4465 37.219 35.9754H18.739C17.5939 33.9889 17.1194 31.6862 17.3859 29.4088C17.6523 27.1314 18.6456 25.0005 20.2183 23.332C21.7911 21.6635 23.8596 20.5461 26.1173 20.1457C28.375 19.7452 30.7017 20.0829 32.7523 21.1088L35.219 19.4688C32.7077 17.8584 29.7288 17.1368 26.7589 17.4193C23.7889 17.7019 20.9996 18.9724 18.837 21.0274C16.6744 23.0825 15.2635 25.8035 14.83 28.7552C14.3964 31.7068 14.9653 34.7186 16.4457 37.3088C16.6784 37.7118 17.0125 38.0469 17.4148 38.2808C17.8171 38.5147 18.2736 38.6393 18.739 38.6421H37.2057C37.6756 38.644 38.1376 38.5216 38.545 38.2875C38.9524 38.0533 39.2907 37.7157 39.5257 37.3088C40.7542 35.1806 41.3707 32.7544 41.3072 30.298C41.2436 27.8416 40.5025 25.4505 39.1657 23.3888L39.1523 23.4021Z" fill="#B1C1D2"/>
<path d="M26.099 32.5221C26.3467 32.77 26.6408 32.9667 26.9645 33.1009C27.2882 33.2351 27.6352 33.3042 27.9857 33.3042C28.3361 33.3042 28.6831 33.2351 29.0069 33.1009C29.3306 32.9667 29.6247 32.77 29.8723 32.5221L37.419 21.2021L26.099 28.7488C25.8511 28.9964 25.6544 29.2905 25.5202 29.6142C25.386 29.938 25.3169 30.285 25.3169 30.6354C25.3169 30.9859 25.386 31.3329 25.5202 31.6566C25.6544 31.9803 25.8511 32.2744 26.099 32.5221Z" fill="#B1C1D2"/>
</svg>
