<svg width="57" height="56" viewBox="0 0 57 56" fill="none" xmlns="http://www.w3.org/2000/svg">
<g clip-path="url(#clip0_91_6438)">
<path d="M37.2826 0.0464641C26.8025 0.992777 25.7883 21.0934 21.2684 31.3919C19.0286 36.4951 13.7464 41.76 14.6777 47.7743C15.7282 54.5594 22.6508 56.5325 27.9867 55.8834C41.1908 54.2772 46.8976 40.4557 47.7614 27.3583C48.294 19.2832 49.9817 -1.10022 37.2826 0.0464641Z" fill="url(#paint0_linear_91_6438)"/>
<path opacity="0.11" d="M11.4514 11.5654L18.5716 45.1419L45.0279 18.6856L11.4514 11.5654Z" fill="#2626BC"/>
<path opacity="0.11" d="M43.694 16.3496H41.4085C38.8797 16.3496 36.8298 18.3995 36.8298 20.9283C36.8298 23.457 38.8797 25.5069 41.4085 25.5069H43.694C46.2227 25.5069 48.2726 23.457 48.2726 20.9283C48.2725 18.3995 46.2226 16.3496 43.694 16.3496Z" fill="#2626BC"/>
<path opacity="0.11" d="M20.5884 16.9593C20.5884 13.1362 17.4893 10.0371 13.6662 10.0371H10.2109C6.38795 10.0371 3.2887 13.1362 3.2887 16.9593C3.2887 20.7824 6.38784 23.8816 10.2109 23.8816H13.6662C17.4893 23.8816 20.5884 20.7823 20.5884 16.9593Z" fill="#2626BC"/>
<path opacity="0.11" d="M19.4241 38.4512H16.7303C13.7498 38.4512 11.3337 40.8673 11.3337 43.8477C11.3337 46.8282 13.7498 49.2443 16.7303 49.2443H19.4241C22.4046 49.2443 24.8207 46.8282 24.8207 43.8477C24.8206 40.8673 22.4045 38.4512 19.4241 38.4512Z" fill="#2626BC"/>
<path d="M45.3346 23.8653C47.8633 23.8653 49.9132 21.8154 49.9132 19.2867C49.9132 16.7579 47.8633 14.708 45.3346 14.708H43.0491V23.8653H45.3346Z" fill="#4369FD"/>
<path d="M43.0491 23.8653C45.5778 23.8653 47.6278 21.8154 47.6278 19.2867C47.6278 16.7579 45.5778 14.708 43.0491 14.708C40.5204 14.708 38.4705 16.7579 38.4705 19.2867C38.4705 21.8154 40.5204 23.8653 43.0491 23.8653Z" fill="#FF7EB8"/>
<path d="M15.3068 22.241C19.1299 22.241 22.2291 19.1418 22.2291 15.3187C22.2291 11.4956 19.1299 8.39648 15.3068 8.39648H11.8516V22.241H15.3068Z" fill="#4369FD"/>
<path d="M11.8516 22.241C15.6746 22.241 18.7738 19.1418 18.7738 15.3187C18.7738 11.4957 15.6746 8.39648 11.8516 8.39648C8.02851 8.39648 4.92932 11.4957 4.92932 15.3187C4.92932 19.1418 8.02851 22.241 11.8516 22.241Z" fill="#02FFB3"/>
<path d="M21.0648 47.6037C24.0453 47.6037 26.4613 45.1876 26.4613 42.2071C26.4613 39.2266 24.0453 36.8105 21.0648 36.8105H18.3711V47.6036H21.0648V47.6037Z" fill="#4369FD"/>
<path d="M18.3709 47.6037C21.3514 47.6037 23.7675 45.1875 23.7675 42.2071C23.7675 39.2267 21.3514 36.8105 18.3709 36.8105C15.3905 36.8105 12.9744 39.2267 12.9744 42.2071C12.9744 45.1875 15.3905 47.6037 18.3709 47.6037Z" fill="#8399FE"/>
<path d="M28.4188 39.5549C28.2789 39.5549 28.1389 39.5015 28.032 39.3947C27.8184 39.1811 27.8184 38.8348 28.032 38.6213L40.549 26.1045C40.7624 25.891 41.1089 25.891 41.3223 26.1045C41.5359 26.3181 41.5359 26.6644 41.3223 26.8779L28.8054 39.3947C28.6987 39.5015 28.5587 39.5549 28.4188 39.5549Z" fill="#FF7EB8"/>
<path d="M37.7162 14.9984C37.6785 14.9984 37.6405 14.9945 37.6022 14.9864L23.9708 12.0956C23.6752 12.033 23.4866 11.7427 23.5492 11.4472C23.6119 11.1518 23.9025 10.9629 24.1976 11.0257L37.829 13.9165C38.1244 13.9792 38.3132 14.2695 38.2506 14.5649C38.1961 14.8221 37.969 14.9984 37.7162 14.9984Z" fill="#02FFB3"/>
<path d="M13.8605 36.1256C13.6076 36.1256 13.3807 35.9492 13.3261 35.6921L11.0533 24.9788C10.9906 24.6834 11.1793 24.3931 11.4748 24.3303C11.7703 24.2678 12.0606 24.4563 12.1233 24.7519L14.3961 35.4652C14.4588 35.7606 14.2701 36.0509 13.9746 36.1136C13.9362 36.1216 13.898 36.1256 13.8605 36.1256Z" fill="#9FB0FE"/>
<path d="M44.404 19.7894C44.7764 19.4323 45.0097 18.9311 45.0097 18.3757C45.0097 17.2946 44.1302 16.415 43.0492 16.415C41.968 16.415 41.0885 17.2946 41.0885 18.3757C41.0885 18.9312 41.3218 19.4324 41.6942 19.7894C41.3218 20.1465 41.0885 20.6476 41.0885 21.203C41.0885 21.505 41.3333 21.7499 41.6354 21.7499C41.9375 21.7499 42.1823 21.505 42.1823 21.203C42.1823 20.7251 42.5712 20.3362 43.0492 20.3362C43.5271 20.3362 43.916 20.7251 43.916 21.203C43.916 21.505 44.1607 21.7499 44.4628 21.7499C44.7649 21.7499 45.0097 21.505 45.0097 21.203C45.0097 20.6476 44.7764 20.1465 44.404 19.7894ZM42.1823 18.3757C42.1823 17.8977 42.5712 17.5088 43.0492 17.5088C43.5271 17.5088 43.916 17.8977 43.916 18.3757C43.916 18.8537 43.5271 19.2425 43.0492 19.2425C42.5712 19.2425 42.1823 18.8537 42.1823 18.3757Z" fill="#FFDBED"/>
<path d="M13.4729 16.0775C14.1181 15.5869 14.5357 14.8115 14.5357 13.9401C14.5357 12.4601 13.3316 11.2559 11.8514 11.2559C10.3713 11.2559 9.16724 12.46 9.16724 13.9401C9.16724 14.8114 9.58483 15.5868 10.23 16.0775C9.58483 16.5682 9.16724 17.3436 9.16724 18.2148C9.16724 18.5168 9.41213 18.7617 9.71411 18.7617C10.0161 18.7617 10.261 18.5168 10.261 18.2148C10.261 17.3379 10.9744 16.6244 11.8514 16.6244C12.7284 16.6244 13.4419 17.3379 13.4419 18.2148C13.4419 18.5168 13.6868 18.7617 13.9888 18.7617C14.2908 18.7617 14.5357 18.5168 14.5357 18.2148C14.5357 17.3436 14.1182 16.5682 13.4729 16.0775ZM10.2611 13.9402C10.2611 13.0633 10.9745 12.3497 11.8515 12.3497C12.7285 12.3497 13.442 13.0632 13.442 13.9402C13.442 14.8173 12.7286 15.5308 11.8515 15.5308C10.9744 15.5308 10.2611 14.8172 10.2611 13.9402Z" fill="white"/>
<path d="M45.3346 14.1619H43.0491C43.0489 14.1619 43.0487 14.162 43.0485 14.162C41.1403 14.1622 39.4737 15.2113 38.5916 16.7622L22.5114 13.3522C21.6458 10.185 18.7447 7.84961 15.3069 7.84961H11.8516C7.73304 7.84961 4.38245 11.2002 4.38245 15.3187C4.38245 19.4372 7.73304 22.7878 11.8516 22.7878H13.2722L16.2161 36.6701C14.0014 37.5351 12.4275 39.6902 12.4275 42.2075C12.4275 45.4847 15.0938 48.1509 18.371 48.1509H21.0646C24.3419 48.1509 27.008 45.4847 27.008 42.2075C27.008 38.9303 24.3419 36.2641 21.0646 36.2641H18.371C17.9947 36.2641 17.627 36.3009 17.27 36.368L14.3903 22.7879H15.3069C19.4253 22.7879 22.776 19.4373 22.776 15.3188C22.776 15.0479 22.7607 14.7806 22.7324 14.5171L38.1484 17.7862C38.0026 18.2612 37.9236 18.7651 37.9236 19.2873C37.9236 20.8539 38.6308 22.2577 39.742 23.1986L26.7295 36.2111C26.5159 36.4247 26.5159 36.771 26.7295 36.9845C26.8364 37.0912 26.9763 37.1446 27.1163 37.1446C27.2563 37.1446 27.3961 37.0912 27.503 36.9845L40.665 23.8224C41.3778 24.1987 42.1888 24.4128 43.0492 24.4128H45.3347C46.1802 24.4128 47.0189 24.202 47.76 23.8033C48.026 23.6602 48.1257 23.3286 47.9825 23.0626C47.8393 22.7966 47.5078 22.6969 47.2418 22.8401C46.9684 22.9872 46.6774 23.1005 46.3773 23.1806C47.4763 22.2398 48.1748 20.844 48.1748 19.2873C48.1748 17.7298 47.4755 16.3333 46.3756 15.3924C48.0957 15.8526 49.3665 17.424 49.3665 19.2873C49.3665 19.8221 49.2631 20.3422 49.059 20.8332C48.943 21.1121 49.0751 21.4321 49.3541 21.5481C49.4226 21.5766 49.4937 21.5901 49.5637 21.5901C49.7781 21.5901 49.9815 21.4632 50.0689 21.2529C50.3286 20.6282 50.4602 19.9668 50.4602 19.2872C50.4601 16.4611 48.1609 14.1619 45.3346 14.1619ZM13.5213 42.2076C13.5213 39.5335 15.6969 37.358 18.371 37.358C21.0451 37.358 23.2205 39.5336 23.2205 42.2076C23.2205 44.8817 21.045 47.0573 18.371 47.0573C15.6969 47.0572 13.5213 44.8817 13.5213 42.2076ZM25.9143 42.2076C25.9143 44.5951 24.1796 46.5838 21.9048 46.9829C23.3656 45.899 24.3143 44.1621 24.3143 42.2076C24.3143 40.253 23.3656 38.5162 21.9048 37.4323C24.1796 37.8314 25.9143 39.82 25.9143 42.2076ZM5.4762 15.3188C5.4762 11.8034 8.33613 8.94347 11.8516 8.94347C15.367 8.94347 18.2269 11.8034 18.2269 15.3188C18.2269 18.8342 15.367 21.6942 11.8516 21.6942C8.33613 21.6942 5.4762 18.8341 5.4762 15.3188ZM15.7673 21.6757C17.8976 20.3586 19.3206 18.0021 19.3206 15.3188C19.3206 12.6355 17.8976 10.279 15.7673 8.96195C19.0683 9.19897 21.6822 11.9585 21.6822 15.3188C21.6822 18.6792 19.0683 21.4387 15.7673 21.6757ZM47.0809 19.2873C47.0809 21.5104 45.2723 23.3191 43.0492 23.3191C40.8261 23.3191 39.0175 21.5104 39.0175 19.2873C39.0175 17.0642 40.8261 15.2556 43.0492 15.2556C45.2722 15.2556 47.0809 17.0642 47.0809 19.2873Z" fill="#2626BC"/>
<path d="M19.8229 42.7992C20.2883 42.3932 20.5841 41.7976 20.5841 41.133C20.5841 39.9127 19.5913 38.9199 18.3711 38.9199C17.1508 38.9199 16.158 39.9127 16.158 41.133C16.158 41.7977 16.4538 42.3932 16.9192 42.7992C16.4538 43.2052 16.158 43.8009 16.158 44.4655C16.158 44.7674 16.4028 45.0123 16.7048 45.0123C17.0068 45.0123 17.2517 44.7674 17.2517 44.4655C17.2517 43.8482 17.7538 43.3461 18.3711 43.3461C18.9883 43.3461 19.4904 43.8482 19.4904 44.4655C19.4904 44.7674 19.7353 45.0123 20.0373 45.0123C20.3393 45.0123 20.5841 44.7674 20.5841 44.4655C20.5841 43.8008 20.2882 43.2052 19.8229 42.7992ZM17.2516 41.1329C17.2516 40.5157 17.7537 40.0136 18.3709 40.0136C18.9881 40.0136 19.4903 40.5157 19.4903 41.1329C19.4903 41.7501 18.9881 42.2523 18.3709 42.2523C17.7537 42.2523 17.2516 41.7501 17.2516 41.1329Z" fill="#D2DEFF"/>
<path d="M18.7738 28.1885C18.3472 28.1885 17.946 28.0224 17.6444 27.7206C17.0217 27.098 17.0217 26.0847 17.6444 25.4619C17.946 25.1603 18.3471 24.9941 18.7738 24.9941C19.2005 24.9941 19.6015 25.1603 19.9032 25.462C20.2048 25.7636 20.371 26.1648 20.371 26.5913C20.371 27.0179 20.2048 27.419 19.9032 27.7206C19.6014 28.0224 19.2003 28.1885 18.7738 28.1885ZM18.7738 26.0879C18.6394 26.0879 18.5129 26.1403 18.4179 26.2353C18.2217 26.4317 18.2217 26.751 18.4179 26.9473C18.513 27.0424 18.6394 27.0948 18.7738 27.0948C18.9082 27.0948 19.0346 27.0424 19.1297 26.9474C19.2247 26.8522 19.2771 26.7259 19.2771 26.5915C19.2771 26.457 19.2247 26.3306 19.1297 26.2355C19.0346 26.1403 18.9082 26.0879 18.7738 26.0879Z" fill="#8399FE"/>
<path d="M51.7817 14.3813C51.3727 14.3813 50.9637 14.2256 50.6523 13.9143C50.0295 13.2915 50.0295 12.2782 50.6523 11.6554C51.275 11.0328 52.2884 11.0329 52.911 11.6554C53.5338 12.2782 53.5338 13.2915 52.911 13.9143C52.5998 14.2255 52.1906 14.3813 51.7817 14.3813ZM51.7817 12.2817C51.6527 12.2817 51.5238 12.3308 51.4255 12.4289C51.2293 12.6252 51.2293 12.9445 51.4255 13.1409C51.622 13.3372 51.9415 13.3372 52.1377 13.1409C52.3339 12.9446 52.3339 12.6252 52.1377 12.4289C52.0395 12.3307 51.9106 12.2817 51.7817 12.2817Z" fill="#8399FE"/>
<path d="M31.3541 42.252H30.9987V41.8965C30.9987 41.5945 30.7539 41.3496 30.4518 41.3496C30.1497 41.3496 29.9049 41.5945 29.9049 41.8965V42.252H29.5494C29.2473 42.252 29.0026 42.4968 29.0026 42.7988C29.0026 43.1008 29.2473 43.3457 29.5494 43.3457H29.9049V43.7012C29.9049 44.0032 30.1497 44.248 30.4518 44.248C30.7539 44.248 30.9987 44.0032 30.9987 43.7012V43.3457H31.3541C31.6562 43.3457 31.901 43.1008 31.901 42.7988C31.901 42.4968 31.6562 42.252 31.3541 42.252Z" fill="#01ECA5"/>
<path d="M41.4763 11.2539H41.1208V10.8984C41.1208 10.5965 40.8761 10.3516 40.574 10.3516C40.2719 10.3516 40.0271 10.5965 40.0271 10.8984V11.2539H39.6716C39.3695 11.2539 39.1248 11.4988 39.1248 11.8008C39.1248 12.1028 39.3695 12.3477 39.6716 12.3477H40.0271V12.7031C40.0271 13.0051 40.2719 13.25 40.574 13.25C40.8761 13.25 41.1208 13.0051 41.1208 12.7031V12.3477H41.4763C41.7784 12.3477 42.0232 12.1028 42.0232 11.8008C42.0232 11.4988 41.7784 11.2539 41.4763 11.2539Z" fill="#FF7EB8"/>
<path d="M11.4414 36.6523H11.0859V36.2969C11.0859 35.9949 10.841 35.75 10.5391 35.75C10.2371 35.75 9.99219 35.9949 9.99219 36.2969V36.6523H9.63672C9.33473 36.6523 9.08984 36.8972 9.08984 37.1992C9.08984 37.5012 9.33473 37.7461 9.63672 37.7461H9.99219V38.1016C9.99219 38.4035 10.2371 38.6484 10.5391 38.6484C10.841 38.6484 11.0859 38.4035 11.0859 38.1016V37.7461H11.4414C11.7434 37.7461 11.9883 37.5012 11.9883 37.1992C11.9883 36.8972 11.7434 36.6523 11.4414 36.6523Z" fill="#FF7EB8"/>
</g>
<defs>
<linearGradient id="paint0_linear_91_6438" x1="49.9262" y1="39.3865" x2="17.1911" y2="19.3824" gradientUnits="userSpaceOnUse">
<stop offset="0.0112" stop-color="#DCFDEE"/>
<stop offset="0.7774" stop-color="#CCDDFB"/>
<stop offset="1" stop-color="#C7D3FF"/>
</linearGradient>
<clipPath id="clip0_91_6438">
<rect width="56" height="56" fill="white" transform="translate(0.333374)"/>
</clipPath>
</defs>
</svg>
