<svg width="56" height="56" viewBox="0 0 56 56" fill="none" xmlns="http://www.w3.org/2000/svg">
<path d="M4.81106 5.90742C11.6912 -0.400019 25.4763 -1.92974 34.6081 2.64815C41.6712 6.18895 43.0824 13.7298 35.3094 19.3853C31.9922 21.7988 32.7312 26.4278 36.8886 27.4279C43.8088 29.0927 56.238 33.8422 52.0718 42.2974C47.1531 52.2796 20.8178 57.9758 10.1999 55.3701C2.05273 53.3707 3.92786 43.8362 10.6089 40.3856C13.1147 39.0914 16.1926 37.1338 15.706 34.3551C15.3169 32.1334 11.3227 32.4685 9.10381 32.0635C-0.433141 30.3224 9.98089 21.8605 8.86253 18.0071C7.14819 12.1001 -0.188798 10.4911 4.81106 5.90742Z" fill="url(#paint0_linear_91_6305)"/>
<path opacity="0.1" d="M50.5783 44.4663H45.9838C49.1875 40.7522 51.1252 35.9151 51.1252 30.6253C51.1252 18.916 41.633 9.42383 29.9237 9.42383C24.6172 9.42383 19.766 11.3734 16.0472 14.5954V12.0136C16.0472 11.7116 15.8023 11.4667 15.5003 11.4667H5.42175C5.11977 11.4667 4.87488 11.7116 4.87488 12.0136V18.055C4.87488 18.357 5.11977 18.6019 5.42175 18.6019H12.4606C10.1037 22.0187 8.72225 26.1604 8.72225 30.6253C8.72225 34.3529 9.68552 37.8551 11.3748 40.8987H5.42175C5.11977 40.8987 4.87488 41.1436 4.87488 41.4456V47.487C4.87488 47.789 5.11977 48.0339 5.42175 48.0339H15.5003C15.8023 48.0339 16.0472 47.789 16.0472 47.487V46.6552C19.766 49.8772 24.6172 51.8268 29.9237 51.8268C33.5519 51.8268 36.9668 50.9147 39.9527 49.3084V51.0546C39.9527 51.3566 40.1976 51.6015 40.4996 51.6015H50.5782C50.8802 51.6015 51.1251 51.3566 51.1251 51.0546V45.0131C51.1252 44.711 50.8803 44.4663 50.5783 44.4663Z" fill="#0000CB"/>
<path d="M51.1252 28.0001C51.1252 39.7098 41.6325 49.2013 29.9239 49.2013C18.2142 49.2013 8.72266 39.7098 8.72266 28.0001L29.9239 6.79883C41.6325 6.79883 51.1252 16.2904 51.1252 28.0001Z" fill="#9393FF"/>
<path d="M29.9237 44.0286C38.776 44.0286 45.9522 36.8524 45.9522 28.0001C45.9522 19.1479 38.776 11.9717 29.9237 11.9717C21.0715 11.9717 13.8953 19.1479 13.8953 28.0001C13.8953 36.8524 21.0715 44.0286 29.9237 44.0286Z" fill="#8282FF"/>
<path d="M29.9237 6.79883V28.0001H8.72241C8.72241 16.2904 18.214 6.79883 29.9237 6.79883Z" fill="#FF6C6C"/>
<path d="M10.9156 18.6018H15.5003C15.8023 18.6018 16.0472 18.3569 16.0472 18.0549V12.0134C16.0472 11.9998 16.0441 11.987 16.0431 11.9736C13.9236 13.811 12.1734 16.0627 10.9156 18.6018Z" fill="#FF4D4D"/>
<path d="M29.9237 11.9717C21.0856 11.9717 13.8953 19.162 13.8953 28.0001H29.9237V11.9717Z" fill="#FF4D4D"/>
<path d="M29.9237 28L14.9316 42.992C11.0958 39.1552 8.72241 33.8548 8.72241 28H29.9237Z" fill="#FFAA66"/>
<path d="M29.9237 28H13.8953C13.8953 32.4191 15.6928 36.4261 18.5952 39.3285L29.9237 28Z" fill="#FF9C33"/>
<path d="M29.9237 41.8411C37.5679 41.8411 43.7647 35.6443 43.7647 28.0001C43.7647 20.356 37.5679 14.1592 29.9237 14.1592C22.2796 14.1592 16.0828 20.356 16.0828 28.0001C16.0828 35.6443 22.2796 41.8411 29.9237 41.8411Z" fill="#FF6C6C"/>
<path d="M29.9237 39.9348C36.515 39.9348 41.8584 34.5914 41.8584 28.0001C41.8584 21.4088 36.515 16.0654 29.9237 16.0654C23.3324 16.0654 17.989 21.4088 17.989 28.0001C17.989 34.5914 23.3324 39.9348 29.9237 39.9348Z" fill="white"/>
<path d="M30.3359 18.5254H29.5114C29.2093 18.5254 28.9645 18.2805 28.9645 17.9785C28.9645 17.6765 29.2093 17.4316 29.5114 17.4316H30.3359C30.638 17.4316 30.8828 17.6765 30.8828 17.9785C30.8828 18.2805 30.638 18.5254 30.3359 18.5254Z" fill="#FF6C6C"/>
<path d="M30.3359 20.2109H29.5114C29.2093 20.2109 28.9645 19.966 28.9645 19.6641C28.9645 19.3621 29.2093 19.1172 29.5114 19.1172H30.3359C30.638 19.1172 30.8828 19.3621 30.8828 19.6641C30.8828 19.966 30.638 20.2109 30.3359 20.2109Z" fill="#FF6C6C"/>
<path d="M29.9237 20.1366C29.6216 20.1366 29.3768 19.8917 29.3768 19.5897V18.0518C29.3768 17.7498 29.6216 17.5049 29.9237 17.5049C30.2258 17.5049 30.4706 17.7498 30.4706 18.0518V19.5897C30.4706 19.8917 30.2258 20.1366 29.9237 20.1366Z" fill="#FF6C6C"/>
<path d="M30.3359 36.8848H29.5114C29.2093 36.8848 28.9645 36.6399 28.9645 36.3379C28.9645 36.0359 29.2093 35.791 29.5114 35.791H30.3359C30.638 35.791 30.8828 36.0359 30.8828 36.3379C30.8828 36.6399 30.638 36.8848 30.3359 36.8848Z" fill="#FF6C6C"/>
<path d="M30.3359 38.5703H29.5114C29.2093 38.5703 28.9645 38.3254 28.9645 38.0234C28.9645 37.7215 29.2093 37.4766 29.5114 37.4766H30.3359C30.638 37.4766 30.8828 37.7215 30.8828 38.0234C30.8828 38.3254 30.638 38.5703 30.3359 38.5703Z" fill="#FF6C6C"/>
<path d="M29.9237 38.4959C29.6216 38.4959 29.3768 38.251 29.3768 37.9491V36.4111C29.3768 36.1091 29.6216 35.8643 29.9237 35.8643C30.2258 35.8643 30.4706 36.1091 30.4706 36.4111V37.9491C30.4706 38.251 30.2258 38.4959 29.9237 38.4959Z" fill="#FF6C6C"/>
<path d="M39.5155 27.7041H38.6909C38.3888 27.7041 38.144 27.4592 38.144 27.1572C38.144 26.8552 38.3888 26.6104 38.6909 26.6104H39.5155C39.8176 26.6104 40.0624 26.8552 40.0624 27.1572C40.0624 27.4592 39.8176 27.7041 39.5155 27.7041Z" fill="#FF6C6C"/>
<path d="M39.5155 29.3896H38.6909C38.3888 29.3896 38.144 29.1448 38.144 28.8428C38.144 28.5408 38.3888 28.2959 38.6909 28.2959H39.5155C39.8176 28.2959 40.0624 28.5408 40.0624 28.8428C40.0624 29.1448 39.8176 29.3896 39.5155 29.3896Z" fill="#FF6C6C"/>
<path d="M39.1033 29.3152C38.8012 29.3152 38.5564 29.0703 38.5564 28.7683V27.2305C38.5564 26.9285 38.8012 26.6836 39.1033 26.6836C39.4054 26.6836 39.6501 26.9285 39.6501 27.2305V28.7684C39.6501 29.0704 39.4053 29.3152 39.1033 29.3152Z" fill="#FF6C6C"/>
<path d="M21.1566 27.7041H20.3322C20.0301 27.7041 19.7853 27.4592 19.7853 27.1572C19.7853 26.8552 20.0301 26.6104 20.3322 26.6104H21.1566C21.4587 26.6104 21.7035 26.8552 21.7035 27.1572C21.7035 27.4592 21.4586 27.7041 21.1566 27.7041Z" fill="#FF6C6C"/>
<path d="M21.1566 29.3896H20.3322C20.0301 29.3896 19.7853 29.1448 19.7853 28.8428C19.7853 28.5408 20.0301 28.2959 20.3322 28.2959H21.1566C21.4587 28.2959 21.7035 28.5408 21.7035 28.8428C21.7035 29.1448 21.4586 29.3896 21.1566 29.3896Z" fill="#FF6C6C"/>
<path d="M20.7444 29.3152C20.4423 29.3152 20.1975 29.0703 20.1975 28.7683V27.2305C20.1975 26.9285 20.4423 26.6836 20.7444 26.6836C21.0465 26.6836 21.2913 26.9285 21.2913 27.2305V28.7684C21.2913 29.0704 21.0465 29.3152 20.7444 29.3152Z" fill="#FF6C6C"/>
<path d="M38.5461 33.5173C38.4537 33.5173 38.3603 33.4939 38.2746 33.4447L38.26 33.4364C37.998 33.2861 37.9074 32.9519 38.0577 32.6899C38.2079 32.4279 38.5422 32.3374 38.8041 32.4876L38.8186 32.4959C39.0807 32.6462 39.1712 32.9804 39.021 33.2424C38.9199 33.4187 38.7356 33.5173 38.5461 33.5173Z" fill="#8282FF"/>
<path d="M21.3149 23.5691C21.2221 23.5691 21.1282 23.5455 21.042 23.4959L21.0275 23.4874C20.7658 23.3364 20.6762 23.002 20.8273 22.7404C20.9781 22.4789 21.3124 22.3891 21.5743 22.5401L21.5889 22.5486C21.8505 22.6996 21.9401 23.034 21.789 23.2956C21.6877 23.471 21.5039 23.5691 21.3149 23.5691Z" fill="#8282FF"/>
<path d="M21.3014 33.5174C21.1123 33.5174 20.9286 33.4193 20.8273 33.2439C20.6762 32.9822 20.7658 32.6479 21.0275 32.4968L21.042 32.4884C21.304 32.3374 21.6381 32.427 21.789 32.6887C21.9401 32.9503 21.8505 33.2847 21.5889 33.4357L21.5743 33.4441C21.4881 33.4938 21.3942 33.5174 21.3014 33.5174Z" fill="#8282FF"/>
<path d="M38.5326 23.5691C38.3435 23.5691 38.1598 23.471 38.0585 23.2956C37.9074 23.034 37.997 22.6996 38.2587 22.5486L38.2732 22.5401C38.535 22.3891 38.8692 22.4789 39.0202 22.7404C39.1713 23.002 39.0817 23.3364 38.8201 23.4874L38.8055 23.4959C38.7193 23.5455 38.6254 23.5691 38.5326 23.5691Z" fill="#8282FF"/>
<path d="M34.8932 19.9306C34.8007 19.9306 34.707 19.907 34.621 19.8576C34.3591 19.7069 34.2691 19.3725 34.4198 19.1108L34.4282 19.0964C34.5788 18.8347 34.913 18.7446 35.1749 18.8952C35.4367 19.0459 35.5267 19.3803 35.376 19.642L35.3677 19.6565C35.2666 19.8321 35.0825 19.9306 34.8932 19.9306Z" fill="#8282FF"/>
<path d="M24.9448 37.1613C24.8515 37.1613 24.7571 37.1374 24.6706 37.0872C24.4094 36.9355 24.3207 36.6008 24.4724 36.3397L24.4808 36.3251C24.6325 36.0639 24.9669 35.975 25.2284 36.1269C25.4896 36.2786 25.5783 36.6133 25.4266 36.8745L25.4182 36.889C25.3168 37.0637 25.1334 37.1613 24.9448 37.1613Z" fill="#8282FF"/>
<path d="M34.9026 37.1621C34.7131 37.1621 34.5288 37.0635 34.4277 36.8873L34.4194 36.8727C34.2691 36.6107 34.3597 36.2765 34.6217 36.1262C34.8838 35.9761 35.2178 36.0666 35.3681 36.3286L35.3764 36.3431C35.5267 36.6052 35.4361 36.9393 35.1741 37.0896C35.0884 37.1387 34.9949 37.1621 34.9026 37.1621Z" fill="#8282FF"/>
<path d="M24.9543 19.9307C24.7661 19.9307 24.5829 19.8335 24.4814 19.6592L24.473 19.6448C24.3208 19.3838 24.409 19.049 24.67 18.8969C24.931 18.7445 25.2657 18.833 25.4179 19.0939L25.4263 19.1083C25.5784 19.3693 25.4903 19.7041 25.2293 19.8562C25.1427 19.9066 25.0479 19.9307 24.9543 19.9307Z" fill="#8282FF"/>
<path d="M29.9242 28.5468C29.7292 28.5468 29.5405 28.4421 29.4419 28.2581C29.2991 27.9919 29.3992 27.6605 29.6655 27.5178L36.277 23.9731C36.5431 23.8306 36.8746 23.9305 37.0173 24.1967C37.1602 24.4629 37.06 24.7943 36.7938 24.9371L30.1823 28.4817C30.0999 28.5259 30.0115 28.5468 29.9242 28.5468Z" fill="#FF6C6C"/>
<path d="M29.9236 28.5462C29.7925 28.5462 29.661 28.4992 29.5563 28.4042L25.6902 24.8951C25.4665 24.6921 25.4498 24.3463 25.6528 24.1227C25.8556 23.8992 26.2017 23.8822 26.4252 24.0853L30.2913 27.5944C30.515 27.7974 30.5317 28.1432 30.3287 28.3668C30.2209 28.4858 30.0724 28.5462 29.9236 28.5462Z" fill="#8282FF"/>
<path d="M31.5279 33.1895H28.3196C28.0175 33.1895 27.7727 32.9446 27.7727 32.6426C27.7727 32.3406 28.0175 32.0957 28.3196 32.0957H31.5279C31.83 32.0957 32.0748 32.3406 32.0748 32.6426C32.0748 32.9446 31.83 33.1895 31.5279 33.1895Z" fill="#FFAA66"/>
<path d="M30.5678 31.3242H29.2797C28.9776 31.3242 28.7328 31.0793 28.7328 30.7773C28.7328 30.4754 28.9776 30.2305 29.2797 30.2305H30.5678C30.8699 30.2305 31.1146 30.4754 31.1146 30.7773C31.1146 31.0793 30.8698 31.3242 30.5678 31.3242Z" fill="#FFAA66"/>
<path d="M40.4998 48.976H50.5783C50.8803 48.976 51.1252 48.7311 51.1252 48.4291V42.3877C51.1252 42.0857 50.8803 41.8408 50.5783 41.8408H40.4998C40.1978 41.8408 39.9529 42.0857 39.9529 42.3877V48.4291C39.9529 48.7311 40.1977 48.976 40.4998 48.976Z" fill="#B2B2FF"/>
<path d="M45.0635 44.8516H42.9493C42.6472 44.8516 42.4025 44.6067 42.4025 44.3047C42.4025 44.0027 42.6472 43.7578 42.9493 43.7578H45.0635C45.3655 43.7578 45.6103 44.0027 45.6103 44.3047C45.6103 44.6067 45.3655 44.8516 45.0635 44.8516Z" fill="white"/>
<path d="M48.1288 47.0596H42.9493C42.6472 47.0596 42.4025 46.8147 42.4025 46.5127C42.4025 46.2107 42.6472 45.9658 42.9493 45.9658H48.1288C48.4309 45.9658 48.6757 46.2107 48.6757 46.5127C48.6757 46.8147 48.4309 47.0596 48.1288 47.0596Z" fill="white"/>
<path d="M5.42175 15.977H15.5003C15.8023 15.977 16.0472 15.7321 16.0472 15.4301V9.38867C16.0472 9.08669 15.8023 8.8418 15.5003 8.8418H5.42175C5.11977 8.8418 4.87488 9.08669 4.87488 9.38867V15.4301C4.87488 15.7321 5.11977 15.977 5.42175 15.977Z" fill="#FF9393"/>
<path d="M9.98545 11.8525H7.87134C7.56924 11.8525 7.32446 11.6076 7.32446 11.3057C7.32446 11.0037 7.56924 10.7588 7.87134 10.7588H9.98545C10.2875 10.7588 10.5323 11.0037 10.5323 11.3057C10.5323 11.6076 10.2875 11.8525 9.98545 11.8525Z" fill="white"/>
<path d="M13.0508 14.0605H7.87134C7.56924 14.0605 7.32446 13.8157 7.32446 13.5137C7.32446 13.2117 7.56924 12.9668 7.87134 12.9668H13.0508C13.3529 12.9668 13.5977 13.2117 13.5977 13.5137C13.5977 13.8157 13.3529 14.0605 13.0508 14.0605Z" fill="white"/>
<path d="M5.42175 45.4086H15.5003C15.8023 45.4086 16.0472 45.1637 16.0472 44.8617V38.8203C16.0472 38.5183 15.8023 38.2734 15.5003 38.2734H5.42175C5.11977 38.2734 4.87488 38.5183 4.87488 38.8203V44.8617C4.87488 45.1637 5.11977 45.4086 5.42175 45.4086Z" fill="#FF9C33"/>
<path d="M50.5783 41.2942H47.1349C50.0679 37.4995 51.6721 32.8235 51.6721 28.0001C51.6721 16.0081 41.9159 6.25195 29.9239 6.25195C25.76 6.25195 21.7126 7.43266 18.2193 9.66631C17.9648 9.82906 17.8904 10.1672 18.053 10.4217C18.2159 10.6762 18.554 10.7507 18.8084 10.5878C22.1255 8.4668 25.9692 7.3457 29.9239 7.3457C41.3128 7.3457 50.5783 16.6112 50.5783 28.0001C50.5783 32.8686 48.8576 37.5789 45.7297 41.2942H40.4998C39.8967 41.2942 39.4061 41.7848 39.4061 42.3879V46.3508C36.4953 47.8573 33.2249 48.6545 29.924 48.6545C25.0398 48.6545 20.3167 46.9233 16.5943 43.7764V38.8203C16.5943 38.2172 16.1036 37.7266 15.5005 37.7266H11.7008C10.1108 34.7523 9.26956 31.3974 9.26956 28.0001C9.26956 23.888 10.4727 19.9242 12.7494 16.5236H15.5004C16.1035 16.5236 16.5942 16.0329 16.5942 15.4298V9.38839C16.5942 8.7853 16.1035 8.29464 15.5004 8.29464H5.42175C4.81866 8.29464 4.328 8.7853 4.328 9.38839V15.4297C4.328 16.0328 4.81866 16.5235 5.42175 16.5235H11.4473C9.30456 19.9654 8.17581 23.9134 8.17581 28.0001C8.17581 31.382 8.9678 34.7245 10.4692 37.7266H5.42175C4.81866 37.7266 4.328 38.2172 4.328 38.8203V44.8617C4.328 45.4647 4.81866 45.9554 5.42175 45.9554H15.5003C16.0026 45.9554 16.4259 45.6146 16.5536 45.1524C20.363 48.123 25.0678 49.7481 29.9238 49.7481C33.2103 49.7481 36.4687 48.9972 39.4059 47.574V48.4292C39.4059 49.0323 39.8965 49.523 40.4996 49.523H45.6465C45.9486 49.523 46.1934 49.2781 46.1934 48.9761C46.1934 48.6741 45.9486 48.4292 45.6465 48.4292H40.4996V42.3878H50.5781V48.4292H48.7508C48.4487 48.4292 48.2039 48.6741 48.2039 48.9761C48.2039 49.2781 48.4487 49.523 48.7508 49.523H50.5781C51.1812 49.523 51.6718 49.0323 51.6718 48.4292V42.3878C51.6721 41.7848 51.1813 41.2942 50.5783 41.2942ZM5.42175 9.38839H15.5003V15.4297H5.42175V9.38839ZM15.5004 44.8618H5.42175V38.8204H15.5003V44.8618H15.5004Z" fill="#0000CB"/>
<path d="M9.98545 41.2842H7.87134C7.56924 41.2842 7.32446 41.0393 7.32446 40.7373C7.32446 40.4353 7.56924 40.1904 7.87134 40.1904H9.98545C10.2875 40.1904 10.5323 40.4353 10.5323 40.7373C10.5323 41.0393 10.2875 41.2842 9.98545 41.2842Z" fill="white"/>
<path d="M13.0508 43.4922H7.87134C7.56924 43.4922 7.32446 43.2473 7.32446 42.9453C7.32446 42.6433 7.56924 42.3984 7.87134 42.3984H13.0508C13.3529 42.3984 13.5977 42.6433 13.5977 42.9453C13.5977 43.2473 13.3529 43.4922 13.0508 43.4922Z" fill="white"/>
<path d="M50.0314 13.6143C49.1267 13.6143 48.3907 12.8783 48.3907 11.9736C48.3907 11.069 49.1267 10.333 50.0314 10.333C50.936 10.333 51.672 11.069 51.672 11.9736C51.672 12.8783 50.936 13.6143 50.0314 13.6143ZM50.0314 11.4268C49.7298 11.4268 49.4845 11.6721 49.4845 11.9736C49.4845 12.2752 49.7298 12.5205 50.0314 12.5205C50.3329 12.5205 50.5782 12.2752 50.5782 11.9736C50.5782 11.6721 50.3329 11.4268 50.0314 11.4268Z" fill="#FF6C6C"/>
<path d="M19.0829 6.45801C18.1782 6.45801 17.4423 5.72202 17.4423 4.81738C17.4423 3.91274 18.1782 3.17676 19.0829 3.17676C19.9875 3.17676 20.7235 3.91274 20.7235 4.81738C20.7235 5.72202 19.9875 6.45801 19.0829 6.45801ZM19.0829 4.27051C18.7813 4.27051 18.536 4.51584 18.536 4.81738C18.536 5.11893 18.7813 5.36426 19.0829 5.36426C19.3844 5.36426 19.6298 5.11893 19.6298 4.81738C19.6298 4.51584 19.3844 4.27051 19.0829 4.27051Z" fill="#FF6C6C"/>
<path d="M5.68368 22.6792C5.57092 22.6792 5.45815 22.6444 5.36223 22.5747L4.94026 22.268L4.51807 22.5747C4.32645 22.714 4.0669 22.714 3.87528 22.5747C3.68354 22.4355 3.60337 22.1886 3.67665 21.9633L3.83787 21.467L3.4159 21.1603C3.22417 21.0211 3.144 20.7742 3.21728 20.5489C3.29045 20.3236 3.50045 20.171 3.73735 20.171H4.25918L4.42051 19.6748C4.49368 19.4495 4.70368 19.2969 4.94059 19.2969C5.1775 19.2969 5.38749 19.4495 5.46067 19.6748L5.62199 20.171H6.14382C6.38073 20.171 6.59073 20.3236 6.6639 20.5489C6.73718 20.7742 6.65701 21.0211 6.46528 21.1603L6.0432 21.467L6.20442 21.9632C6.2777 22.1885 6.19753 22.4354 6.00579 22.5746C5.90921 22.6444 5.79645 22.6792 5.68368 22.6792Z" fill="#FF9C33"/>
<path d="M46.2361 8.45165C46.1233 8.45165 46.0105 8.41687 45.9146 8.3472L45.4926 8.04051L45.0704 8.3472C44.8788 8.48643 44.6193 8.48643 44.4276 8.3472C44.2359 8.20796 44.1557 7.9611 44.229 7.73579L44.3902 7.23944L43.9682 6.93276C43.7765 6.79352 43.6964 6.54666 43.7696 6.32135C43.8428 6.09604 44.0528 5.94346 44.2897 5.94346H44.8116L44.9729 5.44723C45.0461 5.22191 45.2561 5.06934 45.493 5.06934C45.7299 5.06934 45.9399 5.22191 46.013 5.44723L46.1744 5.94346H46.6962C46.9331 5.94346 47.1431 6.09604 47.2163 6.32135C47.2896 6.54666 47.2094 6.79352 47.0176 6.93276L46.5956 7.23955L46.7568 7.73579C46.8301 7.9611 46.7499 8.20796 46.5582 8.3472C46.4617 8.41687 46.3489 8.45165 46.2361 8.45165Z" fill="#6C6CFF"/>
<path d="M16.2557 52.3734C16.1429 52.3734 16.0302 52.3386 15.9343 52.269L15.5122 51.9623L15.0901 52.269C14.8985 52.4082 14.6389 52.4082 14.4473 52.269C14.2556 52.1297 14.1754 51.8829 14.2487 51.6576L14.4099 51.1613L13.9878 50.8546C13.7961 50.7154 13.7159 50.4685 13.7892 50.2432C13.8623 50.0179 14.0723 49.8653 14.3093 49.8653H14.8311L14.9924 49.3691C15.0656 49.1438 15.2756 48.9912 15.5125 48.9912C15.7494 48.9912 15.9594 49.1438 16.0326 49.3691L16.194 49.8654H16.7157C16.9526 49.8654 17.1626 50.018 17.2358 50.2433C17.3091 50.4686 17.2289 50.7155 17.0373 50.8547L16.6152 51.1614L16.7764 51.6577C16.8497 51.883 16.7695 52.1298 16.5779 52.2691C16.4813 52.3385 16.3685 52.3734 16.2557 52.3734Z" fill="#FF6C6C"/>
<defs>
<linearGradient id="paint0_linear_91_6305" x1="3.01239" y1="49.916" x2="42.9336" y2="9.99476" gradientUnits="userSpaceOnUse">
<stop stop-color="#FFD8D8" stop-opacity="0"/>
<stop offset="0.9981" stop-color="#FFB2B2"/>
</linearGradient>
</defs>
</svg>
