<svg width="57" height="56" viewBox="0 0 57 56" fill="none" xmlns="http://www.w3.org/2000/svg">
<g clip-path="url(#clip0_91_6467)">
<path d="M47.2277 37.1545C32.115 31.1491 47.1331 25.0848 41.9573 18.4323C40.8711 17.0361 37.5154 16.3033 38.3605 14.1636C39.7003 10.7715 45.8811 11.4806 46.8144 7.35981C48.4933 -0.0525337 34.8732 -1.01842 23.4321 0.779919C10.9749 2.73795 4.14925 8.22245 7.39692 12.9293C10.8195 17.8896 21.6636 16.3135 22.8795 20.976C24.7715 28.2311 3.44739 30.9566 5.03551 42.367C6.93 55.9789 30.5839 58.126 41.2232 54.3308C45.7933 52.7006 52.1589 47.5343 52.7752 43.7481C53.2692 40.7123 50.0858 38.2903 47.2277 37.1545Z" fill="url(#paint0_linear_91_6467)"/>
<path opacity="0.1" d="M8.28931 37.0236V43.2959C8.28931 43.5978 8.5342 43.8427 8.83618 43.8427H9.37846C9.37813 43.8507 9.37606 43.8583 9.37606 43.8665V45.9988C9.37606 46.3008 9.62095 46.5457 9.92293 46.5457C10.2249 46.5457 10.4698 46.3008 10.4698 45.9988V43.8665C10.4698 43.8584 10.4677 43.8508 10.4674 43.8427H11.0096C11.3116 43.8427 11.5564 43.5978 11.5564 43.2959V37.0236C11.5564 36.7217 11.3116 36.4768 11.0096 36.4768H10.4674C10.4677 36.4688 10.4698 36.4612 10.4698 36.453V34.127C10.4698 33.825 10.2249 33.5801 9.92293 33.5801C9.62095 33.5801 9.37606 33.825 9.37606 34.127V36.453C9.37606 36.4611 9.37813 36.4687 9.37846 36.4768H8.83618C8.53409 36.4768 8.28931 36.7217 8.28931 37.0236Z" fill="#2626BC"/>
<path opacity="0.1" d="M50.0036 53.8955C50.6077 53.8955 51.0974 53.4058 51.0974 52.8017V50.1052C51.0974 49.5011 50.6077 49.0115 50.0036 49.0115C50.6077 49.0115 51.0974 48.5218 51.0974 47.9177V45.2212C51.0974 44.6171 50.6077 44.1274 50.0036 44.1274C50.6077 44.1274 51.0974 43.6378 51.0974 43.0337V40.3372C51.0974 39.7331 50.6077 39.2434 50.0036 39.2434C50.6077 39.2434 51.0974 38.7537 51.0974 38.1497V35.4531C51.0974 34.849 50.6077 34.3594 50.0036 34.3594H39.8694C45.0305 34.0968 49.1343 29.8288 49.1343 24.6025C49.1343 21.4763 47.666 18.6934 45.3813 16.9051L49.6411 12.6454V13.9772C49.6411 14.8833 50.3756 15.6179 51.2817 15.6179C52.1877 15.6179 52.9223 14.8833 52.9223 13.9772V8.68457C52.9223 7.77851 52.1877 7.04395 51.2817 7.04395H45.989C45.083 7.04395 44.3484 7.77851 44.3484 8.68457C44.3484 9.59063 45.083 10.3252 45.989 10.3252H47.3209L42.3485 15.2976C41.4077 14.9962 40.4053 14.8328 39.3645 14.8328C35.9473 14.8328 32.9405 16.5876 31.1944 19.2448H24.9657C24.5306 19.2448 24.1134 19.4178 23.8057 19.7254L23.1221 20.409V17.3281C23.1221 17.0262 22.8772 16.7813 22.5752 16.7813H22.0331C22.0334 16.7733 22.0355 16.7657 22.0355 16.7576V13.7144C22.0355 13.4124 21.7906 13.1675 21.4886 13.1675C21.1866 13.1675 20.9417 13.4124 20.9417 13.7144V16.7576C20.9417 16.7657 20.9438 16.7733 20.9441 16.7813H20.402C20.1 16.7813 19.8551 17.0262 19.8551 17.3281V23.6762L17.3393 26.1919V26.0861C17.3393 25.7841 17.0945 25.5393 16.7925 25.5393H16.2503C16.2506 25.5313 16.2527 25.5237 16.2527 25.5155V16.7423C16.2527 16.4404 16.0078 16.1955 15.7058 16.1955C15.4038 16.1955 15.159 16.4404 15.159 16.7423V25.5155C15.159 25.5236 15.161 25.5312 15.1614 25.5393H14.6192C14.3264 25.5393 14.0894 25.7699 14.075 26.0592L12.9647 24.9489C12.657 24.6412 12.2397 24.4683 11.8046 24.4683C11.3694 24.4683 10.9523 24.6412 10.6446 24.9489L5.33544 30.258C4.69483 30.8987 4.69483 31.9375 5.33544 32.5782C5.6558 32.8986 6.07569 33.0588 6.49547 33.0588C6.91525 33.0588 7.33525 32.8987 7.6555 32.5782L11.8045 28.4292L14.0723 30.6969V38.9208C14.0723 39.2228 14.3172 39.4677 14.6192 39.4677H15.1614C15.161 39.4757 15.159 39.4833 15.159 39.4915V41.6238C15.159 41.9258 15.4038 42.1707 15.7058 42.1707C16.0078 42.1707 16.2527 41.9258 16.2527 41.6238V39.4915C16.2527 39.4834 16.2506 39.4758 16.2503 39.4677H16.7925C17.0945 39.4677 17.3393 39.2228 17.3393 38.9208V30.8324L19.8665 28.3052C19.9177 28.554 20.138 28.741 20.402 28.741H20.9441C20.9438 28.749 20.9417 28.7565 20.9417 28.7646V39.4896C20.9417 39.7916 21.1866 40.0365 21.4886 40.0365C21.7906 40.0365 22.0355 39.7916 22.0355 39.4896V28.7644C22.0355 28.7563 22.0334 28.7488 22.0331 28.7408H22.5752C22.8772 28.7408 23.1221 28.4959 23.1221 28.1939V25.0493L25.6454 22.526H29.8167C29.6718 23.1952 29.5948 23.8898 29.5948 24.6024C29.5948 29.8287 33.6987 34.0965 38.8597 34.3593H28.7256C28.1215 34.3593 27.6319 34.8489 27.6319 35.453V38.1495C27.6319 38.7536 28.1215 39.2433 28.7256 39.2433C28.1215 39.2433 27.6319 39.733 27.6319 40.337V43.0336C27.6319 43.6376 28.1215 44.1273 28.7256 44.1273H18.2495C17.6454 44.1273 17.1557 44.617 17.1557 45.2211V47.9176C17.1557 48.5217 17.6454 49.0114 18.2495 49.0114H7.7733C7.16922 49.0114 6.67955 49.501 6.67955 50.1051V52.8016C6.67955 53.4057 7.16922 53.8954 7.7733 53.8954L50.0036 53.8955Z" fill="#2626BC"/>
<path d="M51.2818 4.41895H45.9891C45.0831 4.41895 44.3485 5.15351 44.3485 6.05957C44.3485 6.96563 45.0831 7.7002 45.9891 7.7002H47.321L38.4013 16.6198H24.9659C24.5308 16.6198 24.1136 16.7928 23.8059 17.1004L15.7735 25.1327L12.9645 22.3237C12.6569 22.0161 12.2396 21.8431 11.8045 21.8431C11.3693 21.8431 10.9522 22.0161 10.6445 22.3237L5.33532 27.6329C4.69471 28.2736 4.69471 29.3124 5.33532 29.9531C5.65567 30.2734 6.07557 30.4337 6.49535 30.4337C6.91513 30.4337 7.33513 30.2736 7.65538 29.9531L11.8044 25.8041L14.6134 28.613C15.254 29.2537 16.2928 29.2537 16.9335 28.613L25.6455 19.9011H39.0809C39.516 19.9011 39.9333 19.7283 40.2409 19.4205L49.641 10.0204V11.3522C49.641 12.2583 50.3756 12.9929 51.2817 12.9929C52.1877 12.9929 52.9223 12.2583 52.9223 11.3522V6.05957C52.9224 5.15351 52.1878 4.41895 51.2818 4.41895Z" fill="#8399FE"/>
<path d="M29.0513 51.2834H7.77331C7.16924 51.2834 6.67957 50.7938 6.67957 50.1897V47.4932C6.67957 46.8891 7.16924 46.3994 7.77331 46.3994H29.0513C29.6554 46.3994 30.1451 46.8891 30.1451 47.4932V50.1897C30.1451 50.7938 29.6554 51.2834 29.0513 51.2834Z" fill="#01ECA5"/>
<path d="M11.2978 51.2834H8.78455V49.6033C8.78455 48.9093 9.34717 48.3467 10.0412 48.3467C10.7351 48.3467 11.2978 48.9093 11.2978 49.6033V51.2834Z" fill="#00D890"/>
<path d="M15.4834 51.2834H12.9702V49.6033C12.9702 48.9093 13.5328 48.3467 14.2268 48.3467C14.9208 48.3467 15.4834 48.9093 15.4834 49.6033V51.2834Z" fill="#00D890"/>
<path d="M19.669 51.2834H17.1558V49.6033C17.1558 48.9093 17.7184 48.3467 18.4124 48.3467C19.1064 48.3467 19.669 48.9093 19.669 49.6033V51.2834Z" fill="#00D890"/>
<path d="M23.8545 51.2834H21.3413V49.6033C21.3413 48.9093 21.9039 48.3467 22.5979 48.3467C23.2919 48.3467 23.8545 48.9093 23.8545 49.6033V51.2834Z" fill="#00D890"/>
<path d="M28.0402 51.2834H25.527V49.6033C25.527 48.9093 26.0896 48.3467 26.7836 48.3467C27.4776 48.3467 28.0402 48.9093 28.0402 49.6033V51.2834Z" fill="#00D890"/>
<path d="M39.5275 51.2834H18.2495C17.6454 51.2834 17.1558 50.7938 17.1558 50.1897V47.4932C17.1558 46.8891 17.6454 46.3994 18.2495 46.3994H39.5275C40.1316 46.3994 40.6213 46.8891 40.6213 47.4932V50.1897C40.6213 50.7938 40.1316 51.2834 39.5275 51.2834Z" fill="#97FFD2"/>
<path d="M21.774 51.2834H19.2607V49.6033C19.2607 48.9093 19.8234 48.3467 20.5174 48.3467C21.2113 48.3467 21.774 48.9093 21.774 49.6033V51.2834Z" fill="#01ECA5"/>
<path d="M25.9596 51.2834H23.4464V49.6033C23.4464 48.9093 24.009 48.3467 24.703 48.3467C25.397 48.3467 25.9596 48.9093 25.9596 49.6033V51.2834Z" fill="#01ECA5"/>
<path d="M30.1452 51.2834H27.632V49.6033C27.632 48.9093 28.1946 48.3467 28.8886 48.3467C29.5826 48.3467 30.1452 48.9093 30.1452 49.6033V51.2834Z" fill="#01ECA5"/>
<path d="M34.3307 51.2834H31.8175V49.6033C31.8175 48.9093 32.3801 48.3467 33.0741 48.3467C33.7681 48.3467 34.3307 48.9093 34.3307 49.6033V51.2834Z" fill="#01ECA5"/>
<path d="M38.5164 51.2834H36.0032V49.6033C36.0032 48.9093 36.5658 48.3467 37.2598 48.3467C37.9538 48.3467 38.5164 48.9093 38.5164 49.6033V51.2834Z" fill="#01ECA5"/>
<path d="M50.0036 51.2834H28.7256C28.1215 51.2834 27.6318 50.7938 27.6318 50.1897V47.4932C27.6318 46.8891 28.1215 46.3994 28.7256 46.3994H50.0036C50.6077 46.3994 51.0974 46.8891 51.0974 47.4932V50.1897C51.0974 50.7938 50.6077 51.2834 50.0036 51.2834Z" fill="#01ECA5"/>
<path d="M32.25 51.2834H29.7368V49.6033C29.7368 48.9093 30.2994 48.3467 30.9934 48.3467C31.6874 48.3467 32.25 48.9093 32.25 49.6033V51.2834Z" fill="#00D890"/>
<path d="M36.4356 51.2834H33.9224V49.6033C33.9224 48.9093 34.485 48.3467 35.179 48.3467C35.873 48.3467 36.4356 48.9093 36.4356 49.6033V51.2834Z" fill="#00D890"/>
<path d="M40.6213 51.2834H38.108V49.6033C38.108 48.9093 38.6707 48.3467 39.3646 48.3467C40.0586 48.3467 40.6213 48.9093 40.6213 49.6033V51.2834Z" fill="#00D890"/>
<path d="M44.8068 51.2834H42.2936V49.6033C42.2936 48.9093 42.8562 48.3467 43.5502 48.3467C44.2442 48.3467 44.8068 48.9093 44.8068 49.6033V51.2834Z" fill="#00D890"/>
<path d="M48.9925 51.2834H46.4792V49.6033C46.4792 48.9093 47.0419 48.3467 47.7359 48.3467C48.4298 48.3467 48.9925 48.9093 48.9925 49.6033V51.2834Z" fill="#00D890"/>
<path d="M39.5275 46.3997H18.2495C17.6454 46.3997 17.1558 45.91 17.1558 45.3059V42.6094C17.1558 42.0053 17.6454 41.5156 18.2495 41.5156H39.5275C40.1316 41.5156 40.6213 42.0053 40.6213 42.6094V45.3059C40.6213 45.91 40.1316 46.3997 39.5275 46.3997Z" fill="#01ECA5"/>
<path d="M21.774 46.3996H19.2607V44.7195C19.2607 44.0255 19.8234 43.4629 20.5174 43.4629C21.2113 43.4629 21.774 44.0255 21.774 44.7195V46.3996Z" fill="#00D890"/>
<path d="M25.9596 46.3996H23.4464V44.7195C23.4464 44.0255 24.009 43.4629 24.703 43.4629C25.397 43.4629 25.9596 44.0255 25.9596 44.7195V46.3996Z" fill="#00D890"/>
<path d="M30.1452 46.3996H27.632V44.7195C27.632 44.0255 28.1946 43.4629 28.8886 43.4629C29.5826 43.4629 30.1452 44.0255 30.1452 44.7195V46.3996Z" fill="#00D890"/>
<path d="M34.3307 46.3996H31.8175V44.7195C31.8175 44.0255 32.3801 43.4629 33.0741 43.4629C33.7681 43.4629 34.3307 44.0255 34.3307 44.7195V46.3996Z" fill="#00D890"/>
<path d="M38.5164 46.3996H36.0032V44.7195C36.0032 44.0255 36.5658 43.4629 37.2598 43.4629C37.9538 43.4629 38.5164 44.0255 38.5164 44.7195V46.3996Z" fill="#00D890"/>
<path d="M50.0036 46.3997H28.7256C28.1215 46.3997 27.6318 45.91 27.6318 45.3059V42.6094C27.6318 42.0053 28.1215 41.5156 28.7256 41.5156H50.0036C50.6077 41.5156 51.0974 42.0053 51.0974 42.6094V45.3059C51.0974 45.91 50.6077 46.3997 50.0036 46.3997Z" fill="#97FFD2"/>
<path d="M32.25 46.3996H29.7368V44.7195C29.7368 44.0255 30.2994 43.4629 30.9934 43.4629C31.6874 43.4629 32.25 44.0255 32.25 44.7195V46.3996Z" fill="#01ECA5"/>
<path d="M36.4356 46.3996H33.9224V44.7195C33.9224 44.0255 34.485 43.4629 35.179 43.4629C35.873 43.4629 36.4356 44.0255 36.4356 44.7195V46.3996Z" fill="#01ECA5"/>
<path d="M40.6213 46.3996H38.108V44.7195C38.108 44.0255 38.6707 43.4629 39.3646 43.4629C40.0586 43.4629 40.6213 44.0255 40.6213 44.7195V46.3996Z" fill="#01ECA5"/>
<path d="M44.8068 46.3996H42.2936V44.7195C42.2936 44.0255 42.8562 43.4629 43.5502 43.4629C44.2442 43.4629 44.8068 44.0255 44.8068 44.7195V46.3996Z" fill="#01ECA5"/>
<path d="M48.9925 46.3996H46.4792V44.7195C46.4792 44.0255 47.0419 43.4629 47.7359 43.4629C48.4298 43.4629 48.9925 44.0255 48.9925 44.7195V46.3996Z" fill="#01ECA5"/>
<path d="M50.0036 41.5149H28.7256C28.1215 41.5149 27.6318 41.0252 27.6318 40.4211V37.7246C27.6318 37.1205 28.1215 36.6309 28.7256 36.6309H50.0036C50.6077 36.6309 51.0974 37.1205 51.0974 37.7246V40.4211C51.0974 41.0251 50.6077 41.5149 50.0036 41.5149Z" fill="#01ECA5"/>
<path d="M32.25 41.5148H29.7368V39.8347C29.7368 39.1408 30.2994 38.5781 30.9934 38.5781C31.6874 38.5781 32.25 39.1408 32.25 39.8347V41.5148Z" fill="#00D890"/>
<path d="M36.4356 41.5148H33.9224V39.8347C33.9224 39.1408 34.485 38.5781 35.179 38.5781C35.873 38.5781 36.4356 39.1408 36.4356 39.8347V41.5148Z" fill="#00D890"/>
<path d="M40.6213 41.5148H38.108V39.8347C38.108 39.1408 38.6707 38.5781 39.3646 38.5781C40.0586 38.5781 40.6213 39.1408 40.6213 39.8347V41.5148Z" fill="#00D890"/>
<path d="M44.8068 41.5148H42.2936V39.8347C42.2936 39.1408 42.8562 38.5781 43.5502 38.5781C44.2442 38.5781 44.8068 39.1408 44.8068 39.8347V41.5148Z" fill="#00D890"/>
<path d="M48.9925 41.5148H46.4792V39.8347C46.4792 39.1408 47.0419 38.5781 47.7359 38.5781C48.4298 38.5781 48.9925 39.1408 48.9925 39.8347V41.5148Z" fill="#00D890"/>
<path d="M50.0036 36.6311H28.7256C28.1215 36.6311 27.6318 36.1414 27.6318 35.5374V32.8408C27.6318 32.2367 28.1215 31.7471 28.7256 31.7471H50.0036C50.6077 31.7471 51.0974 32.2367 51.0974 32.8408V35.5374C51.0974 36.1414 50.6077 36.6311 50.0036 36.6311Z" fill="#97FFD2"/>
<path d="M32.25 36.6311H29.7368V34.9509C29.7368 34.257 30.2994 33.6943 30.9934 33.6943C31.6874 33.6943 32.25 34.257 32.25 34.9509V36.6311Z" fill="#01ECA5"/>
<path d="M36.4356 36.6311H33.9224V34.9509C33.9224 34.257 34.485 33.6943 35.179 33.6943C35.873 33.6943 36.4356 34.257 36.4356 34.9509V36.6311Z" fill="#01ECA5"/>
<path d="M40.6213 36.6311H38.108V34.9509C38.108 34.257 38.6707 33.6943 39.3646 33.6943C40.0586 33.6943 40.6213 34.257 40.6213 34.9509V36.6311Z" fill="#01ECA5"/>
<path d="M44.8068 36.6311H42.2936V34.9509C42.2936 34.257 42.8562 33.6943 43.5502 33.6943C44.2442 33.6943 44.8068 34.257 44.8068 34.9509V36.6311Z" fill="#01ECA5"/>
<path d="M48.9925 36.6311H46.4792V34.9509C46.4792 34.257 47.0419 33.6943 47.7359 33.6943C48.4298 33.6943 48.9925 34.257 48.9925 34.9509V36.6311Z" fill="#01ECA5"/>
<path d="M39.3647 31.7474C44.7603 31.7474 49.1344 27.3734 49.1344 21.9777C49.1344 16.5821 44.7603 12.208 39.3647 12.208C33.969 12.208 29.595 16.5821 29.595 21.9777C29.595 27.3734 33.969 31.7474 39.3647 31.7474Z" fill="#01ECA5"/>
<path d="M49.1344 21.9776C49.1344 21.9714 49.1344 21.9651 49.1344 21.959C49.1335 21.4884 48.7458 21.1098 48.2752 21.1098H48.0468C47.1067 21.1098 46.8495 19.8167 47.718 19.4569L47.929 19.3696C48.3638 19.1894 48.5772 18.6913 48.3979 18.2562C48.3955 18.2504 48.3932 18.2447 48.3908 18.2389C48.3884 18.2333 48.386 18.2275 48.3837 18.2218C48.2028 17.7873 47.6996 17.586 47.2649 17.766L47.0539 17.8534C46.1853 18.2131 45.4529 17.1169 46.1176 16.4522L46.2783 16.2915C46.6139 15.956 46.6141 15.4118 46.2789 15.0759C46.2748 15.0719 46.2707 15.0677 46.2666 15.0637C45.9308 14.7284 45.3866 14.7287 45.051 15.0642L44.8903 15.2249C44.2256 15.8897 43.1293 15.1572 43.4891 14.2886L43.5761 14.0788C43.7577 13.6404 43.5496 13.1375 43.1115 12.9555C43.1061 12.9533 43.1007 12.951 43.0954 12.9488C42.6569 12.7676 42.1541 12.9761 41.9725 13.4145L41.8856 13.6244C41.5259 14.493 40.2327 14.2357 40.2327 13.2956V13.0673C40.2327 12.5966 39.8542 12.2089 39.3835 12.208C39.3773 12.208 39.3711 12.208 39.3649 12.208C39.3588 12.208 39.3525 12.208 39.3463 12.208C38.8757 12.2089 38.4972 12.5966 38.4972 13.0673V13.2956C38.4972 14.2357 37.204 14.493 36.8443 13.6244L36.7569 13.4134C36.5767 12.9787 36.0787 12.7653 35.6436 12.9445C35.6378 12.9469 35.6321 12.9492 35.6263 12.9516C35.6206 12.9541 35.6148 12.9565 35.6091 12.9588C35.1747 13.1397 34.9733 13.6428 35.1533 14.0776L35.2407 14.2885C35.6005 15.1571 34.5042 15.8896 33.8395 15.2248L33.6789 15.0641C33.3433 14.7286 32.7992 14.7283 32.4633 15.0636C32.4592 15.0676 32.4551 15.0718 32.451 15.0758C32.1158 15.4116 32.116 15.9559 32.4516 16.2914L32.6122 16.4521C33.277 17.1169 32.5445 18.2131 31.676 17.8533L31.4661 17.7663C31.0277 17.5848 30.5248 17.7928 30.3428 18.231C30.3406 18.2363 30.3383 18.2417 30.3361 18.247C30.1549 18.6855 30.3635 19.1883 30.8019 19.3699L31.0117 19.4568C31.8803 19.8166 31.623 21.1097 30.683 21.1097H30.4546C29.9839 21.1097 29.5962 21.4883 29.5953 21.9589V21.9775V21.9961C29.5963 22.4667 29.9839 22.8453 30.4546 22.8453H30.683C31.623 22.8453 31.8803 24.1384 31.0117 24.4981L30.8008 24.5855C30.366 24.7657 30.1526 25.2638 30.3319 25.699C30.3343 25.7047 30.3366 25.7105 30.339 25.7161C30.3414 25.7218 30.3438 25.7276 30.3461 25.7333C30.527 26.1678 31.0301 26.3691 31.4649 26.1891L31.6759 26.1017C32.5444 25.742 33.2769 26.8382 32.6121 27.5029L32.4514 27.6636C32.1159 27.9991 32.1157 28.5433 32.4509 28.8792C32.4549 28.8833 32.4591 28.8874 32.4631 28.8914C32.7989 29.2266 33.3432 29.2264 33.6787 28.8909L33.8394 28.7302C34.5042 28.0654 35.6005 28.7979 35.2406 29.6664L35.1537 29.8763C34.9721 30.3147 35.1801 30.8176 35.6183 30.9996C35.6237 31.0018 35.629 31.0041 35.6344 31.0063C36.0729 31.1875 36.5757 30.9789 36.7572 30.5406L36.8442 30.3307C37.2039 29.4621 38.497 29.7194 38.497 30.6595V30.8878C38.497 31.3585 38.8756 31.7462 39.3462 31.7471H39.3648C39.3648 31.7471 39.3773 31.7471 39.3834 31.7471C39.8541 31.7462 40.2326 31.3585 40.2326 30.8878V30.6595C40.2326 29.7194 41.5257 29.4621 41.8855 30.3307L41.9729 30.5417C42.153 30.9764 42.6511 31.1898 43.0863 31.0106C43.092 31.0082 43.0978 31.0059 43.1035 31.0034C43.1092 31.001 43.115 30.9986 43.1207 30.9963C43.5551 30.8154 43.7564 30.3123 43.5764 29.8775L43.489 29.6666C43.1293 28.798 44.2256 28.0655 44.8902 28.7303L45.0509 28.891C45.3865 29.2265 45.9306 29.2268 46.2665 28.8915C46.2707 28.8875 46.2747 28.8833 46.2787 28.8793C46.614 28.5435 46.6138 27.9992 46.2782 27.6637L46.1175 27.503C45.4527 26.8382 46.1852 25.742 47.0538 26.1018L47.2637 26.1888C47.702 26.3703 48.2049 26.1623 48.3869 25.7241C48.3891 25.7188 48.3914 25.7134 48.3936 25.7081C48.5749 25.2696 48.3663 24.7668 47.9279 24.5852L47.718 24.4983C46.8495 24.1385 47.1067 22.8454 48.0468 22.8454H48.2752C48.7458 22.8454 49.1335 22.4668 49.1344 21.9962C49.1344 21.9901 49.1344 21.9838 49.1344 21.9776Z" fill="#97FFD2"/>
<path d="M39.3647 29.3059C43.412 29.3059 46.693 26.0249 46.693 21.9776C46.693 17.9304 43.412 14.6494 39.3647 14.6494C35.3175 14.6494 32.0365 17.9304 32.0365 21.9776C32.0365 26.0249 35.3175 29.3059 39.3647 29.3059Z" fill="#01ECA5"/>
<path d="M40.2782 21.2771H40.0657V19.8499H41.3911C41.7783 19.8499 42.0921 19.536 42.0921 19.1489C42.0921 18.7617 41.7782 18.4479 41.3911 18.4479H40.0657V18.0955C40.0657 17.7083 39.7518 17.3945 39.3647 17.3945C38.9775 17.3945 38.6637 17.7084 38.6637 18.0955V18.4479H38.4512C37.2846 18.4479 36.3356 19.397 36.3356 20.5636C36.3356 21.7302 37.2846 22.6792 38.4512 22.6792H38.6637V24.1064H37.3383C36.9511 24.1064 36.6373 24.4203 36.6373 24.8074C36.6373 25.1946 36.9512 25.5084 37.3383 25.5084H38.6637V25.8608C38.6637 26.248 38.9776 26.5618 39.3647 26.5618C39.7519 26.5618 40.0657 26.2479 40.0657 25.8608V25.5084H40.2782C41.4448 25.5084 42.3939 24.5594 42.3939 23.3928C42.3939 22.2262 41.4448 21.2771 40.2782 21.2771ZM38.4511 21.2771C38.0577 21.2771 37.7375 20.957 37.7375 20.5635C37.7375 20.1699 38.0577 19.8498 38.4511 19.8498H38.6636V21.277H38.4511V21.2771ZM40.2782 24.1064H40.0657V22.6792H40.2782C40.6717 22.6792 40.9919 22.9993 40.9919 23.3929C40.9919 23.7864 40.6717 24.1064 40.2782 24.1064Z" fill="white"/>
<path d="M14.619 36.8425H16.7924C17.0944 36.8425 17.3393 36.5976 17.3393 36.2957V23.4609C17.3393 23.159 17.0944 22.9141 16.7924 22.9141H14.619C14.317 22.9141 14.0721 23.159 14.0721 23.4609V36.2957C14.0721 36.5976 14.317 36.8425 14.619 36.8425Z" fill="#01ECA5"/>
<path d="M14.619 36.8424H16.7924C17.0944 36.8424 17.3393 36.5975 17.3393 36.2955V34.4668H14.0721V36.2955C14.0721 36.5975 14.317 36.8424 14.619 36.8424Z" fill="#97FFD2"/>
<path d="M8.83618 41.2175H11.0096C11.3116 41.2175 11.5564 40.9726 11.5564 40.6707V34.3984C11.5564 34.0965 11.3116 33.8516 11.0096 33.8516H8.83618C8.5342 33.8516 8.28931 34.0965 8.28931 34.3984V40.6707C8.28931 40.9726 8.53409 41.2175 8.83618 41.2175Z" fill="#FF5BA8"/>
<path d="M8.83618 41.2174H11.0096C11.3116 41.2174 11.5564 40.9725 11.5564 40.6705V38.8418H8.28931V40.6705C8.28931 40.9725 8.53409 41.2174 8.83618 41.2174Z" fill="#FF7EB8"/>
<path d="M20.4019 26.116H22.5752C22.8772 26.116 23.1221 25.8711 23.1221 25.5691V14.7031C23.1221 14.4011 22.8772 14.1562 22.5752 14.1562H20.4019C20.0999 14.1562 19.855 14.4011 19.855 14.7031V25.5691C19.855 25.8711 20.0999 26.116 20.4019 26.116Z" fill="#01ECA5"/>
<path d="M20.4019 26.1159H22.5752C22.8772 26.1159 23.1221 25.871 23.1221 25.569V23.7402H19.855V25.569C19.855 25.871 20.0999 26.1159 20.4019 26.1159Z" fill="#97FFD2"/>
<path d="M51.2821 3.87207H45.9894C44.7832 3.87207 43.8019 4.85338 43.8019 6.05957C43.8019 7.26576 44.7832 8.24707 45.9894 8.24707H46.0002L42.1922 12.0551C41.2934 11.7986 40.3448 11.6611 39.3648 11.6611C35.8707 11.6611 32.7773 13.4075 30.9102 16.0729H24.9664C24.4993 16.0729 24.0422 16.2283 23.6691 16.5028V14.7033C23.6691 14.1002 23.1785 13.6095 22.5754 13.6095H22.0355V11.0895C22.0355 10.7875 21.7906 10.5426 21.4886 10.5426C21.1867 10.5426 20.9418 10.7875 20.9418 11.0895V13.6095H20.4019C19.7988 13.6095 19.3081 14.1002 19.3081 14.7033V16.0536C19.3081 16.3556 19.553 16.6005 19.855 16.6005C20.157 16.6005 20.4019 16.3556 20.4019 16.0536V14.7033H22.5753V25.5692H20.4019V19.2365C20.4019 18.9345 20.157 18.6896 19.855 18.6896C19.553 18.6896 19.3081 18.9345 19.3081 19.2365V20.8253L17.502 22.6306C17.3108 22.467 17.0632 22.3675 16.7924 22.3675H16.2525V14.1176C16.2525 13.8156 16.0076 13.5707 15.7057 13.5707C15.4037 13.5707 15.1588 13.8156 15.1588 14.1176V22.3675H14.6189C14.3828 22.3675 14.1645 22.4435 13.9855 22.5713L13.3506 21.9363C12.9366 21.5239 12.3874 21.2966 11.8041 21.2966C11.2208 21.2966 10.6717 21.5238 10.2569 21.9369L4.94753 27.2463C4.09605 28.0992 4.09605 29.487 4.94786 30.3403C5.36075 30.7533 5.91014 30.9807 6.49508 30.9807C7.08002 30.9807 7.62941 30.7533 8.0423 30.3403L11.8043 26.5774L13.5253 28.2985V36.296C13.5253 36.8991 14.0159 37.3897 14.619 37.3897H15.1589V38.9988C15.1589 39.3008 15.4038 39.5457 15.7058 39.5457C16.0078 39.5457 16.2526 39.3008 16.2526 38.9988V37.3897H16.7925C17.3956 37.3897 17.8863 36.8991 17.8863 36.296V28.4339L19.8241 26.4961C19.992 26.6012 20.1897 26.663 20.402 26.663H20.9419V36.8647C20.9419 37.1667 21.1868 37.4116 21.4888 37.4116C21.7907 37.4116 22.0356 37.1667 22.0356 36.8647V26.663H22.5755C23.1786 26.663 23.6693 26.1723 23.6693 25.5692V22.651L25.8723 20.448H29.1618C29.0873 20.9473 29.0482 21.458 29.0482 21.9778C29.0482 26.0067 31.37 29.5031 34.7457 31.2006H28.7257C27.821 31.2006 27.085 31.9366 27.085 32.8412V35.5378C27.085 35.9582 27.2454 36.3409 27.5062 36.6315C27.2453 36.9221 27.085 37.3048 27.085 37.7253V40.4218C27.085 40.8422 27.2454 41.2249 27.5062 41.5156C27.2453 41.8062 27.085 42.1889 27.085 42.6093V45.3058C27.085 45.4978 27.1199 45.6813 27.1807 45.8527H18.2495C17.948 45.8527 17.7026 45.6074 17.7026 45.3058V42.6093C17.7026 42.3078 17.948 42.0624 18.2495 42.0624H24.6315C24.9335 42.0624 25.1784 41.8175 25.1784 41.5156C25.1784 41.2136 24.9335 40.9687 24.6315 40.9687H18.2495C17.3449 40.9687 16.6089 41.7047 16.6089 42.6093V45.3058C16.6089 45.4978 16.6438 45.6813 16.7046 45.8527H7.77334C6.8687 45.8527 6.13272 46.5887 6.13272 47.4933V50.1899C6.13272 51.0945 6.8687 51.8305 7.77334 51.8305H50.0037C50.9083 51.8305 51.6443 51.0945 51.6443 50.1899V47.4933C51.6443 47.0729 51.484 46.6902 51.2231 46.3996C51.4841 46.109 51.6443 45.7263 51.6443 45.3058V42.6093C51.6443 42.1889 51.484 41.8062 51.2231 41.5156C51.4841 41.2249 51.6443 40.8422 51.6443 40.4218V37.7253C51.6443 37.3048 51.484 36.9221 51.2231 36.6315C51.4841 36.3409 51.6443 35.9582 51.6443 35.5378V32.8411C51.6443 31.9365 50.9083 31.2005 50.0037 31.2005H43.9838C47.3593 29.503 49.6812 26.0066 49.6812 21.9777C49.6812 18.903 48.3287 16.1387 46.1879 14.2469L49.0946 11.3403V11.3522C49.0946 12.5584 50.0759 13.5397 51.2821 13.5397C52.4882 13.5397 53.4696 12.5584 53.4696 11.3522V6.05957C53.4696 4.85338 52.4882 3.87207 51.2821 3.87207ZM12.1909 25.4172C12.0883 25.3146 11.9492 25.2571 11.8041 25.2571C11.6591 25.2571 11.52 25.3147 11.4174 25.4173L7.2688 29.567C7.06252 29.7733 6.78777 29.8869 6.49508 29.8869C6.20239 29.8869 5.92764 29.7733 5.72169 29.5672C5.29556 29.1404 5.29556 28.4459 5.72136 28.0194L11.0298 22.711C11.2373 22.5042 11.5123 22.3904 11.8043 22.3904C12.0962 22.3904 12.3711 22.5042 12.578 22.7104L13.5253 23.6577V26.7516L12.1909 25.4172ZM16.7924 36.296H14.619V23.4618C14.619 23.4616 14.619 23.4615 14.619 23.4612H16.7924V36.296ZM17.8862 23.7931L19.3081 22.3716V25.465L17.8862 26.887V23.7931ZM25.6457 19.3541C25.5006 19.3541 25.3615 19.4117 25.2589 19.5142L23.6691 21.104V18.0112L24.1934 17.487C24.3962 17.2833 24.678 17.1666 24.9664 17.1666H30.241C29.8773 17.8537 29.5886 18.5865 29.3866 19.3541H25.6457ZM50.5506 37.7252V40.4217C50.5506 40.7232 50.3052 40.9686 50.0037 40.9686H28.7257C28.4241 40.9686 28.1788 40.7232 28.1788 40.4217V37.7252C28.1788 37.4236 28.4241 37.1783 28.7257 37.1783H50.0037C50.3052 37.1783 50.5506 37.4236 50.5506 37.7252ZM28.1788 45.3058V42.6093C28.1788 42.3078 28.4241 42.0624 28.7257 42.0624H50.0037C50.3052 42.0624 50.5506 42.3078 50.5506 42.6093V45.3058C50.5506 45.6074 50.3052 45.8527 50.0037 45.8527H28.7257C28.4241 45.8527 28.1788 45.6073 28.1788 45.3058ZM27.1807 50.7367H18.2495C17.948 50.7367 17.7026 50.4914 17.7026 50.1899V47.4933C17.7026 47.1918 17.948 46.9465 18.2495 46.9465H27.1807C27.1199 47.1179 27.085 47.3014 27.085 47.4933V50.1899C27.085 50.3818 27.1198 50.5654 27.1807 50.7367ZM7.22647 50.1899V47.4933C7.22647 47.1918 7.4718 46.9465 7.77334 46.9465H16.7046C16.6438 47.1179 16.6089 47.3014 16.6089 47.4933V50.1899C16.6089 50.3818 16.6438 50.5654 16.7046 50.7367H7.77334C7.4718 50.7367 7.22647 50.4914 7.22647 50.1899ZM50.5506 50.1899C50.5506 50.4914 50.3052 50.7367 50.0037 50.7367H28.7257C28.4241 50.7367 28.1788 50.4914 28.1788 50.1899V47.4933C28.1788 47.1918 28.4241 46.9465 28.7257 46.9465H50.0037C50.3052 46.9465 50.5506 47.1918 50.5506 47.4933V50.1899ZM50.0037 32.2943C50.3052 32.2943 50.5506 32.5396 50.5506 32.8411V35.5377C50.5506 35.8392 50.3052 36.0845 50.0037 36.0845H28.7257C28.4241 36.0845 28.1788 35.8392 28.1788 35.5377V32.8411C28.1788 32.5396 28.4241 32.2943 28.7257 32.2943H50.0037ZM48.5874 21.9777C48.5874 27.0632 44.4501 31.2005 39.3646 31.2005C34.2791 31.2005 30.1417 27.0632 30.1417 21.9777C30.1417 16.8922 34.2791 12.7549 39.3646 12.7549C44.4501 12.7549 48.5874 16.8922 48.5874 21.9777ZM52.3758 11.3522C52.3758 11.9553 51.8852 12.446 51.2821 12.446C50.679 12.446 50.1883 11.9553 50.1883 11.3522V10.02C50.1883 9.79888 50.0551 9.59938 49.8508 9.51473C49.6465 9.43029 49.4112 9.47688 49.2548 9.63329L45.3259 13.5621C44.7095 13.1242 44.0431 12.7526 43.3372 12.4569L47.7072 8.08684C47.8637 7.93043 47.9105 7.69516 47.8258 7.49085C47.7412 7.28654 47.5418 7.15332 47.3205 7.15332H45.9894C45.3863 7.15332 44.8957 6.66266 44.8957 6.05957C44.8957 5.45648 45.3863 4.96582 45.9894 4.96582H51.2821C51.8852 4.96582 52.3758 5.45648 52.3758 6.05957V11.3522Z" fill="#2626BC"/>
<path d="M9.92281 31.8301C9.62082 31.8301 9.37593 32.075 9.37593 32.377V33.3048H8.83606C8.23297 33.3048 7.74231 33.7954 7.74231 34.3985V40.6707C7.74231 41.2738 8.23297 41.7645 8.83606 41.7645H9.37593V43.3736C9.37593 43.6756 9.62082 43.9205 9.92281 43.9205C10.2248 43.9205 10.4697 43.6756 10.4697 43.3736V41.7645H11.0096C11.6127 41.7645 12.1033 41.2738 12.1033 40.6707V34.3985C12.1033 33.7954 11.6127 33.3048 11.0096 33.3048H10.4697V32.377C10.4697 32.075 10.2248 31.8301 9.92281 31.8301ZM11.0096 40.6707H8.83617V34.3985H11.0096V40.6707Z" fill="#2626BC"/>
<path d="M16.4926 10.9091C16.3526 10.9091 16.2128 10.8557 16.1059 10.7489L15.563 10.206L15.02 10.7489C14.8064 10.9624 14.4602 10.9624 14.2466 10.7489C14.033 10.5353 14.033 10.1891 14.2466 9.97555L15.1763 9.04587C15.3899 8.83237 15.7361 8.83237 15.9497 9.04587L16.8794 9.97555C17.093 10.1892 17.093 10.5354 16.8794 10.7489C16.7725 10.8557 16.6326 10.9091 16.4926 10.9091Z" fill="#6583FE"/>
<path d="M5.7844 44.6825C5.6444 44.6825 5.50451 44.6291 5.39765 44.5224L4.85471 43.9794L4.31177 44.5224C4.09816 44.7359 3.75199 44.7359 3.53838 44.5224C3.32477 44.3088 3.32477 43.9625 3.53838 43.749L4.46807 42.8193C4.68168 42.6058 5.02785 42.6058 5.24146 42.8193L6.17115 43.749C6.38476 43.9626 6.38476 44.3089 6.17115 44.5224C6.06429 44.6291 5.92429 44.6825 5.7844 44.6825Z" fill="#FF7EB8"/>
<path d="M9.01175 6.82971C8.91867 6.82971 8.8245 6.80598 8.73821 6.756L8.72738 6.74976C8.46597 6.59839 8.37683 6.26381 8.52821 6.0024C8.67958 5.741 9.01416 5.65185 9.27556 5.80323L9.28639 5.80946C9.5478 5.96084 9.63694 6.29542 9.48556 6.55682C9.38417 6.73193 9.20053 6.82971 9.01175 6.82971Z" fill="#00D890"/>
<path d="M11.7354 8.40196C11.6426 8.40196 11.5487 8.37834 11.4626 8.32868L11.4519 8.32245C11.1903 8.17151 11.1006 7.83704 11.2515 7.57542C11.4023 7.31379 11.7368 7.22411 11.9985 7.37504L12.0093 7.38128C12.2709 7.53221 12.3606 7.86668 12.2096 8.12831C12.1084 8.30375 11.9244 8.40196 11.7354 8.40196Z" fill="#00D890"/>
<path d="M9.01175 6.82971C8.91867 6.82971 8.8245 6.80598 8.73821 6.756L8.72738 6.74976C8.46597 6.59839 8.37683 6.26381 8.52821 6.0024C8.67958 5.741 9.01416 5.65185 9.27556 5.80323L9.28639 5.80946C9.5478 5.96084 9.63694 6.29542 9.48556 6.55682C9.38417 6.73193 9.20053 6.82971 9.01175 6.82971Z" fill="#00D890"/>
<path d="M11.7354 8.40196C11.6426 8.40196 11.5487 8.37834 11.4626 8.32868L11.4519 8.32245C11.1903 8.17151 11.1006 7.83704 11.2515 7.57542C11.4023 7.31379 11.7368 7.22411 11.9985 7.37504L12.0093 7.38128C12.2709 7.53221 12.3606 7.86668 12.2096 8.12831C12.1084 8.30375 11.9244 8.40196 11.7354 8.40196Z" fill="#00D890"/>
<path d="M11.7257 6.82965C11.5374 6.82965 11.3542 6.73231 11.2526 6.55774C11.1006 6.29677 11.189 5.96198 11.4501 5.81005L11.4608 5.80382C11.7219 5.6519 12.0566 5.74027 12.2085 6.00135C12.3604 6.26232 12.272 6.59712 12.011 6.74904L12.0002 6.75527C11.9138 6.8057 11.8191 6.82965 11.7257 6.82965Z" fill="#00D890"/>
<path d="M9.00211 8.40195C8.81268 8.40195 8.62838 8.30341 8.52732 8.12731C8.37693 7.86536 8.46727 7.53111 8.72922 7.38072L8.74005 7.37448C9.002 7.22409 9.33625 7.31444 9.48664 7.57639C9.63703 7.83834 9.54669 8.17259 9.28474 8.32298L9.27391 8.32922C9.18805 8.37844 9.09443 8.40195 9.00211 8.40195Z" fill="#00D890"/>
<path d="M11.7257 6.82965C11.5374 6.82965 11.3542 6.73231 11.2526 6.55774C11.1006 6.29677 11.189 5.96198 11.4501 5.81005L11.4608 5.80382C11.7219 5.6519 12.0566 5.74027 12.2085 6.00135C12.3604 6.26232 12.272 6.59712 12.011 6.74904L12.0002 6.75527C11.9138 6.8057 11.8191 6.82965 11.7257 6.82965Z" fill="#00D890"/>
<path d="M9.00211 8.40195C8.81268 8.40195 8.62838 8.30341 8.52732 8.12731C8.37693 7.86536 8.46727 7.53111 8.72922 7.38072L8.74005 7.37448C9.002 7.22409 9.33625 7.31444 9.48664 7.57639C9.63703 7.83834 9.54669 8.17259 9.28474 8.32298L9.27391 8.32922C9.18805 8.37844 9.09443 8.40195 9.00211 8.40195Z" fill="#00D890"/>
<path d="M10.3688 6.04665C10.0668 6.04665 9.8219 5.80176 9.8219 5.49977V5.4873C9.8219 5.18532 10.0668 4.94043 10.3688 4.94043C10.6708 4.94043 10.9156 5.18532 10.9156 5.4873V5.49977C10.9156 5.80176 10.6708 6.04665 10.3688 6.04665Z" fill="#00D890"/>
<path d="M10.3688 9.19118C10.0668 9.19118 9.8219 8.94629 9.8219 8.64431V8.63184C9.8219 8.32985 10.0668 8.08496 10.3688 8.08496C10.6708 8.08496 10.9156 8.32985 10.9156 8.63184V8.64431C10.9156 8.94629 10.6708 9.19118 10.3688 9.19118Z" fill="#00D890"/>
<path d="M35.7922 7.61294C35.6999 7.61294 35.6063 7.58953 35.5204 7.5402L35.5096 7.53397C35.2477 7.38358 35.1573 7.04933 35.3077 6.78738C35.4581 6.52542 35.7925 6.43497 36.0543 6.58547L36.0651 6.5917C36.3271 6.74209 36.4174 7.07635 36.267 7.3383C36.1659 7.51439 35.9817 7.61294 35.7922 7.61294Z" fill="#FF7EB8"/>
<path d="M38.5158 9.18518C38.4227 9.18518 38.3285 9.16145 38.2422 9.11146L38.2314 9.10523C37.97 8.95385 37.8809 8.61928 38.0322 8.35787C38.1836 8.09646 38.5182 8.00732 38.7796 8.1587L38.7904 8.16493C39.0518 8.31631 39.141 8.65089 38.9896 8.91229C38.8881 9.08729 38.7046 9.18518 38.5158 9.18518Z" fill="#FF7EB8"/>
<path d="M35.7922 7.61294C35.6999 7.61294 35.6063 7.58953 35.5204 7.5402L35.5096 7.53397C35.2477 7.38358 35.1573 7.04933 35.3077 6.78738C35.4581 6.52542 35.7925 6.43497 36.0543 6.58547L36.0651 6.5917C36.3271 6.74209 36.4174 7.07635 36.267 7.3383C36.1659 7.51439 35.9817 7.61294 35.7922 7.61294Z" fill="#FF7EB8"/>
<path d="M38.5158 9.18518C38.4227 9.18518 38.3285 9.16145 38.2422 9.11146L38.2314 9.10523C37.97 8.95385 37.8809 8.61928 38.0322 8.35787C38.1836 8.09646 38.5182 8.00732 38.7796 8.1587L38.7904 8.16493C39.0518 8.31631 39.141 8.65089 38.9896 8.91229C38.8881 9.08729 38.7046 9.18518 38.5158 9.18518Z" fill="#FF7EB8"/>
<path d="M38.5061 7.61294C38.3167 7.61294 38.1324 7.51439 38.0313 7.3383C37.881 7.07635 37.9713 6.74209 38.2333 6.5917L38.2441 6.58547C38.506 6.43497 38.8403 6.52542 38.9907 6.78738C39.1411 7.04933 39.0507 7.38358 38.7888 7.53397L38.7779 7.5402C38.6921 7.58953 38.5985 7.61294 38.5061 7.61294Z" fill="#FF7EB8"/>
<path d="M35.7825 9.18516C35.5938 9.18516 35.4102 9.08727 35.3087 8.91227C35.1573 8.65097 35.2465 8.31639 35.5079 8.16491L35.5187 8.15867C35.7802 8.0073 36.1146 8.09655 36.2661 8.35785C36.4175 8.61914 36.3283 8.95372 36.0669 9.10521L36.0561 9.11144C35.9698 9.16142 35.8755 9.18516 35.7825 9.18516Z" fill="#FF7EB8"/>
<path d="M38.5061 7.61294C38.3167 7.61294 38.1324 7.51439 38.0313 7.3383C37.881 7.07635 37.9713 6.74209 38.2333 6.5917L38.2441 6.58547C38.506 6.43497 38.8403 6.52542 38.9907 6.78738C39.1411 7.04933 39.0507 7.38358 38.7888 7.53397L38.7779 7.5402C38.6921 7.58953 38.5985 7.61294 38.5061 7.61294Z" fill="#FF7EB8"/>
<path d="M35.7825 9.18516C35.5938 9.18516 35.4102 9.08727 35.3087 8.91227C35.1573 8.65097 35.2465 8.31639 35.5079 8.16491L35.5187 8.15867C35.7802 8.0073 36.1146 8.09655 36.2661 8.35785C36.4175 8.61914 36.3283 8.95372 36.0669 9.10521L36.0561 9.11144C35.9698 9.16142 35.8755 9.18516 35.7825 9.18516Z" fill="#FF7EB8"/>
<path d="M37.1492 6.82985C36.8472 6.82985 36.6023 6.58496 36.6023 6.28298V6.27051C36.6023 5.96852 36.8472 5.72363 37.1492 5.72363C37.4512 5.72363 37.696 5.96852 37.696 6.27051V6.28298C37.696 6.58507 37.4512 6.82985 37.1492 6.82985Z" fill="#FF7EB8"/>
<path d="M37.1492 9.97438C36.8472 9.97438 36.6023 9.72949 36.6023 9.42751V9.41504C36.6023 9.11305 36.8472 8.86816 37.1492 8.86816C37.4512 8.86816 37.696 9.11305 37.696 9.41504V9.42751C37.696 9.72949 37.4512 9.97438 37.1492 9.97438Z" fill="#FF7EB8"/>
<path d="M50.6841 27.5328C50.5918 27.5328 50.4981 27.5094 50.4123 27.4601L50.4015 27.4538C50.1395 27.3034 50.0492 26.9692 50.1996 26.7072C50.3499 26.4454 50.6843 26.3549 50.9462 26.5053L50.957 26.5116C51.2189 26.6619 51.3093 26.9962 51.1589 27.2581C51.0578 27.4342 50.8736 27.5328 50.6841 27.5328Z" fill="#FF7EB8"/>
<path d="M53.4078 29.1051C53.3147 29.1051 53.2205 29.0814 53.1342 29.0314L53.1234 29.0252C52.862 28.8738 52.7728 28.5392 52.9242 28.2778C53.0756 28.0164 53.4102 27.9272 53.6716 28.0786L53.6824 28.0849C53.9438 28.2362 54.0329 28.5708 53.8816 28.8322C53.7801 29.0073 53.5964 29.1051 53.4078 29.1051Z" fill="#FF7EB8"/>
<path d="M50.6841 27.5328C50.5918 27.5328 50.4981 27.5094 50.4123 27.4601L50.4015 27.4538C50.1395 27.3034 50.0492 26.9692 50.1996 26.7072C50.3499 26.4454 50.6843 26.3549 50.9462 26.5053L50.957 26.5116C51.2189 26.6619 51.3093 26.9962 51.1589 27.2581C51.0578 27.4342 50.8736 27.5328 50.6841 27.5328Z" fill="#FF7EB8"/>
<path d="M53.4078 29.1051C53.3147 29.1051 53.2205 29.0814 53.1342 29.0314L53.1234 29.0252C52.862 28.8738 52.7728 28.5392 52.9242 28.2778C53.0756 28.0164 53.4102 27.9272 53.6716 28.0786L53.6824 28.0849C53.9438 28.2362 54.0329 28.5708 53.8816 28.8322C53.7801 29.0073 53.5964 29.1051 53.4078 29.1051Z" fill="#FF7EB8"/>
<path d="M53.3981 27.5328C53.2087 27.5328 53.0244 27.4343 52.9233 27.2582C52.7729 26.9962 52.8633 26.662 53.1252 26.5116L53.136 26.5053C53.398 26.355 53.7323 26.4453 53.8826 26.7073C54.033 26.9692 53.9427 27.3035 53.6807 27.4538L53.6699 27.4601C53.584 27.5094 53.4904 27.5328 53.3981 27.5328Z" fill="#FF7EB8"/>
<path d="M50.6745 29.1051C50.4857 29.1051 50.3022 29.0072 50.2007 28.8322C50.0493 28.5709 50.1385 28.2363 50.3999 28.0848L50.4107 28.0786C50.6721 27.9272 51.0067 28.0165 51.1581 28.2778C51.3094 28.5391 51.2203 28.8736 50.9589 29.0251L50.9481 29.0314C50.8618 29.0813 50.7675 29.1051 50.6745 29.1051Z" fill="#FF7EB8"/>
<path d="M53.3981 27.5328C53.2087 27.5328 53.0244 27.4343 52.9233 27.2582C52.7729 26.9962 52.8633 26.662 53.1252 26.5116L53.136 26.5053C53.398 26.355 53.7323 26.4453 53.8826 26.7073C54.033 26.9692 53.9427 27.3035 53.6807 27.4538L53.6699 27.4601C53.584 27.5094 53.4904 27.5328 53.3981 27.5328Z" fill="#FF7EB8"/>
<path d="M50.6745 29.1051C50.4857 29.1051 50.3022 29.0072 50.2007 28.8322C50.0493 28.5709 50.1385 28.2363 50.3999 28.0848L50.4107 28.0786C50.6721 27.9272 51.0067 28.0165 51.1581 28.2778C51.3094 28.5391 51.2203 28.8736 50.9589 29.0251L50.9481 29.0314C50.8618 29.0813 50.7675 29.1051 50.6745 29.1051Z" fill="#FF7EB8"/>
<path d="M52.0411 26.7498C51.7392 26.7498 51.4943 26.5049 51.4943 26.2029V26.1904C51.4943 25.8884 51.7392 25.6436 52.0411 25.6436C52.3431 25.6436 52.588 25.8884 52.588 26.1904V26.2029C52.588 26.5049 52.3431 26.7498 52.0411 26.7498Z" fill="#FF7EB8"/>
<path d="M52.0411 29.8943C51.7392 29.8943 51.4943 29.6494 51.4943 29.3474V29.335C51.4943 29.033 51.7392 28.7881 52.0411 28.7881C52.3431 28.7881 52.588 29.033 52.588 29.335V29.3474C52.588 29.6494 52.3431 29.8943 52.0411 29.8943Z" fill="#FF7EB8"/>
</g>
<defs>
<linearGradient id="paint0_linear_91_6467" x1="8.05383" y1="48.7512" x2="49.6706" y2="7.13461" gradientUnits="userSpaceOnUse">
<stop offset="0.0485" stop-color="#D2DEFF"/>
<stop offset="0.9993" stop-color="#DCFDEE"/>
</linearGradient>
<clipPath id="clip0_91_6467">
<rect width="56" height="56" fill="white" transform="translate(0.666626)"/>
</clipPath>
</defs>
</svg>
